<?xml version="1.0" encoding="utf-8"?>
<!DOCTYPE svg PUBLIC "-//W3C//DTD SVG 1.1//EN" "http://www.w3.org/Graphics/SVG/1.1/DTD/svg11.dtd">
<svg version="1.1" id="Layer_1" xmlns="http://www.w3.org/2000/svg" xmlns:xlink="http://www.w3.org/1999/xlink" x="0px" y="0px"
	 width="410.514px" height="35.496px" viewBox="0 0 410.514 35.496" enable-background="new 0 0 410.514 35.496"
	 xml:space="preserve">
<g id="spatial_nl">
</g>
<g>
	<path fill="#F9FAF6" stroke="#DCDCDC" stroke-width="0.25" stroke-miterlimit="10" d="M21.391,0v28.922h0.021
		c0,0.836-0.692,1.529-1.522,1.529H1.523C0.692,30.451,0,29.758,0,28.922V0"/>
</g>
<g>
	<g>
		<g enable-background="new    ">
			<path fill="#8DB63C" d="M36.008,16.479h-0.604c-0.123,0-0.185,0.049-0.185,0.146c0,0.062,0.055,0.165,0.165,0.312
				c0.11,0.146,0.22,0.349,0.329,0.604c0.111,0.257,0.166,0.558,0.166,0.898c0,0.623-0.113,1.15-0.34,1.585
				c-0.227,0.434-0.478,0.729-0.751,0.889c-0.274,0.159-0.525,0.3-0.751,0.422c-0.228,0.122-0.34,0.228-0.34,0.312
				c0,0.062,0.123,0.132,0.366,0.211c0.244,0.079,0.514,0.168,0.808,0.266c0.293,0.098,0.562,0.314,0.806,0.65
				c0.245,0.336,0.366,0.755,0.366,1.256c0,0.904-0.412,1.637-1.236,2.199c-0.825,0.562-2.031,0.843-3.619,0.843
				c-1.394,0-2.492-0.27-3.3-0.808c-0.806-0.536-1.21-1.094-1.21-1.666c0-0.295,0.089-0.538,0.266-0.733
				c0.179-0.195,0.42-0.293,0.726-0.293c0.244,0,0.494,0.079,0.752,0.238c0.256,0.157,0.488,0.332,0.695,0.521
				c0.208,0.189,0.508,0.364,0.897,0.522c0.392,0.158,0.824,0.237,1.301,0.237c1.395,0,2.091-0.385,2.091-1.153
				c0-0.281-0.125-0.511-0.375-0.688c-0.251-0.177-0.581-0.309-0.99-0.394c-0.41-0.086-0.858-0.171-1.349-0.257
				c-0.487-0.086-0.977-0.218-1.466-0.396c-0.488-0.177-0.938-0.402-1.347-0.678c-0.41-0.274-0.74-0.675-0.99-1.2
				s-0.375-1.161-0.375-1.906c0-1.21,0.396-2.195,1.191-2.96c0.793-0.764,1.936-1.146,3.427-1.146c0.342,0,0.733,0.037,1.173,0.109
				c0.44,0.073,0.764,0.109,0.971,0.109h2.677c0.307,0,0.514,0.064,0.624,0.193c0.109,0.127,0.165,0.388,0.165,0.777
				c0,0.379-0.056,0.637-0.165,0.771C36.466,16.412,36.277,16.479,36.008,16.479z M33.443,18.586c0-0.672-0.192-1.21-0.577-1.613
				c-0.386-0.401-0.963-0.604-1.731-0.604c-0.722,0-1.274,0.208-1.659,0.623c-0.385,0.416-0.576,0.947-0.576,1.595
				c0,0.66,0.191,1.2,0.576,1.622c0.385,0.421,0.938,0.632,1.659,0.632c0.745,0,1.316-0.211,1.714-0.632
				C33.244,19.787,33.443,19.246,33.443,18.586z"/>
			<path fill="#8DB63C" d="M46.271,21.665c0,0.244-0.079,0.507-0.237,0.788s-0.395,0.559-0.705,0.834
				c-0.312,0.274-0.754,0.501-1.328,0.678c-0.575,0.178-1.229,0.267-1.961,0.267c-1.455,0-2.606-0.461-3.455-1.385
				c-0.851-0.922-1.273-2.164-1.273-3.729c0-1.43,0.418-2.587,1.255-3.473c0.838-0.887,2.001-1.33,3.491-1.33
				c1.431,0,2.535,0.34,3.317,1.019c0.782,0.678,1.173,1.646,1.173,2.904c0,0.524-0.082,0.877-0.248,1.055
				c-0.164,0.177-0.437,0.267-0.814,0.267c-0.184,0-1.069-0.004-2.657-0.011c-1.588-0.006-2.449-0.009-2.584-0.009
				c-0.185,0-0.304,0.036-0.357,0.109c-0.055,0.073-0.082,0.195-0.082,0.367c0,0.622,0.22,1.143,0.66,1.558
				c0.439,0.415,1.001,0.623,1.686,0.623c0.429,0,0.788-0.052,1.081-0.155c0.294-0.104,0.514-0.227,0.66-0.367
				c0.146-0.14,0.28-0.283,0.403-0.431c0.121-0.146,0.268-0.271,0.438-0.376c0.172-0.104,0.38-0.155,0.623-0.155
				c0.258,0,0.475,0.086,0.65,0.257C46.183,21.14,46.271,21.372,46.271,21.665z M40.28,18.238h3.592
				c0.305,0,0.458-0.141,0.458-0.421c0-0.403-0.189-0.771-0.567-1.101c-0.379-0.33-0.924-0.495-1.632-0.495
				c-0.733,0-1.292,0.175-1.677,0.522c-0.386,0.348-0.577,0.718-0.577,1.108c0,0.146,0.026,0.248,0.083,0.303
				C40.013,18.21,40.12,18.238,40.28,18.238z"/>
			<path fill="#8DB63C" d="M52.3,24.231c-1.49,0-2.672-0.442-3.545-1.328c-0.875-0.886-1.312-2.074-1.312-3.565
				c0-1.637,0.399-2.88,1.199-3.729c0.801-0.849,1.982-1.279,3.547-1.292c1.576,0,2.777,0.416,3.603,1.246
				c0.824,0.831,1.235,2.078,1.235,3.738c0,1.368-0.424,2.532-1.272,3.491S53.756,24.231,52.3,24.231z M50.496,21.409
				c0.396,0.477,0.979,0.715,1.75,0.715c0.77,0,1.362-0.257,1.777-0.77c0.415-0.515,0.623-1.138,0.623-1.869
				c0-1.932-0.824-2.896-2.474-2.896c-0.783,0-1.357,0.275-1.724,0.825c-0.367,0.55-0.551,1.24-0.551,2.071
				C49.9,20.29,50.099,20.933,50.496,21.409z"/>
			<path fill="#8DB63C" d="M67.788,23.113c0,0.354-0.083,0.603-0.247,0.742c-0.166,0.141-0.456,0.211-0.871,0.211
				c-0.403,0-0.686-0.059-0.844-0.174c-0.158-0.116-0.263-0.32-0.312-0.614c-0.062-0.329-0.104-0.531-0.129-0.604
				c-0.025-0.072-0.073-0.109-0.146-0.109c-0.05,0-0.145,0.086-0.283,0.257c-0.142,0.172-0.301,0.364-0.478,0.577
				c-0.178,0.214-0.477,0.405-0.897,0.577c-0.422,0.172-0.914,0.257-1.477,0.257c-1.308,0-2.32-0.455-3.042-1.365
				c-0.721-0.91-1.082-2.159-1.082-3.748c0-1.466,0.379-2.639,1.138-3.519c0.758-0.881,1.711-1.319,2.858-1.319
				c0.586,0,1.09,0.067,1.513,0.2c0.422,0.136,0.715,0.281,0.879,0.44c0.166,0.158,0.309,0.306,0.432,0.439
				c0.121,0.135,0.213,0.201,0.275,0.201c0.108,0,0.164-0.073,0.164-0.22c0-0.062-0.007-0.224-0.019-0.486
				c-0.013-0.262-0.024-0.68-0.037-1.256c-0.013-0.574-0.019-1.265-0.019-2.069c0-0.294,0.098-0.507,0.294-0.642
				c0.195-0.136,0.531-0.203,1.008-0.203c0.488,0,0.836,0.064,1.045,0.192c0.207,0.129,0.312,0.347,0.312,0.651
				c0,0.158-0.007,2.019-0.019,5.58S67.788,22.673,67.788,23.113z M62.931,22.178c0.623,0,1.163-0.263,1.621-0.788
				c0.459-0.523,0.688-1.275,0.688-2.254c0-0.807-0.218-1.443-0.65-1.915c-0.433-0.471-0.969-0.706-1.604-0.706
				c-0.696,0-1.268,0.232-1.714,0.696c-0.445,0.465-0.669,1.149-0.669,2.054c0,0.966,0.218,1.691,0.65,2.182
				C61.687,21.935,62.246,22.178,62.931,22.178z"/>
			<path fill="#8DB63C" d="M75.466,18.549V18.11c0-1.148-0.599-1.724-1.796-1.724c-0.306,0-0.571,0.04-0.798,0.119
				s-0.402,0.174-0.531,0.284c-0.128,0.109-0.234,0.25-0.32,0.421c-0.086,0.172-0.145,0.312-0.174,0.422
				c-0.031,0.11-0.059,0.247-0.083,0.412c-0.023,0.165-0.036,0.26-0.036,0.284c-0.074,0.403-0.488,0.605-1.246,0.605
				c-0.477,0-0.805-0.096-0.979-0.284c-0.178-0.189-0.267-0.492-0.267-0.907c0-0.306,0.036-0.603,0.109-0.889
				c0.073-0.287,0.211-0.591,0.412-0.907c0.201-0.318,0.465-0.597,0.788-0.834c0.323-0.238,0.758-0.435,1.302-0.587
				c0.543-0.152,1.164-0.229,1.859-0.229c1.418,0,2.483,0.326,3.199,0.979c0.714,0.653,1.07,1.688,1.07,3.106
				c-0.013,2.944-0.019,4.558-0.019,4.838c0,0.293-0.076,0.507-0.229,0.643c-0.152,0.135-0.455,0.201-0.907,0.201
				c-0.524,0-0.837-0.244-0.935-0.732c-0.11-0.514-0.184-0.776-0.221-0.788c-0.013-0.013-0.03-0.019-0.056-0.019
				c-0.049,0-0.151,0.092-0.312,0.273c-0.159,0.185-0.345,0.383-0.559,0.597c-0.215,0.214-0.562,0.412-1.046,0.596
				c-0.482,0.184-1.042,0.274-1.677,0.274c-0.854,0-1.549-0.218-2.08-0.649c-0.53-0.435-0.797-0.993-0.797-1.678
				c0-0.524,0.155-0.955,0.467-1.292c0.312-0.337,0.703-0.56,1.174-0.67c0.47-0.108,0.978-0.203,1.521-0.283
				c0.544-0.079,1.05-0.138,1.521-0.175c0.471-0.035,0.86-0.134,1.174-0.293C75.31,19.069,75.466,18.843,75.466,18.549z
				 M75.412,20.346c0-0.194-0.056-0.294-0.165-0.294c-0.062,0-0.155,0.034-0.284,0.103c-0.129,0.065-0.324,0.151-0.586,0.256
				c-0.264,0.104-0.561,0.192-0.889,0.266c-0.1,0.025-0.238,0.054-0.423,0.083c-0.184,0.03-0.313,0.056-0.395,0.073
				c-0.081,0.019-0.184,0.046-0.312,0.082c-0.128,0.037-0.224,0.073-0.283,0.11c-0.061,0.037-0.125,0.086-0.192,0.146
				c-0.067,0.062-0.112,0.132-0.138,0.211c-0.024,0.079-0.036,0.168-0.036,0.267c0,0.243,0.105,0.448,0.321,0.613
				c0.213,0.165,0.49,0.247,0.833,0.247c0.781,0,1.401-0.237,1.859-0.715C75.181,21.316,75.412,20.834,75.412,20.346z"/>
			<path fill="#8DB63C" d="M84.74,16.479h-1.484c-0.172,0-0.281,0.026-0.33,0.082s-0.073,0.155-0.073,0.303
				c0,0.366-0.003,1.143-0.009,2.327c-0.007,1.186-0.01,1.856-0.01,2.017c0,0.696,0.274,1.044,0.824,1.044
				c0.184,0,0.362-0.036,0.541-0.108c0.178-0.073,0.333-0.11,0.468-0.11c0.244,0,0.441,0.083,0.595,0.248
				c0.153,0.164,0.23,0.406,0.23,0.724c0,0.831-0.802,1.246-2.401,1.246c-0.929,0-1.626-0.231-2.089-0.696
				c-0.465-0.465-0.697-1.117-0.697-1.961c0-0.587-0.003-1.404-0.009-2.456c-0.007-1.051-0.009-1.808-0.009-2.271
				c0-0.257-0.086-0.385-0.258-0.385H79.37c-0.184,0-0.314-0.059-0.395-0.176c-0.08-0.114-0.119-0.332-0.119-0.649
				c0-0.513,0.195-0.8,0.586-0.861c0.562-0.085,0.845-0.257,0.845-0.513c0-0.171,0.002-0.479,0.009-0.926
				c0.006-0.446,0.009-0.748,0.009-0.907c0-0.366,0.104-0.632,0.312-0.797c0.207-0.165,0.537-0.248,0.987-0.248
				c0.453,0,0.776,0.08,0.974,0.237c0.194,0.16,0.293,0.416,0.293,0.771v1.832c0,0.195,0.092,0.293,0.273,0.293h1.649
				c0.244,0,0.418,0.066,0.521,0.202c0.104,0.135,0.155,0.392,0.155,0.77c0,0.379-0.055,0.637-0.164,0.771
				C85.198,16.412,85.008,16.479,84.74,16.479z"/>
			<path fill="#8DB63C" d="M92.73,18.549V18.11c0-1.148-0.599-1.724-1.796-1.724c-0.306,0-0.57,0.04-0.798,0.119
				c-0.226,0.079-0.402,0.174-0.531,0.284c-0.128,0.109-0.233,0.25-0.319,0.421c-0.086,0.172-0.146,0.312-0.175,0.422
				c-0.03,0.11-0.059,0.247-0.083,0.412c-0.023,0.165-0.035,0.26-0.035,0.284c-0.074,0.403-0.489,0.605-1.246,0.605
				c-0.478,0-0.806-0.096-0.98-0.284c-0.178-0.189-0.266-0.492-0.266-0.907c0-0.306,0.036-0.603,0.108-0.889
				c0.073-0.287,0.211-0.591,0.412-0.907c0.201-0.318,0.465-0.597,0.788-0.834c0.323-0.238,0.758-0.435,1.302-0.587
				c0.543-0.152,1.164-0.229,1.859-0.229c1.418,0,2.484,0.326,3.199,0.979c0.714,0.653,1.071,1.688,1.071,3.106
				c-0.014,2.944-0.02,4.558-0.02,4.838c0,0.293-0.076,0.507-0.229,0.643c-0.153,0.135-0.455,0.201-0.907,0.201
				c-0.525,0-0.837-0.244-0.936-0.732c-0.109-0.514-0.184-0.776-0.221-0.788c-0.012-0.013-0.03-0.019-0.055-0.019
				c-0.049,0-0.152,0.092-0.312,0.273c-0.159,0.185-0.345,0.383-0.559,0.597s-0.562,0.412-1.045,0.596
				c-0.483,0.184-1.042,0.274-1.677,0.274c-0.855,0-1.55-0.218-2.08-0.649c-0.531-0.435-0.798-0.993-0.798-1.678
				c0-0.524,0.155-0.955,0.468-1.292c0.312-0.337,0.703-0.56,1.173-0.67c0.47-0.108,0.978-0.203,1.521-0.283
				c0.544-0.079,1.051-0.138,1.521-0.175c0.471-0.035,0.861-0.134,1.174-0.293C92.574,19.069,92.73,18.843,92.73,18.549z
				 M92.675,20.346c0-0.194-0.055-0.294-0.165-0.294c-0.062,0-0.155,0.034-0.284,0.103c-0.129,0.065-0.324,0.151-0.586,0.256
				c-0.264,0.104-0.56,0.192-0.889,0.266c-0.1,0.025-0.238,0.054-0.422,0.083c-0.185,0.03-0.314,0.056-0.396,0.073
				c-0.081,0.019-0.184,0.046-0.312,0.082c-0.128,0.037-0.225,0.073-0.284,0.11s-0.125,0.086-0.192,0.146
				c-0.066,0.062-0.111,0.132-0.138,0.211c-0.024,0.079-0.036,0.168-0.036,0.267c0,0.243,0.106,0.448,0.321,0.613
				c0.213,0.165,0.491,0.247,0.833,0.247c0.782,0,1.402-0.237,1.86-0.715C92.444,21.316,92.675,20.834,92.675,20.346z"/>
		</g>
		<g enable-background="new    ">
			<path fill="#006F90" d="M99.859,22.729c0,0.952-0.513,1.43-1.538,1.43c-0.478,0-0.851-0.128-1.117-0.385
				c-0.271-0.257-0.404-0.604-0.404-1.045c0-0.916,0.489-1.374,1.467-1.374c0.599,0,1.015,0.112,1.246,0.339
				C99.744,21.919,99.859,22.264,99.859,22.729z"/>
			<path fill="#006F90" d="M104.24,11.713v1.888c0,0.367-0.007,0.703-0.02,1.01c-0.013,0.305-0.019,0.482-0.019,0.531
				c0,0.269,0.061,0.402,0.184,0.402c0.062,0,0.156-0.066,0.284-0.201s0.277-0.287,0.448-0.459c0.172-0.171,0.459-0.322,0.86-0.457
				c0.404-0.136,0.868-0.203,1.395-0.203c1.185,0,2.114,0.42,2.786,1.256c0.672,0.838,1.008,2.051,1.008,3.639
				c0,1.491-0.355,2.7-1.063,3.629s-1.667,1.393-2.877,1.393c-0.66,0-1.213-0.089-1.659-0.266c-0.444-0.177-0.744-0.375-0.896-0.596
				c-0.153-0.22-0.284-0.418-0.395-0.596s-0.195-0.267-0.258-0.267c-0.061,0-0.104,0.027-0.128,0.083
				c-0.023,0.055-0.055,0.192-0.091,0.412c-0.013,0.049-0.021,0.089-0.028,0.119c-0.006,0.03-0.013,0.07-0.019,0.119
				s-0.017,0.098-0.027,0.146c-0.049,0.27-0.162,0.455-0.339,0.56c-0.177,0.104-0.431,0.155-0.761,0.155
				c-0.392,0-0.662-0.075-0.815-0.229c-0.152-0.152-0.229-0.388-0.229-0.705c0-0.073-0.002-1.359-0.009-3.858
				c-0.008-2.498-0.01-5-0.01-7.505c0-0.354,0.102-0.612,0.304-0.778c0.2-0.164,0.559-0.248,1.071-0.248
				c0.537,0,0.89,0.08,1.054,0.238C104.158,11.084,104.24,11.347,104.24,11.713z M106.274,22.178c0.696,0,1.246-0.263,1.649-0.788
				c0.403-0.523,0.605-1.265,0.605-2.217c0-0.953-0.185-1.635-0.552-2.044c-0.365-0.409-0.897-0.614-1.594-0.614
				c-1.516,0-2.273,0.93-2.273,2.786c0,0.893,0.199,1.596,0.597,2.107C105.104,21.922,105.627,22.178,106.274,22.178z"/>
			<path fill="#006F90" d="M114.906,19.667v3.409c0,0.342-0.093,0.59-0.275,0.742c-0.184,0.152-0.525,0.229-1.025,0.229
				c-0.477,0-0.815-0.076-1.018-0.229c-0.201-0.152-0.303-0.4-0.303-0.742c0-1.43,0.006-2.733,0.019-3.913
				c0.013-1.179,0.024-2.086,0.036-2.722c0.013-0.636,0.019-1.001,0.019-1.101c0-0.305,0.073-0.516,0.221-0.632
				c0.146-0.116,0.41-0.175,0.789-0.175c0.378,0,0.635,0.062,0.77,0.184c0.134,0.123,0.231,0.36,0.293,0.715
				c0.073,0.478,0.165,0.716,0.275,0.716c0.061,0,0.147-0.082,0.266-0.247c0.115-0.165,0.25-0.353,0.402-0.561
				c0.151-0.207,0.395-0.394,0.725-0.559s0.708-0.248,1.138-0.248c0.378,0,0.651,0.083,0.823,0.248
				c0.171,0.165,0.256,0.441,0.256,0.834c0,0.403-0.069,0.718-0.211,0.943c-0.141,0.227-0.424,0.339-0.852,0.339
				C115.687,16.9,114.906,17.823,114.906,19.667z"/>
			<path fill="#006F90" d="M127.992,23.039c0,0.648-0.367,0.972-1.101,0.972c-0.379,0-0.65-0.072-0.815-0.22
				c-0.165-0.146-0.284-0.373-0.357-0.679c-0.012-0.062-0.027-0.137-0.045-0.229c-0.02-0.092-0.031-0.162-0.037-0.211
				s-0.019-0.101-0.037-0.155c-0.018-0.056-0.037-0.095-0.055-0.118c-0.02-0.024-0.046-0.037-0.082-0.037
				c-0.049,0-0.107,0.063-0.175,0.191c-0.068,0.128-0.159,0.284-0.274,0.469c-0.117,0.183-0.27,0.368-0.459,0.559
				c-0.188,0.19-0.467,0.349-0.834,0.477c-0.366,0.128-0.794,0.192-1.282,0.192c-2.126,0-3.188-1.344-3.188-4.032
				c0-0.953-0.004-1.716-0.01-2.291c-0.007-0.573-0.011-1.417-0.011-2.528c0-0.317,0.093-0.549,0.275-0.696
				c0.184-0.146,0.525-0.22,1.026-0.22c0.488,0,0.831,0.062,1.025,0.184c0.195,0.122,0.293,0.354,0.293,0.695
				c0,0.062-0.006,0.69-0.018,1.889c-0.014,1.197-0.02,1.979-0.02,2.346c0,1.613,0.557,2.419,1.667,2.419
				c1.295,0,1.943-1.008,1.943-3.022c0-0.904-0.006-1.723-0.02-2.456c-0.013-0.733-0.019-1.13-0.019-1.19
				c0-0.293,0.098-0.502,0.293-0.623c0.195-0.123,0.532-0.185,1.009-0.185c0.488,0,0.837,0.06,1.044,0.175
				c0.208,0.116,0.312,0.34,0.312,0.669c0,0.403-0.01,1.738-0.027,4.004C128,21.65,127.992,22.869,127.992,23.039z"/>
			<path fill="#006F90" d="M135.23,23.388l-1.521-2.548c-0.062-0.122-0.146-0.183-0.256-0.183c-0.136,0-0.228,0.061-0.275,0.183
				l-1.521,2.584c-0.136,0.257-0.271,0.432-0.412,0.522c-0.142,0.091-0.369,0.138-0.688,0.138c-0.158,0-0.332-0.003-0.521-0.009
				c-0.189-0.007-0.357-0.01-0.504-0.01c-0.185,0-0.324-0.046-0.422-0.138c-0.099-0.092-0.146-0.198-0.146-0.32
				c0-0.27,0.287-0.775,0.861-1.521c0.684-0.916,1.16-1.568,1.43-1.961c0.293-0.427,0.439-0.751,0.439-0.971
				c0-0.185-0.152-0.501-0.458-0.953c-0.281-0.415-0.647-0.947-1.101-1.595c-0.453-0.648-0.696-1.002-0.732-1.062
				c-0.173-0.244-0.257-0.465-0.257-0.66c0-0.269,0.158-0.402,0.478-0.402h1.136c0.27,0,0.482,0.053,0.642,0.156
				c0.158,0.104,0.312,0.295,0.458,0.576c0.122,0.232,0.303,0.58,0.54,1.045c0.238,0.464,0.39,0.751,0.449,0.861
				c0.307,0.562,0.508,0.843,0.605,0.843c0.085,0,0.19-0.104,0.319-0.312c0.13-0.208,0.363-0.637,0.705-1.283
				c0.074-0.134,0.132-0.241,0.176-0.32c0.042-0.079,0.101-0.188,0.174-0.33c0.072-0.141,0.141-0.271,0.202-0.395
				c0.17-0.317,0.315-0.528,0.438-0.633c0.122-0.104,0.33-0.155,0.623-0.155h1.229c0.268,0,0.401,0.117,0.401,0.349
				c0,0.062-0.006,0.122-0.018,0.184c-0.014,0.062-0.041,0.132-0.083,0.212c-0.043,0.079-0.079,0.144-0.11,0.192
				c-0.03,0.049-0.085,0.134-0.164,0.256c-0.08,0.122-0.145,0.221-0.192,0.294c-0.099,0.146-0.238,0.351-0.422,0.612
				c-0.184,0.264-0.316,0.462-0.402,0.597c-0.159,0.245-0.327,0.485-0.504,0.725c-0.179,0.237-0.307,0.412-0.386,0.521
				s-0.146,0.218-0.2,0.32c-0.057,0.104-0.083,0.198-0.083,0.284c0,0.135,0.052,0.296,0.154,0.485
				c0.104,0.188,0.396,0.632,0.871,1.329c0.207,0.305,0.418,0.602,0.633,0.889c0.214,0.287,0.405,0.54,0.576,0.761
				c0.172,0.22,0.271,0.349,0.293,0.385c0.232,0.317,0.351,0.562,0.351,0.732c0,0.281-0.238,0.422-0.715,0.422
				c-0.087,0-0.232-0.003-0.44-0.009c-0.208-0.007-0.385-0.01-0.531-0.01c-0.33,0-0.564-0.046-0.706-0.138
				C135.502,23.837,135.365,23.657,135.23,23.388z"/>
			<path fill="#006F90" d="M147.656,21.665c0,0.244-0.08,0.507-0.238,0.788s-0.396,0.559-0.705,0.834
				c-0.312,0.274-0.755,0.501-1.329,0.678c-0.575,0.178-1.228,0.267-1.961,0.267c-1.454,0-2.606-0.461-3.455-1.385
				c-0.849-0.922-1.272-2.164-1.272-3.729c0-1.43,0.419-2.587,1.255-3.473c0.838-0.887,2.001-1.33,3.491-1.33
				c1.431,0,2.535,0.34,3.316,1.019c0.782,0.678,1.174,1.646,1.174,2.904c0,0.524-0.083,0.877-0.248,1.055
				c-0.165,0.177-0.438,0.267-0.814,0.267c-0.184,0-1.069-0.004-2.657-0.011c-1.589-0.006-2.45-0.009-2.584-0.009
				c-0.184,0-0.303,0.036-0.357,0.109s-0.083,0.195-0.083,0.367c0,0.622,0.221,1.143,0.66,1.558c0.44,0.415,1.001,0.623,1.688,0.623
				c0.427,0,0.787-0.052,1.08-0.155c0.294-0.104,0.514-0.227,0.659-0.367c0.146-0.14,0.281-0.283,0.403-0.431s0.27-0.271,0.44-0.376
				c0.17-0.104,0.378-0.155,0.623-0.155c0.256,0,0.473,0.086,0.649,0.257C147.567,21.14,147.656,21.372,147.656,21.665z
				 M141.663,18.238h3.593c0.305,0,0.457-0.141,0.457-0.421c0-0.403-0.189-0.771-0.567-1.101c-0.379-0.33-0.923-0.495-1.632-0.495
				c-0.731,0-1.291,0.175-1.676,0.522s-0.578,0.718-0.578,1.108c0,0.146,0.027,0.248,0.083,0.303
				C141.397,18.21,141.504,18.238,141.663,18.238z"/>
			<path fill="#006F90" d="M149.214,21.922V11.677c0-0.66,0.434-0.99,1.302-0.99c0.451,0,0.771,0.074,0.962,0.222
				c0.188,0.146,0.284,0.415,0.284,0.806c0,0.379-0.013,2.084-0.037,5.113c-0.023,3.03-0.037,4.688-0.037,4.967
				c0,0.318,0.104,0.478,0.312,0.478c0.036,0,0.098-0.007,0.184-0.02c0.084-0.012,0.164-0.018,0.238-0.018
				c0.476,0,0.714,0.28,0.714,0.843c0,0.782-0.55,1.173-1.648,1.173c-0.745,0-1.312-0.208-1.695-0.623
				S149.214,22.644,149.214,21.922z"/>
			<path fill="#006F90" d="M153.906,21.922V11.677c0-0.66,0.434-0.99,1.301-0.99c0.451,0,0.771,0.074,0.963,0.222
				c0.188,0.146,0.283,0.415,0.283,0.806c0,0.379-0.013,2.084-0.037,5.113c-0.023,3.03-0.036,4.688-0.036,4.967
				c0,0.318,0.104,0.478,0.312,0.478c0.037,0,0.099-0.007,0.185-0.02c0.085-0.012,0.164-0.018,0.238-0.018
				c0.477,0,0.715,0.28,0.715,0.843c0,0.782-0.551,1.173-1.65,1.173c-0.744,0-1.31-0.208-1.695-0.623
				C154.097,23.211,153.906,22.644,153.906,21.922z"/>
			<path fill="#006F90" d="M167.174,21.665c0,0.244-0.079,0.507-0.238,0.788c-0.157,0.281-0.394,0.559-0.705,0.834
				c-0.312,0.274-0.754,0.501-1.327,0.678c-0.575,0.178-1.229,0.267-1.962,0.267c-1.454,0-2.605-0.461-3.454-1.385
				c-0.851-0.922-1.273-2.164-1.273-3.729c0-1.43,0.418-2.587,1.255-3.473c0.837-0.887,2.001-1.33,3.491-1.33
				c1.43,0,2.535,0.34,3.316,1.019c0.782,0.678,1.174,1.646,1.174,2.904c0,0.524-0.082,0.877-0.248,1.055
				c-0.164,0.177-0.438,0.267-0.814,0.267c-0.184,0-1.07-0.004-2.658-0.011c-1.588-0.006-2.448-0.009-2.584-0.009
				c-0.184,0-0.303,0.036-0.356,0.109c-0.056,0.073-0.082,0.195-0.082,0.367c0,0.622,0.22,1.143,0.66,1.558
				c0.438,0.415,1.001,0.623,1.686,0.623c0.428,0,0.788-0.052,1.081-0.155c0.294-0.104,0.513-0.227,0.66-0.367
				c0.146-0.14,0.28-0.283,0.403-0.431c0.121-0.146,0.268-0.271,0.438-0.376s0.379-0.155,0.623-0.155
				c0.257,0,0.474,0.086,0.65,0.257C167.086,21.14,167.174,21.372,167.174,21.665z M161.181,18.238h3.592
				c0.306,0,0.458-0.141,0.458-0.421c0-0.403-0.188-0.771-0.566-1.101c-0.379-0.33-0.924-0.495-1.632-0.495
				c-0.733,0-1.292,0.175-1.678,0.522c-0.385,0.348-0.576,0.718-0.576,1.108c0,0.146,0.026,0.248,0.083,0.303
				C160.916,18.21,161.022,18.238,161.181,18.238z"/>
			<path fill="#006F90" d="M169.263,20.786c0.256,0,0.488,0.082,0.696,0.247s0.388,0.346,0.54,0.541
				c0.153,0.195,0.422,0.376,0.807,0.541s0.854,0.247,1.402,0.247c1.088,0,1.631-0.307,1.631-0.916c0-0.307-0.171-0.525-0.513-0.66
				c-0.344-0.135-1.069-0.293-2.182-0.477c-1.223-0.208-2.06-0.557-2.512-1.046c-0.451-0.487-0.678-1.1-0.678-1.832
				c0-1.002,0.399-1.769,1.201-2.301c0.799-0.53,1.762-0.797,2.886-0.797c1.331,0,2.333,0.244,3.006,0.733
				c0.672,0.487,1.008,1.094,1.008,1.813c0,0.636-0.396,0.953-1.19,0.953c-0.415,0-0.733-0.195-0.952-0.587
				c-0.394-0.66-1.021-0.989-1.89-0.989c-1.088,0-1.631,0.329-1.631,0.989c0,0.366,0.149,0.647,0.449,0.843
				c0.299,0.196,0.943,0.379,1.934,0.55c1.431,0.245,2.386,0.575,2.868,0.99s0.725,0.983,0.725,1.704
				c0,0.843-0.373,1.539-1.117,2.089c-0.746,0.55-1.846,0.825-3.3,0.825c-1.356,0-2.38-0.271-3.069-0.815
				c-0.69-0.544-1.035-1.103-1.035-1.677C168.347,21.11,168.652,20.786,169.263,20.786z"/>
			<path fill="#006F90" d="M191.879,21.665c0,0.244-0.079,0.507-0.238,0.788c-0.158,0.281-0.394,0.559-0.705,0.834
				c-0.312,0.274-0.754,0.501-1.328,0.678c-0.574,0.178-1.229,0.267-1.961,0.267c-1.455,0-2.605-0.461-3.455-1.385
				c-0.85-0.922-1.272-2.164-1.272-3.729c0-1.43,0.418-2.587,1.255-3.473c0.837-0.887,2.001-1.33,3.491-1.33
				c1.43,0,2.535,0.34,3.316,1.019c0.782,0.678,1.174,1.646,1.174,2.904c0,0.524-0.082,0.877-0.248,1.055
				c-0.164,0.177-0.438,0.267-0.814,0.267c-0.184,0-1.07-0.004-2.658-0.011c-1.588-0.006-2.448-0.009-2.584-0.009
				c-0.184,0-0.303,0.036-0.356,0.109c-0.056,0.073-0.082,0.195-0.082,0.367c0,0.622,0.22,1.143,0.66,1.558
				c0.438,0.415,1.001,0.623,1.686,0.623c0.428,0,0.788-0.052,1.081-0.155c0.294-0.104,0.513-0.227,0.66-0.367
				c0.146-0.14,0.28-0.283,0.403-0.431c0.12-0.146,0.268-0.271,0.438-0.376s0.379-0.155,0.623-0.155c0.257,0,0.474,0.086,0.65,0.257
				C191.791,21.14,191.879,21.372,191.879,21.665z M185.886,18.238h3.592c0.306,0,0.458-0.141,0.458-0.421
				c0-0.403-0.188-0.771-0.566-1.101c-0.379-0.33-0.924-0.495-1.632-0.495c-0.733,0-1.292,0.175-1.678,0.522
				c-0.385,0.348-0.577,0.718-0.577,1.108c0,0.146,0.027,0.248,0.083,0.303S185.727,18.238,185.886,18.238z"/>
			<path fill="#006F90" d="M202.142,23.168c0,0.33-0.095,0.553-0.284,0.669c-0.188,0.116-0.527,0.174-1.017,0.174
				c-0.562,0-0.93-0.043-1.1-0.128c-0.173-0.086-0.259-0.306-0.259-0.659c0-0.062,0.011-0.696,0.028-1.906
				c0.02-1.209,0.027-1.991,0.027-2.347c0-0.843-0.128-1.46-0.385-1.851c-0.258-0.392-0.703-0.587-1.339-0.587
				c-0.562,0-1.021,0.229-1.374,0.688c-0.354,0.458-0.531,1.091-0.531,1.896c0,0.868,0.003,1.731,0.009,2.594s0.01,1.335,0.01,1.42
				c0,0.393-0.089,0.64-0.266,0.742c-0.179,0.104-0.547,0.156-1.109,0.156c-0.465,0-0.791-0.062-0.979-0.185
				c-0.189-0.121-0.283-0.354-0.283-0.695c0-1.431,0.002-2.74,0.009-3.933c0.006-1.189,0.015-2.106,0.027-2.749
				c0.013-0.641,0.019-1.005,0.019-1.09c0-0.316,0.073-0.537,0.22-0.66c0.147-0.121,0.409-0.184,0.788-0.184
				c0.354,0,0.6,0.057,0.732,0.165c0.135,0.11,0.244,0.349,0.33,0.715c0.086,0.416,0.184,0.623,0.293,0.623
				c0.062,0,0.153-0.088,0.274-0.266c0.122-0.178,0.267-0.376,0.432-0.597c0.165-0.22,0.455-0.418,0.87-0.596
				c0.416-0.177,0.917-0.266,1.504-0.266c0.988,0,1.787,0.32,2.391,0.963c0.605,0.641,0.908,1.615,0.908,2.923
				c0,0.939,0.009,1.729,0.027,2.364C202.132,21.201,202.142,22.069,202.142,23.168z"/>
			<path fill="#006F90" d="M210.224,14.536h0.844c0.402,0,0.604,0.189,0.604,0.568c0,0.172-0.035,0.354-0.109,0.55
				c-0.037,0.099-0.098,0.287-0.184,0.567c-0.086,0.281-0.207,0.666-0.365,1.154c-0.16,0.489-0.361,1.088-0.604,1.797
				c-0.295,0.83-0.545,1.545-0.752,2.145c-0.209,0.599-0.344,0.989-0.404,1.173c-0.219,0.623-0.463,1.052-0.732,1.283
				s-0.652,0.349-1.154,0.349c-0.6,0-1.02-0.11-1.264-0.33c-0.246-0.22-0.483-0.666-0.715-1.338
				c-0.392-1.137-0.771-2.261-1.137-3.372c-0.123-0.354-0.293-0.844-0.515-1.467c-0.22-0.623-0.359-1.038-0.422-1.246
				c-0.207-0.61-0.311-1.045-0.311-1.302c0-0.354,0.201-0.531,0.604-0.531h0.88c0.5,0,0.813,0.257,0.936,0.771
				c0.279,0.929,0.532,1.789,0.75,2.583c0.574,2.09,0.898,3.195,0.973,3.317c0.062,0.122,0.152,0.183,0.273,0.183
				c0.098,0,0.176-0.069,0.229-0.21c0.057-0.141,0.176-0.547,0.357-1.219c0.074-0.281,0.135-0.501,0.184-0.66
				c0.439-1.648,0.781-2.986,1.027-4.014C209.327,14.787,209.663,14.536,210.224,14.536z"/>
			<path fill="#006F90" d="M215.593,12.099c0,0.402-0.154,0.739-0.467,1.008c-0.312,0.27-0.699,0.404-1.164,0.404
				c-0.488,0-0.877-0.142-1.164-0.423c-0.287-0.28-0.43-0.647-0.43-1.1c0-0.464,0.135-0.851,0.402-1.154
				c0.27-0.306,0.66-0.459,1.174-0.459C215.046,10.375,215.593,10.951,215.593,12.099z M215.247,23.223
				c0,0.343-0.082,0.574-0.248,0.696c-0.164,0.122-0.498,0.185-0.998,0.185c-0.502,0-0.852-0.07-1.045-0.211
				c-0.195-0.142-0.293-0.389-0.293-0.742c0-0.11,0.008-1.325,0.025-3.647c0.02-2.321,0.027-3.671,0.027-4.05
				c0-0.354,0.082-0.597,0.248-0.724c0.164-0.129,0.51-0.193,1.035-0.193c0.465,0,0.785,0.083,0.963,0.248
				c0.176,0.165,0.266,0.425,0.266,0.778c0,0.379,0.002,1.678,0.01,3.895C215.243,21.674,215.247,22.93,215.247,23.223z"/>
			<path fill="#006F90" d="M219.443,19.667v3.409c0,0.342-0.092,0.59-0.273,0.742c-0.186,0.152-0.525,0.229-1.027,0.229
				c-0.477,0-0.814-0.076-1.016-0.229c-0.203-0.152-0.303-0.4-0.303-0.742c0-1.43,0.006-2.733,0.018-3.913
				c0.012-1.179,0.025-2.086,0.037-2.722s0.018-1.001,0.018-1.101c0-0.305,0.074-0.516,0.221-0.632s0.408-0.175,0.789-0.175
				c0.377,0,0.635,0.062,0.77,0.184c0.133,0.123,0.23,0.36,0.293,0.715c0.072,0.478,0.164,0.716,0.275,0.716
				c0.061,0,0.148-0.082,0.266-0.247s0.25-0.353,0.402-0.561c0.152-0.207,0.395-0.394,0.725-0.559s0.707-0.248,1.137-0.248
				c0.377,0,0.652,0.083,0.824,0.248c0.17,0.165,0.256,0.441,0.256,0.834c0,0.403-0.068,0.718-0.211,0.943
				c-0.141,0.227-0.424,0.339-0.852,0.339C220.224,16.9,219.443,17.823,219.443,19.667z"/>
			<path fill="#006F90" d="M228.368,24.231c-1.49,0-2.672-0.442-3.545-1.328c-0.875-0.886-1.312-2.074-1.312-3.565
				c0-1.637,0.4-2.88,1.199-3.729c0.801-0.849,1.982-1.279,3.547-1.292c1.576,0,2.777,0.416,3.604,1.246
				c0.822,0.831,1.234,2.078,1.234,3.738c0,1.368-0.424,2.532-1.271,3.491C230.974,23.752,229.823,24.231,228.368,24.231z
				 M226.564,21.409c0.395,0.477,0.979,0.715,1.75,0.715c0.77,0,1.361-0.257,1.777-0.77c0.414-0.515,0.623-1.138,0.623-1.869
				c0-1.932-0.826-2.896-2.475-2.896c-0.783,0-1.357,0.275-1.725,0.825c-0.365,0.55-0.549,1.24-0.549,2.071
				C225.966,20.29,226.167,20.933,226.564,21.409z"/>
			<path fill="#006F90" d="M243.14,23.168c0,0.33-0.096,0.553-0.283,0.669c-0.189,0.116-0.529,0.174-1.02,0.174
				c-0.561,0-0.928-0.043-1.1-0.128c-0.17-0.086-0.256-0.306-0.256-0.659c0-0.062,0.01-0.696,0.027-1.906
				c0.018-1.209,0.027-1.991,0.027-2.347c0-0.843-0.129-1.46-0.385-1.851c-0.258-0.392-0.703-0.587-1.338-0.587
				c-0.562,0-1.021,0.229-1.375,0.688c-0.355,0.458-0.531,1.091-0.531,1.896c0,0.868,0.002,1.731,0.01,2.594
				c0.006,0.861,0.008,1.335,0.008,1.42c0,0.393-0.088,0.64-0.266,0.742c-0.178,0.104-0.547,0.156-1.107,0.156
				c-0.465,0-0.793-0.062-0.98-0.185c-0.189-0.122-0.285-0.354-0.285-0.695c0-1.431,0.004-2.74,0.01-3.933
				c0.006-1.189,0.018-2.106,0.027-2.749c0.012-0.641,0.018-1.005,0.018-1.09c0-0.316,0.074-0.537,0.223-0.66
				c0.146-0.121,0.408-0.184,0.787-0.184c0.354,0,0.6,0.057,0.732,0.165c0.135,0.11,0.244,0.349,0.33,0.715
				c0.086,0.416,0.184,0.623,0.293,0.623c0.061,0,0.152-0.088,0.275-0.266c0.121-0.178,0.266-0.376,0.43-0.597
				c0.166-0.22,0.455-0.418,0.871-0.596c0.416-0.177,0.916-0.266,1.502-0.266c0.99,0,1.787,0.32,2.393,0.963
				c0.605,0.641,0.906,1.615,0.906,2.923c0,0.939,0.01,1.729,0.027,2.364C243.132,21.201,243.14,22.069,243.14,23.168z"/>
			<path fill="#006F90" d="M253.384,23.168c0,0.33-0.096,0.553-0.285,0.669c-0.188,0.116-0.527,0.174-1.016,0.174
				c-0.562,0-0.93-0.043-1.1-0.128c-0.172-0.086-0.258-0.306-0.258-0.659c0-0.062,0.01-0.696,0.027-1.906
				c0.02-1.209,0.027-1.991,0.027-2.347c0-0.843-0.129-1.46-0.385-1.851c-0.258-0.392-0.703-0.587-1.34-0.587
				c-0.561,0-1.02,0.229-1.373,0.688s-0.531,1.091-0.531,1.896c0,0.868,0.004,1.731,0.01,2.594s0.01,1.335,0.01,1.42
				c0,0.393-0.09,0.64-0.268,0.742c-0.178,0.104-0.547,0.156-1.107,0.156c-0.465,0-0.791-0.062-0.98-0.185
				c-0.189-0.121-0.283-0.354-0.283-0.695c0-1.431,0.002-2.74,0.008-3.933c0.006-1.189,0.016-2.106,0.027-2.749
				c0.014-0.641,0.02-1.005,0.02-1.09c0-0.316,0.072-0.537,0.219-0.66c0.148-0.121,0.41-0.184,0.789-0.184
				c0.355,0,0.6,0.057,0.732,0.165c0.135,0.11,0.244,0.349,0.33,0.715c0.086,0.416,0.184,0.623,0.293,0.623
				c0.061,0,0.152-0.088,0.275-0.266c0.121-0.178,0.266-0.376,0.43-0.597c0.166-0.22,0.455-0.418,0.871-0.596
				c0.416-0.177,0.916-0.266,1.504-0.266c0.988,0,1.787,0.32,2.391,0.963c0.605,0.641,0.908,1.615,0.908,2.923
				c0,0.939,0.008,1.729,0.027,2.364C253.376,21.201,253.384,22.069,253.384,23.168z"/>
			<path fill="#006F90" d="M263.501,21.665c0,0.244-0.08,0.507-0.238,0.788s-0.395,0.559-0.705,0.834
				c-0.312,0.274-0.754,0.501-1.328,0.678c-0.574,0.178-1.229,0.267-1.961,0.267c-1.455,0-2.605-0.461-3.455-1.385
				c-0.85-0.922-1.273-2.164-1.273-3.729c0-1.43,0.418-2.587,1.256-3.473c0.836-0.887,2-1.33,3.49-1.33
				c1.43,0,2.535,0.34,3.318,1.019c0.781,0.678,1.172,1.646,1.172,2.904c0,0.524-0.082,0.877-0.248,1.055
				c-0.164,0.177-0.438,0.267-0.814,0.267c-0.184,0-1.068-0.004-2.658-0.011c-1.588-0.006-2.447-0.009-2.584-0.009
				c-0.184,0-0.303,0.036-0.355,0.109c-0.055,0.073-0.082,0.195-0.082,0.367c0,0.622,0.219,1.143,0.66,1.558
				c0.438,0.415,1,0.623,1.686,0.623c0.428,0,0.787-0.052,1.08-0.155c0.295-0.104,0.514-0.227,0.66-0.367
				c0.146-0.14,0.281-0.283,0.404-0.431c0.121-0.146,0.268-0.271,0.438-0.376c0.172-0.104,0.379-0.155,0.623-0.155
				c0.258,0,0.475,0.086,0.65,0.257C263.413,21.14,263.501,21.372,263.501,21.665z M257.507,18.238h3.592
				c0.307,0,0.459-0.141,0.459-0.421c0-0.403-0.189-0.771-0.566-1.101c-0.379-0.33-0.924-0.495-1.633-0.495
				c-0.732,0-1.291,0.175-1.678,0.522c-0.385,0.348-0.576,0.718-0.576,1.108c0,0.146,0.027,0.248,0.084,0.303
				C257.243,18.21,257.349,18.238,257.507,18.238z"/>
			<path fill="#006F90" d="M267.497,18.916v4.361c0,0.245-0.092,0.431-0.275,0.56c-0.184,0.128-0.551,0.192-1.1,0.192
				c-0.404,0-0.703-0.059-0.898-0.175c-0.195-0.115-0.293-0.34-0.293-0.669c0-1.441,0.006-2.759,0.02-3.949
				c0.012-1.191,0.02-2.107,0.025-2.749c0.008-0.643,0.01-1.006,0.01-1.09c0-0.318,0.08-0.545,0.238-0.68
				c0.158-0.134,0.439-0.201,0.844-0.201c0.33,0,0.557,0.062,0.678,0.184c0.123,0.123,0.227,0.361,0.312,0.715
				c0.072,0.33,0.178,0.495,0.312,0.495c0.049,0,0.129-0.085,0.238-0.257s0.236-0.354,0.385-0.551c0.145-0.194,0.4-0.377,0.76-0.549
				c0.361-0.172,0.785-0.256,1.275-0.256c0.549,0,1.01,0.088,1.383,0.266c0.373,0.177,0.629,0.375,0.77,0.596
				c0.141,0.22,0.27,0.418,0.385,0.595c0.117,0.179,0.223,0.268,0.32,0.268c0.086,0,0.199-0.089,0.34-0.268
				c0.141-0.177,0.293-0.375,0.459-0.595c0.164-0.221,0.451-0.419,0.861-0.596c0.408-0.178,0.881-0.266,1.42-0.266
				c0.939,0,1.717,0.299,2.328,0.896c0.609,0.599,0.916,1.516,0.916,2.749c0,1.111,0.008,2.16,0.027,3.144
				c0.018,0.983,0.025,1.609,0.025,1.878c0,0.403-0.088,0.68-0.266,0.825c-0.178,0.146-0.516,0.22-1.018,0.22
				c-0.514,0-0.852-0.066-1.018-0.2c-0.164-0.136-0.246-0.367-0.246-0.697c0-0.062,0.006-0.678,0.018-1.852
				c0.012-1.173,0.02-1.937,0.02-2.291c0-0.843-0.129-1.457-0.385-1.842c-0.258-0.385-0.691-0.577-1.303-0.577
				c-0.451,0-0.85,0.188-1.191,0.56c-0.342,0.373-0.512,0.889-0.512,1.549c0,0.904,0.002,1.589,0.008,2.053
				c0.006,0.465,0.01,1.253,0.01,2.364c0,0.184-0.01,0.317-0.025,0.403c-0.02,0.085-0.064,0.177-0.139,0.273
				c-0.072,0.1-0.203,0.165-0.387,0.202c-0.182,0.036-0.428,0.055-0.732,0.055c-0.451,0-0.77-0.063-0.951-0.191
				c-0.184-0.128-0.275-0.369-0.275-0.725c0-0.062,0.006-0.675,0.02-1.842c0.012-1.167,0.018-1.928,0.018-2.282
				c0-0.854-0.121-1.479-0.365-1.868c-0.246-0.392-0.674-0.587-1.283-0.587c-0.539,0-0.967,0.201-1.281,0.604
				C267.656,17.523,267.497,18.122,267.497,18.916z"/>
			<path fill="#006F90" d="M289.433,21.665c0,0.244-0.078,0.507-0.236,0.788c-0.16,0.281-0.396,0.559-0.707,0.834
				c-0.312,0.274-0.754,0.501-1.328,0.678c-0.574,0.178-1.229,0.267-1.961,0.267c-1.453,0-2.605-0.461-3.455-1.385
				c-0.85-0.922-1.273-2.164-1.273-3.729c0-1.43,0.418-2.587,1.256-3.473c0.838-0.887,2-1.33,3.49-1.33
				c1.432,0,2.535,0.34,3.318,1.019c0.781,0.678,1.172,1.646,1.172,2.904c0,0.524-0.082,0.877-0.246,1.055
				c-0.166,0.177-0.438,0.267-0.816,0.267c-0.184,0-1.068-0.004-2.656-0.011c-1.59-0.006-2.451-0.009-2.584-0.009
				c-0.184,0-0.303,0.036-0.357,0.109s-0.084,0.195-0.084,0.367c0,0.622,0.221,1.143,0.66,1.558
				c0.441,0.415,1.002,0.623,1.688,0.623c0.428,0,0.787-0.052,1.08-0.155s0.516-0.227,0.66-0.367
				c0.146-0.14,0.281-0.283,0.402-0.431c0.123-0.146,0.27-0.271,0.441-0.376c0.17-0.104,0.377-0.155,0.621-0.155
				c0.258,0,0.475,0.086,0.652,0.257C289.343,21.14,289.433,21.372,289.433,21.665z M283.441,18.238h3.592
				c0.307,0,0.459-0.141,0.459-0.421c0-0.403-0.189-0.771-0.568-1.101s-0.922-0.495-1.631-0.495c-0.732,0-1.293,0.175-1.678,0.522
				s-0.576,0.718-0.576,1.108c0,0.146,0.027,0.248,0.082,0.303S283.282,18.238,283.441,18.238z"/>
			<path fill="#006F90" d="M299.697,23.168c0,0.33-0.096,0.553-0.283,0.669c-0.189,0.116-0.529,0.174-1.018,0.174
				c-0.562,0-0.93-0.043-1.102-0.128c-0.17-0.086-0.256-0.306-0.256-0.659c0-0.062,0.01-0.696,0.027-1.906
				c0.018-1.209,0.027-1.991,0.027-2.347c0-0.843-0.129-1.46-0.385-1.851c-0.258-0.392-0.703-0.587-1.338-0.587
				c-0.562,0-1.021,0.229-1.375,0.688c-0.355,0.458-0.531,1.091-0.531,1.896c0,0.868,0.002,1.731,0.01,2.594
				c0.006,0.861,0.01,1.335,0.01,1.42c0,0.393-0.09,0.64-0.268,0.742c-0.178,0.104-0.547,0.156-1.107,0.156
				c-0.465,0-0.791-0.062-0.98-0.185s-0.285-0.354-0.285-0.695c0-1.431,0.004-2.74,0.012-3.933c0.006-1.189,0.016-2.106,0.025-2.749
				c0.012-0.641,0.02-1.005,0.02-1.09c0-0.316,0.072-0.537,0.221-0.66c0.146-0.121,0.408-0.184,0.787-0.184
				c0.354,0,0.6,0.057,0.732,0.165c0.135,0.11,0.244,0.349,0.33,0.715c0.086,0.416,0.184,0.623,0.293,0.623
				c0.062,0,0.152-0.088,0.275-0.266c0.121-0.178,0.266-0.376,0.43-0.597c0.166-0.22,0.455-0.418,0.871-0.596
				c0.416-0.177,0.916-0.266,1.502-0.266c0.99,0,1.787,0.32,2.395,0.963c0.604,0.641,0.904,1.615,0.904,2.923
				c0,0.939,0.012,1.729,0.027,2.364C299.689,21.201,299.697,22.069,299.697,23.168z"/>
			<path fill="#006F90" d="M306.406,16.479h-1.486c-0.17,0-0.281,0.026-0.328,0.082c-0.049,0.056-0.074,0.155-0.074,0.303
				c0,0.366-0.004,1.143-0.01,2.327c-0.006,1.186-0.008,1.856-0.008,2.017c0,0.696,0.273,1.044,0.824,1.044
				c0.184,0,0.363-0.036,0.541-0.108c0.176-0.073,0.332-0.11,0.467-0.11c0.244,0,0.443,0.083,0.596,0.248
				c0.152,0.164,0.229,0.406,0.229,0.724c0,0.831-0.801,1.246-2.4,1.246c-0.928,0-1.625-0.231-2.09-0.696s-0.695-1.117-0.695-1.961
				c0-0.587-0.004-1.404-0.01-2.456c-0.006-1.051-0.01-1.808-0.01-2.271c0-0.257-0.084-0.385-0.256-0.385h-0.66
				c-0.184,0-0.314-0.059-0.395-0.176c-0.08-0.114-0.119-0.332-0.119-0.649c0-0.513,0.195-0.8,0.588-0.861
				c0.561-0.085,0.842-0.257,0.842-0.513c0-0.171,0.004-0.479,0.01-0.926s0.01-0.748,0.01-0.907c0-0.366,0.104-0.632,0.312-0.797
				c0.207-0.165,0.537-0.248,0.988-0.248s0.775,0.08,0.973,0.237c0.195,0.16,0.293,0.416,0.293,0.771v1.832
				c0,0.195,0.092,0.293,0.273,0.293h1.65c0.244,0,0.418,0.066,0.521,0.202c0.102,0.135,0.154,0.392,0.154,0.77
				c0,0.379-0.055,0.637-0.164,0.771C306.863,16.412,306.673,16.479,306.406,16.479z"/>
		</g>
		<g enable-background="new    ">
			<path fill="#939399" d="M311.407,22.729c0,0.952-0.514,1.43-1.539,1.43c-0.479,0-0.852-0.128-1.117-0.385
				c-0.27-0.257-0.404-0.604-0.404-1.045c0-0.916,0.488-1.374,1.467-1.374c0.598,0,1.014,0.112,1.246,0.339
				C311.292,21.919,311.407,22.264,311.407,22.729z"/>
			<path fill="#939399" d="M315.788,11.713v1.888c0,0.367-0.006,0.703-0.02,1.01c-0.014,0.305-0.02,0.482-0.02,0.531
				c0,0.269,0.061,0.402,0.184,0.402c0.062,0,0.156-0.066,0.285-0.201c0.127-0.135,0.277-0.287,0.447-0.459
				c0.172-0.171,0.459-0.322,0.861-0.457c0.404-0.136,0.867-0.203,1.395-0.203c1.186,0,2.113,0.42,2.785,1.256
				c0.672,0.838,1.008,2.051,1.008,3.639c0,1.491-0.354,2.7-1.062,3.629c-0.707,0.929-1.666,1.393-2.877,1.393
				c-0.66,0-1.213-0.089-1.658-0.266s-0.746-0.375-0.898-0.596c-0.152-0.22-0.283-0.418-0.393-0.596
				c-0.111-0.178-0.197-0.267-0.258-0.267c-0.062,0-0.105,0.027-0.129,0.083c-0.023,0.055-0.055,0.192-0.092,0.412
				c-0.012,0.049-0.02,0.089-0.027,0.119c-0.006,0.03-0.014,0.07-0.02,0.119s-0.016,0.098-0.025,0.146
				c-0.051,0.27-0.162,0.455-0.34,0.56c-0.178,0.104-0.432,0.155-0.762,0.155c-0.391,0-0.662-0.075-0.814-0.229
				c-0.152-0.152-0.229-0.388-0.229-0.705c0-0.073-0.002-1.359-0.01-3.858c-0.006-2.498-0.008-5-0.008-7.505
				c0-0.354,0.1-0.612,0.303-0.778c0.201-0.164,0.559-0.248,1.072-0.248c0.537,0,0.889,0.08,1.053,0.238
				C315.706,11.084,315.788,11.347,315.788,11.713z M317.822,22.178c0.695,0,1.246-0.263,1.648-0.788
				c0.404-0.523,0.605-1.265,0.605-2.217c0-0.953-0.184-1.635-0.551-2.044c-0.365-0.409-0.898-0.614-1.594-0.614
				c-1.516,0-2.273,0.93-2.273,2.786c0,0.893,0.199,1.596,0.596,2.107C316.652,21.922,317.175,22.178,317.822,22.178z"/>
			<path fill="#939399" d="M326.454,19.667v3.409c0,0.342-0.092,0.59-0.275,0.742s-0.525,0.229-1.025,0.229
				c-0.477,0-0.816-0.076-1.018-0.229s-0.303-0.4-0.303-0.742c0-1.43,0.006-2.733,0.018-3.913c0.014-1.179,0.025-2.086,0.037-2.722
				c0.014-0.636,0.02-1.001,0.02-1.101c0-0.305,0.072-0.516,0.219-0.632s0.41-0.175,0.789-0.175s0.635,0.062,0.77,0.184
				c0.135,0.123,0.232,0.36,0.293,0.715c0.074,0.478,0.166,0.716,0.275,0.716c0.062,0,0.148-0.082,0.266-0.247
				c0.115-0.165,0.25-0.353,0.402-0.561c0.152-0.207,0.396-0.394,0.725-0.559c0.33-0.165,0.709-0.248,1.139-0.248
				c0.377,0,0.65,0.083,0.824,0.248c0.17,0.165,0.256,0.441,0.256,0.834c0,0.403-0.07,0.718-0.211,0.943
				c-0.143,0.227-0.426,0.339-0.854,0.339C327.236,16.9,326.454,17.823,326.454,19.667z"/>
			<path fill="#939399" d="M339.54,23.039c0,0.648-0.367,0.972-1.1,0.972c-0.381,0-0.652-0.072-0.816-0.22
				c-0.166-0.146-0.285-0.373-0.357-0.679c-0.012-0.062-0.027-0.137-0.045-0.229c-0.02-0.092-0.031-0.162-0.037-0.211
				s-0.02-0.101-0.037-0.155c-0.018-0.056-0.037-0.095-0.055-0.118c-0.02-0.024-0.047-0.037-0.082-0.037
				c-0.049,0-0.107,0.063-0.176,0.191c-0.066,0.128-0.158,0.284-0.273,0.469c-0.117,0.183-0.27,0.368-0.459,0.559
				s-0.467,0.349-0.834,0.477c-0.365,0.128-0.793,0.192-1.281,0.192c-2.127,0-3.189-1.344-3.189-4.032
				c0-0.953-0.004-1.716-0.01-2.291c-0.006-0.573-0.01-1.417-0.01-2.528c0-0.317,0.092-0.549,0.275-0.696
				c0.184-0.146,0.525-0.22,1.025-0.22c0.49,0,0.832,0.062,1.027,0.184c0.193,0.122,0.293,0.354,0.293,0.695
				c0,0.062-0.006,0.69-0.02,1.889c-0.012,1.197-0.018,1.979-0.018,2.346c0,1.613,0.555,2.419,1.666,2.419
				c1.295,0,1.943-1.008,1.943-3.022c0-0.904-0.006-1.723-0.02-2.456c-0.012-0.733-0.018-1.13-0.018-1.19
				c0-0.293,0.098-0.502,0.293-0.623c0.193-0.123,0.531-0.185,1.008-0.185c0.488,0,0.838,0.06,1.045,0.175
				c0.207,0.116,0.312,0.34,0.312,0.669c0,0.403-0.012,1.738-0.027,4.004C339.548,21.65,339.54,22.869,339.54,23.039z"/>
			<path fill="#939399" d="M341.718,20.786c0.258,0,0.488,0.082,0.697,0.247c0.207,0.165,0.387,0.346,0.541,0.541
				c0.152,0.195,0.42,0.376,0.807,0.541c0.385,0.165,0.854,0.247,1.4,0.247c1.088,0,1.631-0.307,1.631-0.916
				c0-0.307-0.17-0.525-0.512-0.66s-1.07-0.293-2.182-0.477c-1.223-0.208-2.059-0.557-2.512-1.046
				c-0.451-0.487-0.678-1.1-0.678-1.832c0-1.002,0.398-1.769,1.201-2.301c0.799-0.53,1.762-0.797,2.887-0.797
				c1.33,0,2.332,0.244,3.006,0.733c0.672,0.487,1.008,1.094,1.008,1.813c0,0.636-0.396,0.953-1.191,0.953
				c-0.416,0-0.732-0.195-0.953-0.587c-0.393-0.66-1.021-0.989-1.887-0.989c-1.09,0-1.633,0.329-1.633,0.989
				c0,0.366,0.15,0.647,0.449,0.843c0.299,0.196,0.943,0.379,1.934,0.55c1.43,0.245,2.387,0.575,2.869,0.99s0.723,0.983,0.723,1.704
				c0,0.843-0.371,1.539-1.117,2.089s-1.846,0.825-3.299,0.825c-1.355,0-2.379-0.271-3.07-0.815
				c-0.688-0.544-1.035-1.103-1.035-1.677C340.802,21.11,341.109,20.786,341.718,20.786z"/>
			<path fill="#939399" d="M351.195,20.786c0.258,0,0.488,0.082,0.695,0.247s0.389,0.346,0.541,0.541s0.422,0.376,0.809,0.541
				c0.385,0.165,0.852,0.247,1.4,0.247c1.086,0,1.631-0.307,1.631-0.916c0-0.307-0.172-0.525-0.514-0.66s-1.068-0.293-2.182-0.477
				c-1.221-0.208-2.059-0.557-2.51-1.046c-0.453-0.487-0.68-1.1-0.68-1.832c0-1.002,0.4-1.769,1.201-2.301
				c0.801-0.53,1.762-0.797,2.887-0.797c1.332,0,2.334,0.244,3.006,0.733c0.672,0.487,1.008,1.094,1.008,1.813
				c0,0.636-0.396,0.953-1.191,0.953c-0.416,0-0.73-0.195-0.953-0.587c-0.391-0.66-1.02-0.989-1.887-0.989
				c-1.088,0-1.631,0.329-1.631,0.989c0,0.366,0.148,0.647,0.449,0.843c0.299,0.196,0.943,0.379,1.934,0.55
				c1.428,0.245,2.385,0.575,2.867,0.99s0.725,0.983,0.725,1.704c0,0.843-0.373,1.539-1.119,2.089
				c-0.744,0.55-1.844,0.825-3.299,0.825c-1.354,0-2.379-0.271-3.068-0.815c-0.689-0.544-1.035-1.103-1.035-1.677
				C350.279,21.11,350.583,20.786,351.195,20.786z"/>
			<path fill="#939399" d="M368.716,21.665c0,0.244-0.08,0.507-0.238,0.788s-0.395,0.559-0.705,0.834
				c-0.312,0.274-0.756,0.501-1.328,0.678c-0.576,0.178-1.229,0.267-1.961,0.267c-1.455,0-2.607-0.461-3.455-1.385
				c-0.85-0.922-1.273-2.164-1.273-3.729c0-1.43,0.418-2.587,1.254-3.473c0.838-0.887,2.002-1.33,3.492-1.33
				c1.43,0,2.535,0.34,3.316,1.019c0.781,0.678,1.174,1.646,1.174,2.904c0,0.524-0.082,0.877-0.248,1.055
				c-0.164,0.177-0.438,0.267-0.814,0.267c-0.184,0-1.068-0.004-2.656-0.011c-1.59-0.006-2.451-0.009-2.584-0.009
				c-0.186,0-0.305,0.036-0.357,0.109c-0.055,0.073-0.084,0.195-0.084,0.367c0,0.622,0.221,1.143,0.66,1.558
				s1.002,0.623,1.688,0.623c0.428,0,0.787-0.052,1.08-0.155s0.514-0.227,0.66-0.367c0.146-0.14,0.281-0.283,0.402-0.431
				c0.123-0.147,0.27-0.271,0.439-0.376s0.379-0.155,0.623-0.155c0.256,0,0.475,0.086,0.65,0.257
				C368.626,21.14,368.716,21.372,368.716,21.665z M362.722,18.238h3.594c0.305,0,0.457-0.141,0.457-0.421
				c0-0.403-0.189-0.771-0.568-1.101s-0.922-0.495-1.631-0.495c-0.732,0-1.291,0.175-1.678,0.522
				c-0.385,0.348-0.576,0.718-0.576,1.108c0,0.146,0.025,0.248,0.082,0.303C362.456,18.21,362.564,18.238,362.722,18.238z"/>
			<path fill="#939399" d="M370.273,21.922V11.677c0-0.66,0.434-0.99,1.303-0.99c0.451,0,0.77,0.074,0.961,0.222
				c0.188,0.146,0.285,0.415,0.285,0.806c0,0.379-0.014,2.084-0.037,5.113c-0.025,3.03-0.037,4.688-0.037,4.967
				c0,0.318,0.104,0.478,0.311,0.478c0.037,0,0.1-0.007,0.186-0.02c0.084-0.012,0.164-0.018,0.238-0.018
				c0.475,0,0.713,0.28,0.713,0.843c0,0.782-0.549,1.173-1.648,1.173c-0.746,0-1.311-0.208-1.695-0.623
				S370.273,22.644,370.273,21.922z"/>
			<path fill="#939399" d="M375.497,20.786c0.256,0,0.488,0.082,0.695,0.247c0.209,0.165,0.389,0.346,0.541,0.541
				s0.422,0.376,0.807,0.541s0.852,0.247,1.402,0.247c1.088,0,1.631-0.307,1.631-0.916c0-0.307-0.172-0.525-0.514-0.66
				c-0.344-0.135-1.068-0.293-2.182-0.477c-1.223-0.208-2.059-0.557-2.512-1.046c-0.451-0.487-0.678-1.1-0.678-1.832
				c0-1.002,0.4-1.769,1.201-2.301c0.799-0.53,1.762-0.797,2.887-0.797c1.33,0,2.332,0.244,3.006,0.733
				c0.672,0.487,1.008,1.094,1.008,1.813c0,0.636-0.398,0.953-1.191,0.953c-0.416,0-0.732-0.195-0.953-0.587
				c-0.393-0.66-1.02-0.989-1.889-0.989c-1.088,0-1.631,0.329-1.631,0.989c0,0.366,0.15,0.647,0.449,0.843
				c0.299,0.196,0.943,0.379,1.934,0.55c1.43,0.245,2.385,0.575,2.869,0.99c0.482,0.415,0.723,0.983,0.723,1.704
				c0,0.843-0.373,1.539-1.115,2.089c-0.746,0.55-1.848,0.825-3.301,0.825c-1.355,0-2.381-0.271-3.068-0.815
				c-0.691-0.544-1.035-1.103-1.035-1.677C374.581,21.11,374.884,20.786,375.497,20.786z"/>
		</g>
	</g>
	<g>
		<g>
			<path fill="#949499" d="M398.718,23.817c-0.002,0.262-0.107,0.479-0.367,0.479c-0.279,0-0.594-0.539-1.375-0.92
				c-0.701-0.336-1.395-0.479-2.014-0.479c-0.771,0-2.064,0.366-3.295,0.391c-1.152,0.008-2.189-0.535-2.857-1.26
				c-0.498-0.535-0.838-1.396-0.838-2.172c0.004-0.974,0.391-1.935,1.238-2.648c0.637-0.529,1.359-0.742,2.199-0.742
				c1.258-0.01,2.521,0.644,3.326,1.277c1.178,0.934,2.25,2.184,3.004,3.529C398.175,22.032,398.72,23.315,398.718,23.817
				L398.718,23.817z"/>
			<path fill="#949499" d="M399.765,23.817c0.002,0.262,0.109,0.479,0.369,0.479c0.279,0,0.594-0.539,1.375-0.92
				c0.701-0.336,1.395-0.479,2.014-0.479c0.771,0,2.064,0.366,3.295,0.391c1.15,0.008,2.188-0.535,2.855-1.26
				c0.5-0.535,0.838-1.396,0.838-2.172c-0.004-0.974-0.389-1.935-1.236-2.648c-0.639-0.529-1.359-0.742-2.199-0.742
				c-1.258-0.01-2.521,0.644-3.326,1.277c-1.178,0.934-2.25,2.184-3.004,3.529C400.31,22.032,399.763,23.315,399.765,23.817
				L399.765,23.817z"/>
			<g>
				<path fill="#949499" d="M403.753,11.625c-0.588-0.584-1.297-0.978-2.324-0.967c-1.041,0.002-1.711,0.364-2.186,0.971
					c-0.479-0.604-1.146-0.969-2.201-0.971c-1.014-0.011-1.732,0.383-2.324,0.967c-0.627,0.627-0.947,1.44-0.951,2.375
					c-0.002,0.896,0.309,1.527,0.664,2.017c0.566,0.784,1.217,1.299,1.9,1.915c1.076,0.996,1.762,1.89,2.324,3.005
					c0.139,0.272,0.256,0.678,0.588,0.678c0.33,0,0.445-0.402,0.586-0.678c0.564-1.115,1.238-2.009,2.326-3.005
					c0.672-0.616,1.332-1.131,1.898-1.915c0.354-0.486,0.664-1.121,0.646-2.017C404.7,13.067,404.392,12.252,403.753,11.625z
					 M402.343,16.438c-0.531,0.543-1.037,0.821-1.811,1.678c-0.309,0.338-0.904,1.199-1.291,2.008c-0.387-0.809-1-1.67-1.289-2.008
					c-0.777-0.855-1.279-1.135-1.812-1.678c-0.777-0.797-1.338-1.348-1.363-2.379c-0.012-0.754,0.301-1.357,0.771-1.814
					c0.42-0.408,1.008-0.607,1.631-0.619c0.439-0.01,0.891,0.156,1.234,0.418c0.355,0.256,0.605,0.59,0.828,1.025
					c0.221-0.436,0.471-0.77,0.814-1.025c0.357-0.262,0.809-0.428,1.234-0.418c0.633,0.012,1.223,0.211,1.643,0.619
					c0.475,0.457,0.785,1.062,0.762,1.814C403.669,15.093,403.109,15.642,402.343,16.438z"/>
			</g>
		</g>
	</g>
</g>
<g>
	<path fill="#76B82A" d="M15.614,16.104c0.811-0.619,1.357-1.721,1.357-2.984c0-1.953-1.286-3.521-2.854-3.521
		c-0.13,0-0.242,0.019-0.362,0.039c-1.021-1.494-3.289-1.84-5.273-0.699c-1.76,0.998-2.688,2.814-2.404,4.406
		c-1.473,0.547-2.322,2.123-1.93,3.636c0.34,1.246,1.415,2.059,2.646,2.137c0.532,0.645,1.479,1.076,2.575,1.076
		c0.643,0,1.251-0.148,1.742-0.41l-0.645,5.295l2.293-0.09c0,0-0.058-4.109,0.28-6.174c0.339,0.336,0.836,0.528,1.368,0.528
		c1.054,0,1.929-0.811,1.929-1.813C16.336,16.955,16.046,16.45,15.614,16.104z"/>
	<path fill="#007A9D" d="M1.253,26.916l18.902-2.01c-2.141-0.195-4.431-0.215-6.738-0.09c0.018-1.029,0.073-3.486,0.396-5.34
		c0.418,0.377,0.988,0.618,1.632,0.618c1.271,0,2.307-0.946,2.307-2.116c0-0.662-0.338-1.25-0.852-1.646
		c0.988-0.723,1.646-2.008,1.646-3.463c0-2.252-1.535-4.068-3.439-4.068c-0.153,0-0.289,0.023-0.44,0.038
		c-1.229-1.743-3.949-2.122-6.318-0.812c-2.101,1.15-3.233,3.271-2.896,5.105c-1.755,0.645-2.799,2.456-2.31,4.196
		c0.401,1.439,1.704,2.391,3.184,2.484c0.644,0.758,1.777,1.239,3.08,1.239c0.779,0,1.496-0.182,2.083-0.481l-0.738,4.422
		C7.324,25.336,3.995,25.979,1.253,26.916z M12.244,19.551c0,0-3.255,2.422-5.637-0.307c0,0-3.087,0.307-2.976-3.141
		c0.063-2.005,2.139-2.929,2.139-2.929s-0.354-3.619,3.521-5c3.161-1.109,4.771,0.65,5.115,1.252c0,0,3.401-0.602,3.819,3.064
		c0.337,2.949-2.52,3.818-2.292,3.803c0,0,1.914,1.383,0.755,2.709c-1.173,1.32-2.701-0.162-3.254-0.723l-0.411,6.488
		c-0.683,0.047-1.365,0.102-2.043,0.157L12.244,19.551z"/>
</g>
</svg>
