<?xml version="1.0" encoding="utf-8"?>
<!DOCTYPE svg PUBLIC "-//W3C//DTD SVG 1.0//EN" "http://www.w3.org/TR/2001/REC-SVG-20010904/DTD/svg10.dtd">
<svg version="1.0" id="Layer_1" xmlns="http://www.w3.org/2000/svg" xmlns:xlink="http://www.w3.org/1999/xlink" x="0px" y="0px"
	 width="351.391px" height="35.496px" viewBox="0 0 351.391 35.496" enable-background="new 0 0 351.391 35.496"
	 xml:space="preserve">
<g>
	<g>
		<path fill="#F9FAF6" stroke="#DCDCDC" stroke-width="0.25" stroke-miterlimit="10" d="M162.644,277.005v28.922h0.02
			c0,0.836-0.692,1.529-1.522,1.529h-18.366c-0.831,0-1.523-0.693-1.523-1.529v-28.922"/>
	</g>
	<g>
		<g>
			<g enable-background="new    ">
				<path fill="#8DB63C" d="M177.261,293.484h-0.605c-0.121,0-0.183,0.049-0.183,0.146c0,0.062,0.056,0.165,0.165,0.312
					s0.22,0.349,0.33,0.604c0.109,0.257,0.164,0.557,0.164,0.898c0,0.623-0.112,1.151-0.338,1.585
					c-0.227,0.434-0.477,0.73-0.752,0.889c-0.275,0.159-0.525,0.3-0.751,0.422s-0.339,0.227-0.339,0.312
					c0,0.062,0.122,0.132,0.366,0.211c0.245,0.079,0.513,0.168,0.807,0.266c0.292,0.098,0.562,0.314,0.806,0.65
					s0.367,0.755,0.367,1.256c0,0.904-0.412,1.637-1.237,2.199c-0.825,0.562-2.032,0.843-3.62,0.843
					c-1.393,0-2.493-0.269-3.299-0.807c-0.806-0.537-1.209-1.094-1.209-1.667c0-0.294,0.088-0.538,0.266-0.733
					s0.418-0.293,0.724-0.293c0.244,0,0.495,0.079,0.751,0.238c0.256,0.158,0.488,0.332,0.696,0.521
					c0.208,0.189,0.507,0.364,0.898,0.522c0.391,0.159,0.825,0.238,1.301,0.238c1.393,0,2.089-0.385,2.089-1.154
					c0-0.281-0.125-0.51-0.375-0.688c-0.25-0.177-0.581-0.309-0.99-0.394c-0.41-0.086-0.858-0.171-1.347-0.257
					c-0.489-0.085-0.978-0.217-1.466-0.395c-0.489-0.177-0.938-0.402-1.347-0.678c-0.41-0.274-0.74-0.675-0.99-1.2
					c-0.25-0.525-0.376-1.161-0.376-1.906c0-1.21,0.397-2.196,1.191-2.96c0.794-0.764,1.937-1.146,3.427-1.146
					c0.342,0,0.733,0.037,1.173,0.11s0.764,0.109,0.971,0.109h2.676c0.305,0,0.513,0.064,0.623,0.193
					c0.109,0.128,0.164,0.388,0.164,0.778c0,0.379-0.055,0.636-0.164,0.77C177.719,293.417,177.53,293.484,177.261,293.484z
					 M174.696,295.591c0-0.672-0.192-1.21-0.577-1.613c-0.385-0.402-0.962-0.604-1.732-0.604c-0.721,0-1.274,0.208-1.659,0.623
					c-0.385,0.416-0.577,0.947-0.577,1.595c0,0.66,0.192,1.2,0.577,1.622c0.385,0.421,0.938,0.632,1.659,0.632
					c0.745,0,1.316-0.211,1.713-0.632C174.497,296.792,174.696,296.251,174.696,295.591z"/>
				<path fill="#8DB63C" d="M187.525,298.67c0,0.244-0.08,0.507-0.238,0.788c-0.159,0.281-0.395,0.559-0.706,0.834
					c-0.312,0.274-0.755,0.501-1.329,0.678s-1.228,0.266-1.961,0.266c-1.453,0-2.605-0.461-3.455-1.384
					c-0.849-0.922-1.273-2.165-1.273-3.729c0-1.43,0.419-2.587,1.256-3.473s2-1.329,3.491-1.329c1.43,0,2.535,0.339,3.317,1.018
					c0.781,0.678,1.173,1.646,1.173,2.904c0,0.525-0.083,0.877-0.247,1.055c-0.166,0.177-0.438,0.266-0.816,0.266
					c-0.183,0-1.068-0.003-2.656-0.01c-1.59-0.006-2.451-0.009-2.585-0.009c-0.183,0-0.302,0.036-0.357,0.109
					c-0.055,0.074-0.083,0.196-0.083,0.367c0,0.623,0.221,1.143,0.66,1.558c0.44,0.415,1.002,0.623,1.687,0.623
					c0.427,0,0.788-0.052,1.081-0.155c0.293-0.104,0.514-0.227,0.66-0.367c0.146-0.14,0.281-0.284,0.402-0.431
					c0.123-0.146,0.27-0.271,0.44-0.376c0.171-0.104,0.378-0.155,0.623-0.155c0.257,0,0.474,0.086,0.651,0.257
					C187.435,298.145,187.525,298.377,187.525,298.67z M181.531,295.243h3.593c0.306,0,0.458-0.14,0.458-0.421
					c0-0.403-0.189-0.77-0.568-1.1s-0.922-0.495-1.631-0.495c-0.732,0-1.292,0.174-1.677,0.522
					c-0.385,0.348-0.577,0.718-0.577,1.108c0,0.146,0.027,0.248,0.082,0.303S181.373,295.243,181.531,295.243z"/>
				<path fill="#8DB63C" d="M193.554,301.236c-1.491,0-2.674-0.442-3.547-1.328s-1.311-2.074-1.311-3.565
					c0-1.637,0.4-2.88,1.201-3.729c0.8-0.849,1.982-1.279,3.546-1.292c1.576,0,2.776,0.416,3.602,1.246
					c0.825,0.831,1.237,2.078,1.237,3.739c0,1.368-0.426,2.532-1.273,3.491C196.16,300.756,195.008,301.236,193.554,301.236z
					 M191.749,298.414c0.397,0.477,0.98,0.715,1.751,0.715c0.77,0,1.361-0.257,1.777-0.77c0.415-0.514,0.623-1.137,0.623-1.869
					c0-1.931-0.824-2.896-2.475-2.896c-0.781,0-1.355,0.275-1.723,0.825c-0.366,0.55-0.55,1.24-0.55,2.071
					C191.153,297.295,191.351,297.937,191.749,298.414z"/>
				<path fill="#8DB63C" d="M209.041,300.118c0,0.354-0.082,0.603-0.248,0.742c-0.164,0.141-0.455,0.211-0.87,0.211
					c-0.403,0-0.685-0.058-0.843-0.174c-0.159-0.116-0.264-0.32-0.312-0.614c-0.061-0.329-0.104-0.531-0.127-0.604
					c-0.025-0.073-0.074-0.11-0.147-0.11c-0.049,0-0.144,0.086-0.284,0.257c-0.141,0.172-0.299,0.364-0.477,0.577
					c-0.177,0.214-0.477,0.406-0.898,0.577c-0.421,0.172-0.912,0.257-1.475,0.257c-1.308,0-2.321-0.455-3.043-1.365
					c-0.721-0.91-1.08-2.159-1.08-3.748c0-1.466,0.378-2.639,1.136-3.519c0.757-0.88,1.71-1.319,2.858-1.319
					c0.587,0,1.092,0.067,1.513,0.201c0.421,0.135,0.715,0.281,0.88,0.44c0.164,0.158,0.309,0.305,0.43,0.439
					c0.123,0.135,0.215,0.201,0.275,0.201c0.11,0,0.165-0.073,0.165-0.22c0-0.061-0.007-0.223-0.019-0.485s-0.024-0.681-0.036-1.256
					c-0.013-0.574-0.019-1.265-0.019-2.07c0-0.294,0.098-0.507,0.293-0.642s0.531-0.202,1.008-0.202
					c0.489,0,0.838,0.064,1.045,0.192c0.208,0.129,0.312,0.346,0.312,0.651c0,0.158-0.007,2.019-0.02,5.58
					C209.047,297.677,209.041,299.678,209.041,300.118z M204.183,299.183c0.623,0,1.164-0.263,1.623-0.788
					c0.457-0.524,0.687-1.276,0.687-2.254c0-0.807-0.217-1.444-0.65-1.915c-0.435-0.471-0.969-0.706-1.604-0.706
					c-0.696,0-1.269,0.232-1.714,0.696c-0.445,0.465-0.669,1.149-0.669,2.053c0,0.966,0.217,1.692,0.651,2.182
					C202.941,298.939,203.5,299.183,204.183,299.183z"/>
				<path fill="#8DB63C" d="M216.719,295.554v-0.439c0-1.148-0.599-1.723-1.796-1.723c-0.306,0-0.571,0.04-0.797,0.119
					c-0.227,0.079-0.404,0.174-0.531,0.284c-0.129,0.109-0.236,0.25-0.321,0.421c-0.086,0.172-0.144,0.312-0.175,0.422
					c-0.029,0.11-0.058,0.247-0.082,0.412s-0.037,0.26-0.037,0.284c-0.072,0.403-0.488,0.605-1.246,0.605
					c-0.477,0-0.803-0.095-0.98-0.284c-0.177-0.189-0.266-0.492-0.266-0.907c0-0.306,0.037-0.602,0.11-0.889s0.211-0.59,0.412-0.907
					c0.202-0.318,0.464-0.596,0.788-0.834s0.758-0.434,1.301-0.587c0.544-0.152,1.164-0.229,1.861-0.229
					c1.416,0,2.482,0.326,3.197,0.98c0.715,0.653,1.072,1.688,1.072,3.106c-0.012,2.944-0.018,4.557-0.018,4.838
					c0,0.293-0.077,0.507-0.229,0.642c-0.153,0.135-0.456,0.201-0.907,0.201c-0.525,0-0.838-0.244-0.936-0.732
					c-0.109-0.514-0.183-0.776-0.219-0.788c-0.013-0.013-0.031-0.019-0.056-0.019c-0.049,0-0.153,0.092-0.312,0.274
					c-0.158,0.184-0.346,0.383-0.559,0.596c-0.214,0.214-0.562,0.413-1.045,0.596c-0.482,0.184-1.041,0.275-1.677,0.275
					c-0.855,0-1.549-0.218-2.08-0.65c-0.532-0.434-0.798-0.993-0.798-1.678c0-0.524,0.156-0.955,0.468-1.292
					c0.312-0.336,0.702-0.559,1.173-0.669c0.471-0.109,0.978-0.204,1.521-0.284c0.543-0.079,1.051-0.137,1.521-0.174
					c0.47-0.036,0.861-0.134,1.172-0.293C216.564,296.074,216.719,295.848,216.719,295.554z M216.665,297.351
					c0-0.195-0.056-0.294-0.165-0.294c-0.062,0-0.156,0.034-0.284,0.102c-0.128,0.066-0.323,0.152-0.587,0.256
					c-0.262,0.104-0.559,0.192-0.889,0.266c-0.098,0.025-0.238,0.053-0.422,0.083c-0.183,0.03-0.314,0.055-0.394,0.073
					s-0.183,0.046-0.312,0.082c-0.129,0.037-0.223,0.073-0.284,0.11s-0.125,0.086-0.192,0.146c-0.066,0.062-0.113,0.132-0.137,0.211
					c-0.025,0.079-0.037,0.168-0.037,0.266c0,0.244,0.107,0.449,0.32,0.614c0.214,0.165,0.492,0.247,0.834,0.247
					c0.781,0,1.402-0.238,1.86-0.715S216.665,297.839,216.665,297.351z"/>
				<path fill="#8DB63C" d="M225.993,293.484h-1.485c-0.17,0-0.281,0.027-0.329,0.082c-0.049,0.056-0.073,0.156-0.073,0.303
					c0,0.366-0.004,1.143-0.01,2.327c-0.006,1.186-0.009,1.857-0.009,2.017c0,0.696,0.274,1.044,0.825,1.044
					c0.183,0,0.363-0.036,0.54-0.109s0.333-0.11,0.468-0.11c0.244,0,0.442,0.083,0.596,0.248c0.152,0.164,0.229,0.406,0.229,0.724
					c0,0.831-0.801,1.246-2.4,1.246c-0.929,0-1.625-0.232-2.09-0.696c-0.465-0.465-0.696-1.118-0.696-1.961
					c0-0.587-0.003-1.405-0.009-2.456s-0.01-1.808-0.01-2.272c0-0.257-0.085-0.385-0.256-0.385h-0.66
					c-0.184,0-0.314-0.058-0.395-0.175c-0.079-0.115-0.119-0.332-0.119-0.65c0-0.513,0.195-0.8,0.587-0.861
					c0.562-0.085,0.843-0.257,0.843-0.513c0-0.171,0.004-0.479,0.01-0.926s0.009-0.748,0.009-0.907c0-0.366,0.104-0.632,0.312-0.797
					c0.208-0.165,0.537-0.248,0.99-0.248c0.451,0,0.775,0.08,0.971,0.238c0.195,0.159,0.293,0.416,0.293,0.771v1.832
					c0,0.195,0.092,0.293,0.275,0.293h1.649c0.245,0,0.419,0.067,0.522,0.202s0.156,0.391,0.156,0.77s-0.056,0.636-0.166,0.77
					C226.451,293.417,226.261,293.484,225.993,293.484z"/>
				<path fill="#8DB63C" d="M233.983,295.554v-0.439c0-1.148-0.599-1.723-1.796-1.723c-0.306,0-0.571,0.04-0.797,0.119
					c-0.227,0.079-0.404,0.174-0.531,0.284c-0.129,0.109-0.236,0.25-0.321,0.421c-0.086,0.172-0.144,0.312-0.175,0.422
					c-0.029,0.11-0.058,0.247-0.082,0.412s-0.037,0.26-0.037,0.284c-0.072,0.403-0.488,0.605-1.246,0.605
					c-0.477,0-0.803-0.095-0.98-0.284c-0.177-0.189-0.266-0.492-0.266-0.907c0-0.306,0.037-0.602,0.11-0.889s0.211-0.59,0.412-0.907
					c0.202-0.318,0.464-0.596,0.788-0.834s0.758-0.434,1.301-0.587c0.544-0.152,1.164-0.229,1.861-0.229
					c1.416,0,2.482,0.326,3.197,0.98c0.715,0.653,1.072,1.688,1.072,3.106c-0.012,2.944-0.018,4.557-0.018,4.838
					c0,0.293-0.077,0.507-0.229,0.642c-0.153,0.135-0.456,0.201-0.907,0.201c-0.525,0-0.838-0.244-0.936-0.732
					c-0.109-0.514-0.183-0.776-0.219-0.788c-0.013-0.013-0.031-0.019-0.056-0.019c-0.049,0-0.153,0.092-0.312,0.274
					c-0.158,0.184-0.346,0.383-0.559,0.596c-0.214,0.214-0.562,0.413-1.045,0.596c-0.482,0.184-1.041,0.275-1.677,0.275
					c-0.855,0-1.549-0.218-2.08-0.65c-0.532-0.434-0.798-0.993-0.798-1.678c0-0.524,0.156-0.955,0.468-1.292
					c0.312-0.336,0.702-0.559,1.173-0.669c0.471-0.109,0.978-0.204,1.521-0.284c0.543-0.079,1.051-0.137,1.521-0.174
					c0.47-0.036,0.861-0.134,1.172-0.293C233.828,296.074,233.983,295.848,233.983,295.554z M233.928,297.351
					c0-0.195-0.056-0.294-0.165-0.294c-0.062,0-0.156,0.034-0.284,0.102c-0.128,0.066-0.323,0.152-0.587,0.256
					c-0.262,0.104-0.559,0.192-0.889,0.266c-0.098,0.025-0.238,0.053-0.422,0.083c-0.183,0.03-0.314,0.055-0.394,0.073
					s-0.183,0.046-0.312,0.082c-0.129,0.037-0.223,0.073-0.284,0.11s-0.125,0.086-0.192,0.146c-0.066,0.062-0.113,0.132-0.137,0.211
					c-0.025,0.079-0.037,0.168-0.037,0.266c0,0.244,0.107,0.449,0.32,0.614c0.214,0.165,0.492,0.247,0.834,0.247
					c0.781,0,1.402-0.238,1.86-0.715S233.928,297.839,233.928,297.351z"/>
			</g>
			<g enable-background="new    ">
				<path fill="#006F90" d="M241.113,299.733c0,0.953-0.514,1.43-1.54,1.43c-0.477,0-0.849-0.128-1.118-0.385
					c-0.269-0.257-0.402-0.604-0.402-1.045c0-0.916,0.488-1.374,1.466-1.374c0.599,0,1.014,0.113,1.246,0.339
					C240.996,298.924,241.113,299.269,241.113,299.733z"/>
				<path fill="#006F90" d="M242.799,298.927v-10.245c0-0.66,0.434-0.99,1.301-0.99c0.452,0,0.773,0.073,0.963,0.221
					c0.189,0.146,0.283,0.415,0.283,0.806c0,0.379-0.012,2.084-0.036,5.113c-0.024,3.03-0.036,4.687-0.036,4.967
					c0,0.318,0.104,0.477,0.311,0.477c0.037,0,0.098-0.006,0.184-0.019c0.086-0.012,0.165-0.018,0.238-0.018
					c0.477,0,0.715,0.281,0.715,0.843c0,0.782-0.55,1.173-1.649,1.173c-0.745,0-1.31-0.208-1.695-0.623
					C242.991,300.216,242.799,299.648,242.799,298.927z"/>
				<path fill="#006F90" d="M256.067,298.67c0,0.244-0.079,0.507-0.238,0.788s-0.394,0.559-0.706,0.834
					c-0.311,0.274-0.754,0.501-1.328,0.678s-1.229,0.266-1.961,0.266c-1.454,0-2.605-0.461-3.455-1.384
					c-0.85-0.922-1.273-2.165-1.273-3.729c0-1.43,0.418-2.587,1.256-3.473c0.836-0.886,2-1.329,3.49-1.329
					c1.43,0,2.535,0.339,3.318,1.018c0.781,0.678,1.172,1.646,1.172,2.904c0,0.525-0.082,0.877-0.247,1.055
					c-0.165,0.177-0.437,0.266-0.815,0.266c-0.184,0-1.069-0.003-2.657-0.01c-1.589-0.006-2.45-0.009-2.585-0.009
					c-0.183,0-0.302,0.036-0.357,0.109c-0.055,0.074-0.082,0.196-0.082,0.367c0,0.623,0.221,1.143,0.66,1.558
					s1.002,0.623,1.686,0.623c0.428,0,0.789-0.052,1.082-0.155c0.293-0.104,0.513-0.227,0.66-0.367
					c0.146-0.14,0.28-0.284,0.402-0.431s0.269-0.271,0.439-0.376c0.172-0.104,0.379-0.155,0.623-0.155
					c0.258,0,0.475,0.086,0.651,0.257S256.067,298.377,256.067,298.67z M250.074,295.243h3.592c0.306,0,0.459-0.14,0.459-0.421
					c0-0.403-0.189-0.77-0.568-1.1s-0.923-0.495-1.631-0.495c-0.733,0-1.293,0.174-1.678,0.522
					c-0.385,0.348-0.576,0.718-0.576,1.108c0,0.146,0.027,0.248,0.082,0.303S249.916,295.243,250.074,295.243z"/>
				<path fill="#006F90" d="M266.202,298.67c0,0.244-0.079,0.507-0.238,0.788s-0.394,0.559-0.706,0.834
					c-0.311,0.274-0.754,0.501-1.328,0.678s-1.229,0.266-1.961,0.266c-1.454,0-2.605-0.461-3.455-1.384
					c-0.85-0.922-1.273-2.165-1.273-3.729c0-1.43,0.418-2.587,1.256-3.473c0.836-0.886,2-1.329,3.49-1.329
					c1.43,0,2.535,0.339,3.318,1.018c0.781,0.678,1.172,1.646,1.172,2.904c0,0.525-0.082,0.877-0.247,1.055
					c-0.165,0.177-0.437,0.266-0.815,0.266c-0.184,0-1.069-0.003-2.657-0.01c-1.589-0.006-2.45-0.009-2.585-0.009
					c-0.183,0-0.302,0.036-0.357,0.109c-0.055,0.074-0.082,0.196-0.082,0.367c0,0.623,0.221,1.143,0.66,1.558
					s1.002,0.623,1.686,0.623c0.428,0,0.789-0.052,1.082-0.155c0.293-0.104,0.513-0.227,0.66-0.367
					c0.146-0.14,0.28-0.284,0.402-0.431s0.269-0.271,0.439-0.376c0.172-0.104,0.379-0.155,0.623-0.155
					c0.258,0,0.475,0.086,0.651,0.257S266.202,298.377,266.202,298.67z M260.209,295.243h3.592c0.306,0,0.459-0.14,0.459-0.421
					c0-0.403-0.189-0.77-0.568-1.1s-0.923-0.495-1.631-0.495c-0.733,0-1.293,0.174-1.678,0.522
					c-0.385,0.348-0.576,0.718-0.576,1.108c0,0.146,0.027,0.248,0.082,0.303S260.051,295.243,260.209,295.243z"/>
				<path fill="#006F90" d="M272.342,293.484h-0.861c-0.318,0-0.477,0.141-0.477,0.421c0,0.025,0,0.291,0,0.798
					s0.002,1.09,0.009,1.75s0.009,1.18,0.009,1.558c0,0.11,0.004,0.434,0.01,0.972s0.01,0.947,0.01,1.228
					c0,0.294-0.102,0.514-0.303,0.66c-0.202,0.146-0.553,0.22-1.055,0.22c-0.525,0-0.863-0.076-1.017-0.229
					c-0.153-0.152-0.229-0.394-0.229-0.724c0-0.061-0.003-0.464-0.009-1.209c-0.007-0.745-0.009-1.418-0.009-2.017
					c0-0.439,0.002-0.889,0.009-1.347c0.006-0.458,0.009-0.84,0.009-1.146s0-0.488,0-0.55c0-0.257-0.086-0.385-0.256-0.385h-0.422
					c-0.452,0-0.678-0.269-0.678-0.807c0-0.306,0.036-0.507,0.109-0.604c0.074-0.098,0.287-0.184,0.642-0.257
					c0.281-0.049,0.455-0.092,0.522-0.128c0.066-0.037,0.101-0.092,0.101-0.165c0-0.013-0.046-0.149-0.138-0.413
					c-0.092-0.262-0.137-0.57-0.137-0.925c0-0.745,0.277-1.348,0.834-1.806c0.555-0.458,1.248-0.688,2.08-0.688
					c0.696,0,1.264,0.095,1.704,0.284s0.659,0.462,0.659,0.815c0,0.343-0.088,0.651-0.266,0.926
					c-0.177,0.275-0.394,0.412-0.65,0.412c-0.073,0-0.195-0.03-0.366-0.091c-0.171-0.062-0.337-0.092-0.495-0.092
					c-0.635,0-0.953,0.269-0.953,0.807c0,0.22,0.033,0.406,0.102,0.559c0.066,0.152,0.148,0.229,0.247,0.229h1.228
					c0.551,0,0.825,0.324,0.825,0.972c0,0.366-0.062,0.62-0.184,0.761S272.623,293.484,272.342,293.484z"/>
				<path fill="#006F90" d="M276.611,295.921v4.361c0,0.245-0.092,0.431-0.274,0.56c-0.183,0.128-0.55,0.192-1.1,0.192
					c-0.403,0-0.702-0.058-0.897-0.175c-0.196-0.115-0.294-0.339-0.294-0.669c0-1.441,0.007-2.758,0.019-3.949
					s0.021-2.107,0.027-2.749s0.01-1.005,0.01-1.09c0-0.318,0.078-0.544,0.238-0.679c0.158-0.134,0.439-0.201,0.842-0.201
					c0.33,0,0.557,0.061,0.679,0.183c0.122,0.123,0.226,0.361,0.312,0.715c0.073,0.33,0.178,0.495,0.312,0.495
					c0.049,0,0.128-0.085,0.238-0.257c0.11-0.171,0.238-0.354,0.386-0.55c0.146-0.195,0.399-0.378,0.76-0.55
					c0.36-0.171,0.785-0.256,1.273-0.256c0.551,0,1.012,0.088,1.385,0.266c0.372,0.177,0.629,0.375,0.77,0.596
					c0.14,0.22,0.268,0.418,0.385,0.595c0.115,0.178,0.223,0.267,0.32,0.267c0.086,0,0.198-0.089,0.339-0.267
					c0.141-0.177,0.294-0.375,0.458-0.595c0.166-0.221,0.452-0.419,0.861-0.596c0.41-0.178,0.883-0.266,1.421-0.266
					c0.94,0,1.716,0.299,2.327,0.897s0.916,1.516,0.916,2.749c0,1.112,0.01,2.16,0.028,3.144s0.027,1.609,0.027,1.878
					c0,0.403-0.089,0.679-0.266,0.825s-0.517,0.22-1.018,0.22c-0.513,0-0.853-0.067-1.017-0.201
					c-0.165-0.135-0.248-0.367-0.248-0.697c0-0.061,0.006-0.678,0.019-1.851s0.019-1.937,0.019-2.291
					c0-0.843-0.129-1.457-0.385-1.842c-0.257-0.385-0.69-0.577-1.301-0.577c-0.453,0-0.85,0.187-1.191,0.559
					c-0.343,0.373-0.514,0.889-0.514,1.549c0,0.904,0.003,1.589,0.01,2.053c0.006,0.465,0.008,1.253,0.008,2.364
					c0,0.184-0.008,0.317-0.027,0.403c-0.018,0.085-0.063,0.177-0.137,0.274c-0.073,0.099-0.201,0.165-0.385,0.202
					c-0.184,0.036-0.428,0.055-0.733,0.055c-0.452,0-0.77-0.064-0.953-0.192c-0.183-0.128-0.274-0.369-0.274-0.724
					c0-0.062,0.006-0.675,0.018-1.842c0.013-1.167,0.019-1.928,0.019-2.282c0-0.855-0.122-1.479-0.366-1.869
					s-0.672-0.587-1.283-0.587c-0.537,0-0.965,0.202-1.283,0.605C276.77,294.528,276.611,295.127,276.611,295.921z"/>
				<path fill="#006F90" d="M292.849,289.103c0,0.403-0.156,0.74-0.467,1.009c-0.312,0.269-0.7,0.403-1.164,0.403
					c-0.489,0-0.877-0.141-1.164-0.422s-0.431-0.647-0.431-1.1c0-0.464,0.134-0.85,0.403-1.154c0.269-0.306,0.66-0.459,1.173-0.459
					C292.3,287.38,292.849,287.956,292.849,289.103z M292.502,300.228c0,0.342-0.083,0.574-0.248,0.696s-0.498,0.184-0.999,0.184
					s-0.849-0.07-1.044-0.211c-0.196-0.141-0.294-0.388-0.294-0.742c0-0.11,0.009-1.325,0.028-3.647
					c0.018-2.321,0.027-3.671,0.027-4.05c0-0.354,0.082-0.596,0.247-0.724c0.165-0.129,0.51-0.193,1.035-0.193
					c0.464,0,0.785,0.083,0.962,0.248c0.178,0.165,0.266,0.425,0.266,0.778c0,0.379,0.004,1.678,0.01,3.895
					C292.498,298.679,292.502,299.935,292.502,300.228z"/>
				<path fill="#006F90" d="M294.205,298.927v-10.245c0-0.66,0.434-0.99,1.302-0.99c0.452,0,0.772,0.073,0.962,0.221
					c0.189,0.146,0.284,0.415,0.284,0.806c0,0.379-0.013,2.084-0.036,5.113c-0.025,3.03-0.037,4.687-0.037,4.967
					c0,0.318,0.104,0.477,0.312,0.477c0.036,0,0.098-0.006,0.184-0.019c0.085-0.012,0.165-0.018,0.238-0.018
					c0.476,0,0.714,0.281,0.714,0.843c0,0.782-0.549,1.173-1.648,1.173c-0.746,0-1.311-0.208-1.695-0.623
					S294.205,299.648,294.205,298.927z"/>
				<path fill="#006F90" d="M301.774,289.103c0,0.403-0.155,0.74-0.468,1.009c-0.311,0.269-0.699,0.403-1.164,0.403
					c-0.488,0-0.876-0.141-1.163-0.422s-0.431-0.647-0.431-1.1c0-0.464,0.135-0.85,0.403-1.154c0.269-0.306,0.659-0.459,1.173-0.459
					C301.224,287.38,301.774,287.956,301.774,289.103z M301.426,300.228c0,0.342-0.082,0.574-0.247,0.696s-0.498,0.184-0.999,0.184
					s-0.85-0.07-1.045-0.211s-0.293-0.388-0.293-0.742c0-0.11,0.01-1.325,0.027-3.647c0.019-2.321,0.027-3.671,0.027-4.05
					c0-0.354,0.083-0.596,0.248-0.724c0.165-0.129,0.51-0.193,1.035-0.193c0.465,0,0.785,0.083,0.963,0.248
					c0.176,0.165,0.266,0.425,0.266,0.778c0,0.379,0.002,1.678,0.009,3.895C301.423,298.679,301.426,299.935,301.426,300.228z"/>
				<path fill="#006F90" d="M311.707,298.67c0,0.244-0.079,0.507-0.238,0.788c-0.158,0.281-0.394,0.559-0.705,0.834
					c-0.312,0.274-0.754,0.501-1.328,0.678c-0.575,0.177-1.229,0.266-1.961,0.266c-1.455,0-2.606-0.461-3.455-1.384
					c-0.85-0.922-1.273-2.165-1.273-3.729c0-1.43,0.418-2.587,1.255-3.473s2.001-1.329,3.491-1.329c1.43,0,2.535,0.339,3.317,1.018
					c0.782,0.678,1.173,1.646,1.173,2.904c0,0.525-0.082,0.877-0.248,1.055c-0.164,0.177-0.437,0.266-0.814,0.266
					c-0.184,0-1.07-0.003-2.658-0.01c-1.588-0.006-2.449-0.009-2.584-0.009c-0.184,0-0.303,0.036-0.357,0.109
					c-0.055,0.074-0.082,0.196-0.082,0.367c0,0.623,0.22,1.143,0.66,1.558c0.439,0.415,1.001,0.623,1.686,0.623
					c0.428,0,0.788-0.052,1.081-0.155c0.294-0.104,0.513-0.227,0.66-0.367c0.146-0.14,0.28-0.284,0.403-0.431
					c0.121-0.146,0.268-0.271,0.439-0.376c0.171-0.104,0.379-0.155,0.623-0.155c0.257,0,0.474,0.086,0.65,0.257
					C311.619,298.145,311.707,298.377,311.707,298.67z M305.715,295.243h3.592c0.305,0,0.458-0.14,0.458-0.421
					c0-0.403-0.189-0.77-0.567-1.1c-0.379-0.33-0.924-0.495-1.632-0.495c-0.733,0-1.292,0.174-1.677,0.522
					c-0.385,0.348-0.577,0.718-0.577,1.108c0,0.146,0.027,0.248,0.083,0.303C305.449,295.215,305.555,295.243,305.715,295.243z"/>
				<path fill="#006F90" d="M321.897,300.044c0,0.648-0.366,0.972-1.1,0.972c-0.379,0-0.651-0.073-0.815-0.22
					c-0.166-0.146-0.285-0.373-0.357-0.679c-0.013-0.061-0.027-0.137-0.046-0.229s-0.03-0.162-0.037-0.211
					c-0.006-0.049-0.019-0.101-0.036-0.156c-0.019-0.055-0.037-0.094-0.055-0.118c-0.02-0.024-0.047-0.037-0.083-0.037
					c-0.049,0-0.106,0.064-0.175,0.192c-0.066,0.128-0.158,0.284-0.274,0.468c-0.116,0.183-0.269,0.369-0.458,0.559
					s-0.467,0.349-0.834,0.477s-0.795,0.192-1.283,0.192c-2.125,0-3.188-1.344-3.188-4.032c0-0.953-0.003-1.716-0.009-2.291
					c-0.007-0.574-0.01-1.417-0.01-2.528c0-0.318,0.092-0.55,0.275-0.697c0.184-0.146,0.525-0.22,1.025-0.22
					c0.489,0,0.832,0.062,1.027,0.184s0.293,0.354,0.293,0.696c0,0.062-0.006,0.69-0.019,1.888s-0.019,1.979-0.019,2.346
					c0,1.613,0.557,2.419,1.668,2.419c1.295,0,1.943-1.008,1.943-3.023c0-0.904-0.007-1.723-0.02-2.456
					c-0.012-0.733-0.018-1.13-0.018-1.191c0-0.293,0.098-0.501,0.293-0.623s0.531-0.184,1.008-0.184
					c0.488,0,0.837,0.059,1.045,0.175c0.207,0.116,0.312,0.339,0.312,0.669c0,0.403-0.009,1.738-0.027,4.004
					C321.906,298.655,321.897,299.874,321.897,300.044z"/>
				<path fill="#006F90" d="M331.336,288.718v1.888c0,0.367-0.006,0.703-0.019,1.009c-0.013,0.305-0.019,0.482-0.019,0.531
					c0,0.269,0.061,0.403,0.184,0.403c0.061,0,0.156-0.067,0.284-0.202c0.128-0.134,0.277-0.287,0.448-0.458
					c0.172-0.171,0.459-0.323,0.861-0.458c0.404-0.135,0.868-0.202,1.394-0.202c1.185,0,2.114,0.419,2.786,1.256
					s1.008,2.05,1.008,3.638c0,1.491-0.355,2.7-1.063,3.629s-1.667,1.393-2.877,1.393c-0.66,0-1.213-0.089-1.659-0.266
					c-0.445-0.177-0.745-0.375-0.897-0.596c-0.153-0.22-0.284-0.418-0.394-0.596c-0.111-0.177-0.196-0.266-0.258-0.266
					c-0.061,0-0.104,0.027-0.128,0.083c-0.024,0.055-0.055,0.192-0.091,0.412c-0.013,0.049-0.021,0.089-0.028,0.119
					c-0.006,0.03-0.013,0.07-0.019,0.119s-0.016,0.098-0.027,0.146c-0.049,0.269-0.162,0.455-0.339,0.559
					c-0.177,0.104-0.431,0.156-0.761,0.156c-0.391,0-0.662-0.076-0.815-0.229c-0.153-0.152-0.229-0.388-0.229-0.705
					c0-0.073-0.002-1.359-0.009-3.858c-0.007-2.498-0.009-5-0.009-7.505c0-0.354,0.101-0.613,0.303-0.778
					c0.201-0.165,0.559-0.248,1.072-0.248c0.537,0,0.889,0.08,1.053,0.238C331.254,288.089,331.336,288.352,331.336,288.718z
					 M333.37,299.183c0.696,0,1.246-0.263,1.649-0.788c0.403-0.524,0.605-1.265,0.605-2.217c0-0.953-0.184-1.635-0.551-2.044
					c-0.366-0.409-0.898-0.614-1.594-0.614c-1.516,0-2.273,0.929-2.273,2.786c0,0.892,0.199,1.595,0.596,2.107
					C332.2,298.927,332.722,299.183,333.37,299.183z"/>
				<path fill="#006F90" d="M342.002,296.672v3.409c0,0.342-0.092,0.59-0.275,0.742c-0.184,0.153-0.525,0.229-1.025,0.229
					c-0.477,0-0.816-0.076-1.018-0.229c-0.201-0.152-0.303-0.4-0.303-0.742c0-1.43,0.006-2.733,0.019-3.913
					c0.013-1.179,0.024-2.086,0.036-2.722c0.013-0.635,0.019-1.001,0.019-1.1c0-0.305,0.073-0.516,0.22-0.632
					s0.41-0.175,0.789-0.175c0.378,0,0.635,0.062,0.77,0.184c0.134,0.122,0.231,0.36,0.293,0.715
					c0.073,0.477,0.165,0.715,0.275,0.715c0.061,0,0.148-0.082,0.266-0.247c0.115-0.165,0.25-0.352,0.402-0.56
					c0.152-0.207,0.395-0.394,0.725-0.559s0.708-0.248,1.137-0.248c0.378,0,0.652,0.083,0.824,0.248
					c0.171,0.165,0.256,0.442,0.256,0.834c0,0.403-0.07,0.718-0.211,0.943c-0.141,0.227-0.424,0.339-0.852,0.339
					C342.783,293.905,342.002,294.828,342.002,296.672z"/>
				<path fill="#006F90" d="M355.088,300.044c0,0.648-0.367,0.972-1.1,0.972c-0.379,0-0.651-0.073-0.816-0.22
					s-0.284-0.373-0.357-0.679c-0.012-0.061-0.027-0.137-0.045-0.229c-0.02-0.092-0.031-0.162-0.037-0.211s-0.019-0.101-0.037-0.156
					c-0.018-0.055-0.037-0.094-0.055-0.118c-0.019-0.024-0.046-0.037-0.082-0.037c-0.049,0-0.107,0.064-0.175,0.192
					s-0.159,0.284-0.274,0.468c-0.117,0.183-0.27,0.369-0.459,0.559s-0.467,0.349-0.834,0.477c-0.366,0.128-0.794,0.192-1.282,0.192
					c-2.126,0-3.188-1.344-3.188-4.032c0-0.953-0.004-1.716-0.01-2.291c-0.006-0.574-0.01-1.417-0.01-2.528
					c0-0.318,0.092-0.55,0.275-0.697c0.184-0.146,0.525-0.22,1.026-0.22c0.489,0,0.831,0.062,1.026,0.184s0.293,0.354,0.293,0.696
					c0,0.062-0.006,0.69-0.018,1.888c-0.013,1.197-0.019,1.979-0.019,2.346c0,1.613,0.556,2.419,1.667,2.419
					c1.295,0,1.943-1.008,1.943-3.023c0-0.904-0.006-1.723-0.019-2.456s-0.019-1.13-0.019-1.191c0-0.293,0.098-0.501,0.293-0.623
					s0.532-0.184,1.009-0.184c0.488,0,0.837,0.059,1.044,0.175c0.208,0.116,0.312,0.339,0.312,0.669c0,0.403-0.01,1.738-0.027,4.004
					C355.095,298.655,355.088,299.874,355.088,300.044z"/>
				<path fill="#006F90" d="M357.267,297.791c0.257,0,0.488,0.082,0.697,0.247c0.207,0.165,0.387,0.346,0.54,0.541
					s0.421,0.376,0.807,0.541c0.385,0.165,0.853,0.247,1.401,0.247c1.088,0,1.631-0.306,1.631-0.916c0-0.306-0.17-0.525-0.512-0.66
					c-0.343-0.135-1.07-0.293-2.182-0.477c-1.222-0.208-2.059-0.556-2.511-1.045c-0.452-0.488-0.679-1.1-0.679-1.832
					c0-1.002,0.4-1.769,1.201-2.301c0.8-0.531,1.762-0.797,2.887-0.797c1.331,0,2.333,0.244,3.006,0.733
					c0.672,0.488,1.008,1.094,1.008,1.814c0,0.635-0.397,0.953-1.191,0.953c-0.416,0-0.733-0.195-0.953-0.587
					c-0.392-0.66-1.021-0.989-1.888-0.989c-1.088,0-1.632,0.329-1.632,0.989c0,0.366,0.15,0.647,0.449,0.843
					c0.3,0.196,0.944,0.379,1.934,0.55c1.43,0.245,2.386,0.575,2.869,0.99c0.482,0.415,0.723,0.983,0.723,1.704
					c0,0.843-0.372,1.539-1.117,2.089c-0.746,0.55-1.846,0.825-3.299,0.825c-1.356,0-2.38-0.271-3.07-0.815
					c-0.689-0.544-1.035-1.103-1.035-1.677C356.351,298.115,356.656,297.791,357.267,297.791z"/>
				<path fill="#006F90" d="M366.743,297.791c0.257,0,0.488,0.082,0.696,0.247c0.207,0.165,0.388,0.346,0.541,0.541
					c0.152,0.195,0.421,0.376,0.807,0.541c0.385,0.165,0.852,0.247,1.401,0.247c1.087,0,1.631-0.306,1.631-0.916
					c0-0.306-0.171-0.525-0.513-0.66s-1.069-0.293-2.182-0.477c-1.221-0.208-2.059-0.556-2.51-1.045
					c-0.453-0.488-0.679-1.1-0.679-1.832c0-1.002,0.399-1.769,1.2-2.301c0.801-0.531,1.763-0.797,2.887-0.797
					c1.332,0,2.334,0.244,3.006,0.733c0.672,0.488,1.008,1.094,1.008,1.814c0,0.635-0.396,0.953-1.191,0.953
					c-0.416,0-0.732-0.195-0.953-0.587c-0.391-0.66-1.02-0.989-1.887-0.989c-1.088,0-1.632,0.329-1.632,0.989
					c0,0.366,0.149,0.647,0.449,0.843c0.3,0.196,0.944,0.379,1.934,0.55c1.429,0.245,2.386,0.575,2.868,0.99
					s0.724,0.983,0.724,1.704c0,0.843-0.372,1.539-1.118,2.089c-0.745,0.55-1.845,0.825-3.299,0.825
					c-1.355,0-2.379-0.271-3.069-0.815s-1.036-1.103-1.036-1.677C365.826,298.115,366.132,297.791,366.743,297.791z"/>
				<path fill="#006F90" d="M384.263,298.67c0,0.244-0.08,0.507-0.238,0.788s-0.395,0.559-0.705,0.834
					c-0.312,0.274-0.755,0.501-1.329,0.678c-0.575,0.177-1.228,0.266-1.961,0.266c-1.454,0-2.606-0.461-3.455-1.384
					c-0.849-0.922-1.273-2.165-1.273-3.729c0-1.43,0.419-2.587,1.255-3.473c0.838-0.886,2.001-1.329,3.492-1.329
					c1.43,0,2.535,0.339,3.316,1.018c0.782,0.678,1.174,1.646,1.174,2.904c0,0.525-0.083,0.877-0.248,1.055
					c-0.165,0.177-0.438,0.266-0.815,0.266c-0.183,0-1.069-0.003-2.657-0.01c-1.589-0.006-2.45-0.009-2.584-0.009
					c-0.184,0-0.303,0.036-0.357,0.109c-0.055,0.074-0.083,0.196-0.083,0.367c0,0.623,0.22,1.143,0.66,1.558
					s1.001,0.623,1.687,0.623c0.427,0,0.787-0.052,1.08-0.155c0.294-0.104,0.514-0.227,0.66-0.367
					c0.146-0.14,0.281-0.284,0.403-0.431s0.269-0.271,0.44-0.376c0.17-0.104,0.378-0.155,0.623-0.155
					c0.256,0,0.473,0.086,0.65,0.257C384.175,298.145,384.263,298.377,384.263,298.67z M378.27,295.243h3.593
					c0.305,0,0.457-0.14,0.457-0.421c0-0.403-0.189-0.77-0.567-1.1c-0.379-0.33-0.923-0.495-1.632-0.495
					c-0.732,0-1.291,0.174-1.676,0.522c-0.385,0.348-0.578,0.718-0.578,1.108c0,0.146,0.027,0.248,0.083,0.303
					C378.005,295.215,378.111,295.243,378.27,295.243z"/>
				<path fill="#006F90" d="M385.821,298.927v-10.245c0-0.66,0.434-0.99,1.302-0.99c0.451,0,0.771,0.073,0.962,0.221
					c0.188,0.146,0.284,0.415,0.284,0.806c0,0.379-0.013,2.084-0.037,5.113c-0.024,3.03-0.037,4.687-0.037,4.967
					c0,0.318,0.104,0.477,0.312,0.477c0.036,0,0.098-0.006,0.184-0.019c0.084-0.012,0.164-0.018,0.238-0.018
					c0.476,0,0.714,0.281,0.714,0.843c0,0.782-0.55,1.173-1.649,1.173c-0.745,0-1.311-0.208-1.695-0.623
					S385.821,299.648,385.821,298.927z"/>
			</g>
			<g enable-background="new    ">
				<path fill="#939399" d="M393.537,299.733c0,0.953-0.514,1.43-1.54,1.43c-0.477,0-0.849-0.128-1.118-0.385
					c-0.269-0.257-0.402-0.604-0.402-1.045c0-0.916,0.488-1.374,1.466-1.374c0.599,0,1.014,0.113,1.246,0.339
					C393.42,298.924,393.537,299.269,393.537,299.733z"/>
				<path fill="#939399" d="M397.917,288.718v1.888c0,0.367-0.007,0.703-0.019,1.009c-0.012,0.305-0.018,0.482-0.018,0.531
					c0,0.269,0.061,0.403,0.183,0.403c0.062,0,0.155-0.067,0.284-0.202c0.128-0.134,0.277-0.287,0.449-0.458
					c0.17-0.171,0.458-0.323,0.861-0.458c0.402-0.135,0.867-0.202,1.393-0.202c1.186,0,2.113,0.419,2.785,1.256
					s1.008,2.05,1.008,3.638c0,1.491-0.354,2.7-1.062,3.629s-1.668,1.393-2.877,1.393c-0.66,0-1.213-0.089-1.658-0.266
					c-0.447-0.177-0.746-0.375-0.898-0.596c-0.153-0.22-0.284-0.418-0.395-0.596c-0.109-0.177-0.195-0.266-0.256-0.266
					c-0.062,0-0.104,0.027-0.129,0.083c-0.024,0.055-0.055,0.192-0.092,0.412c-0.012,0.049-0.021,0.089-0.027,0.119
					s-0.012,0.07-0.018,0.119c-0.007,0.049-0.016,0.098-0.027,0.146c-0.05,0.269-0.162,0.455-0.34,0.559
					c-0.178,0.104-0.431,0.156-0.76,0.156c-0.393,0-0.664-0.076-0.816-0.229c-0.152-0.152-0.229-0.388-0.229-0.705
					c0-0.073-0.004-1.359-0.01-3.858c-0.006-2.498-0.009-5-0.009-7.505c0-0.354,0.101-0.613,0.302-0.778
					c0.202-0.165,0.56-0.248,1.072-0.248c0.537,0,0.889,0.08,1.055,0.238C397.834,288.089,397.917,288.352,397.917,288.718z
					 M399.951,299.183c0.696,0,1.246-0.263,1.649-0.788c0.403-0.524,0.604-1.265,0.604-2.217c0-0.953-0.184-1.635-0.55-2.044
					s-0.897-0.614-1.595-0.614c-1.515,0-2.271,0.929-2.271,2.786c0,0.892,0.197,1.595,0.596,2.107
					C398.781,298.927,399.302,299.183,399.951,299.183z"/>
				<path fill="#939399" d="M408.583,296.672v3.409c0,0.342-0.092,0.59-0.274,0.742c-0.184,0.153-0.525,0.229-1.027,0.229
					c-0.477,0-0.814-0.076-1.017-0.229c-0.202-0.152-0.303-0.4-0.303-0.742c0-1.43,0.007-2.733,0.019-3.913
					c0.012-1.179,0.024-2.086,0.037-2.722c0.012-0.635,0.018-1.001,0.018-1.1c0-0.305,0.074-0.516,0.221-0.632
					s0.408-0.175,0.787-0.175s0.636,0.062,0.77,0.184c0.135,0.122,0.232,0.36,0.294,0.715c0.073,0.477,0.165,0.715,0.274,0.715
					c0.062,0,0.15-0.082,0.266-0.247c0.117-0.165,0.251-0.352,0.404-0.56c0.152-0.207,0.394-0.394,0.723-0.559
					c0.33-0.165,0.709-0.248,1.137-0.248c0.379,0,0.654,0.083,0.825,0.248s0.257,0.442,0.257,0.834c0,0.403-0.07,0.718-0.211,0.943
					c-0.141,0.227-0.425,0.339-0.853,0.339C409.365,293.905,408.583,294.828,408.583,296.672z"/>
				<path fill="#939399" d="M421.668,300.044c0,0.648-0.366,0.972-1.1,0.972c-0.379,0-0.65-0.073-0.815-0.22
					s-0.284-0.373-0.357-0.679c-0.013-0.061-0.027-0.137-0.046-0.229c-0.018-0.092-0.03-0.162-0.037-0.211
					c-0.006-0.049-0.018-0.101-0.036-0.156c-0.019-0.055-0.036-0.094-0.055-0.118s-0.046-0.037-0.083-0.037
					c-0.049,0-0.106,0.064-0.174,0.192s-0.158,0.284-0.275,0.468c-0.115,0.183-0.268,0.369-0.457,0.559s-0.468,0.349-0.834,0.477
					c-0.367,0.128-0.795,0.192-1.283,0.192c-2.126,0-3.189-1.344-3.189-4.032c0-0.953-0.003-1.716-0.009-2.291
					c-0.007-0.574-0.009-1.417-0.009-2.528c0-0.318,0.092-0.55,0.274-0.697c0.184-0.146,0.525-0.22,1.026-0.22
					c0.488,0,0.831,0.062,1.026,0.184s0.294,0.354,0.294,0.696c0,0.062-0.007,0.69-0.02,1.888c-0.012,1.197-0.018,1.979-0.018,2.346
					c0,1.613,0.556,2.419,1.668,2.419c1.295,0,1.942-1.008,1.942-3.023c0-0.904-0.007-1.723-0.019-2.456s-0.018-1.13-0.018-1.191
					c0-0.293,0.098-0.501,0.293-0.623s0.531-0.184,1.008-0.184c0.488,0,0.836,0.059,1.045,0.175
					c0.207,0.116,0.311,0.339,0.311,0.669c0,0.403-0.009,1.738-0.027,4.004C421.677,298.655,421.668,299.874,421.668,300.044z"/>
				<path fill="#939399" d="M423.849,297.791c0.256,0,0.488,0.082,0.695,0.247c0.208,0.165,0.389,0.346,0.541,0.541
					s0.422,0.376,0.807,0.541s0.852,0.247,1.402,0.247c1.087,0,1.631-0.306,1.631-0.916c0-0.306-0.172-0.525-0.514-0.66
					s-1.068-0.293-2.181-0.477c-1.222-0.208-2.06-0.556-2.511-1.045c-0.452-0.488-0.678-1.1-0.678-1.832
					c0-1.002,0.399-1.769,1.2-2.301c0.8-0.531,1.763-0.797,2.886-0.797c1.332,0,2.334,0.244,3.006,0.733
					c0.672,0.488,1.008,1.094,1.008,1.814c0,0.635-0.396,0.953-1.191,0.953c-0.415,0-0.732-0.195-0.952-0.587
					c-0.392-0.66-1.021-0.989-1.888-0.989c-1.088,0-1.631,0.329-1.631,0.989c0,0.366,0.148,0.647,0.449,0.843
					c0.299,0.196,0.943,0.379,1.934,0.55c1.429,0.245,2.385,0.575,2.867,0.99s0.725,0.983,0.725,1.704
					c0,0.843-0.373,1.539-1.118,2.089s-1.845,0.825-3.3,0.825c-1.355,0-2.379-0.271-3.068-0.815
					c-0.691-0.544-1.036-1.103-1.036-1.677C422.932,298.115,423.238,297.791,423.849,297.791z"/>
				<path fill="#939399" d="M433.324,297.791c0.256,0,0.488,0.082,0.696,0.247s0.388,0.346,0.54,0.541
					c0.153,0.195,0.422,0.376,0.807,0.541s0.853,0.247,1.402,0.247c1.088,0,1.631-0.306,1.631-0.916c0-0.306-0.171-0.525-0.513-0.66
					c-0.343-0.135-1.069-0.293-2.181-0.477c-1.223-0.208-2.06-0.556-2.512-1.045c-0.451-0.488-0.678-1.1-0.678-1.832
					c0-1.002,0.4-1.769,1.201-2.301c0.799-0.531,1.762-0.797,2.886-0.797c1.331,0,2.333,0.244,3.006,0.733
					c0.672,0.488,1.008,1.094,1.008,1.814c0,0.635-0.397,0.953-1.191,0.953c-0.415,0-0.733-0.195-0.952-0.587
					c-0.393-0.66-1.021-0.989-1.889-0.989c-1.088,0-1.631,0.329-1.631,0.989c0,0.366,0.149,0.647,0.449,0.843
					c0.299,0.196,0.943,0.379,1.934,0.55c1.43,0.245,2.385,0.575,2.868,0.99c0.482,0.415,0.724,0.983,0.724,1.704
					c0,0.843-0.373,1.539-1.117,2.089c-0.746,0.55-1.846,0.825-3.3,0.825c-1.356,0-2.38-0.271-3.069-0.815
					c-0.69-0.544-1.035-1.103-1.035-1.677C432.408,298.115,432.713,297.791,433.324,297.791z"/>
				<path fill="#939399" d="M450.844,298.67c0,0.244-0.079,0.507-0.238,0.788s-0.394,0.559-0.706,0.834
					c-0.311,0.274-0.754,0.501-1.328,0.678s-1.229,0.266-1.961,0.266c-1.454,0-2.605-0.461-3.455-1.384
					c-0.85-0.922-1.273-2.165-1.273-3.729c0-1.43,0.418-2.587,1.256-3.473c0.836-0.886,2-1.329,3.49-1.329
					c1.43,0,2.535,0.339,3.318,1.018c0.781,0.678,1.172,1.646,1.172,2.904c0,0.525-0.082,0.877-0.247,1.055
					c-0.165,0.177-0.437,0.266-0.815,0.266c-0.184,0-1.069-0.003-2.657-0.01c-1.589-0.006-2.45-0.009-2.585-0.009
					c-0.183,0-0.302,0.036-0.357,0.109c-0.055,0.074-0.082,0.196-0.082,0.367c0,0.623,0.221,1.143,0.66,1.558
					s1.002,0.623,1.686,0.623c0.428,0,0.789-0.052,1.082-0.155c0.293-0.104,0.513-0.227,0.66-0.367
					c0.146-0.14,0.28-0.284,0.402-0.431s0.269-0.271,0.439-0.376c0.172-0.104,0.379-0.155,0.623-0.155
					c0.258,0,0.475,0.086,0.651,0.257S450.844,298.377,450.844,298.67z M444.851,295.243h3.592c0.306,0,0.459-0.14,0.459-0.421
					c0-0.403-0.189-0.77-0.568-1.1s-0.923-0.495-1.631-0.495c-0.733,0-1.293,0.174-1.678,0.522
					c-0.385,0.348-0.576,0.718-0.576,1.108c0,0.146,0.027,0.248,0.082,0.303S444.693,295.243,444.851,295.243z"/>
				<path fill="#939399" d="M452.402,298.927v-10.245c0-0.66,0.434-0.99,1.301-0.99c0.452,0,0.773,0.073,0.963,0.221
					c0.189,0.146,0.283,0.415,0.283,0.806c0,0.379-0.012,2.084-0.036,5.113c-0.024,3.03-0.036,4.687-0.036,4.967
					c0,0.318,0.104,0.477,0.311,0.477c0.037,0,0.098-0.006,0.184-0.019c0.086-0.012,0.165-0.018,0.238-0.018
					c0.477,0,0.715,0.281,0.715,0.843c0,0.782-0.55,1.173-1.649,1.173c-0.745,0-1.31-0.208-1.695-0.623
					C452.594,300.216,452.402,299.648,452.402,298.927z"/>
				<path fill="#939399" d="M457.626,297.791c0.257,0,0.488,0.082,0.696,0.247c0.207,0.165,0.388,0.346,0.541,0.541
					c0.152,0.195,0.421,0.376,0.807,0.541c0.385,0.165,0.852,0.247,1.401,0.247c1.087,0,1.631-0.306,1.631-0.916
					c0-0.306-0.171-0.525-0.513-0.66s-1.069-0.293-2.182-0.477c-1.221-0.208-2.059-0.556-2.51-1.045
					c-0.453-0.488-0.679-1.1-0.679-1.832c0-1.002,0.399-1.769,1.2-2.301c0.801-0.531,1.763-0.797,2.887-0.797
					c1.332,0,2.334,0.244,3.006,0.733c0.672,0.488,1.008,1.094,1.008,1.814c0,0.635-0.396,0.953-1.191,0.953
					c-0.416,0-0.732-0.195-0.953-0.587c-0.391-0.66-1.02-0.989-1.887-0.989c-1.088,0-1.632,0.329-1.632,0.989
					c0,0.366,0.149,0.647,0.449,0.843c0.3,0.196,0.944,0.379,1.934,0.55c1.429,0.245,2.386,0.575,2.868,0.99
					s0.724,0.983,0.724,1.704c0,0.843-0.372,1.539-1.118,2.089c-0.745,0.55-1.845,0.825-3.299,0.825
					c-1.355,0-2.379-0.271-3.069-0.815s-1.036-1.103-1.036-1.677C456.709,298.115,457.014,297.791,457.626,297.791z"/>
			</g>
		</g>
		<g>
			<path fill="#949499" d="M480.847,300.822c-0.002,0.262-0.108,0.479-0.369,0.479c-0.278,0-0.592-0.539-1.375-0.92
				c-0.7-0.336-1.393-0.479-2.012-0.48c-0.772,0-2.065,0.367-3.295,0.391c-1.152,0.008-2.188-0.535-2.856-1.26
				c-0.5-0.535-0.839-1.395-0.839-2.173c0.005-0.972,0.39-1.933,1.238-2.647c0.637-0.529,1.359-0.741,2.199-0.742
				c1.258-0.01,2.521,0.643,3.326,1.277c1.178,0.934,2.25,2.184,3.004,3.529C480.304,299.037,480.849,300.32,480.847,300.822
				L480.847,300.822z"/>
			<path fill="#949499" d="M481.894,300.822c0.003,0.262,0.109,0.479,0.369,0.479c0.279,0,0.593-0.539,1.375-0.92
				c0.701-0.336,1.394-0.479,2.013-0.48c0.772,0,2.065,0.367,3.295,0.391c1.151,0.008,2.188-0.535,2.856-1.26
				c0.5-0.535,0.838-1.395,0.838-2.173c-0.004-0.972-0.389-1.933-1.237-2.647c-0.638-0.529-1.359-0.741-2.199-0.742
				c-1.258-0.01-2.521,0.643-3.326,1.277c-1.178,0.934-2.25,2.184-3.004,3.529C482.437,299.037,481.892,300.32,481.894,300.822
				L481.894,300.822z"/>
			<g>
				<path fill="#949499" d="M485.881,288.63c-0.588-0.584-1.295-0.979-2.322-0.969c-1.041,0.004-1.713,0.366-2.188,0.973
					c-0.477-0.605-1.146-0.969-2.201-0.973c-1.014-0.01-1.731,0.385-2.322,0.969c-0.627,0.627-0.948,1.441-0.95,2.375
					c-0.002,0.896,0.307,1.527,0.664,2.016c0.563,0.786,1.215,1.299,1.897,1.916c1.076,0.996,1.762,1.889,2.326,3.004
					c0.139,0.273,0.254,0.678,0.586,0.678s0.447-0.402,0.588-0.678c0.564-1.115,1.236-2.008,2.326-3.004
					c0.672-0.617,1.332-1.13,1.897-1.916c0.355-0.486,0.666-1.12,0.648-2.016C486.83,290.072,486.521,289.257,485.881,288.63z
					 M484.472,293.442c-0.532,0.543-1.037,0.823-1.811,1.679c-0.307,0.338-0.904,1.199-1.291,2.008c-0.387-0.809-1-1.67-1.289-2.008
					c-0.777-0.854-1.279-1.136-1.812-1.679c-0.778-0.796-1.338-1.346-1.364-2.378c-0.011-0.754,0.301-1.357,0.772-1.814
					c0.42-0.408,1.008-0.606,1.631-0.619c0.439-0.01,0.89,0.156,1.234,0.418c0.357,0.257,0.607,0.591,0.828,1.025
					c0.221-0.436,0.471-0.77,0.816-1.025c0.356-0.262,0.807-0.428,1.233-0.418c0.633,0.013,1.224,0.211,1.644,0.619
					c0.473,0.457,0.784,1.062,0.76,1.814C485.799,292.097,485.238,292.646,484.472,293.442z"/>
			</g>
		</g>
	</g>
	<g>
		<path fill="#76B82A" d="M156.866,293.108c0.811-0.618,1.358-1.72,1.358-2.983c0-1.953-1.286-3.521-2.854-3.521
			c-0.13,0-0.242,0.018-0.362,0.04c-1.021-1.494-3.289-1.84-5.273-0.699c-1.76,0.998-2.688,2.813-2.405,4.406
			c-1.472,0.547-2.322,2.122-1.929,3.634c0.339,1.247,1.415,2.061,2.645,2.137c0.532,0.646,1.479,1.076,2.575,1.076
			c0.643,0,1.251-0.148,1.743-0.408l-0.645,5.295l2.293-0.09c0,0-0.058-4.109,0.28-6.175c0.339,0.336,0.836,0.53,1.368,0.53
			c1.054,0,1.929-0.812,1.929-1.816C157.589,293.96,157.299,293.455,156.866,293.108z"/>
		<path fill="#007A9D" d="M142.506,303.921l18.902-2.01c-2.14-0.195-4.43-0.215-6.738-0.09c0.018-1.029,0.073-3.486,0.396-5.341
			c0.418,0.377,0.988,0.621,1.632,0.621c1.27,0,2.306-0.948,2.306-2.118c0-0.663-0.338-1.25-0.851-1.645
			c0.988-0.723,1.646-2.008,1.646-3.463c0-2.252-1.535-4.069-3.439-4.069c-0.154,0-0.289,0.024-0.441,0.039
			c-1.229-1.743-3.949-2.122-6.318-0.812c-2.101,1.15-3.234,3.271-2.896,5.104c-1.755,0.646-2.799,2.459-2.309,4.198
			c0.401,1.438,1.704,2.391,3.183,2.482c0.644,0.758,1.778,1.24,3.08,1.24c0.78,0,1.497-0.18,2.083-0.482L152.003,302
			C148.577,302.341,145.248,302.984,142.506,303.921z M153.497,296.557c0,0-3.255,2.421-5.636-0.308c0,0-3.087,0.308-2.976-3.142
			c0.063-2.003,2.139-2.928,2.139-2.928s-0.354-3.618,3.521-5.001c3.161-1.108,4.771,0.652,5.115,1.254c0,0,3.402-0.602,3.82,3.064
			c0.337,2.95-2.52,3.818-2.292,3.803c0,0,1.914,1.384,0.755,2.709c-1.173,1.32-2.702-0.161-3.254-0.723l-0.411,6.488
			c-0.683,0.047-1.366,0.102-2.043,0.158L153.497,296.557z"/>
	</g>
</g>
</svg>
