<?xml version="1.0" encoding="utf-8"?>
<!DOCTYPE svg PUBLIC "-//W3C//DTD SVG 1.1//EN" "http://www.w3.org/Graphics/SVG/1.1/DTD/svg11.dtd">
<svg version="1.1" xmlns="http://www.w3.org/2000/svg" xmlns:xlink="http://www.w3.org/1999/xlink" x="0px" y="0px" width="800px"
	 height="600px" viewBox="0 0 800 600" enable-background="new 0 0 800 600" xml:space="preserve">
<g id="spatial_nl">
	<rect x="212" y="305" fill="#FFFFFF" width="6" height="34"/>
	<g>
		<path fill="#F9FAF6" stroke="#DCDCDC" stroke-width="0.25" stroke-miterlimit="10" d="M224.144,303.505v27.923h0.02
			c0,0.835-0.693,1.529-1.523,1.529h-18.366c-0.831,0-1.523-0.694-1.523-1.529v-27.923"/>
	</g>
	<g>
		<g>
			<text transform="matrix(1 0 0 1 228.7734 326.5166)" enable-background="new    "><tspan x="0" y="0" fill="#8DB63C" font-family="'JFMXON+Mija-Bold'" font-size="18.3271">geodata</tspan><tspan x="69.954" y="0" fill="#006F90" font-family="'JFMXON+Mija-Bold'" font-size="18.3271">.leefmilieu brussel</tspan><tspan x="222.378" y="0" fill="#939399" font-family="'JFMXON+Mija-Bold'" font-size="18.3271">.brussels</tspan></text>
		</g>
		<g>
			<g>
				<path fill="#949499" d="M542.348,326.321c-0.002,0.262-0.109,0.479-0.369,0.479c-0.279,0-0.592-0.538-1.375-0.919
					c-0.701-0.337-1.393-0.479-2.012-0.481c-0.773-0.001-2.066,0.368-3.295,0.39c-1.152,0.009-2.189-0.534-2.857-1.26
					c-0.5-0.534-0.838-1.394-0.838-2.172c0.004-0.972,0.389-1.933,1.238-2.648c0.637-0.529,1.359-0.741,2.199-0.742
					c1.258-0.009,2.521,0.643,3.326,1.277c1.178,0.934,2.25,2.184,3.004,3.53C541.805,324.536,542.35,325.819,542.348,326.321
					L542.348,326.321z"/>
				<g transform="matrix(-1,0,0,1,900,0)">
					<path fill="#949499" d="M543.383,326.321c0,0.262,0.109,0.479,0.379,0.479c0.283,0,0.596-0.538,1.377-0.919
						c0.701-0.337,1.393-0.479,2.01-0.481c0.764-0.001,2.068,0.368,3.295,0.39c1.154,0.009,2.193-0.534,2.861-1.26
						c0.498-0.534,0.836-1.394,0.836-2.172c-0.004-0.972-0.389-1.933-1.252-2.648c-0.621-0.529-1.348-0.741-2.186-0.742
						c-1.258-0.009-2.52,0.643-3.328,1.277c-1.176,0.934-2.262,2.184-3.014,3.53C543.939,324.536,543.381,325.819,543.383,326.321
						L543.383,326.321z"/>
				</g>
				<g>
					<path fill="#949499" d="M547.381,314.13c-0.588-0.583-1.295-0.978-2.322-0.968c-1.041,0.003-1.713,0.366-2.188,0.972
						c-0.477-0.605-1.145-0.969-2.201-0.972c-1.014-0.01-1.732,0.385-2.322,0.968c-0.627,0.627-0.949,1.442-0.951,2.375
						c-0.002,0.896,0.307,1.528,0.664,2.016c0.564,0.786,1.215,1.299,1.898,1.916c1.076,0.996,1.762,1.889,2.326,3.004
						c0.139,0.274,0.254,0.678,0.586,0.678s0.447-0.403,0.588-0.678c0.564-1.115,1.236-2.008,2.326-3.004
						c0.672-0.617,1.332-1.13,1.898-1.916c0.355-0.487,0.666-1.12,0.648-2.016C548.33,315.572,548.021,314.757,547.381,314.13z
						 M545.973,318.942c-0.533,0.543-1.037,0.823-1.811,1.679c-0.307,0.337-0.904,1.199-1.291,2.008
						c-0.387-0.809-1-1.671-1.289-2.008c-0.777-0.855-1.279-1.136-1.812-1.679c-0.779-0.796-1.338-1.346-1.365-2.378
						c-0.01-0.754,0.301-1.357,0.773-1.815c0.42-0.408,1.008-0.606,1.631-0.619c0.439-0.009,0.889,0.157,1.234,0.418
						c0.357,0.257,0.607,0.591,0.828,1.026c0.221-0.436,0.471-0.77,0.816-1.026c0.357-0.261,0.807-0.427,1.234-0.418
						c0.633,0.013,1.223,0.211,1.643,0.619c0.473,0.458,0.785,1.062,0.76,1.815C547.299,317.597,546.738,318.146,545.973,318.942z"
						/>
				</g>
			</g>
		</g>
	</g>
	<g>
		<path fill="#76B82A" d="M218.366,318.608c0.811-0.619,1.358-1.72,1.358-2.983c0-1.953-1.286-3.522-2.854-3.522
			c-0.13,0-0.242,0.018-0.362,0.04c-1.021-1.494-3.289-1.84-5.274-0.699c-1.76,0.998-2.687,2.814-2.405,4.406
			c-1.472,0.547-2.322,2.122-1.929,3.634c0.339,1.247,1.415,2.06,2.645,2.137c0.532,0.646,1.479,1.076,2.575,1.076
			c0.642,0,1.251-0.148,1.743-0.409l-0.644,5.295l2.292-0.09c0,0-0.057-4.109,0.281-6.174c0.339,0.336,0.836,0.53,1.368,0.53
			c1.054,0,1.929-0.812,1.929-1.816C219.089,319.46,218.799,318.954,218.366,318.608z"/>
		<path fill="#007A9D" d="M204.006,329.422l18.902-2.01c-2.14-0.195-4.43-0.215-6.738-0.09c0.017-1.029,0.073-3.486,0.395-5.341
			c0.418,0.377,0.988,0.621,1.632,0.621c1.27,0,2.306-0.948,2.306-2.118c0-0.663-0.338-1.25-0.851-1.644
			c0.988-0.724,1.647-2.009,1.647-3.464c0-2.252-1.536-4.069-3.44-4.069c-0.154,0-0.289,0.024-0.441,0.039
			c-1.23-1.743-3.949-2.122-6.319-0.812c-2.1,1.151-3.234,3.271-2.895,5.105c-1.755,0.645-2.799,2.459-2.309,4.198
			c0.402,1.438,1.704,2.391,3.183,2.483c0.643,0.758,1.778,1.241,3.08,1.241c0.78,0,1.497-0.181,2.083-0.483l-0.738,4.422
			C210.077,327.841,206.748,328.483,204.006,329.422z M214.997,322.057c0,0-3.255,2.422-5.636-0.307c0,0-3.087,0.307-2.975-3.142
			c0.063-2.003,2.138-2.928,2.138-2.928s-0.354-3.618,3.521-5.001c3.161-1.108,4.77,0.652,5.115,1.254c0,0,3.402-0.602,3.82,3.064
			c0.337,2.951-2.519,3.819-2.292,3.804c0,0,1.914,1.383,0.755,2.708c-1.173,1.321-2.702-0.161-3.254-0.723l-0.411,6.488
			c-0.683,0.047-1.366,0.103-2.043,0.159L214.997,322.057z"/>
	</g>
</g>
<g id="spatial_fr">
	<rect x="212" y="240" fill="#FFFFFF" width="6" height="34"/>
	<g>
		<path fill="#F9FAF6" stroke="#DCDCDC" stroke-width="0.25" stroke-miterlimit="10" d="M224.144,238.505v27.923h0.02
			c0,0.835-0.693,1.529-1.523,1.529h-18.366c-0.831,0-1.523-0.694-1.523-1.529v-27.923"/>
	</g>
	<g>
		<g>
			<text transform="matrix(1 0 0 1 228.7734 261.5166)" enable-background="new    "><tspan x="0" y="0" fill="#8DB63C" font-family="'JFMXON+Mija-Bold'" font-size="18.3271">geodata</tspan><tspan x="69.954" y="0" fill="#006F90" font-family="'JFMXON+Mija-Bold'" font-size="18.3271">.bruxelles environnement</tspan><tspan x="281.501" y="0" fill="#939399" font-family="'JFMXON+Mija-Bold'" font-size="18.3271">.brussels</tspan></text>
		</g>
		<g>
			<g>
				<path fill="#949499" d="M601.471,261.321c-0.001,0.262-0.109,0.479-0.368,0.479c-0.28,0-0.593-0.538-1.375-0.919
					c-0.701-0.337-1.393-0.479-2.012-0.481c-0.773-0.001-2.066,0.368-3.296,0.39c-1.152,0.009-2.189-0.534-2.857-1.26
					c-0.499-0.534-0.838-1.394-0.837-2.172c0.003-0.972,0.388-1.933,1.237-2.648c0.637-0.529,1.36-0.741,2.2-0.742
					c1.258-0.009,2.521,0.643,3.326,1.277c1.177,0.934,2.25,2.184,3.004,3.53C600.928,259.536,601.474,260.819,601.471,261.321
					L601.471,261.321z"/>
				<g transform="matrix(-1,0,0,1,900,0)">
					<path fill="#949499" d="M602.506,261.321c0,0.262,0.109,0.479,0.38,0.479c0.282,0,0.595-0.538,1.377-0.919
						c0.7-0.337,1.393-0.479,2.01-0.481c0.764-0.001,2.067,0.368,3.295,0.39c1.154,0.009,2.192-0.534,2.86-1.26
						c0.498-0.534,0.837-1.394,0.836-2.172c-0.003-0.972-0.388-1.933-1.251-2.648c-0.621-0.529-1.348-0.741-2.186-0.742
						c-1.259-0.009-2.521,0.643-3.329,1.277c-1.175,0.934-2.262,2.184-3.013,3.53C603.062,259.536,602.504,260.819,602.506,261.321
						L602.506,261.321z"/>
				</g>
				<g>
					<path fill="#949499" d="M606.505,249.13c-0.588-0.583-1.296-0.977-2.323-0.967c-1.041,0.002-1.712,0.366-2.187,0.971
						c-0.477-0.605-1.146-0.969-2.201-0.971c-1.014-0.01-1.732,0.384-2.323,0.967c-0.627,0.627-0.949,1.442-0.951,2.375
						c-0.002,0.896,0.307,1.528,0.664,2.016c0.565,0.786,1.215,1.299,1.899,1.916c1.076,0.996,1.762,1.889,2.325,3.004
						c0.139,0.274,0.255,0.678,0.587,0.678c0.331,0,0.446-0.403,0.587-0.678c0.564-1.115,1.237-2.008,2.326-3.004
						c0.672-0.617,1.332-1.13,1.899-1.916c0.354-0.487,0.665-1.12,0.647-2.016C607.453,250.572,607.145,249.757,606.505,249.13z
						 M605.096,253.942c-0.532,0.543-1.037,0.823-1.81,1.679c-0.307,0.337-0.904,1.199-1.291,2.008
						c-0.387-0.809-1-1.671-1.289-2.008c-0.777-0.855-1.279-1.136-1.812-1.679c-0.779-0.796-1.338-1.346-1.366-2.378
						c-0.01-0.754,0.302-1.358,0.774-1.815c0.42-0.408,1.008-0.607,1.631-0.619c0.439-0.009,0.888,0.157,1.233,0.418
						c0.357,0.256,0.607,0.59,0.829,1.026c0.22-0.436,0.471-0.77,0.816-1.026c0.356-0.261,0.807-0.427,1.233-0.418
						c0.633,0.012,1.224,0.211,1.644,0.619c0.473,0.458,0.784,1.062,0.759,1.815C606.422,252.597,605.861,253.146,605.096,253.942z"
						/>
				</g>
			</g>
		</g>
	</g>
	<g>
		<path fill="#76B82A" d="M218.366,253.608c0.811-0.619,1.358-1.72,1.358-2.983c0-1.954-1.286-3.523-2.854-3.523
			c-0.13,0-0.242,0.018-0.362,0.04c-1.021-1.495-3.289-1.84-5.274-0.699c-1.76,0.998-2.687,2.815-2.405,4.406
			c-1.472,0.547-2.322,2.122-1.929,3.634c0.339,1.247,1.415,2.06,2.645,2.137c0.532,0.646,1.479,1.076,2.575,1.076
			c0.642,0,1.251-0.148,1.743-0.409l-0.644,5.295l2.292-0.09c0,0-0.057-4.109,0.281-6.174c0.339,0.336,0.836,0.53,1.368,0.53
			c1.054,0,1.929-0.812,1.929-1.816C219.089,254.46,218.799,253.954,218.366,253.608z"/>
		<path fill="#007A9D" d="M204.006,264.422l18.902-2.01c-2.14-0.195-4.43-0.215-6.738-0.09c0.017-1.029,0.073-3.486,0.395-5.341
			c0.418,0.377,0.988,0.621,1.632,0.621c1.27,0,2.306-0.948,2.306-2.118c0-0.663-0.338-1.25-0.851-1.644
			c0.988-0.724,1.647-2.009,1.647-3.464c0-2.251-1.536-4.069-3.44-4.069c-0.154,0-0.289,0.024-0.441,0.039
			c-1.23-1.744-3.949-2.122-6.319-0.812c-2.1,1.151-3.234,3.272-2.895,5.106c-1.755,0.644-2.799,2.458-2.309,4.198
			c0.402,1.438,1.704,2.391,3.183,2.483c0.643,0.758,1.778,1.241,3.08,1.241c0.78,0,1.497-0.181,2.083-0.483l-0.738,4.422
			C210.077,262.841,206.748,263.483,204.006,264.422z M214.997,257.057c0,0-3.255,2.422-5.636-0.307c0,0-3.087,0.307-2.975-3.142
			c0.063-2.003,2.138-2.928,2.138-2.928s-0.354-3.618,3.521-5c3.161-1.109,4.77,0.651,5.115,1.253c0,0,3.402-0.602,3.82,3.064
			c0.337,2.951-2.519,3.819-2.292,3.804c0,0,1.914,1.383,0.755,2.708c-1.173,1.321-2.702-0.161-3.254-0.723l-0.411,6.488
			c-0.683,0.047-1.366,0.103-2.043,0.159L214.997,257.057z"/>
	</g>
</g>
</svg>
