<?xml version="1.0" encoding="utf-8"?>
<!DOCTYPE svg PUBLIC "-//W3C//DTD SVG 1.1//EN" "http://www.w3.org/Graphics/SVG/1.1/DTD/svg11.dtd">
<svg version="1.1" id="Layer_1" xmlns="http://www.w3.org/2000/svg" xmlns:xlink="http://www.w3.org/1999/xlink" x="0px" y="0px"
	 width="351.391px" height="35.496px" viewBox="0 0 351.391 35.496" enable-background="new 0 0 351.391 35.496"
	 xml:space="preserve">
<g>
	<g>
		<path fill="#F9FAF6" stroke="#DCDCDC" stroke-width="0.25" stroke-miterlimit="10" d="M21.393,0v28.922h0.021
			c0,0.836-0.692,1.529-1.522,1.529H1.525c-0.831,0-1.522-0.693-1.522-1.529V0"/>
	</g>
	<g>
		<g>
			<g enable-background="new    ">
				<path fill="#8DB63C" d="M36.01,16.479h-0.604c-0.121,0-0.184,0.049-0.184,0.146c0,0.062,0.056,0.165,0.165,0.312
					c0.109,0.147,0.22,0.35,0.33,0.604c0.109,0.257,0.164,0.558,0.164,0.897c0,0.623-0.112,1.152-0.338,1.586
					c-0.228,0.434-0.478,0.729-0.752,0.889c-0.275,0.159-0.525,0.3-0.751,0.422c-0.227,0.122-0.339,0.228-0.339,0.312
					c0,0.062,0.122,0.132,0.365,0.211c0.245,0.079,0.514,0.168,0.808,0.266c0.292,0.098,0.562,0.314,0.806,0.65
					s0.367,0.755,0.367,1.256c0,0.904-0.412,1.637-1.237,2.199c-0.825,0.562-2.032,0.843-3.62,0.843
					c-1.393,0-2.492-0.27-3.299-0.808c-0.806-0.536-1.209-1.094-1.209-1.666c0-0.295,0.088-0.538,0.267-0.733
					c0.178-0.195,0.418-0.293,0.724-0.293c0.244,0,0.495,0.079,0.751,0.238c0.256,0.157,0.488,0.332,0.696,0.521
					c0.208,0.189,0.507,0.364,0.897,0.522c0.392,0.158,0.825,0.237,1.301,0.237c1.394,0,2.09-0.385,2.09-1.153
					c0-0.281-0.125-0.511-0.375-0.688c-0.25-0.177-0.581-0.309-0.99-0.394c-0.41-0.086-0.858-0.171-1.348-0.257
					c-0.488-0.086-0.978-0.218-1.466-0.396c-0.488-0.177-0.938-0.402-1.347-0.678c-0.41-0.274-0.74-0.675-0.99-1.2
					s-0.376-1.161-0.376-1.906c0-1.21,0.397-2.195,1.191-2.96c0.794-0.764,1.937-1.146,3.427-1.146c0.342,0,0.733,0.037,1.173,0.109
					c0.44,0.073,0.764,0.109,0.971,0.109h2.677c0.305,0,0.513,0.064,0.623,0.193c0.108,0.127,0.164,0.388,0.164,0.777
					c0,0.379-0.056,0.637-0.164,0.77C36.469,16.412,36.279,16.479,36.01,16.479z M33.445,18.586c0-0.672-0.191-1.21-0.576-1.612
					c-0.386-0.402-0.962-0.604-1.732-0.604c-0.721,0-1.274,0.208-1.659,0.623c-0.385,0.416-0.577,0.946-0.577,1.595
					c0,0.66,0.192,1.2,0.577,1.622c0.385,0.421,0.938,0.632,1.659,0.632c0.745,0,1.316-0.211,1.713-0.632
					C33.247,19.787,33.445,19.246,33.445,18.586z"/>
				<path fill="#8DB63C" d="M46.274,21.665c0,0.244-0.08,0.507-0.237,0.788c-0.159,0.281-0.396,0.559-0.706,0.834
					c-0.312,0.274-0.755,0.501-1.329,0.678c-0.574,0.178-1.229,0.267-1.961,0.267c-1.453,0-2.605-0.461-3.455-1.385
					c-0.85-0.922-1.273-2.164-1.273-3.729c0-1.43,0.419-2.587,1.256-3.473c0.837-0.887,2-1.33,3.491-1.33
					c1.431,0,2.535,0.34,3.317,1.019c0.781,0.679,1.173,1.646,1.173,2.904c0,0.524-0.083,0.877-0.247,1.055
					c-0.166,0.177-0.438,0.267-0.816,0.267c-0.183,0-1.067-0.004-2.655-0.01c-1.59-0.007-2.451-0.01-2.585-0.01
					c-0.184,0-0.303,0.036-0.357,0.109c-0.055,0.074-0.083,0.195-0.083,0.367c0,0.622,0.221,1.143,0.66,1.558
					c0.44,0.415,1.002,0.623,1.687,0.623c0.428,0,0.788-0.052,1.081-0.155s0.515-0.227,0.66-0.367
					c0.146-0.14,0.281-0.283,0.402-0.431c0.123-0.146,0.27-0.271,0.439-0.376c0.172-0.104,0.379-0.155,0.623-0.155
					c0.258,0,0.475,0.086,0.651,0.257C46.184,21.14,46.274,21.372,46.274,21.665z M40.281,18.238h3.593
					c0.306,0,0.458-0.14,0.458-0.421c0-0.403-0.189-0.77-0.568-1.1s-0.922-0.496-1.631-0.496c-0.732,0-1.292,0.174-1.677,0.522
					c-0.386,0.349-0.577,0.718-0.577,1.108c0,0.146,0.027,0.248,0.082,0.303S40.123,18.238,40.281,18.238z"/>
				<path fill="#8DB63C" d="M52.303,24.231c-1.491,0-2.674-0.442-3.547-1.328c-0.873-0.887-1.312-2.074-1.312-3.565
					c0-1.637,0.4-2.88,1.201-3.729c0.8-0.848,1.982-1.278,3.546-1.291c1.576,0,2.776,0.416,3.603,1.246
					c0.825,0.83,1.237,2.078,1.237,3.738c0,1.368-0.427,2.532-1.273,3.491C54.91,23.751,53.758,24.231,52.303,24.231z
					 M50.499,21.409c0.396,0.477,0.979,0.715,1.751,0.715c0.77,0,1.36-0.257,1.776-0.77c0.415-0.515,0.623-1.137,0.623-1.869
					c0-1.932-0.823-2.896-2.475-2.896c-0.781,0-1.355,0.275-1.723,0.825c-0.366,0.55-0.551,1.24-0.551,2.071
					C49.902,20.29,50.1,20.933,50.499,21.409z"/>
				<path fill="#8DB63C" d="M67.791,23.113c0,0.354-0.082,0.603-0.248,0.742c-0.164,0.141-0.455,0.211-0.87,0.211
					c-0.403,0-0.686-0.059-0.843-0.174c-0.159-0.116-0.265-0.32-0.312-0.614c-0.061-0.329-0.104-0.531-0.127-0.604
					c-0.024-0.072-0.074-0.109-0.146-0.109c-0.05,0-0.145,0.086-0.284,0.257c-0.142,0.172-0.299,0.364-0.478,0.577
					c-0.177,0.214-0.477,0.405-0.897,0.577s-0.912,0.257-1.476,0.257c-1.308,0-2.32-0.455-3.043-1.365
					c-0.721-0.91-1.08-2.159-1.08-3.748c0-1.466,0.379-2.64,1.137-3.519c0.757-0.881,1.71-1.319,2.857-1.319
					c0.587,0,1.093,0.067,1.514,0.2c0.421,0.136,0.715,0.281,0.88,0.44c0.164,0.158,0.309,0.306,0.43,0.439
					c0.123,0.135,0.215,0.2,0.275,0.2c0.109,0,0.165-0.072,0.165-0.219c0-0.062-0.008-0.224-0.02-0.486
					c-0.012-0.262-0.023-0.68-0.036-1.256c-0.013-0.574-0.019-1.265-0.019-2.069c0-0.294,0.098-0.507,0.293-0.642
					c0.195-0.136,0.531-0.203,1.008-0.203c0.489,0,0.838,0.064,1.045,0.192c0.208,0.129,0.312,0.347,0.312,0.651
					c0,0.158-0.008,2.019-0.021,5.58C67.797,20.672,67.791,22.673,67.791,23.113z M62.932,22.178c0.623,0,1.164-0.263,1.623-0.788
					c0.457-0.523,0.688-1.275,0.688-2.254c0-0.807-0.218-1.443-0.65-1.914c-0.435-0.472-0.969-0.707-1.604-0.707
					c-0.695,0-1.269,0.232-1.714,0.696c-0.444,0.466-0.669,1.149-0.669,2.054c0,0.965,0.217,1.691,0.651,2.182
					C61.69,21.935,62.25,22.178,62.932,22.178z"/>
				<path fill="#8DB63C" d="M75.469,18.55V18.11c0-1.148-0.599-1.723-1.796-1.723c-0.306,0-0.571,0.039-0.797,0.118
					c-0.228,0.079-0.404,0.175-0.531,0.284c-0.129,0.109-0.236,0.25-0.321,0.421c-0.086,0.173-0.144,0.312-0.175,0.423
					c-0.029,0.109-0.058,0.246-0.082,0.411c-0.023,0.165-0.037,0.261-0.037,0.284c-0.071,0.402-0.487,0.605-1.246,0.605
					c-0.477,0-0.803-0.096-0.979-0.285c-0.177-0.188-0.267-0.491-0.267-0.906c0-0.307,0.037-0.602,0.11-0.889
					s0.211-0.59,0.412-0.907c0.202-0.318,0.464-0.597,0.788-0.834c0.324-0.238,0.758-0.435,1.301-0.587
					c0.544-0.152,1.164-0.229,1.861-0.229c1.416,0,2.481,0.326,3.196,0.979c0.716,0.654,1.072,1.688,1.072,3.106
					c-0.012,2.944-0.018,4.558-0.018,4.838c0,0.293-0.077,0.507-0.229,0.643c-0.152,0.135-0.456,0.201-0.906,0.201
					c-0.525,0-0.839-0.244-0.937-0.732c-0.109-0.514-0.183-0.776-0.219-0.788c-0.014-0.013-0.031-0.019-0.057-0.019
					c-0.049,0-0.152,0.092-0.312,0.273c-0.158,0.185-0.346,0.383-0.559,0.597c-0.215,0.214-0.562,0.412-1.046,0.596
					c-0.481,0.184-1.041,0.274-1.677,0.274c-0.854,0-1.549-0.218-2.08-0.649c-0.531-0.435-0.798-0.993-0.798-1.678
					c0-0.524,0.156-0.955,0.468-1.292c0.312-0.337,0.702-0.56,1.174-0.669c0.471-0.109,0.978-0.205,1.521-0.285
					c0.543-0.078,1.051-0.137,1.521-0.174c0.47-0.035,0.86-0.134,1.172-0.293C75.313,19.069,75.469,18.843,75.469,18.55z
					 M75.415,20.347c0-0.195-0.057-0.295-0.165-0.295c-0.062,0-0.156,0.034-0.284,0.103c-0.128,0.065-0.323,0.151-0.587,0.256
					c-0.262,0.104-0.56,0.192-0.889,0.266c-0.099,0.025-0.238,0.054-0.423,0.083c-0.183,0.03-0.313,0.056-0.394,0.073
					c-0.08,0.019-0.183,0.046-0.312,0.082c-0.129,0.037-0.223,0.073-0.283,0.11c-0.062,0.037-0.125,0.086-0.192,0.146
					c-0.066,0.062-0.113,0.132-0.137,0.211c-0.025,0.079-0.037,0.168-0.037,0.267c0,0.243,0.106,0.448,0.32,0.613
					s0.491,0.247,0.834,0.247c0.78,0,1.401-0.237,1.859-0.715C75.183,21.316,75.415,20.834,75.415,20.347z"/>
				<path fill="#8DB63C" d="M84.743,16.479h-1.485c-0.17,0-0.281,0.027-0.329,0.082c-0.049,0.056-0.073,0.156-0.073,0.303
					c0,0.365-0.004,1.143-0.01,2.326c-0.006,1.187-0.009,1.857-0.009,2.018c0,0.696,0.273,1.044,0.825,1.044
					c0.183,0,0.362-0.036,0.54-0.108c0.177-0.073,0.333-0.11,0.468-0.11c0.244,0,0.441,0.083,0.596,0.248
					c0.152,0.164,0.229,0.406,0.229,0.724c0,0.831-0.802,1.246-2.4,1.246c-0.929,0-1.625-0.231-2.09-0.696s-0.696-1.117-0.696-1.961
					c0-0.587-0.003-1.405-0.009-2.456s-0.01-1.808-0.01-2.271c0-0.257-0.085-0.385-0.256-0.385h-0.66
					c-0.185,0-0.314-0.059-0.396-0.176c-0.079-0.115-0.119-0.332-0.119-0.649c0-0.513,0.195-0.8,0.587-0.861
					c0.562-0.085,0.844-0.257,0.844-0.513c0-0.171,0.004-0.479,0.01-0.926s0.009-0.748,0.009-0.907c0-0.366,0.104-0.632,0.312-0.797
					s0.537-0.248,0.989-0.248c0.451,0,0.775,0.08,0.972,0.237c0.194,0.16,0.293,0.416,0.293,0.771v1.832
					c0,0.195,0.092,0.293,0.274,0.293h1.649c0.245,0,0.419,0.066,0.521,0.202c0.104,0.135,0.156,0.392,0.156,0.771
					s-0.056,0.635-0.166,0.77C85.201,16.412,85.01,16.479,84.743,16.479z"/>
				<path fill="#8DB63C" d="M92.732,18.55V18.11c0-1.148-0.599-1.723-1.796-1.723c-0.306,0-0.57,0.039-0.797,0.118
					s-0.404,0.175-0.531,0.284c-0.129,0.109-0.235,0.25-0.32,0.421c-0.086,0.173-0.145,0.312-0.176,0.423
					c-0.028,0.109-0.058,0.246-0.082,0.411c-0.023,0.165-0.036,0.261-0.036,0.284c-0.072,0.402-0.488,0.605-1.246,0.605
					c-0.478,0-0.804-0.096-0.98-0.285c-0.177-0.188-0.266-0.491-0.266-0.906c0-0.307,0.037-0.602,0.109-0.889
					c0.073-0.287,0.211-0.59,0.412-0.907c0.202-0.318,0.464-0.597,0.788-0.834c0.324-0.238,0.758-0.435,1.301-0.587
					c0.545-0.152,1.164-0.229,1.861-0.229c1.416,0,2.482,0.326,3.197,0.979c0.715,0.654,1.072,1.688,1.072,3.106
					c-0.013,2.944-0.019,4.558-0.019,4.838c0,0.293-0.077,0.507-0.229,0.643c-0.153,0.135-0.456,0.201-0.907,0.201
					c-0.525,0-0.838-0.244-0.937-0.732c-0.108-0.514-0.183-0.776-0.219-0.788c-0.013-0.013-0.031-0.019-0.056-0.019
					c-0.049,0-0.153,0.092-0.312,0.273c-0.157,0.185-0.346,0.383-0.559,0.597c-0.214,0.214-0.562,0.412-1.045,0.596
					s-1.041,0.274-1.677,0.274c-0.855,0-1.55-0.218-2.08-0.649c-0.532-0.435-0.799-0.993-0.799-1.678
					c0-0.524,0.156-0.955,0.469-1.292c0.312-0.337,0.702-0.56,1.173-0.669s0.978-0.205,1.521-0.285
					c0.543-0.078,1.052-0.137,1.521-0.174c0.47-0.035,0.861-0.134,1.172-0.293C92.578,19.069,92.732,18.843,92.732,18.55z
					 M92.677,20.347c0-0.195-0.056-0.295-0.165-0.295c-0.062,0-0.156,0.034-0.284,0.103c-0.128,0.065-0.322,0.151-0.587,0.256
					c-0.262,0.104-0.559,0.192-0.889,0.266c-0.099,0.025-0.238,0.054-0.422,0.083c-0.184,0.03-0.314,0.056-0.395,0.073
					c-0.08,0.019-0.183,0.046-0.312,0.082c-0.129,0.037-0.224,0.073-0.284,0.11c-0.062,0.037-0.125,0.086-0.192,0.146
					c-0.065,0.062-0.112,0.132-0.137,0.211c-0.025,0.079-0.037,0.168-0.037,0.267c0,0.243,0.107,0.448,0.32,0.613
					c0.214,0.165,0.492,0.247,0.834,0.247c0.781,0,1.402-0.237,1.86-0.715C92.447,21.316,92.677,20.834,92.677,20.347z"/>
			</g>
			<g enable-background="new    ">
				<path fill="#006F90" d="M99.862,22.729c0,0.952-0.514,1.43-1.539,1.43c-0.478,0-0.85-0.128-1.118-0.385
					c-0.27-0.257-0.402-0.604-0.402-1.045c0-0.916,0.488-1.374,1.466-1.374c0.6,0,1.015,0.112,1.246,0.339
					C99.746,21.919,99.862,22.264,99.862,22.729z"/>
				<path fill="#006F90" d="M101.549,21.922V11.677c0-0.66,0.434-0.99,1.301-0.99c0.452,0,0.773,0.074,0.963,0.222
					c0.189,0.146,0.283,0.415,0.283,0.806c0,0.379-0.012,2.084-0.036,5.113c-0.023,3.029-0.036,4.688-0.036,4.967
					c0,0.318,0.104,0.478,0.312,0.478c0.037,0,0.098-0.007,0.184-0.02c0.086-0.012,0.165-0.018,0.238-0.018
					c0.477,0,0.715,0.28,0.715,0.843c0,0.782-0.55,1.173-1.648,1.173c-0.745,0-1.311-0.208-1.695-0.623
					C101.741,23.211,101.549,22.644,101.549,21.922z"/>
				<path fill="#006F90" d="M114.816,21.665c0,0.244-0.079,0.507-0.237,0.788c-0.159,0.281-0.395,0.559-0.706,0.834
					c-0.312,0.274-0.754,0.501-1.328,0.678c-0.574,0.178-1.229,0.267-1.961,0.267c-1.454,0-2.605-0.461-3.455-1.385
					c-0.851-0.922-1.273-2.164-1.273-3.729c0-1.43,0.418-2.587,1.256-3.473c0.836-0.887,2-1.33,3.49-1.33
					c1.431,0,2.535,0.34,3.318,1.019c0.781,0.679,1.172,1.646,1.172,2.904c0,0.524-0.082,0.877-0.247,1.055
					c-0.165,0.177-0.437,0.267-0.815,0.267c-0.184,0-1.068-0.004-2.656-0.01c-1.589-0.007-2.45-0.01-2.585-0.01
					c-0.184,0-0.303,0.036-0.357,0.109c-0.055,0.074-0.082,0.195-0.082,0.367c0,0.622,0.221,1.143,0.66,1.558
					c0.438,0.415,1.002,0.623,1.686,0.623c0.429,0,0.789-0.052,1.082-0.155s0.514-0.227,0.66-0.367
					c0.146-0.14,0.28-0.283,0.402-0.431s0.269-0.271,0.438-0.376c0.173-0.104,0.379-0.155,0.623-0.155
					c0.259,0,0.476,0.086,0.651,0.257S114.816,21.372,114.816,21.665z M108.824,18.238h3.592c0.306,0,0.459-0.14,0.459-0.421
					c0-0.403-0.189-0.77-0.568-1.1s-0.923-0.496-1.631-0.496c-0.733,0-1.293,0.174-1.678,0.522
					c-0.386,0.349-0.576,0.718-0.576,1.108c0,0.146,0.027,0.248,0.082,0.303S108.666,18.238,108.824,18.238z"/>
				<path fill="#006F90" d="M124.952,21.665c0,0.244-0.079,0.507-0.238,0.788s-0.395,0.559-0.706,0.834
					c-0.312,0.274-0.754,0.501-1.328,0.678c-0.574,0.178-1.229,0.267-1.961,0.267c-1.454,0-2.605-0.461-3.455-1.385
					c-0.85-0.922-1.272-2.164-1.272-3.729c0-1.43,0.418-2.587,1.256-3.473c0.836-0.887,2-1.33,3.489-1.33
					c1.431,0,2.535,0.34,3.318,1.019c0.781,0.679,1.172,1.646,1.172,2.904c0,0.524-0.082,0.877-0.247,1.055
					c-0.165,0.177-0.437,0.267-0.814,0.267c-0.185,0-1.069-0.004-2.657-0.01c-1.589-0.007-2.45-0.01-2.585-0.01
					c-0.184,0-0.302,0.036-0.357,0.109c-0.055,0.074-0.082,0.195-0.082,0.367c0,0.622,0.222,1.143,0.66,1.558
					c0.439,0.415,1.002,0.623,1.687,0.623c0.428,0,0.789-0.052,1.082-0.155s0.513-0.227,0.659-0.367
					c0.146-0.14,0.28-0.283,0.402-0.431s0.27-0.271,0.439-0.376c0.172-0.104,0.379-0.155,0.623-0.155
					c0.258,0,0.475,0.086,0.65,0.257S124.952,21.372,124.952,21.665z M118.959,18.238h3.592c0.306,0,0.459-0.14,0.459-0.421
					c0-0.403-0.188-0.77-0.568-1.1c-0.379-0.33-0.923-0.496-1.631-0.496c-0.732,0-1.293,0.174-1.678,0.522s-0.576,0.718-0.576,1.108
					c0,0.146,0.027,0.248,0.082,0.303S118.801,18.238,118.959,18.238z"/>
				<path fill="#006F90" d="M131.092,16.479h-0.861c-0.317,0-0.477,0.141-0.477,0.42c0,0.025,0,0.291,0,0.799
					c0,0.507,0.002,1.09,0.009,1.75s0.009,1.18,0.009,1.558c0,0.11,0.004,0.435,0.011,0.973c0.006,0.538,0.01,0.946,0.01,1.228
					c0,0.294-0.103,0.514-0.303,0.66c-0.202,0.146-0.554,0.22-1.056,0.22c-0.524,0-0.862-0.076-1.017-0.229
					c-0.153-0.152-0.229-0.395-0.229-0.725c0-0.061-0.003-0.464-0.009-1.209c-0.007-0.745-0.009-1.418-0.009-2.017
					c0-0.439,0.002-0.889,0.009-1.348c0.006-0.457,0.009-0.84,0.009-1.146s0-0.487,0-0.55c0-0.258-0.086-0.385-0.256-0.385h-0.422
					c-0.452,0-0.678-0.27-0.678-0.808c0-0.306,0.036-0.507,0.108-0.604c0.074-0.099,0.287-0.185,0.643-0.257
					c0.281-0.049,0.455-0.092,0.521-0.129s0.102-0.092,0.102-0.164c0-0.014-0.046-0.149-0.139-0.414
					c-0.092-0.262-0.137-0.569-0.137-0.924c0-0.746,0.277-1.349,0.834-1.807c0.556-0.458,1.248-0.688,2.08-0.688
					c0.696,0,1.264,0.095,1.704,0.283c0.44,0.189,0.659,0.463,0.659,0.815c0,0.343-0.088,0.651-0.267,0.926
					c-0.177,0.275-0.394,0.412-0.649,0.412c-0.073,0-0.195-0.03-0.366-0.091c-0.171-0.062-0.337-0.092-0.495-0.092
					c-0.635,0-0.953,0.269-0.953,0.807c0,0.221,0.033,0.406,0.103,0.559c0.065,0.152,0.147,0.229,0.247,0.229h1.228
					c0.551,0,0.825,0.324,0.825,0.972c0,0.366-0.062,0.62-0.184,0.762C131.574,16.409,131.373,16.479,131.092,16.479z"/>
				<path fill="#006F90" d="M135.36,18.916v4.361c0,0.245-0.092,0.431-0.273,0.56c-0.184,0.128-0.55,0.192-1.101,0.192
					c-0.402,0-0.701-0.059-0.896-0.175c-0.196-0.115-0.294-0.34-0.294-0.669c0-1.441,0.007-2.759,0.019-3.949
					c0.013-1.191,0.021-2.107,0.027-2.749c0.006-0.643,0.01-1.006,0.01-1.09c0-0.318,0.078-0.545,0.238-0.68
					c0.158-0.134,0.438-0.201,0.842-0.201c0.33,0,0.558,0.062,0.679,0.184c0.122,0.123,0.227,0.361,0.312,0.715
					c0.073,0.33,0.178,0.495,0.312,0.495c0.05,0,0.129-0.085,0.238-0.257c0.11-0.172,0.238-0.354,0.386-0.551
					c0.146-0.194,0.399-0.377,0.761-0.549c0.359-0.172,0.785-0.256,1.272-0.256c0.551,0,1.013,0.088,1.385,0.266
					c0.372,0.177,0.63,0.375,0.771,0.596c0.14,0.22,0.268,0.418,0.385,0.595c0.115,0.179,0.224,0.267,0.32,0.267
					c0.086,0,0.198-0.088,0.339-0.267c0.141-0.177,0.294-0.375,0.458-0.595c0.166-0.221,0.452-0.419,0.861-0.596
					c0.41-0.178,0.883-0.266,1.421-0.266c0.939,0,1.716,0.299,2.327,0.896c0.61,0.598,0.916,1.516,0.916,2.749
					c0,1.112,0.01,2.159,0.027,3.144c0.019,0.984,0.027,1.609,0.027,1.878c0,0.403-0.089,0.68-0.266,0.825
					c-0.178,0.146-0.518,0.22-1.019,0.22c-0.513,0-0.853-0.066-1.017-0.2c-0.165-0.136-0.248-0.367-0.248-0.697
					c0-0.062,0.006-0.678,0.019-1.852c0.014-1.172,0.02-1.937,0.02-2.291c0-0.843-0.129-1.457-0.386-1.842s-0.689-0.576-1.301-0.576
					c-0.453,0-0.85,0.187-1.19,0.559c-0.344,0.373-0.515,0.889-0.515,1.549c0,0.904,0.003,1.589,0.011,2.053
					c0.006,0.465,0.008,1.253,0.008,2.364c0,0.184-0.008,0.317-0.027,0.403c-0.018,0.085-0.062,0.177-0.137,0.273
					c-0.073,0.1-0.201,0.165-0.385,0.202c-0.185,0.036-0.429,0.055-0.733,0.055c-0.452,0-0.771-0.063-0.953-0.191
					s-0.273-0.369-0.273-0.725c0-0.062,0.006-0.675,0.018-1.842c0.013-1.167,0.019-1.928,0.019-2.282
					c0-0.854-0.122-1.479-0.365-1.869c-0.244-0.389-0.672-0.586-1.283-0.586c-0.537,0-0.965,0.201-1.283,0.604
					C135.519,17.522,135.36,18.122,135.36,18.916z"/>
				<path fill="#006F90" d="M151.598,12.099c0,0.402-0.156,0.739-0.467,1.008c-0.312,0.27-0.7,0.404-1.164,0.404
					c-0.489,0-0.877-0.142-1.164-0.423c-0.287-0.28-0.431-0.647-0.431-1.1c0-0.464,0.134-0.851,0.402-1.154
					c0.27-0.306,0.66-0.459,1.174-0.459C151.05,10.375,151.598,10.951,151.598,12.099z M151.252,23.223
					c0,0.343-0.083,0.574-0.248,0.696s-0.498,0.185-0.999,0.185s-0.849-0.07-1.044-0.211c-0.196-0.142-0.294-0.389-0.294-0.742
					c0-0.11,0.009-1.325,0.027-3.647c0.019-2.32,0.027-3.671,0.027-4.05c0-0.354,0.082-0.597,0.247-0.724
					c0.165-0.129,0.51-0.193,1.035-0.193c0.464,0,0.785,0.083,0.962,0.248c0.178,0.165,0.266,0.425,0.266,0.777
					c0,0.379,0.004,1.679,0.011,3.896C151.248,21.674,151.252,22.93,151.252,23.223z"/>
				<path fill="#006F90" d="M152.955,21.922V11.677c0-0.66,0.434-0.99,1.302-0.99c0.452,0,0.771,0.074,0.962,0.222
					c0.189,0.146,0.284,0.415,0.284,0.806c0,0.379-0.013,2.084-0.036,5.113c-0.025,3.029-0.037,4.688-0.037,4.967
					c0,0.318,0.104,0.478,0.312,0.478c0.035,0,0.098-0.007,0.184-0.02c0.085-0.012,0.165-0.018,0.238-0.018
					c0.476,0,0.714,0.28,0.714,0.843c0,0.782-0.549,1.173-1.648,1.173c-0.746,0-1.311-0.208-1.694-0.623
					C153.15,23.212,152.955,22.644,152.955,21.922z"/>
				<path fill="#006F90" d="M160.523,12.099c0,0.402-0.154,0.739-0.468,1.008c-0.311,0.27-0.699,0.404-1.164,0.404
					c-0.488,0-0.876-0.142-1.163-0.423c-0.287-0.28-0.431-0.647-0.431-1.1c0-0.464,0.135-0.851,0.403-1.154
					c0.269-0.306,0.658-0.459,1.173-0.459C159.973,10.375,160.523,10.951,160.523,12.099z M160.176,23.223
					c0,0.343-0.082,0.574-0.247,0.696s-0.498,0.185-0.999,0.185s-0.85-0.07-1.045-0.211c-0.195-0.142-0.293-0.389-0.293-0.742
					c0-0.11,0.01-1.325,0.027-3.647c0.019-2.32,0.026-3.671,0.026-4.05c0-0.354,0.083-0.597,0.248-0.724
					c0.165-0.129,0.51-0.193,1.035-0.193c0.465,0,0.785,0.083,0.963,0.248c0.176,0.165,0.267,0.425,0.267,0.777
					c0,0.379,0.002,1.679,0.009,3.896C160.173,21.674,160.176,22.93,160.176,23.223z"/>
				<path fill="#006F90" d="M170.457,21.665c0,0.244-0.079,0.507-0.238,0.788c-0.158,0.281-0.394,0.559-0.705,0.834
					c-0.312,0.274-0.754,0.501-1.328,0.678c-0.575,0.178-1.229,0.267-1.961,0.267c-1.455,0-2.605-0.461-3.455-1.385
					c-0.85-0.922-1.272-2.164-1.272-3.729c0-1.43,0.418-2.587,1.255-3.473c0.837-0.887,2.001-1.33,3.491-1.33
					c1.43,0,2.534,0.34,3.316,1.019s1.173,1.646,1.173,2.904c0,0.524-0.082,0.877-0.248,1.055c-0.164,0.177-0.437,0.267-0.813,0.267
					c-0.185,0-1.07-0.004-2.658-0.01c-1.588-0.007-2.449-0.01-2.584-0.01c-0.184,0-0.303,0.036-0.356,0.109
					c-0.056,0.074-0.082,0.195-0.082,0.367c0,0.622,0.22,1.143,0.659,1.558s1.001,0.623,1.687,0.623
					c0.428,0,0.788-0.052,1.081-0.155c0.294-0.104,0.513-0.227,0.66-0.367c0.146-0.14,0.279-0.283,0.402-0.431
					c0.121-0.146,0.269-0.271,0.439-0.376s0.379-0.155,0.623-0.155c0.257,0,0.474,0.086,0.649,0.257
					C170.369,21.14,170.457,21.372,170.457,21.665z M164.465,18.238h3.592c0.305,0,0.458-0.14,0.458-0.421
					c0-0.403-0.188-0.77-0.566-1.1c-0.38-0.33-0.925-0.496-1.633-0.496c-0.732,0-1.292,0.174-1.677,0.522s-0.577,0.718-0.577,1.108
					c0,0.146,0.027,0.248,0.083,0.303C164.199,18.21,164.304,18.238,164.465,18.238z"/>
				<path fill="#006F90" d="M180.647,23.039c0,0.648-0.365,0.972-1.1,0.972c-0.379,0-0.652-0.072-0.816-0.22
					c-0.166-0.146-0.285-0.373-0.355-0.679c-0.014-0.062-0.027-0.137-0.047-0.229c-0.02-0.092-0.029-0.162-0.037-0.211
					c-0.006-0.049-0.02-0.101-0.035-0.155c-0.02-0.056-0.037-0.095-0.055-0.118c-0.021-0.024-0.049-0.037-0.084-0.037
					c-0.049,0-0.105,0.063-0.176,0.191c-0.064,0.128-0.156,0.284-0.273,0.469c-0.115,0.183-0.27,0.368-0.457,0.559
					c-0.189,0.19-0.467,0.349-0.834,0.477c-0.368,0.128-0.795,0.192-1.284,0.192c-2.125,0-3.188-1.344-3.188-4.032
					c0-0.952-0.004-1.716-0.01-2.29c-0.007-0.574-0.01-1.418-0.01-2.529c0-0.317,0.092-0.549,0.275-0.696
					c0.184-0.146,0.524-0.22,1.024-0.22c0.489,0,0.832,0.062,1.027,0.184s0.293,0.354,0.293,0.695c0,0.062-0.006,0.691-0.02,1.889
					c-0.013,1.198-0.019,1.979-0.019,2.346c0,1.613,0.557,2.419,1.668,2.419c1.295,0,1.944-1.008,1.944-3.022
					c0-0.904-0.008-1.723-0.021-2.456c-0.012-0.733-0.018-1.13-0.018-1.19c0-0.293,0.098-0.502,0.293-0.623
					c0.195-0.123,0.531-0.185,1.008-0.185c0.488,0,0.838,0.06,1.045,0.175c0.207,0.116,0.312,0.34,0.312,0.669
					c0,0.403-0.01,1.738-0.027,4.005C180.656,21.65,180.647,22.869,180.647,23.039z"/>
				<path fill="#006F90" d="M190.086,11.713v1.888c0,0.367-0.006,0.703-0.02,1.01c-0.014,0.305-0.02,0.482-0.02,0.531
					c0,0.269,0.061,0.402,0.184,0.402c0.062,0,0.156-0.066,0.285-0.201c0.127-0.135,0.277-0.287,0.447-0.459
					c0.172-0.171,0.459-0.322,0.861-0.457c0.404-0.136,0.867-0.203,1.395-0.203c1.184,0,2.113,0.42,2.785,1.256
					c0.672,0.838,1.008,2.051,1.008,3.639c0,1.491-0.354,2.7-1.062,3.629c-0.707,0.929-1.666,1.393-2.877,1.393
					c-0.66,0-1.213-0.089-1.658-0.266s-0.746-0.375-0.898-0.596c-0.152-0.22-0.283-0.418-0.393-0.596
					c-0.111-0.178-0.197-0.267-0.26-0.267c-0.061,0-0.104,0.027-0.127,0.083c-0.023,0.055-0.055,0.192-0.092,0.412
					c-0.012,0.049-0.02,0.089-0.027,0.119c-0.006,0.03-0.014,0.07-0.02,0.119s-0.016,0.098-0.027,0.146
					c-0.049,0.27-0.16,0.455-0.338,0.56c-0.178,0.104-0.432,0.155-0.762,0.155c-0.391,0-0.662-0.075-0.814-0.229
					c-0.152-0.152-0.229-0.388-0.229-0.705c0-0.073-0.002-1.359-0.01-3.858c-0.006-2.498-0.008-5-0.008-7.505
					c0-0.354,0.1-0.612,0.303-0.778c0.201-0.164,0.559-0.248,1.072-0.248c0.535,0,0.889,0.08,1.053,0.238
					C190.004,11.084,190.086,11.347,190.086,11.713z M192.119,22.178c0.695,0,1.246-0.263,1.648-0.788
					c0.404-0.523,0.605-1.265,0.605-2.217c0-0.953-0.184-1.635-0.551-2.044c-0.365-0.409-0.898-0.614-1.594-0.614
					c-1.516,0-2.273,0.93-2.273,2.787c0,0.892,0.199,1.595,0.596,2.106C190.949,21.922,191.471,22.178,192.119,22.178z"/>
				<path fill="#006F90" d="M200.752,19.667v3.409c0,0.342-0.092,0.59-0.275,0.742s-0.525,0.229-1.025,0.229
					c-0.477,0-0.816-0.076-1.018-0.229s-0.303-0.4-0.303-0.742c0-1.43,0.006-2.733,0.018-3.913c0.014-1.179,0.025-2.086,0.037-2.723
					c0.014-0.635,0.02-1,0.02-1.1c0-0.305,0.072-0.516,0.219-0.632c0.148-0.116,0.41-0.175,0.789-0.175s0.635,0.062,0.77,0.184
					c0.135,0.123,0.232,0.36,0.293,0.715c0.074,0.478,0.166,0.715,0.275,0.715c0.062,0,0.148-0.082,0.266-0.246
					c0.115-0.165,0.25-0.352,0.402-0.561c0.152-0.207,0.396-0.394,0.725-0.559c0.33-0.165,0.709-0.248,1.139-0.248
					c0.377,0,0.65,0.083,0.824,0.248c0.17,0.165,0.256,0.441,0.256,0.834c0,0.402-0.07,0.718-0.211,0.943
					c-0.143,0.227-0.426,0.338-0.854,0.338C201.533,16.899,200.752,17.823,200.752,19.667z"/>
				<path fill="#006F90" d="M213.838,23.039c0,0.648-0.367,0.972-1.102,0.972c-0.379,0-0.65-0.072-0.814-0.22
					c-0.166-0.146-0.285-0.373-0.357-0.679c-0.012-0.062-0.027-0.137-0.045-0.229c-0.02-0.092-0.031-0.162-0.037-0.211
					s-0.02-0.101-0.037-0.155c-0.018-0.056-0.037-0.095-0.055-0.118c-0.02-0.024-0.047-0.037-0.082-0.037
					c-0.049,0-0.107,0.063-0.176,0.191s-0.158,0.284-0.273,0.469c-0.117,0.183-0.27,0.368-0.459,0.559s-0.467,0.349-0.834,0.477
					c-0.365,0.128-0.795,0.192-1.281,0.192c-2.127,0-3.189-1.344-3.189-4.032c0-0.952-0.004-1.716-0.01-2.29s-0.01-1.418-0.01-2.529
					c0-0.317,0.092-0.549,0.275-0.696c0.184-0.146,0.525-0.22,1.025-0.22c0.49,0,0.832,0.062,1.025,0.184
					c0.195,0.122,0.293,0.354,0.293,0.695c0,0.062-0.006,0.691-0.018,1.889s-0.018,1.979-0.018,2.346
					c0,1.613,0.555,2.419,1.666,2.419c1.295,0,1.943-1.008,1.943-3.022c0-0.904-0.006-1.723-0.02-2.456s-0.02-1.13-0.02-1.19
					c0-0.293,0.1-0.502,0.293-0.623c0.195-0.123,0.533-0.185,1.01-0.185c0.488,0,0.838,0.06,1.045,0.175
					c0.207,0.116,0.311,0.34,0.311,0.669c0,0.403-0.01,1.738-0.027,4.005C213.844,21.65,213.838,22.869,213.838,23.039z"/>
				<path fill="#006F90" d="M216.016,20.786c0.258,0,0.488,0.082,0.697,0.247c0.207,0.165,0.387,0.346,0.541,0.541
					c0.152,0.195,0.42,0.376,0.807,0.541c0.385,0.165,0.854,0.247,1.4,0.247c1.088,0,1.631-0.307,1.631-0.916
					c0-0.307-0.17-0.525-0.512-0.66s-1.07-0.293-2.182-0.477c-1.223-0.209-2.059-0.557-2.512-1.045
					c-0.451-0.488-0.678-1.101-0.678-1.832c0-1.002,0.398-1.77,1.201-2.302c0.799-0.53,1.762-0.797,2.887-0.797
					c1.33,0,2.332,0.244,3.006,0.733c0.672,0.488,1.008,1.094,1.008,1.813c0,0.636-0.396,0.953-1.191,0.953
					c-0.416,0-0.732-0.194-0.953-0.587c-0.393-0.66-1.021-0.988-1.889-0.988c-1.088,0-1.631,0.328-1.631,0.988
					c0,0.366,0.15,0.646,0.449,0.843s0.943,0.38,1.934,0.55c1.43,0.246,2.387,0.575,2.869,0.99s0.723,0.983,0.723,1.704
					c0,0.843-0.371,1.539-1.117,2.089s-1.846,0.825-3.299,0.825c-1.355,0-2.379-0.271-3.07-0.815
					c-0.689-0.544-1.035-1.103-1.035-1.677C215.1,21.11,215.406,20.786,216.016,20.786z"/>
				<path fill="#006F90" d="M225.492,20.786c0.258,0,0.488,0.082,0.695,0.247s0.389,0.346,0.541,0.541s0.422,0.376,0.809,0.541
					c0.385,0.165,0.852,0.247,1.4,0.247c1.086,0,1.631-0.307,1.631-0.916c0-0.307-0.172-0.525-0.514-0.66s-1.068-0.293-2.182-0.477
					c-1.221-0.209-2.059-0.557-2.51-1.045c-0.453-0.488-0.68-1.101-0.68-1.832c0-1.002,0.4-1.77,1.201-2.302
					c0.801-0.53,1.762-0.797,2.887-0.797c1.332,0,2.334,0.244,3.006,0.733c0.672,0.488,1.008,1.094,1.008,1.813
					c0,0.636-0.396,0.953-1.191,0.953c-0.416,0-0.73-0.194-0.953-0.587c-0.391-0.66-1.02-0.988-1.887-0.988
					c-1.088,0-1.631,0.328-1.631,0.988c0,0.366,0.148,0.646,0.449,0.843c0.299,0.196,0.943,0.38,1.934,0.55
					c1.428,0.246,2.385,0.575,2.867,0.99s0.725,0.983,0.725,1.704c0,0.843-0.373,1.539-1.119,2.089
					c-0.744,0.55-1.844,0.825-3.299,0.825c-1.354,0-2.379-0.271-3.068-0.815c-0.689-0.544-1.035-1.103-1.035-1.677
					C224.576,21.11,224.881,20.786,225.492,20.786z"/>
				<path fill="#006F90" d="M243.012,21.665c0,0.244-0.08,0.507-0.238,0.788c-0.156,0.281-0.395,0.559-0.705,0.834
					c-0.311,0.274-0.754,0.501-1.328,0.678c-0.574,0.178-1.229,0.267-1.961,0.267c-1.453,0-2.605-0.461-3.455-1.385
					c-0.85-0.922-1.273-2.164-1.273-3.729c0-1.43,0.42-2.587,1.256-3.473c0.838-0.887,2-1.33,3.492-1.33
					c1.43,0,2.535,0.34,3.316,1.019s1.174,1.646,1.174,2.904c0,0.524-0.084,0.877-0.248,1.055c-0.166,0.177-0.439,0.267-0.816,0.267
					c-0.182,0-1.068-0.004-2.656-0.01c-1.59-0.007-2.449-0.01-2.584-0.01c-0.184,0-0.303,0.036-0.357,0.109
					c-0.055,0.074-0.082,0.195-0.082,0.367c0,0.622,0.219,1.143,0.66,1.558c0.439,0.415,1,0.623,1.686,0.623
					c0.428,0,0.787-0.052,1.08-0.155c0.295-0.104,0.514-0.227,0.66-0.367c0.146-0.14,0.281-0.283,0.404-0.431
					c0.121-0.147,0.268-0.271,0.439-0.376c0.17-0.104,0.377-0.155,0.623-0.155c0.256,0,0.473,0.086,0.65,0.257
					C242.924,21.14,243.012,21.372,243.012,21.665z M237.02,18.238h3.592c0.307,0,0.457-0.14,0.457-0.421
					c0-0.403-0.188-0.77-0.566-1.1s-0.922-0.496-1.631-0.496c-0.732,0-1.291,0.174-1.678,0.522
					c-0.385,0.349-0.576,0.718-0.576,1.108c0,0.146,0.025,0.248,0.082,0.303C236.754,18.21,236.86,18.238,237.02,18.238z"/>
				<path fill="#006F90" d="M244.571,21.922V11.677c0-0.66,0.434-0.99,1.303-0.99c0.451,0,0.77,0.074,0.961,0.222
					c0.188,0.146,0.285,0.415,0.285,0.806c0,0.379-0.014,2.084-0.037,5.113c-0.025,3.029-0.037,4.688-0.037,4.967
					c0,0.318,0.104,0.478,0.311,0.478c0.037,0,0.1-0.007,0.186-0.02c0.084-0.012,0.164-0.018,0.238-0.018
					c0.475,0,0.713,0.28,0.713,0.843c0,0.782-0.551,1.173-1.648,1.173c-0.746,0-1.311-0.208-1.695-0.623
					S244.571,22.644,244.571,21.922z"/>
			</g>
			<g enable-background="new    ">
				<path fill="#939399" d="M252.287,22.729c0,0.952-0.516,1.43-1.541,1.43c-0.477,0-0.85-0.128-1.117-0.385
					c-0.27-0.257-0.402-0.604-0.402-1.045c0-0.916,0.488-1.374,1.465-1.374c0.6,0,1.016,0.112,1.246,0.339
					C252.17,21.919,252.287,22.264,252.287,22.729z"/>
				<path fill="#939399" d="M256.666,11.713v1.888c0,0.367-0.006,0.703-0.02,1.01c-0.012,0.305-0.018,0.482-0.018,0.531
					c0,0.269,0.061,0.402,0.184,0.402c0.062,0,0.154-0.066,0.283-0.201s0.277-0.287,0.449-0.459c0.17-0.171,0.459-0.322,0.861-0.457
					c0.402-0.136,0.867-0.203,1.393-0.203c1.186,0,2.113,0.42,2.785,1.256c0.672,0.838,1.008,2.051,1.008,3.639
					c0,1.491-0.354,2.7-1.062,3.629c-0.707,0.929-1.668,1.393-2.877,1.393c-0.658,0-1.213-0.089-1.656-0.266
					c-0.447-0.177-0.746-0.375-0.898-0.596c-0.154-0.22-0.285-0.418-0.395-0.596s-0.195-0.267-0.258-0.267
					c-0.061,0-0.104,0.027-0.129,0.083c-0.023,0.055-0.055,0.192-0.092,0.412c-0.012,0.049-0.02,0.089-0.027,0.119
					c-0.006,0.03-0.012,0.07-0.018,0.119s-0.016,0.098-0.027,0.146c-0.049,0.27-0.16,0.455-0.34,0.56
					c-0.178,0.104-0.43,0.155-0.76,0.155c-0.393,0-0.664-0.075-0.816-0.229c-0.15-0.152-0.229-0.388-0.229-0.705
					c0-0.073-0.004-1.359-0.01-3.858c-0.006-2.498-0.01-5-0.01-7.505c0-0.354,0.102-0.612,0.303-0.778
					c0.203-0.164,0.561-0.248,1.072-0.248c0.537,0,0.889,0.08,1.055,0.238C256.584,11.084,256.666,11.347,256.666,11.713z
					 M258.701,22.178c0.695,0,1.244-0.263,1.648-0.788c0.402-0.523,0.604-1.265,0.604-2.217c0-0.953-0.184-1.635-0.551-2.044
					c-0.365-0.409-0.896-0.614-1.594-0.614c-1.516,0-2.271,0.93-2.271,2.787c0,0.892,0.197,1.595,0.596,2.106
					C257.531,21.922,258.051,22.178,258.701,22.178z"/>
				<path fill="#939399" d="M267.332,19.667v3.409c0,0.342-0.092,0.59-0.273,0.742c-0.184,0.152-0.525,0.229-1.027,0.229
					c-0.477,0-0.814-0.076-1.018-0.229c-0.201-0.152-0.303-0.4-0.303-0.742c0-1.43,0.008-2.733,0.02-3.913
					c0.012-1.179,0.023-2.086,0.037-2.723c0.012-0.635,0.018-1,0.018-1.1c0-0.305,0.074-0.516,0.221-0.632s0.408-0.175,0.787-0.175
					s0.637,0.062,0.77,0.184c0.137,0.123,0.232,0.36,0.295,0.715c0.072,0.478,0.164,0.715,0.273,0.715
					c0.062,0,0.15-0.082,0.266-0.246c0.117-0.165,0.252-0.352,0.404-0.561c0.152-0.207,0.395-0.394,0.723-0.559
					c0.33-0.165,0.709-0.248,1.139-0.248c0.379,0,0.652,0.083,0.824,0.248s0.258,0.441,0.258,0.834c0,0.402-0.07,0.718-0.211,0.943
					c-0.143,0.227-0.426,0.338-0.854,0.338C268.115,16.899,267.332,17.823,267.332,19.667z"/>
				<path fill="#939399" d="M280.418,23.039c0,0.648-0.367,0.972-1.102,0.972c-0.379,0-0.648-0.072-0.814-0.22
					c-0.164-0.146-0.283-0.373-0.357-0.679c-0.012-0.062-0.025-0.137-0.045-0.229c-0.018-0.092-0.031-0.162-0.037-0.211
					s-0.018-0.101-0.037-0.155c-0.018-0.056-0.035-0.095-0.055-0.118c-0.018-0.024-0.045-0.037-0.082-0.037
					c-0.049,0-0.105,0.063-0.174,0.191s-0.158,0.284-0.275,0.469c-0.115,0.183-0.268,0.368-0.457,0.559s-0.469,0.349-0.834,0.477
					c-0.367,0.128-0.795,0.192-1.283,0.192c-2.125,0-3.189-1.344-3.189-4.032c0-0.952-0.002-1.716-0.008-2.29
					c-0.008-0.574-0.01-1.418-0.01-2.529c0-0.317,0.092-0.549,0.273-0.696c0.186-0.146,0.525-0.22,1.027-0.22
					c0.486,0,0.83,0.062,1.025,0.184s0.293,0.354,0.293,0.695c0,0.062-0.006,0.691-0.02,1.889c-0.012,1.197-0.018,1.979-0.018,2.346
					c0,1.613,0.557,2.419,1.668,2.419c1.295,0,1.941-1.008,1.941-3.022c0-0.904-0.006-1.723-0.018-2.456
					c-0.014-0.733-0.02-1.13-0.02-1.19c0-0.293,0.1-0.502,0.293-0.623c0.195-0.123,0.531-0.185,1.008-0.185
					c0.488,0,0.838,0.06,1.047,0.175c0.207,0.116,0.311,0.34,0.311,0.669c0,0.403-0.01,1.738-0.027,4.005
					C280.426,21.65,280.418,22.869,280.418,23.039z"/>
				<path fill="#939399" d="M282.598,20.786c0.258,0,0.488,0.082,0.695,0.247c0.209,0.165,0.389,0.346,0.541,0.541
					s0.422,0.376,0.807,0.541c0.387,0.165,0.854,0.247,1.402,0.247c1.088,0,1.631-0.307,1.631-0.916c0-0.307-0.172-0.525-0.514-0.66
					s-1.068-0.293-2.18-0.477c-1.223-0.209-2.061-0.557-2.512-1.045c-0.453-0.488-0.678-1.101-0.678-1.832
					c0-1.002,0.398-1.77,1.199-2.302c0.801-0.53,1.764-0.797,2.887-0.797c1.332,0,2.334,0.244,3.006,0.733
					c0.672,0.488,1.008,1.094,1.008,1.813c0,0.636-0.396,0.953-1.191,0.953c-0.414,0-0.732-0.194-0.951-0.587
					c-0.393-0.66-1.021-0.988-1.889-0.988c-1.088,0-1.631,0.328-1.631,0.988c0,0.366,0.148,0.646,0.449,0.843
					c0.299,0.196,0.943,0.38,1.934,0.55c1.43,0.246,2.385,0.575,2.867,0.99s0.725,0.983,0.725,1.704
					c0,0.843-0.373,1.539-1.117,2.089c-0.746,0.55-1.846,0.825-3.301,0.825c-1.355,0-2.379-0.271-3.068-0.815
					c-0.689-0.544-1.035-1.103-1.035-1.677C281.682,21.11,281.989,20.786,282.598,20.786z"/>
				<path fill="#939399" d="M292.074,20.786c0.256,0,0.488,0.082,0.695,0.247c0.209,0.165,0.389,0.346,0.539,0.541
					c0.154,0.195,0.424,0.376,0.809,0.541s0.852,0.247,1.402,0.247c1.088,0,1.631-0.307,1.631-0.916c0-0.307-0.172-0.525-0.514-0.66
					c-0.344-0.135-1.068-0.293-2.182-0.477c-1.223-0.209-2.059-0.557-2.512-1.045c-0.451-0.488-0.678-1.101-0.678-1.832
					c0-1.002,0.4-1.77,1.201-2.302c0.799-0.53,1.762-0.797,2.887-0.797c1.33,0,2.332,0.244,3.006,0.733
					c0.672,0.488,1.008,1.094,1.008,1.813c0,0.636-0.398,0.953-1.191,0.953c-0.416,0-0.732-0.194-0.953-0.587
					c-0.393-0.66-1.02-0.988-1.889-0.988c-1.088,0-1.631,0.328-1.631,0.988c0,0.366,0.148,0.646,0.449,0.843
					c0.299,0.196,0.943,0.38,1.934,0.55c1.43,0.246,2.385,0.575,2.869,0.99c0.482,0.415,0.723,0.983,0.723,1.704
					c0,0.843-0.373,1.539-1.115,2.089c-0.746,0.55-1.848,0.825-3.301,0.825c-1.355,0-2.381-0.271-3.068-0.815
					c-0.691-0.544-1.035-1.103-1.035-1.677C291.158,21.11,291.463,20.786,292.074,20.786z"/>
				<path fill="#939399" d="M309.594,21.665c0,0.244-0.08,0.507-0.238,0.788s-0.395,0.559-0.705,0.834
					c-0.312,0.274-0.754,0.501-1.328,0.678c-0.574,0.178-1.23,0.267-1.961,0.267c-1.455,0-2.605-0.461-3.455-1.385
					c-0.852-0.922-1.273-2.164-1.273-3.729c0-1.43,0.418-2.587,1.256-3.473c0.836-0.887,2-1.33,3.49-1.33
					c1.43,0,2.535,0.34,3.318,1.019c0.779,0.679,1.172,1.646,1.172,2.904c0,0.524-0.082,0.877-0.248,1.055
					c-0.164,0.177-0.438,0.267-0.814,0.267c-0.184,0-1.068-0.004-2.656-0.01c-1.59-0.007-2.451-0.01-2.586-0.01
					c-0.184,0-0.303,0.036-0.357,0.109c-0.055,0.074-0.082,0.195-0.082,0.367c0,0.622,0.221,1.143,0.66,1.558
					s1.002,0.623,1.686,0.623c0.43,0,0.789-0.052,1.082-0.155s0.514-0.227,0.66-0.367c0.146-0.14,0.281-0.283,0.402-0.431
					c0.123-0.147,0.27-0.271,0.439-0.376c0.172-0.104,0.379-0.155,0.623-0.155c0.258,0,0.475,0.086,0.65,0.257
					S309.594,21.372,309.594,21.665z M303.6,18.238h3.594c0.305,0,0.459-0.14,0.459-0.421c0-0.403-0.189-0.77-0.568-1.1
					s-0.924-0.496-1.631-0.496c-0.734,0-1.293,0.174-1.678,0.522c-0.387,0.349-0.576,0.718-0.576,1.108
					c0,0.146,0.025,0.248,0.082,0.303C303.336,18.21,303.444,18.238,303.6,18.238z"/>
				<path fill="#939399" d="M311.153,21.922V11.677c0-0.66,0.434-0.99,1.301-0.99c0.451,0,0.771,0.074,0.963,0.222
					c0.189,0.146,0.283,0.415,0.283,0.806c0,0.379-0.012,2.084-0.037,5.113c-0.023,3.029-0.035,4.688-0.035,4.967
					c0,0.318,0.104,0.478,0.311,0.478c0.037,0,0.098-0.007,0.184-0.02c0.086-0.012,0.166-0.018,0.238-0.018
					c0.477,0,0.715,0.28,0.715,0.843c0,0.782-0.549,1.173-1.648,1.173c-0.746,0-1.311-0.208-1.695-0.623
					C311.344,23.211,311.153,22.644,311.153,21.922z"/>
				<path fill="#939399" d="M316.375,20.786c0.258,0,0.488,0.082,0.697,0.247c0.207,0.165,0.387,0.346,0.541,0.541
					c0.15,0.195,0.42,0.376,0.807,0.541c0.385,0.165,0.852,0.247,1.4,0.247c1.088,0,1.631-0.307,1.631-0.916
					c0-0.307-0.17-0.525-0.512-0.66c-0.344-0.135-1.07-0.293-2.184-0.477c-1.221-0.209-2.059-0.557-2.51-1.045
					c-0.453-0.488-0.678-1.101-0.678-1.832c0-1.002,0.398-1.77,1.199-2.302c0.801-0.53,1.764-0.797,2.887-0.797
					c1.332,0,2.334,0.244,3.006,0.733c0.672,0.488,1.008,1.094,1.008,1.813c0,0.636-0.395,0.953-1.189,0.953
					c-0.416,0-0.732-0.194-0.953-0.587c-0.393-0.66-1.021-0.988-1.889-0.988c-1.088,0-1.631,0.328-1.631,0.988
					c0,0.366,0.148,0.646,0.449,0.843c0.299,0.196,0.943,0.38,1.934,0.55c1.43,0.246,2.387,0.575,2.867,0.99
					c0.482,0.415,0.725,0.983,0.725,1.704c0,0.843-0.371,1.539-1.117,2.089s-1.846,0.825-3.299,0.825
					c-1.355,0-2.381-0.271-3.07-0.815c-0.689-0.544-1.035-1.103-1.035-1.677C315.459,21.11,315.764,20.786,316.375,20.786z"/>
			</g>
		</g>
		<g>
			<path fill="#949499" d="M339.596,23.817c-0.002,0.262-0.107,0.479-0.369,0.479c-0.277,0-0.592-0.539-1.375-0.92
				c-0.699-0.336-1.393-0.479-2.012-0.479c-0.771,0-2.064,0.366-3.295,0.391c-1.152,0.008-2.188-0.535-2.855-1.26
				c-0.5-0.535-0.84-1.396-0.84-2.173c0.006-0.973,0.391-1.934,1.238-2.647c0.637-0.528,1.359-0.741,2.199-0.742
				c1.258-0.01,2.521,0.644,3.326,1.277c1.178,0.935,2.25,2.185,3.004,3.529C339.053,22.032,339.598,23.315,339.596,23.817
				L339.596,23.817z"/>
			<path fill="#949499" d="M340.643,23.817c0.004,0.262,0.109,0.479,0.369,0.479c0.279,0,0.594-0.539,1.375-0.92
				c0.701-0.336,1.395-0.479,2.014-0.479c0.771,0,2.064,0.366,3.295,0.391c1.15,0.008,2.188-0.535,2.855-1.26
				c0.5-0.535,0.838-1.396,0.838-2.173c-0.004-0.973-0.389-1.934-1.236-2.647c-0.639-0.528-1.359-0.741-2.199-0.742
				c-1.258-0.01-2.521,0.644-3.326,1.277c-1.178,0.935-2.25,2.185-3.004,3.529C341.188,22.032,340.641,23.315,340.643,23.817
				L340.643,23.817z"/>
			<g>
				<path fill="#949499" d="M344.631,11.625c-0.588-0.584-1.295-0.979-2.322-0.969c-1.041,0.004-1.713,0.366-2.188,0.973
					c-0.477-0.604-1.146-0.969-2.201-0.973c-1.014-0.011-1.73,0.385-2.322,0.969c-0.627,0.627-0.947,1.44-0.949,2.375
					c-0.002,0.896,0.307,1.527,0.664,2.017c0.562,0.785,1.215,1.299,1.896,1.916c1.076,0.996,1.762,1.889,2.326,3.004
					c0.139,0.272,0.254,0.678,0.586,0.678s0.447-0.402,0.588-0.678c0.564-1.115,1.236-2.008,2.326-3.004
					c0.672-0.617,1.332-1.131,1.896-1.916c0.355-0.486,0.666-1.121,0.648-2.017C345.58,13.067,345.272,12.252,344.631,11.625z
					 M343.221,16.437c-0.531,0.543-1.037,0.824-1.811,1.68c-0.307,0.338-0.904,1.199-1.291,2.008c-0.387-0.809-1-1.67-1.289-2.008
					c-0.777-0.854-1.279-1.137-1.812-1.68c-0.777-0.795-1.338-1.346-1.363-2.377c-0.012-0.754,0.301-1.357,0.771-1.814
					c0.42-0.408,1.008-0.605,1.631-0.619c0.439-0.01,0.891,0.156,1.234,0.418c0.357,0.258,0.607,0.592,0.828,1.025
					c0.221-0.436,0.471-0.77,0.816-1.025c0.355-0.262,0.807-0.428,1.232-0.418c0.633,0.014,1.225,0.211,1.645,0.619
					c0.473,0.457,0.783,1.062,0.76,1.814C344.549,15.093,343.989,15.642,343.221,16.437z"/>
			</g>
		</g>
	</g>
	<g>
		<path fill="#76B82A" d="M15.616,16.103c0.811-0.617,1.357-1.719,1.357-2.982c0-1.953-1.286-3.521-2.854-3.521
			c-0.13,0-0.242,0.019-0.362,0.041C12.736,8.146,10.469,7.8,8.484,8.94c-1.76,0.998-2.688,2.812-2.404,4.406
			c-1.473,0.547-2.322,2.121-1.93,3.633c0.34,1.248,1.415,2.062,2.646,2.138c0.532,0.646,1.479,1.076,2.575,1.076
			c0.643,0,1.251-0.148,1.742-0.408l-0.645,5.295l2.293-0.09c0,0-0.058-4.109,0.28-6.175c0.339,0.336,0.836,0.529,1.368,0.529
			c1.054,0,1.929-0.812,1.929-1.815C16.339,16.955,16.049,16.45,15.616,16.103z"/>
		<path fill="#007A9D" d="M1.256,26.916l18.902-2.01c-2.141-0.195-4.431-0.215-6.738-0.09c0.018-1.029,0.073-3.486,0.396-5.341
			c0.418,0.377,0.988,0.621,1.632,0.621c1.271,0,2.307-0.949,2.307-2.119c0-0.662-0.338-1.25-0.852-1.645
			c0.988-0.723,1.646-2.008,1.646-3.463c0-2.252-1.535-4.068-3.439-4.068c-0.153,0-0.289,0.023-0.44,0.038
			c-1.229-1.743-3.949-2.122-6.318-0.812c-2.101,1.15-3.233,3.271-2.896,5.104c-1.755,0.646-2.799,2.459-2.31,4.198
			c0.401,1.438,1.704,2.392,3.184,2.481c0.644,0.759,1.777,1.24,3.08,1.24c0.779,0,1.496-0.18,2.083-0.481l-0.739,4.425
			C7.327,25.336,3.998,25.979,1.256,26.916z M12.247,19.552c0,0-3.255,2.421-5.637-0.308c0,0-3.087,0.308-2.976-3.142
			c0.063-2.004,2.139-2.928,2.139-2.928S5.42,9.556,9.295,8.173c3.161-1.107,4.771,0.652,5.115,1.254c0,0,3.401-0.602,3.819,3.064
			c0.337,2.949-2.52,3.818-2.292,3.803c0,0,1.914,1.385,0.755,2.709c-1.173,1.32-2.701-0.16-3.254-0.723l-0.411,6.488
			c-0.683,0.047-1.365,0.102-2.043,0.157L12.247,19.552z"/>
	</g>
</g>
</svg>
