<?xml version="1.0" encoding="utf-8"?>
<!DOCTYPE svg PUBLIC "-//W3C//DTD SVG 1.0//EN" "http://www.w3.org/TR/2001/REC-SVG-20010904/DTD/svg10.dtd">
<svg version="1.0" id="Layer_1" xmlns="http://www.w3.org/2000/svg" xmlns:xlink="http://www.w3.org/1999/xlink" x="0px" y="0px"
	 width="410.514px" height="35.496px" viewBox="0 0 410.514 35.496" enable-background="new 0 0 410.514 35.496"
	 xml:space="preserve">
<g id="spatial_nl">
</g>
<g>
	<path fill="#F9FAF6" stroke="#DCDCDC" stroke-width="0.25" stroke-miterlimit="10" d="M216.644,282.005v28.922h0.02
		c0,0.836-0.692,1.529-1.522,1.529h-18.366c-0.831,0-1.523-0.693-1.523-1.529v-28.922"/>
</g>
<g>
	<g>
		<g enable-background="new    ">
			<path fill="#8DB63C" d="M231.261,298.484h-0.604c-0.123,0-0.184,0.049-0.184,0.146c0,0.062,0.055,0.165,0.165,0.312
				s0.22,0.349,0.329,0.604c0.111,0.257,0.166,0.557,0.166,0.898c0,0.623-0.113,1.151-0.34,1.585
				c-0.226,0.434-0.477,0.73-0.751,0.889c-0.274,0.159-0.525,0.3-0.751,0.422c-0.227,0.122-0.34,0.227-0.34,0.312
				c0,0.062,0.123,0.132,0.367,0.211s0.513,0.168,0.807,0.266c0.293,0.098,0.562,0.314,0.806,0.65
				c0.245,0.336,0.366,0.755,0.366,1.256c0,0.904-0.412,1.637-1.236,2.199c-0.825,0.562-2.031,0.843-3.619,0.843
				c-1.394,0-2.493-0.269-3.3-0.807c-0.806-0.537-1.21-1.094-1.21-1.667c0-0.294,0.089-0.538,0.266-0.733
				c0.178-0.195,0.419-0.293,0.725-0.293c0.244,0,0.494,0.079,0.752,0.238c0.256,0.158,0.488,0.332,0.695,0.521
				c0.208,0.189,0.508,0.364,0.898,0.522c0.391,0.159,0.824,0.238,1.301,0.238c1.394,0,2.09-0.385,2.09-1.154
				c0-0.281-0.125-0.51-0.375-0.688c-0.251-0.177-0.581-0.309-0.99-0.394c-0.41-0.086-0.858-0.171-1.348-0.257
				c-0.488-0.085-0.977-0.217-1.466-0.395c-0.489-0.177-0.938-0.402-1.347-0.678c-0.41-0.274-0.74-0.675-0.99-1.2
				s-0.375-1.161-0.375-1.906c0-1.21,0.396-2.196,1.191-2.96c0.793-0.764,1.936-1.146,3.427-1.146c0.342,0,0.733,0.037,1.173,0.11
				s0.764,0.109,0.971,0.109h2.676c0.307,0,0.514,0.064,0.624,0.193c0.11,0.128,0.165,0.388,0.165,0.778
				c0,0.379-0.055,0.636-0.165,0.77C231.719,298.417,231.53,298.484,231.261,298.484z M228.696,300.591
				c0-0.672-0.193-1.21-0.578-1.613c-0.385-0.402-0.962-0.604-1.731-0.604c-0.722,0-1.274,0.208-1.659,0.623
				c-0.385,0.416-0.576,0.947-0.576,1.595c0,0.66,0.191,1.2,0.576,1.622c0.385,0.421,0.938,0.632,1.659,0.632
				c0.745,0,1.316-0.211,1.714-0.632C228.497,301.792,228.696,301.251,228.696,300.591z"/>
			<path fill="#8DB63C" d="M241.524,303.67c0,0.244-0.079,0.507-0.238,0.788c-0.158,0.281-0.394,0.559-0.705,0.834
				c-0.312,0.274-0.754,0.501-1.328,0.678c-0.575,0.177-1.229,0.266-1.961,0.266c-1.455,0-2.606-0.461-3.455-1.384
				c-0.85-0.922-1.273-2.165-1.273-3.729c0-1.43,0.418-2.587,1.255-3.473s2.001-1.329,3.491-1.329c1.43,0,2.535,0.339,3.317,1.018
				c0.782,0.678,1.173,1.646,1.173,2.904c0,0.525-0.082,0.877-0.248,1.055c-0.164,0.177-0.437,0.266-0.814,0.266
				c-0.184,0-1.07-0.003-2.658-0.01c-1.588-0.006-2.449-0.009-2.584-0.009c-0.184,0-0.303,0.036-0.357,0.109
				c-0.055,0.074-0.082,0.196-0.082,0.367c0,0.623,0.22,1.143,0.66,1.558c0.439,0.415,1.001,0.623,1.686,0.623
				c0.428,0,0.788-0.052,1.081-0.155c0.294-0.104,0.513-0.227,0.66-0.367c0.146-0.14,0.28-0.284,0.403-0.431
				c0.121-0.146,0.268-0.271,0.439-0.376c0.171-0.104,0.379-0.155,0.623-0.155c0.257,0,0.474,0.086,0.65,0.257
				C241.436,303.145,241.524,303.377,241.524,303.67z M235.532,300.243h3.592c0.305,0,0.458-0.14,0.458-0.421
				c0-0.403-0.189-0.77-0.567-1.1c-0.379-0.33-0.924-0.495-1.632-0.495c-0.733,0-1.292,0.174-1.677,0.522
				c-0.385,0.348-0.577,0.718-0.577,1.108c0,0.146,0.027,0.248,0.083,0.303C235.266,300.215,235.373,300.243,235.532,300.243z"/>
			<path fill="#8DB63C" d="M247.553,306.236c-1.49,0-2.672-0.442-3.545-1.328c-0.875-0.886-1.311-2.074-1.311-3.565
				c0-1.637,0.399-2.88,1.199-3.729c0.801-0.849,1.982-1.279,3.547-1.292c1.576,0,2.777,0.416,3.602,1.246
				c0.824,0.831,1.236,2.078,1.236,3.739c0,1.368-0.424,2.532-1.273,3.491S249.009,306.236,247.553,306.236z M245.749,303.414
				c0.396,0.477,0.98,0.715,1.75,0.715s1.363-0.257,1.778-0.77c0.415-0.514,0.623-1.137,0.623-1.869
				c0-1.931-0.825-2.896-2.474-2.896c-0.783,0-1.357,0.275-1.724,0.825s-0.55,1.24-0.55,2.071
				C245.153,302.295,245.352,302.937,245.749,303.414z"/>
			<path fill="#8DB63C" d="M263.041,305.118c0,0.354-0.083,0.603-0.247,0.742c-0.166,0.141-0.456,0.211-0.871,0.211
				c-0.403,0-0.685-0.058-0.844-0.174c-0.158-0.116-0.262-0.32-0.311-0.614c-0.062-0.329-0.104-0.531-0.129-0.604
				s-0.073-0.11-0.146-0.11c-0.049,0-0.144,0.086-0.283,0.257c-0.141,0.172-0.301,0.364-0.477,0.577
				c-0.178,0.214-0.477,0.406-0.898,0.577c-0.422,0.172-0.914,0.257-1.476,0.257c-1.308,0-2.321-0.455-3.042-1.365
				s-1.082-2.159-1.082-3.748c0-1.466,0.379-2.639,1.137-3.519s1.711-1.319,2.859-1.319c0.586,0,1.09,0.067,1.512,0.201
				c0.422,0.135,0.715,0.281,0.879,0.44c0.166,0.158,0.309,0.305,0.432,0.439c0.121,0.135,0.213,0.201,0.275,0.201
				c0.109,0,0.164-0.073,0.164-0.22c0-0.061-0.006-0.223-0.018-0.485c-0.013-0.263-0.025-0.681-0.037-1.256
				c-0.013-0.574-0.019-1.265-0.019-2.07c0-0.294,0.098-0.507,0.294-0.642c0.195-0.135,0.531-0.202,1.008-0.202
				c0.488,0,0.836,0.064,1.045,0.192c0.207,0.129,0.311,0.346,0.311,0.651c0,0.158-0.006,2.019-0.018,5.58
				C263.047,302.677,263.041,304.678,263.041,305.118z M258.184,304.183c0.623,0,1.163-0.263,1.621-0.788
				c0.459-0.524,0.688-1.276,0.688-2.254c0-0.807-0.217-1.444-0.65-1.915s-0.969-0.706-1.604-0.706
				c-0.697,0-1.268,0.232-1.714,0.696c-0.446,0.465-0.669,1.149-0.669,2.053c0,0.966,0.217,1.692,0.65,2.182
				C256.94,303.939,257.499,304.183,258.184,304.183z"/>
			<path fill="#8DB63C" d="M270.719,300.554v-0.439c0-1.148-0.599-1.723-1.796-1.723c-0.306,0-0.571,0.04-0.798,0.119
				c-0.226,0.079-0.402,0.174-0.531,0.284c-0.128,0.109-0.234,0.25-0.32,0.421c-0.086,0.172-0.145,0.312-0.174,0.422
				c-0.031,0.11-0.059,0.247-0.083,0.412s-0.036,0.26-0.036,0.284c-0.074,0.403-0.489,0.605-1.246,0.605
				c-0.477,0-0.805-0.095-0.98-0.284c-0.178-0.189-0.266-0.492-0.266-0.907c0-0.306,0.036-0.602,0.109-0.889s0.211-0.59,0.412-0.907
				c0.201-0.318,0.465-0.596,0.788-0.834s0.758-0.434,1.302-0.587c0.543-0.152,1.164-0.229,1.859-0.229
				c1.418,0,2.484,0.326,3.199,0.98c0.714,0.653,1.071,1.688,1.071,3.106c-0.013,2.944-0.019,4.557-0.019,4.838
				c0,0.293-0.076,0.507-0.229,0.642c-0.153,0.135-0.455,0.201-0.907,0.201c-0.525,0-0.837-0.244-0.935-0.732
				c-0.11-0.514-0.184-0.776-0.221-0.788c-0.012-0.013-0.03-0.019-0.055-0.019c-0.049,0-0.152,0.092-0.312,0.274
				c-0.159,0.184-0.345,0.383-0.559,0.596c-0.214,0.214-0.562,0.413-1.045,0.596c-0.483,0.184-1.042,0.275-1.677,0.275
				c-0.855,0-1.549-0.218-2.08-0.65c-0.531-0.434-0.797-0.993-0.797-1.678c0-0.524,0.155-0.955,0.467-1.292
				c0.312-0.336,0.703-0.559,1.173-0.669c0.47-0.109,0.978-0.204,1.521-0.284c0.544-0.079,1.05-0.137,1.521-0.174
				c0.471-0.036,0.861-0.134,1.174-0.293C270.563,301.074,270.719,300.848,270.719,300.554z M270.665,302.351
				c0-0.195-0.055-0.294-0.165-0.294c-0.062,0-0.155,0.034-0.284,0.102c-0.129,0.066-0.324,0.152-0.586,0.256
				c-0.264,0.104-0.56,0.192-0.889,0.266c-0.099,0.025-0.238,0.053-0.422,0.083s-0.314,0.055-0.395,0.073s-0.184,0.046-0.312,0.082
				c-0.128,0.037-0.224,0.073-0.284,0.11s-0.125,0.086-0.192,0.146c-0.067,0.062-0.112,0.132-0.138,0.211
				c-0.024,0.079-0.036,0.168-0.036,0.266c0,0.244,0.106,0.449,0.321,0.614c0.213,0.165,0.491,0.247,0.833,0.247
				c0.782,0,1.402-0.238,1.86-0.715S270.665,302.839,270.665,302.351z"/>
			<path fill="#8DB63C" d="M279.993,298.484h-1.484c-0.172,0-0.281,0.027-0.33,0.082c-0.049,0.056-0.073,0.156-0.073,0.303
				c0,0.366-0.003,1.143-0.009,2.327c-0.007,1.186-0.01,1.857-0.01,2.017c0,0.696,0.275,1.044,0.824,1.044
				c0.184,0,0.363-0.036,0.541-0.109s0.333-0.11,0.468-0.11c0.244,0,0.442,0.083,0.595,0.248c0.153,0.164,0.23,0.406,0.23,0.724
				c0,0.831-0.801,1.246-2.401,1.246c-0.929,0-1.626-0.232-2.089-0.696c-0.465-0.465-0.697-1.118-0.697-1.961
				c0-0.587-0.003-1.405-0.009-2.456c-0.007-1.051-0.009-1.808-0.009-2.272c0-0.257-0.086-0.385-0.258-0.385h-0.659
				c-0.183,0-0.314-0.058-0.394-0.175c-0.08-0.115-0.119-0.332-0.119-0.65c0-0.513,0.195-0.8,0.586-0.861
				c0.562-0.085,0.844-0.257,0.844-0.513c0-0.171,0.002-0.479,0.009-0.926c0.006-0.446,0.009-0.748,0.009-0.907
				c0-0.366,0.104-0.632,0.312-0.797c0.207-0.165,0.537-0.248,0.988-0.248c0.453,0,0.776,0.08,0.973,0.238
				c0.195,0.159,0.293,0.416,0.293,0.771v1.832c0,0.195,0.092,0.293,0.274,0.293h1.649c0.244,0,0.418,0.067,0.522,0.202
				c0.104,0.135,0.155,0.391,0.155,0.77s-0.055,0.636-0.164,0.77C280.451,298.417,280.261,298.484,279.993,298.484z"/>
			<path fill="#8DB63C" d="M287.983,300.554v-0.439c0-1.148-0.599-1.723-1.796-1.723c-0.306,0-0.571,0.04-0.798,0.119
				c-0.226,0.079-0.402,0.174-0.531,0.284c-0.128,0.109-0.234,0.25-0.32,0.421c-0.086,0.172-0.145,0.312-0.174,0.422
				c-0.031,0.11-0.059,0.247-0.083,0.412s-0.036,0.26-0.036,0.284c-0.074,0.403-0.489,0.605-1.246,0.605
				c-0.477,0-0.805-0.095-0.98-0.284c-0.178-0.189-0.266-0.492-0.266-0.907c0-0.306,0.036-0.602,0.109-0.889s0.211-0.59,0.412-0.907
				c0.201-0.318,0.465-0.596,0.788-0.834s0.758-0.434,1.302-0.587c0.543-0.152,1.164-0.229,1.859-0.229
				c1.418,0,2.484,0.326,3.199,0.98c0.714,0.653,1.071,1.688,1.071,3.106c-0.013,2.944-0.019,4.557-0.019,4.838
				c0,0.293-0.076,0.507-0.229,0.642c-0.153,0.135-0.455,0.201-0.907,0.201c-0.525,0-0.837-0.244-0.935-0.732
				c-0.11-0.514-0.184-0.776-0.221-0.788c-0.012-0.013-0.03-0.019-0.055-0.019c-0.049,0-0.152,0.092-0.312,0.274
				c-0.159,0.184-0.345,0.383-0.559,0.596c-0.214,0.214-0.562,0.413-1.045,0.596c-0.483,0.184-1.042,0.275-1.677,0.275
				c-0.855,0-1.549-0.218-2.08-0.65c-0.531-0.434-0.797-0.993-0.797-1.678c0-0.524,0.155-0.955,0.467-1.292
				c0.312-0.336,0.703-0.559,1.173-0.669c0.47-0.109,0.978-0.204,1.521-0.284c0.544-0.079,1.05-0.137,1.521-0.174
				c0.471-0.036,0.861-0.134,1.174-0.293C287.827,301.074,287.983,300.848,287.983,300.554z M287.928,302.351
				c0-0.195-0.055-0.294-0.165-0.294c-0.062,0-0.155,0.034-0.284,0.102c-0.129,0.066-0.324,0.152-0.586,0.256
				c-0.264,0.104-0.56,0.192-0.889,0.266c-0.099,0.025-0.238,0.053-0.422,0.083s-0.314,0.055-0.395,0.073s-0.184,0.046-0.312,0.082
				c-0.128,0.037-0.224,0.073-0.284,0.11s-0.125,0.086-0.192,0.146c-0.067,0.062-0.112,0.132-0.138,0.211
				c-0.024,0.079-0.036,0.168-0.036,0.266c0,0.244,0.106,0.449,0.321,0.614c0.213,0.165,0.491,0.247,0.833,0.247
				c0.782,0,1.402-0.238,1.86-0.715S287.928,302.839,287.928,302.351z"/>
		</g>
		<g enable-background="new    ">
			<path fill="#006F90" d="M295.112,304.733c0,0.953-0.513,1.43-1.539,1.43c-0.477,0-0.85-0.128-1.117-0.385
				c-0.27-0.257-0.404-0.604-0.404-1.045c0-0.916,0.489-1.374,1.467-1.374c0.598,0,1.014,0.113,1.246,0.339
				C294.997,303.924,295.112,304.269,295.112,304.733z"/>
			<path fill="#006F90" d="M299.493,293.718v1.888c0,0.367-0.006,0.703-0.019,1.009c-0.013,0.305-0.019,0.482-0.019,0.531
				c0,0.269,0.061,0.403,0.184,0.403c0.061,0,0.156-0.067,0.284-0.202c0.128-0.134,0.277-0.287,0.448-0.458
				c0.172-0.171,0.459-0.323,0.861-0.458c0.404-0.135,0.868-0.202,1.394-0.202c1.185,0,2.114,0.419,2.786,1.256
				s1.008,2.05,1.008,3.638c0,1.491-0.355,2.7-1.063,3.629s-1.667,1.393-2.877,1.393c-0.66,0-1.213-0.089-1.659-0.266
				c-0.445-0.177-0.745-0.375-0.897-0.596c-0.153-0.22-0.284-0.418-0.394-0.596c-0.111-0.177-0.196-0.266-0.258-0.266
				c-0.061,0-0.104,0.027-0.128,0.083c-0.024,0.055-0.055,0.192-0.091,0.412c-0.013,0.049-0.021,0.089-0.028,0.119
				c-0.006,0.03-0.013,0.07-0.019,0.119s-0.016,0.098-0.027,0.146c-0.049,0.269-0.162,0.455-0.339,0.559
				c-0.177,0.104-0.431,0.156-0.761,0.156c-0.391,0-0.662-0.076-0.815-0.229c-0.153-0.152-0.229-0.388-0.229-0.705
				c0-0.073-0.002-1.359-0.009-3.858c-0.007-2.498-0.009-5-0.009-7.505c0-0.354,0.101-0.613,0.303-0.778
				c0.201-0.165,0.559-0.248,1.072-0.248c0.537,0,0.889,0.08,1.053,0.238C299.411,293.089,299.493,293.352,299.493,293.718z
				 M301.527,304.183c0.696,0,1.246-0.263,1.649-0.788c0.403-0.524,0.605-1.265,0.605-2.217c0-0.953-0.184-1.635-0.551-2.044
				c-0.366-0.409-0.898-0.614-1.594-0.614c-1.516,0-2.273,0.929-2.273,2.786c0,0.892,0.199,1.595,0.596,2.107
				C300.357,303.927,300.88,304.183,301.527,304.183z"/>
			<path fill="#006F90" d="M310.159,301.672v3.409c0,0.342-0.092,0.59-0.275,0.742c-0.184,0.153-0.525,0.229-1.025,0.229
				c-0.477,0-0.816-0.076-1.018-0.229c-0.201-0.152-0.303-0.4-0.303-0.742c0-1.43,0.006-2.733,0.019-3.913
				c0.013-1.179,0.024-2.086,0.036-2.722c0.013-0.635,0.019-1.001,0.019-1.1c0-0.305,0.073-0.516,0.22-0.632s0.41-0.175,0.789-0.175
				c0.378,0,0.635,0.062,0.77,0.184c0.134,0.122,0.231,0.36,0.293,0.715c0.073,0.477,0.165,0.715,0.275,0.715
				c0.061,0,0.148-0.082,0.266-0.247c0.115-0.165,0.25-0.352,0.402-0.56c0.152-0.207,0.395-0.394,0.725-0.559
				s0.708-0.248,1.137-0.248c0.378,0,0.652,0.083,0.824,0.248c0.171,0.165,0.256,0.442,0.256,0.834c0,0.403-0.07,0.718-0.211,0.943
				c-0.141,0.227-0.424,0.339-0.852,0.339C310.94,298.905,310.159,299.828,310.159,301.672z"/>
			<path fill="#006F90" d="M323.245,305.044c0,0.648-0.367,0.972-1.1,0.972c-0.379,0-0.651-0.073-0.816-0.22
				s-0.284-0.373-0.357-0.679c-0.012-0.061-0.027-0.137-0.045-0.229c-0.02-0.092-0.031-0.162-0.037-0.211s-0.019-0.101-0.037-0.156
				c-0.018-0.055-0.037-0.094-0.055-0.118c-0.019-0.024-0.046-0.037-0.082-0.037c-0.049,0-0.107,0.064-0.175,0.192
				s-0.159,0.284-0.274,0.468c-0.117,0.183-0.27,0.369-0.459,0.559s-0.467,0.349-0.834,0.477c-0.366,0.128-0.794,0.192-1.282,0.192
				c-2.126,0-3.188-1.344-3.188-4.032c0-0.953-0.004-1.716-0.01-2.291c-0.006-0.574-0.01-1.417-0.01-2.528
				c0-0.318,0.092-0.55,0.275-0.697c0.184-0.146,0.525-0.22,1.026-0.22c0.489,0,0.831,0.062,1.026,0.184s0.293,0.354,0.293,0.696
				c0,0.062-0.006,0.69-0.018,1.888c-0.013,1.197-0.019,1.979-0.019,2.346c0,1.613,0.556,2.419,1.667,2.419
				c1.295,0,1.943-1.008,1.943-3.023c0-0.904-0.006-1.723-0.019-2.456s-0.019-1.13-0.019-1.191c0-0.293,0.098-0.501,0.293-0.623
				s0.532-0.184,1.009-0.184c0.488,0,0.837,0.059,1.044,0.175c0.208,0.116,0.312,0.339,0.312,0.669c0,0.403-0.01,1.738-0.027,4.004
				C323.253,303.655,323.245,304.874,323.245,305.044z"/>
			<path fill="#006F90" d="M330.483,305.393l-1.521-2.548c-0.061-0.122-0.146-0.183-0.256-0.183c-0.135,0-0.227,0.061-0.275,0.183
				l-1.521,2.584c-0.135,0.257-0.271,0.431-0.412,0.522s-0.369,0.138-0.688,0.138c-0.158,0-0.332-0.003-0.521-0.009
				c-0.189-0.007-0.357-0.01-0.504-0.01c-0.184,0-0.324-0.046-0.422-0.137c-0.098-0.092-0.146-0.199-0.146-0.321
				c0-0.269,0.287-0.775,0.861-1.521c0.684-0.916,1.16-1.569,1.43-1.961c0.293-0.427,0.439-0.751,0.439-0.971
				c0-0.184-0.152-0.501-0.458-0.953c-0.281-0.415-0.647-0.947-1.1-1.595s-0.696-1.002-0.733-1.062
				c-0.172-0.244-0.256-0.465-0.256-0.66c0-0.269,0.158-0.403,0.477-0.403h1.136c0.269,0,0.482,0.053,0.642,0.156
				c0.158,0.104,0.311,0.296,0.458,0.577c0.122,0.232,0.302,0.58,0.54,1.045c0.238,0.464,0.389,0.751,0.449,0.861
				c0.306,0.562,0.508,0.843,0.605,0.843c0.085,0,0.191-0.104,0.32-0.312s0.363-0.636,0.705-1.283
				c0.074-0.134,0.132-0.241,0.175-0.32c0.042-0.079,0.101-0.189,0.174-0.33s0.141-0.271,0.202-0.395
				c0.17-0.317,0.316-0.528,0.439-0.632c0.122-0.104,0.33-0.156,0.623-0.156h1.229c0.268,0,0.402,0.117,0.402,0.349
				c0,0.062-0.006,0.122-0.018,0.184c-0.013,0.061-0.041,0.131-0.083,0.211c-0.043,0.079-0.079,0.144-0.11,0.192
				c-0.03,0.049-0.085,0.134-0.164,0.256c-0.08,0.123-0.145,0.221-0.193,0.294c-0.098,0.146-0.238,0.351-0.421,0.613
				c-0.184,0.263-0.317,0.462-0.403,0.596c-0.159,0.245-0.327,0.486-0.504,0.725c-0.178,0.237-0.306,0.412-0.385,0.521
				c-0.08,0.11-0.146,0.218-0.201,0.321c-0.056,0.104-0.083,0.198-0.083,0.284c0,0.135,0.052,0.296,0.155,0.485
				s0.395,0.632,0.871,1.329c0.207,0.305,0.418,0.602,0.633,0.889c0.213,0.287,0.405,0.54,0.576,0.761
				c0.172,0.22,0.27,0.348,0.293,0.385c0.232,0.317,0.35,0.562,0.35,0.732c0,0.281-0.238,0.422-0.715,0.422
				c-0.086,0-0.232-0.003-0.44-0.009c-0.208-0.007-0.385-0.01-0.531-0.01c-0.33,0-0.565-0.046-0.706-0.137
				C330.755,305.842,330.618,305.662,330.483,305.393z"/>
			<path fill="#006F90" d="M342.909,303.67c0,0.244-0.08,0.507-0.238,0.788s-0.395,0.559-0.705,0.834
				c-0.312,0.274-0.755,0.501-1.329,0.678c-0.575,0.177-1.228,0.266-1.961,0.266c-1.454,0-2.606-0.461-3.455-1.384
				c-0.849-0.922-1.273-2.165-1.273-3.729c0-1.43,0.419-2.587,1.255-3.473c0.838-0.886,2.001-1.329,3.492-1.329
				c1.43,0,2.535,0.339,3.316,1.018c0.782,0.678,1.174,1.646,1.174,2.904c0,0.525-0.083,0.877-0.248,1.055
				c-0.165,0.177-0.438,0.266-0.815,0.266c-0.183,0-1.069-0.003-2.657-0.01c-1.589-0.006-2.45-0.009-2.584-0.009
				c-0.184,0-0.303,0.036-0.357,0.109c-0.055,0.074-0.083,0.196-0.083,0.367c0,0.623,0.22,1.143,0.66,1.558s1.001,0.623,1.687,0.623
				c0.427,0,0.787-0.052,1.08-0.155c0.294-0.104,0.514-0.227,0.66-0.367c0.146-0.14,0.281-0.284,0.403-0.431s0.269-0.271,0.44-0.376
				c0.17-0.104,0.378-0.155,0.623-0.155c0.256,0,0.473,0.086,0.65,0.257C342.82,303.145,342.909,303.377,342.909,303.67z
				 M336.916,300.243h3.593c0.305,0,0.457-0.14,0.457-0.421c0-0.403-0.189-0.77-0.567-1.1c-0.379-0.33-0.923-0.495-1.632-0.495
				c-0.732,0-1.291,0.174-1.676,0.522c-0.385,0.348-0.578,0.718-0.578,1.108c0,0.146,0.027,0.248,0.083,0.303
				C336.65,300.215,336.757,300.243,336.916,300.243z"/>
			<path fill="#006F90" d="M344.467,303.927v-10.245c0-0.66,0.434-0.99,1.302-0.99c0.451,0,0.771,0.073,0.962,0.221
				c0.188,0.146,0.284,0.415,0.284,0.806c0,0.379-0.013,2.084-0.037,5.113c-0.024,3.03-0.037,4.687-0.037,4.967
				c0,0.318,0.104,0.477,0.312,0.477c0.036,0,0.098-0.006,0.184-0.019c0.084-0.012,0.164-0.018,0.238-0.018
				c0.476,0,0.714,0.281,0.714,0.843c0,0.782-0.55,1.173-1.649,1.173c-0.745,0-1.311-0.208-1.695-0.623
				S344.467,304.648,344.467,303.927z"/>
			<path fill="#006F90" d="M349.159,303.927v-10.245c0-0.66,0.434-0.99,1.301-0.99c0.451,0,0.772,0.073,0.963,0.221
				c0.188,0.146,0.283,0.415,0.283,0.806c0,0.379-0.012,2.084-0.037,5.113c-0.023,3.03-0.036,4.687-0.036,4.967
				c0,0.318,0.104,0.477,0.312,0.477c0.037,0,0.098-0.006,0.184-0.019c0.085-0.012,0.164-0.018,0.238-0.018
				c0.477,0,0.715,0.281,0.715,0.843c0,0.782-0.551,1.173-1.65,1.173c-0.744,0-1.31-0.208-1.695-0.623
				C349.35,305.216,349.159,304.648,349.159,303.927z"/>
			<path fill="#006F90" d="M362.427,303.67c0,0.244-0.079,0.507-0.238,0.788c-0.158,0.281-0.394,0.559-0.705,0.834
				c-0.312,0.274-0.754,0.501-1.328,0.678c-0.575,0.177-1.229,0.266-1.961,0.266c-1.455,0-2.606-0.461-3.455-1.384
				c-0.85-0.922-1.273-2.165-1.273-3.729c0-1.43,0.418-2.587,1.255-3.473s2.001-1.329,3.491-1.329c1.43,0,2.535,0.339,3.317,1.018
				c0.782,0.678,1.173,1.646,1.173,2.904c0,0.525-0.082,0.877-0.248,1.055c-0.164,0.177-0.437,0.266-0.814,0.266
				c-0.184,0-1.07-0.003-2.658-0.01c-1.588-0.006-2.449-0.009-2.584-0.009c-0.184,0-0.303,0.036-0.357,0.109
				c-0.055,0.074-0.082,0.196-0.082,0.367c0,0.623,0.22,1.143,0.66,1.558c0.439,0.415,1.001,0.623,1.686,0.623
				c0.428,0,0.788-0.052,1.081-0.155c0.294-0.104,0.513-0.227,0.66-0.367c0.146-0.14,0.28-0.284,0.403-0.431
				c0.121-0.146,0.268-0.271,0.439-0.376c0.171-0.104,0.379-0.155,0.623-0.155c0.257,0,0.474,0.086,0.65,0.257
				C362.339,303.145,362.427,303.377,362.427,303.67z M356.434,300.243h3.592c0.305,0,0.458-0.14,0.458-0.421
				c0-0.403-0.189-0.77-0.567-1.1c-0.379-0.33-0.924-0.495-1.632-0.495c-0.733,0-1.292,0.174-1.677,0.522
				c-0.385,0.348-0.577,0.718-0.577,1.108c0,0.146,0.027,0.248,0.083,0.303C356.169,300.215,356.275,300.243,356.434,300.243z"/>
			<path fill="#006F90" d="M364.516,302.791c0.256,0,0.488,0.082,0.696,0.247s0.388,0.346,0.54,0.541
				c0.153,0.195,0.422,0.376,0.807,0.541s0.853,0.247,1.402,0.247c1.088,0,1.631-0.306,1.631-0.916c0-0.306-0.171-0.525-0.513-0.66
				c-0.343-0.135-1.069-0.293-2.181-0.477c-1.223-0.208-2.06-0.556-2.512-1.045c-0.451-0.488-0.678-1.1-0.678-1.832
				c0-1.002,0.4-1.769,1.201-2.301c0.799-0.531,1.762-0.797,2.886-0.797c1.331,0,2.333,0.244,3.006,0.733
				c0.672,0.488,1.008,1.094,1.008,1.814c0,0.635-0.397,0.953-1.191,0.953c-0.415,0-0.733-0.195-0.952-0.587
				c-0.393-0.66-1.021-0.989-1.889-0.989c-1.088,0-1.631,0.329-1.631,0.989c0,0.366,0.149,0.647,0.449,0.843
				c0.299,0.196,0.943,0.379,1.934,0.55c1.43,0.245,2.385,0.575,2.868,0.99c0.482,0.415,0.724,0.983,0.724,1.704
				c0,0.843-0.373,1.539-1.117,2.089c-0.746,0.55-1.846,0.825-3.3,0.825c-1.356,0-2.38-0.271-3.069-0.815
				c-0.69-0.544-1.035-1.103-1.035-1.677C363.6,303.115,363.905,302.791,364.516,302.791z"/>
			<path fill="#006F90" d="M387.132,303.67c0,0.244-0.079,0.507-0.238,0.788c-0.158,0.281-0.394,0.559-0.705,0.834
				c-0.312,0.274-0.754,0.501-1.328,0.678c-0.575,0.177-1.229,0.266-1.961,0.266c-1.455,0-2.606-0.461-3.455-1.384
				c-0.85-0.922-1.273-2.165-1.273-3.729c0-1.43,0.418-2.587,1.255-3.473s2.001-1.329,3.491-1.329c1.43,0,2.535,0.339,3.317,1.018
				c0.782,0.678,1.173,1.646,1.173,2.904c0,0.525-0.082,0.877-0.248,1.055c-0.164,0.177-0.437,0.266-0.814,0.266
				c-0.184,0-1.07-0.003-2.658-0.01c-1.588-0.006-2.449-0.009-2.584-0.009c-0.184,0-0.303,0.036-0.357,0.109
				c-0.055,0.074-0.082,0.196-0.082,0.367c0,0.623,0.22,1.143,0.66,1.558c0.439,0.415,1.001,0.623,1.686,0.623
				c0.428,0,0.788-0.052,1.081-0.155c0.294-0.104,0.513-0.227,0.66-0.367c0.146-0.14,0.28-0.284,0.403-0.431
				c0.121-0.146,0.268-0.271,0.439-0.376c0.171-0.104,0.379-0.155,0.623-0.155c0.257,0,0.474,0.086,0.65,0.257
				C387.044,303.145,387.132,303.377,387.132,303.67z M381.139,300.243h3.592c0.305,0,0.458-0.14,0.458-0.421
				c0-0.403-0.189-0.77-0.567-1.1c-0.379-0.33-0.924-0.495-1.632-0.495c-0.733,0-1.292,0.174-1.677,0.522
				c-0.385,0.348-0.577,0.718-0.577,1.108c0,0.146,0.027,0.248,0.083,0.303C380.874,300.215,380.98,300.243,381.139,300.243z"/>
			<path fill="#006F90" d="M397.395,305.173c0,0.33-0.095,0.553-0.284,0.669s-0.528,0.174-1.017,0.174
				c-0.562,0-0.93-0.043-1.1-0.128c-0.172-0.086-0.258-0.306-0.258-0.66c0-0.061,0.01-0.696,0.028-1.906
				c0.019-1.209,0.027-1.991,0.027-2.346c0-0.843-0.128-1.46-0.385-1.851c-0.257-0.392-0.703-0.587-1.338-0.587
				c-0.562,0-1.021,0.229-1.374,0.688c-0.355,0.458-0.532,1.09-0.532,1.896c0,0.868,0.003,1.732,0.009,2.594s0.01,1.335,0.01,1.42
				c0,0.392-0.089,0.639-0.266,0.742c-0.178,0.104-0.547,0.156-1.109,0.156c-0.465,0-0.791-0.062-0.98-0.184
				s-0.283-0.354-0.283-0.696c0-1.43,0.002-2.74,0.009-3.932c0.006-1.19,0.015-2.107,0.027-2.749
				c0.013-0.641,0.019-1.005,0.019-1.09c0-0.317,0.073-0.538,0.22-0.66s0.409-0.184,0.788-0.184c0.354,0,0.599,0.056,0.732,0.165
				c0.135,0.11,0.244,0.349,0.33,0.715c0.086,0.416,0.184,0.623,0.293,0.623c0.062,0,0.153-0.088,0.275-0.266
				c0.122-0.177,0.266-0.375,0.431-0.596c0.165-0.22,0.455-0.418,0.87-0.596c0.416-0.177,0.917-0.266,1.504-0.266
				c0.989,0,1.787,0.321,2.391,0.963c0.605,0.641,0.908,1.615,0.908,2.923c0,0.94,0.009,1.729,0.027,2.364
				C397.385,303.206,397.395,304.074,397.395,305.173z"/>
			<path fill="#006F90" d="M405.477,296.541h0.843c0.403,0,0.604,0.19,0.604,0.568c0,0.172-0.036,0.354-0.109,0.55
				c-0.037,0.099-0.098,0.287-0.184,0.568s-0.207,0.666-0.366,1.154c-0.159,0.489-0.36,1.088-0.604,1.797
				c-0.294,0.83-0.545,1.545-0.752,2.144c-0.208,0.599-0.342,0.99-0.403,1.173c-0.22,0.623-0.464,1.052-0.733,1.283
				c-0.269,0.232-0.653,0.349-1.154,0.349c-0.599,0-1.02-0.11-1.264-0.33c-0.245-0.22-0.483-0.666-0.715-1.338
				c-0.392-1.137-0.771-2.261-1.137-3.372c-0.123-0.354-0.293-0.844-0.514-1.467c-0.22-0.623-0.36-1.038-0.422-1.246
				c-0.207-0.61-0.311-1.045-0.311-1.301c0-0.354,0.201-0.532,0.604-0.532h0.88c0.5,0,0.812,0.257,0.935,0.771
				c0.28,0.929,0.531,1.79,0.751,2.584c0.574,2.089,0.898,3.195,0.972,3.317c0.062,0.122,0.153,0.183,0.274,0.183
				c0.098,0,0.175-0.07,0.229-0.21c0.056-0.141,0.175-0.547,0.357-1.219c0.073-0.281,0.134-0.501,0.183-0.66
				c0.44-1.649,0.782-2.987,1.027-4.014C404.579,296.792,404.915,296.541,405.477,296.541z"/>
			<path fill="#006F90" d="M410.846,294.103c0,0.403-0.155,0.74-0.467,1.009s-0.699,0.403-1.164,0.403
				c-0.488,0-0.877-0.141-1.164-0.422s-0.43-0.647-0.43-1.1c0-0.464,0.134-0.85,0.402-1.154c0.27-0.306,0.66-0.459,1.174-0.459
				C410.298,292.38,410.846,292.956,410.846,294.103z M410.499,305.228c0,0.342-0.082,0.574-0.248,0.696
				c-0.164,0.122-0.498,0.184-0.998,0.184c-0.502,0-0.85-0.07-1.045-0.211s-0.293-0.388-0.293-0.742c0-0.11,0.009-1.325,0.027-3.647
				c0.018-2.321,0.027-3.671,0.027-4.05c0-0.354,0.082-0.596,0.248-0.724c0.164-0.129,0.51-0.193,1.035-0.193
				c0.464,0,0.785,0.083,0.962,0.248s0.266,0.425,0.266,0.778c0,0.379,0.003,1.678,0.009,3.895
				C410.495,303.679,410.499,304.935,410.499,305.228z"/>
			<path fill="#006F90" d="M414.696,301.672v3.409c0,0.342-0.092,0.59-0.275,0.742c-0.184,0.153-0.525,0.229-1.026,0.229
				c-0.477,0-0.815-0.076-1.017-0.229c-0.202-0.152-0.303-0.4-0.303-0.742c0-1.43,0.006-2.733,0.018-3.913
				c0.013-1.179,0.025-2.086,0.037-2.722c0.012-0.635,0.018-1.001,0.018-1.1c0-0.305,0.074-0.516,0.221-0.632
				s0.409-0.175,0.788-0.175c0.378,0,0.636,0.062,0.77,0.184s0.231,0.36,0.294,0.715c0.072,0.477,0.164,0.715,0.274,0.715
				c0.062,0,0.149-0.082,0.266-0.247s0.251-0.352,0.403-0.56c0.152-0.207,0.395-0.394,0.724-0.559
				c0.33-0.165,0.708-0.248,1.137-0.248c0.378,0,0.653,0.083,0.825,0.248c0.17,0.165,0.256,0.442,0.256,0.834
				c0,0.403-0.07,0.718-0.211,0.943c-0.141,0.227-0.424,0.339-0.852,0.339C415.477,298.905,414.696,299.828,414.696,301.672z"/>
			<path fill="#006F90" d="M423.62,306.236c-1.49,0-2.672-0.442-3.545-1.328c-0.875-0.886-1.311-2.074-1.311-3.565
				c0-1.637,0.399-2.88,1.199-3.729c0.801-0.849,1.982-1.279,3.547-1.292c1.576,0,2.777,0.416,3.602,1.246
				c0.824,0.831,1.236,2.078,1.236,3.739c0,1.368-0.424,2.532-1.273,3.491S425.075,306.236,423.62,306.236z M421.815,303.414
				c0.396,0.477,0.98,0.715,1.75,0.715s1.363-0.257,1.778-0.77c0.415-0.514,0.623-1.137,0.623-1.869
				c0-1.931-0.825-2.896-2.474-2.896c-0.783,0-1.357,0.275-1.724,0.825s-0.55,1.24-0.55,2.071
				C421.219,302.295,421.419,302.937,421.815,303.414z"/>
			<path fill="#006F90" d="M438.392,305.173c0,0.33-0.095,0.553-0.284,0.669s-0.529,0.174-1.018,0.174
				c-0.562,0-0.928-0.043-1.1-0.128c-0.171-0.086-0.256-0.306-0.256-0.66c0-0.061,0.009-0.696,0.027-1.906
				c0.018-1.209,0.027-1.991,0.027-2.346c0-0.843-0.129-1.46-0.385-1.851c-0.257-0.392-0.703-0.587-1.338-0.587
				c-0.562,0-1.021,0.229-1.375,0.688c-0.354,0.458-0.531,1.09-0.531,1.896c0,0.868,0.003,1.732,0.01,2.594
				c0.006,0.861,0.009,1.335,0.009,1.42c0,0.392-0.089,0.639-0.267,0.742c-0.177,0.104-0.547,0.156-1.107,0.156
				c-0.465,0-0.792-0.062-0.98-0.184c-0.19-0.122-0.285-0.354-0.285-0.696c0-1.43,0.004-2.74,0.01-3.932
				c0.006-1.19,0.016-2.107,0.027-2.749c0.012-0.641,0.018-1.005,0.018-1.09c0-0.317,0.074-0.538,0.221-0.66
				s0.409-0.184,0.788-0.184c0.354,0,0.599,0.056,0.733,0.165c0.134,0.11,0.244,0.349,0.33,0.715
				c0.085,0.416,0.183,0.623,0.293,0.623c0.061,0,0.152-0.088,0.274-0.266c0.122-0.177,0.267-0.375,0.431-0.596
				c0.165-0.22,0.455-0.418,0.871-0.596c0.415-0.177,0.916-0.266,1.502-0.266c0.99,0,1.787,0.321,2.393,0.963
				c0.604,0.641,0.906,1.615,0.906,2.923c0,0.94,0.01,1.729,0.027,2.364C438.384,303.206,438.392,304.074,438.392,305.173z"/>
			<path fill="#006F90" d="M448.637,305.173c0,0.33-0.096,0.553-0.285,0.669s-0.528,0.174-1.017,0.174
				c-0.562,0-0.929-0.043-1.1-0.128c-0.171-0.086-0.257-0.306-0.257-0.66c0-0.061,0.01-0.696,0.027-1.906
				c0.019-1.209,0.027-1.991,0.027-2.346c0-0.843-0.128-1.46-0.385-1.851c-0.256-0.392-0.703-0.587-1.338-0.587
				c-0.562,0-1.02,0.229-1.374,0.688s-0.532,1.09-0.532,1.896c0,0.868,0.004,1.732,0.01,2.594s0.01,1.335,0.01,1.42
				c0,0.392-0.09,0.639-0.267,0.742c-0.177,0.104-0.547,0.156-1.108,0.156c-0.465,0-0.791-0.062-0.98-0.184
				s-0.284-0.354-0.284-0.696c0-1.43,0.003-2.74,0.009-3.932c0.006-1.19,0.016-2.107,0.027-2.749
				c0.013-0.641,0.019-1.005,0.019-1.09c0-0.317,0.073-0.538,0.22-0.66s0.41-0.184,0.789-0.184c0.354,0,0.598,0.056,0.732,0.165
				c0.135,0.11,0.244,0.349,0.33,0.715c0.086,0.416,0.184,0.623,0.293,0.623c0.061,0,0.152-0.088,0.275-0.266
				c0.121-0.177,0.266-0.375,0.43-0.596c0.166-0.22,0.455-0.418,0.871-0.596c0.416-0.177,0.916-0.266,1.503-0.266
				c0.989,0,1.787,0.321,2.392,0.963c0.605,0.641,0.907,1.615,0.907,2.923c0,0.94,0.009,1.729,0.027,2.364
				C448.628,303.206,448.637,304.074,448.637,305.173z"/>
			<path fill="#006F90" d="M458.753,303.67c0,0.244-0.079,0.507-0.238,0.788c-0.158,0.281-0.394,0.559-0.705,0.834
				c-0.312,0.274-0.754,0.501-1.328,0.678c-0.575,0.177-1.229,0.266-1.961,0.266c-1.455,0-2.606-0.461-3.455-1.384
				c-0.85-0.922-1.273-2.165-1.273-3.729c0-1.43,0.418-2.587,1.255-3.473s2.001-1.329,3.491-1.329c1.43,0,2.535,0.339,3.317,1.018
				c0.782,0.678,1.173,1.646,1.173,2.904c0,0.525-0.082,0.877-0.248,1.055c-0.164,0.177-0.437,0.266-0.814,0.266
				c-0.184,0-1.07-0.003-2.658-0.01c-1.588-0.006-2.449-0.009-2.584-0.009c-0.184,0-0.303,0.036-0.357,0.109
				c-0.055,0.074-0.082,0.196-0.082,0.367c0,0.623,0.22,1.143,0.66,1.558c0.439,0.415,1.001,0.623,1.686,0.623
				c0.428,0,0.788-0.052,1.081-0.155c0.294-0.104,0.513-0.227,0.66-0.367c0.146-0.14,0.28-0.284,0.403-0.431
				c0.121-0.146,0.268-0.271,0.439-0.376c0.171-0.104,0.379-0.155,0.623-0.155c0.257,0,0.474,0.086,0.65,0.257
				C458.665,303.145,458.753,303.377,458.753,303.67z M452.76,300.243h3.592c0.305,0,0.458-0.14,0.458-0.421
				c0-0.403-0.189-0.77-0.567-1.1c-0.379-0.33-0.924-0.495-1.632-0.495c-0.733,0-1.292,0.174-1.677,0.522
				c-0.385,0.348-0.577,0.718-0.577,1.108c0,0.146,0.027,0.248,0.083,0.303C452.495,300.215,452.601,300.243,452.76,300.243z"/>
			<path fill="#006F90" d="M462.749,300.921v4.361c0,0.245-0.092,0.431-0.275,0.56c-0.184,0.128-0.55,0.192-1.1,0.192
				c-0.403,0-0.703-0.058-0.898-0.175c-0.195-0.115-0.293-0.339-0.293-0.669c0-1.441,0.006-2.758,0.019-3.949
				s0.021-2.107,0.027-2.749s0.009-1.005,0.009-1.09c0-0.318,0.08-0.544,0.238-0.679c0.159-0.134,0.44-0.201,0.844-0.201
				c0.33,0,0.556,0.061,0.678,0.183c0.122,0.123,0.227,0.361,0.312,0.715c0.073,0.33,0.177,0.495,0.312,0.495
				c0.049,0,0.129-0.085,0.238-0.257c0.11-0.171,0.238-0.354,0.385-0.55c0.146-0.195,0.4-0.378,0.761-0.55
				c0.36-0.171,0.785-0.256,1.274-0.256c0.549,0,1.01,0.088,1.383,0.266c0.373,0.177,0.629,0.375,0.77,0.596
				c0.141,0.22,0.27,0.418,0.385,0.595c0.117,0.178,0.223,0.267,0.321,0.267c0.085,0,0.198-0.089,0.339-0.267
				c0.141-0.177,0.293-0.375,0.459-0.595c0.164-0.221,0.451-0.419,0.861-0.596c0.408-0.178,0.882-0.266,1.42-0.266
				c0.94,0,1.717,0.299,2.328,0.897c0.61,0.599,0.916,1.516,0.916,2.749c0,1.112,0.009,2.16,0.027,3.144
				c0.018,0.983,0.027,1.609,0.027,1.878c0,0.403-0.089,0.679-0.266,0.825c-0.178,0.146-0.517,0.22-1.018,0.22
				c-0.513,0-0.852-0.067-1.018-0.201c-0.164-0.135-0.246-0.367-0.246-0.697c0-0.061,0.006-0.678,0.018-1.851
				s0.019-1.937,0.019-2.291c0-0.843-0.128-1.457-0.385-1.842s-0.69-0.577-1.302-0.577c-0.451,0-0.85,0.187-1.191,0.559
				c-0.342,0.373-0.513,0.889-0.513,1.549c0,0.904,0.003,1.589,0.009,2.053c0.006,0.465,0.01,1.253,0.01,2.364
				c0,0.184-0.01,0.317-0.027,0.403c-0.019,0.085-0.064,0.177-0.138,0.274c-0.073,0.099-0.202,0.165-0.386,0.202
				c-0.183,0.036-0.428,0.055-0.732,0.055c-0.452,0-0.77-0.064-0.953-0.192s-0.275-0.369-0.275-0.724
				c0-0.062,0.007-0.675,0.02-1.842c0.012-1.167,0.018-1.928,0.018-2.282c0-0.855-0.122-1.479-0.366-1.869
				c-0.245-0.391-0.673-0.587-1.283-0.587c-0.538,0-0.966,0.202-1.282,0.605C462.907,299.528,462.749,300.127,462.749,300.921z"/>
			<path fill="#006F90" d="M484.686,303.67c0,0.244-0.08,0.507-0.238,0.788c-0.159,0.281-0.395,0.559-0.706,0.834
				c-0.312,0.274-0.755,0.501-1.329,0.678s-1.228,0.266-1.961,0.266c-1.453,0-2.605-0.461-3.455-1.384
				c-0.849-0.922-1.273-2.165-1.273-3.729c0-1.43,0.419-2.587,1.256-3.473s2-1.329,3.491-1.329c1.43,0,2.535,0.339,3.317,1.018
				c0.781,0.678,1.173,1.646,1.173,2.904c0,0.525-0.083,0.877-0.247,1.055c-0.166,0.177-0.438,0.266-0.816,0.266
				c-0.183,0-1.068-0.003-2.656-0.01c-1.59-0.006-2.451-0.009-2.585-0.009c-0.183,0-0.302,0.036-0.357,0.109
				c-0.055,0.074-0.083,0.196-0.083,0.367c0,0.623,0.221,1.143,0.66,1.558c0.44,0.415,1.002,0.623,1.687,0.623
				c0.427,0,0.788-0.052,1.081-0.155c0.293-0.104,0.514-0.227,0.66-0.367c0.146-0.14,0.281-0.284,0.402-0.431
				c0.123-0.146,0.27-0.271,0.44-0.376c0.171-0.104,0.378-0.155,0.623-0.155c0.257,0,0.474,0.086,0.651,0.257
				C484.596,303.145,484.686,303.377,484.686,303.67z M478.692,300.243h3.593c0.306,0,0.458-0.14,0.458-0.421
				c0-0.403-0.189-0.77-0.568-1.1s-0.922-0.495-1.631-0.495c-0.732,0-1.292,0.174-1.677,0.522c-0.385,0.348-0.577,0.718-0.577,1.108
				c0,0.146,0.027,0.248,0.082,0.303S478.534,300.243,478.692,300.243z"/>
			<path fill="#006F90" d="M494.949,305.173c0,0.33-0.095,0.553-0.284,0.669s-0.529,0.174-1.018,0.174
				c-0.562,0-0.928-0.043-1.1-0.128c-0.171-0.086-0.256-0.306-0.256-0.66c0-0.061,0.009-0.696,0.027-1.906
				c0.018-1.209,0.027-1.991,0.027-2.346c0-0.843-0.129-1.46-0.385-1.851c-0.257-0.392-0.703-0.587-1.338-0.587
				c-0.562,0-1.021,0.229-1.375,0.688c-0.354,0.458-0.531,1.09-0.531,1.896c0,0.868,0.003,1.732,0.01,2.594
				c0.006,0.861,0.009,1.335,0.009,1.42c0,0.392-0.089,0.639-0.267,0.742c-0.177,0.104-0.547,0.156-1.107,0.156
				c-0.465,0-0.792-0.062-0.98-0.184c-0.19-0.122-0.285-0.354-0.285-0.696c0-1.43,0.004-2.74,0.01-3.932
				c0.006-1.19,0.016-2.107,0.027-2.749c0.012-0.641,0.018-1.005,0.018-1.09c0-0.317,0.074-0.538,0.221-0.66
				s0.409-0.184,0.788-0.184c0.354,0,0.599,0.056,0.733,0.165c0.134,0.11,0.244,0.349,0.33,0.715
				c0.085,0.416,0.183,0.623,0.293,0.623c0.061,0,0.152-0.088,0.274-0.266c0.122-0.177,0.267-0.375,0.431-0.596
				c0.165-0.22,0.455-0.418,0.871-0.596c0.415-0.177,0.916-0.266,1.502-0.266c0.99,0,1.787,0.321,2.393,0.963
				c0.604,0.641,0.906,1.615,0.906,2.923c0,0.94,0.01,1.729,0.027,2.364C494.94,303.206,494.949,304.074,494.949,305.173z"/>
			<path fill="#006F90" d="M501.657,298.484h-1.485c-0.171,0-0.281,0.027-0.329,0.082c-0.049,0.056-0.074,0.156-0.074,0.303
				c0,0.366-0.003,1.143-0.009,2.327c-0.007,1.186-0.009,1.857-0.009,2.017c0,0.696,0.274,1.044,0.824,1.044
				c0.184,0,0.363-0.036,0.541-0.109c0.177-0.073,0.332-0.11,0.467-0.11c0.244,0,0.443,0.083,0.596,0.248
				c0.152,0.164,0.229,0.406,0.229,0.724c0,0.831-0.801,1.246-2.401,1.246c-0.928,0-1.625-0.232-2.089-0.696
				c-0.465-0.465-0.696-1.118-0.696-1.961c0-0.587-0.004-1.405-0.01-2.456s-0.009-1.808-0.009-2.272
				c0-0.257-0.085-0.385-0.257-0.385h-0.66c-0.183,0-0.314-0.058-0.394-0.175c-0.079-0.115-0.119-0.332-0.119-0.65
				c0-0.513,0.195-0.8,0.587-0.861c0.562-0.085,0.843-0.257,0.843-0.513c0-0.171,0.003-0.479,0.009-0.926s0.01-0.748,0.01-0.907
				c0-0.366,0.104-0.632,0.312-0.797s0.537-0.248,0.989-0.248s0.775,0.08,0.972,0.238c0.195,0.159,0.293,0.416,0.293,0.771v1.832
				c0,0.195,0.092,0.293,0.274,0.293h1.65c0.244,0,0.418,0.067,0.521,0.202s0.156,0.391,0.156,0.77s-0.055,0.636-0.165,0.77
				C502.114,298.417,501.925,298.484,501.657,298.484z"/>
		</g>
		<g enable-background="new    ">
			<path fill="#939399" d="M506.659,304.733c0,0.953-0.513,1.43-1.539,1.43c-0.477,0-0.85-0.128-1.117-0.385
				c-0.27-0.257-0.404-0.604-0.404-1.045c0-0.916,0.489-1.374,1.467-1.374c0.598,0,1.014,0.113,1.246,0.339
				C506.544,303.924,506.659,304.269,506.659,304.733z"/>
			<path fill="#939399" d="M511.04,293.718v1.888c0,0.367-0.006,0.703-0.019,1.009c-0.013,0.305-0.019,0.482-0.019,0.531
				c0,0.269,0.061,0.403,0.184,0.403c0.061,0,0.156-0.067,0.284-0.202c0.128-0.134,0.277-0.287,0.448-0.458
				c0.172-0.171,0.459-0.323,0.861-0.458c0.404-0.135,0.868-0.202,1.394-0.202c1.185,0,2.114,0.419,2.786,1.256
				s1.008,2.05,1.008,3.638c0,1.491-0.355,2.7-1.063,3.629s-1.667,1.393-2.877,1.393c-0.66,0-1.213-0.089-1.659-0.266
				c-0.445-0.177-0.745-0.375-0.897-0.596c-0.153-0.22-0.284-0.418-0.394-0.596c-0.111-0.177-0.196-0.266-0.258-0.266
				c-0.061,0-0.104,0.027-0.128,0.083c-0.024,0.055-0.055,0.192-0.091,0.412c-0.013,0.049-0.021,0.089-0.028,0.119
				c-0.006,0.03-0.013,0.07-0.019,0.119s-0.016,0.098-0.027,0.146c-0.049,0.269-0.162,0.455-0.339,0.559
				c-0.177,0.104-0.431,0.156-0.761,0.156c-0.391,0-0.662-0.076-0.815-0.229c-0.153-0.152-0.229-0.388-0.229-0.705
				c0-0.073-0.002-1.359-0.009-3.858c-0.007-2.498-0.009-5-0.009-7.505c0-0.354,0.101-0.613,0.303-0.778
				c0.201-0.165,0.559-0.248,1.072-0.248c0.537,0,0.889,0.08,1.053,0.238C510.958,293.089,511.04,293.352,511.04,293.718z
				 M513.074,304.183c0.696,0,1.246-0.263,1.649-0.788c0.403-0.524,0.605-1.265,0.605-2.217c0-0.953-0.184-1.635-0.551-2.044
				c-0.366-0.409-0.898-0.614-1.594-0.614c-1.516,0-2.273,0.929-2.273,2.786c0,0.892,0.199,1.595,0.596,2.107
				C511.904,303.927,512.427,304.183,513.074,304.183z"/>
			<path fill="#939399" d="M521.706,301.672v3.409c0,0.342-0.092,0.59-0.275,0.742c-0.184,0.153-0.525,0.229-1.025,0.229
				c-0.477,0-0.816-0.076-1.018-0.229c-0.201-0.152-0.303-0.4-0.303-0.742c0-1.43,0.006-2.733,0.019-3.913
				c0.013-1.179,0.024-2.086,0.036-2.722c0.013-0.635,0.019-1.001,0.019-1.1c0-0.305,0.073-0.516,0.22-0.632s0.41-0.175,0.789-0.175
				c0.378,0,0.635,0.062,0.77,0.184c0.134,0.122,0.231,0.36,0.293,0.715c0.073,0.477,0.165,0.715,0.275,0.715
				c0.061,0,0.148-0.082,0.266-0.247c0.115-0.165,0.25-0.352,0.402-0.56c0.152-0.207,0.395-0.394,0.725-0.559
				s0.708-0.248,1.137-0.248c0.378,0,0.652,0.083,0.824,0.248c0.171,0.165,0.256,0.442,0.256,0.834c0,0.403-0.07,0.718-0.211,0.943
				c-0.141,0.227-0.424,0.339-0.852,0.339C522.487,298.905,521.706,299.828,521.706,301.672z"/>
			<path fill="#939399" d="M534.792,305.044c0,0.648-0.367,0.972-1.1,0.972c-0.379,0-0.651-0.073-0.816-0.22
				s-0.284-0.373-0.357-0.679c-0.012-0.061-0.027-0.137-0.045-0.229c-0.02-0.092-0.031-0.162-0.037-0.211s-0.019-0.101-0.037-0.156
				c-0.018-0.055-0.037-0.094-0.055-0.118c-0.019-0.024-0.046-0.037-0.082-0.037c-0.049,0-0.107,0.064-0.175,0.192
				s-0.159,0.284-0.274,0.468c-0.117,0.183-0.27,0.369-0.459,0.559s-0.467,0.349-0.834,0.477c-0.366,0.128-0.794,0.192-1.282,0.192
				c-2.126,0-3.188-1.344-3.188-4.032c0-0.953-0.004-1.716-0.01-2.291c-0.006-0.574-0.01-1.417-0.01-2.528
				c0-0.318,0.092-0.55,0.275-0.697c0.184-0.146,0.525-0.22,1.026-0.22c0.489,0,0.831,0.062,1.026,0.184s0.293,0.354,0.293,0.696
				c0,0.062-0.006,0.69-0.018,1.888c-0.013,1.197-0.019,1.979-0.019,2.346c0,1.613,0.556,2.419,1.667,2.419
				c1.295,0,1.943-1.008,1.943-3.023c0-0.904-0.006-1.723-0.019-2.456s-0.019-1.13-0.019-1.191c0-0.293,0.098-0.501,0.293-0.623
				s0.532-0.184,1.009-0.184c0.488,0,0.837,0.059,1.044,0.175c0.208,0.116,0.312,0.339,0.312,0.669c0,0.403-0.01,1.738-0.027,4.004
				C534.8,303.655,534.792,304.874,534.792,305.044z"/>
			<path fill="#939399" d="M536.971,302.791c0.257,0,0.488,0.082,0.697,0.247c0.207,0.165,0.387,0.346,0.54,0.541
				s0.421,0.376,0.807,0.541c0.385,0.165,0.853,0.247,1.401,0.247c1.088,0,1.631-0.306,1.631-0.916c0-0.306-0.17-0.525-0.512-0.66
				c-0.343-0.135-1.07-0.293-2.182-0.477c-1.222-0.208-2.059-0.556-2.511-1.045c-0.452-0.488-0.679-1.1-0.679-1.832
				c0-1.002,0.4-1.769,1.201-2.301c0.8-0.531,1.762-0.797,2.887-0.797c1.331,0,2.333,0.244,3.006,0.733
				c0.672,0.488,1.008,1.094,1.008,1.814c0,0.635-0.397,0.953-1.191,0.953c-0.416,0-0.733-0.195-0.953-0.587
				c-0.392-0.66-1.021-0.989-1.888-0.989c-1.088,0-1.632,0.329-1.632,0.989c0,0.366,0.15,0.647,0.449,0.843
				c0.3,0.196,0.944,0.379,1.934,0.55c1.43,0.245,2.386,0.575,2.869,0.99c0.482,0.415,0.723,0.983,0.723,1.704
				c0,0.843-0.372,1.539-1.117,2.089c-0.746,0.55-1.846,0.825-3.299,0.825c-1.356,0-2.38-0.271-3.07-0.815
				c-0.689-0.544-1.035-1.103-1.035-1.677C536.055,303.115,536.36,302.791,536.971,302.791z"/>
			<path fill="#939399" d="M546.447,302.791c0.257,0,0.488,0.082,0.696,0.247c0.207,0.165,0.388,0.346,0.541,0.541
				c0.152,0.195,0.421,0.376,0.807,0.541c0.385,0.165,0.852,0.247,1.401,0.247c1.087,0,1.631-0.306,1.631-0.916
				c0-0.306-0.171-0.525-0.513-0.66s-1.069-0.293-2.182-0.477c-1.221-0.208-2.059-0.556-2.51-1.045
				c-0.453-0.488-0.679-1.1-0.679-1.832c0-1.002,0.399-1.769,1.2-2.301c0.801-0.531,1.763-0.797,2.887-0.797
				c1.332,0,2.334,0.244,3.006,0.733c0.672,0.488,1.008,1.094,1.008,1.814c0,0.635-0.396,0.953-1.191,0.953
				c-0.416,0-0.732-0.195-0.953-0.587c-0.391-0.66-1.02-0.989-1.887-0.989c-1.088,0-1.632,0.329-1.632,0.989
				c0,0.366,0.149,0.647,0.449,0.843c0.3,0.196,0.944,0.379,1.934,0.55c1.429,0.245,2.386,0.575,2.868,0.99s0.724,0.983,0.724,1.704
				c0,0.843-0.372,1.539-1.118,2.089c-0.745,0.55-1.845,0.825-3.299,0.825c-1.355,0-2.379-0.271-3.069-0.815
				s-1.036-1.103-1.036-1.677C545.53,303.115,545.836,302.791,546.447,302.791z"/>
			<path fill="#939399" d="M563.968,303.67c0,0.244-0.08,0.507-0.238,0.788s-0.395,0.559-0.705,0.834
				c-0.312,0.274-0.755,0.501-1.329,0.678c-0.575,0.177-1.228,0.266-1.961,0.266c-1.454,0-2.606-0.461-3.455-1.384
				c-0.849-0.922-1.273-2.165-1.273-3.729c0-1.43,0.419-2.587,1.255-3.473c0.838-0.886,2.001-1.329,3.492-1.329
				c1.43,0,2.535,0.339,3.316,1.018c0.782,0.678,1.174,1.646,1.174,2.904c0,0.525-0.083,0.877-0.248,1.055
				c-0.165,0.177-0.438,0.266-0.815,0.266c-0.183,0-1.069-0.003-2.657-0.01c-1.589-0.006-2.45-0.009-2.584-0.009
				c-0.184,0-0.303,0.036-0.357,0.109c-0.055,0.074-0.083,0.196-0.083,0.367c0,0.623,0.22,1.143,0.66,1.558s1.001,0.623,1.687,0.623
				c0.427,0,0.787-0.052,1.08-0.155c0.294-0.104,0.514-0.227,0.66-0.367c0.146-0.14,0.281-0.284,0.403-0.431s0.269-0.271,0.44-0.376
				c0.17-0.104,0.378-0.155,0.623-0.155c0.256,0,0.473,0.086,0.65,0.257C563.879,303.145,563.968,303.377,563.968,303.67z
				 M557.974,300.243h3.593c0.305,0,0.457-0.14,0.457-0.421c0-0.403-0.189-0.77-0.567-1.1c-0.379-0.33-0.923-0.495-1.632-0.495
				c-0.732,0-1.291,0.174-1.676,0.522c-0.385,0.348-0.578,0.718-0.578,1.108c0,0.146,0.027,0.248,0.083,0.303
				C557.709,300.215,557.815,300.243,557.974,300.243z"/>
			<path fill="#939399" d="M565.525,303.927v-10.245c0-0.66,0.434-0.99,1.302-0.99c0.451,0,0.771,0.073,0.962,0.221
				c0.188,0.146,0.284,0.415,0.284,0.806c0,0.379-0.013,2.084-0.037,5.113c-0.024,3.03-0.037,4.687-0.037,4.967
				c0,0.318,0.104,0.477,0.312,0.477c0.036,0,0.098-0.006,0.184-0.019c0.084-0.012,0.164-0.018,0.238-0.018
				c0.476,0,0.714,0.281,0.714,0.843c0,0.782-0.55,1.173-1.649,1.173c-0.745,0-1.311-0.208-1.695-0.623
				S565.525,304.648,565.525,303.927z"/>
			<path fill="#939399" d="M570.749,302.791c0.256,0,0.488,0.082,0.696,0.247s0.388,0.346,0.54,0.541
				c0.153,0.195,0.422,0.376,0.807,0.541s0.853,0.247,1.402,0.247c1.088,0,1.631-0.306,1.631-0.916c0-0.306-0.171-0.525-0.513-0.66
				c-0.343-0.135-1.069-0.293-2.181-0.477c-1.223-0.208-2.06-0.556-2.512-1.045c-0.451-0.488-0.678-1.1-0.678-1.832
				c0-1.002,0.4-1.769,1.201-2.301c0.799-0.531,1.762-0.797,2.886-0.797c1.331,0,2.333,0.244,3.006,0.733
				c0.672,0.488,1.008,1.094,1.008,1.814c0,0.635-0.397,0.953-1.191,0.953c-0.415,0-0.733-0.195-0.952-0.587
				c-0.393-0.66-1.021-0.989-1.889-0.989c-1.088,0-1.631,0.329-1.631,0.989c0,0.366,0.149,0.647,0.449,0.843
				c0.299,0.196,0.943,0.379,1.934,0.55c1.43,0.245,2.385,0.575,2.868,0.99c0.482,0.415,0.724,0.983,0.724,1.704
				c0,0.843-0.373,1.539-1.117,2.089c-0.746,0.55-1.846,0.825-3.3,0.825c-1.356,0-2.38-0.271-3.069-0.815
				c-0.69-0.544-1.035-1.103-1.035-1.677C569.833,303.115,570.137,302.791,570.749,302.791z"/>
		</g>
	</g>
	<g>
		<g>
			<path fill="#949499" d="M593.97,305.822c-0.001,0.262-0.108,0.479-0.367,0.479c-0.28,0-0.594-0.539-1.375-0.92
				c-0.701-0.336-1.394-0.479-2.013-0.48c-0.772,0-2.065,0.367-3.296,0.391c-1.152,0.008-2.189-0.535-2.857-1.26
				c-0.498-0.535-0.838-1.395-0.837-2.172c0.003-0.973,0.389-1.934,1.237-2.648c0.637-0.529,1.36-0.742,2.2-0.742
				c1.258-0.01,2.521,0.643,3.326,1.277c1.177,0.934,2.25,2.184,3.004,3.529C593.427,304.037,593.973,305.32,593.97,305.822
				L593.97,305.822z"/>
			<path fill="#949499" d="M595.018,305.822c0.001,0.262,0.109,0.479,0.368,0.479c0.28,0,0.594-0.539,1.375-0.92
				c0.701-0.336,1.394-0.479,2.013-0.48c0.772,0,2.065,0.367,3.296,0.391c1.151,0.008,2.188-0.535,2.856-1.26
				c0.499-0.535,0.838-1.395,0.837-2.172c-0.003-0.973-0.388-1.934-1.236-2.648c-0.638-0.529-1.36-0.742-2.2-0.742
				c-1.258-0.01-2.521,0.643-3.326,1.277c-1.177,0.934-2.25,2.184-3.004,3.529C595.562,304.037,595.015,305.32,595.018,305.822
				L595.018,305.822z"/>
			<g>
				<path fill="#949499" d="M599.005,293.63c-0.588-0.584-1.296-0.978-2.323-0.967c-1.041,0.002-1.712,0.365-2.187,0.971
					c-0.478-0.605-1.146-0.969-2.201-0.971c-1.014-0.011-1.731,0.383-2.323,0.967c-0.627,0.627-0.948,1.441-0.951,2.375
					c-0.002,0.896,0.308,1.527,0.664,2.016c0.565,0.785,1.216,1.299,1.899,1.916c1.076,0.996,1.762,1.889,2.325,3.004
					c0.139,0.273,0.255,0.678,0.587,0.678c0.331,0,0.446-0.402,0.587-0.678c0.564-1.115,1.237-2.008,2.326-3.004
					c0.672-0.617,1.332-1.131,1.898-1.916c0.354-0.486,0.665-1.12,0.647-2.016C599.953,295.072,599.644,294.257,599.005,293.63z
					 M597.595,298.443c-0.531,0.543-1.037,0.822-1.81,1.678c-0.308,0.338-0.904,1.199-1.291,2.008c-0.387-0.809-1-1.67-1.289-2.008
					c-0.777-0.855-1.279-1.135-1.812-1.678c-0.778-0.797-1.338-1.347-1.365-2.379c-0.011-0.754,0.302-1.357,0.773-1.814
					c0.42-0.408,1.008-0.607,1.631-0.619c0.439-0.01,0.889,0.156,1.233,0.418c0.356,0.256,0.606,0.59,0.829,1.025
					c0.22-0.436,0.471-0.77,0.815-1.025c0.356-0.262,0.808-0.428,1.233-0.418c0.633,0.012,1.224,0.211,1.644,0.619
					c0.474,0.457,0.784,1.062,0.76,1.814C598.922,297.097,598.361,297.646,597.595,298.443z"/>
			</g>
		</g>
	</g>
</g>
<g>
	<path fill="#76B82A" d="M210.866,298.109c0.811-0.619,1.358-1.721,1.358-2.984c0-1.953-1.286-3.522-2.854-3.522
		c-0.13,0-0.242,0.019-0.362,0.04c-1.021-1.495-3.289-1.84-5.273-0.699c-1.76,0.998-2.688,2.814-2.405,4.406
		c-1.472,0.547-2.322,2.122-1.929,3.635c0.339,1.246,1.415,2.059,2.645,2.137c0.532,0.645,1.479,1.076,2.575,1.076
		c0.643,0,1.251-0.148,1.743-0.41l-0.645,5.295l2.293-0.09c0,0-0.058-4.109,0.28-6.174c0.339,0.336,0.836,0.529,1.368,0.529
		c1.054,0,1.929-0.811,1.929-1.814C211.589,298.96,211.299,298.455,210.866,298.109z"/>
	<path fill="#007A9D" d="M196.506,308.921l18.902-2.01c-2.14-0.195-4.43-0.215-6.738-0.09c0.018-1.029,0.073-3.486,0.396-5.34
		c0.418,0.377,0.988,0.619,1.632,0.619c1.27,0,2.306-0.947,2.306-2.117c0-0.662-0.338-1.25-0.851-1.645
		c0.988-0.723,1.646-2.008,1.646-3.463c0-2.252-1.535-4.069-3.439-4.069c-0.154,0-0.289,0.024-0.441,0.039
		c-1.229-1.744-3.949-2.122-6.318-0.812c-2.101,1.15-3.234,3.271-2.896,5.105c-1.755,0.645-2.799,2.457-2.309,4.197
		c0.401,1.439,1.704,2.391,3.183,2.484c0.644,0.758,1.778,1.24,3.08,1.24c0.78,0,1.497-0.182,2.083-0.482l-0.738,4.422
		C202.577,307.341,199.248,307.984,196.506,308.921z M207.497,301.556c0,0-3.255,2.422-5.636-0.307c0,0-3.087,0.307-2.976-3.141
		c0.063-2.004,2.139-2.929,2.139-2.929s-0.354-3.618,3.521-5c3.161-1.109,4.771,0.651,5.115,1.253c0,0,3.402-0.602,3.82,3.064
		c0.337,2.95-2.52,3.818-2.292,3.803c0,0,1.914,1.383,0.755,2.709c-1.173,1.32-2.702-0.162-3.254-0.723l-0.411,6.488
		c-0.683,0.047-1.366,0.102-2.043,0.158L207.497,301.556z"/>
</g>
</svg>
