<svg xmlns="http://www.w3.org/2000/svg" viewBox="0 0 30 30"><title>pictos-export</title><g id="Calque_1" data-name="Calque 1"><path d="M17.19,7.71a3.66,3.66,0,0,0-1.06-.78,3.23,3.23,0,0,0,.56-.47,3.51,3.51,0,0,0,.93-2.39A3.3,3.3,0,0,0,14.46.65h0a3.06,3.06,0,0,0-2.25,1A3.51,3.51,0,0,0,11.26,4a3.45,3.45,0,0,0,1.48,2.88,3.7,3.7,0,0,0-1,.76,2.9,2.9,0,0,0-.81,2.24l1,14.33c0,2.16.9,3.41,2.5,3.41h0a2.21,2.21,0,0,0,2-1.08,4.38,4.38,0,0,0,.53-2.27L17.95,10A2.86,2.86,0,0,0,17.19,7.71Z" style="fill:#1d1d1b"/></g></svg>