<svg xmlns="http://www.w3.org/2000/svg" viewBox="0 0 30 30"><title>pictos-export</title><g id="Calque_1" data-name="Calque 1"><polygon points="25.27 13.61 15.34 15.78 15.5 26.73 25.43 24.55 25.27 13.61" style="fill:#fff"/><path d="M14.34,15.68,9.09,12.83,4.33,10.24V20.9l5.37,3,4.79,2.6Zm-2.06,2.53-5.46,3a.25.25,0,0,1-.31-.39l2.6-2.91L7.33,17a.25.25,0,0,1-.1-.35L8.83,14a.25.25,0,0,1,.33-.09l2,1a.25.25,0,0,1,0,.42L9.83,16.54l2.44,1.23a.25.25,0,0,1,0,.44Z" style="fill:#fff"/><path d="M21.2,11.24v.17a.5.5,0,1,1-1,0V10a.57.57,0,0,0-.57-.57H17.29a.57.57,0,0,0-.57.57v1.46a.5.5,0,1,1-1,0V10a1.57,1.57,0,0,1,.86-1.39l-1.89-1.1L14,7.67V9a.5.5,0,0,1-1,0V7.52a.57.57,0,0,0-.57-.57H10.1a.57.57,0,0,0-.57.57V9a.5.5,0,0,1-.5.5.49.49,0,0,1-.47-.35l-2.78.72,9.13,5,9.08-2Z" style="fill:#fff"/></g></svg>