<svg xmlns="http://www.w3.org/2000/svg" viewBox="0 0 30 30"><title>pictos-export</title><g id="Calque_1" data-name="Calque 1"><polygon points="25.39 11.77 15.46 13.94 15.62 24.89 25.55 22.71 25.39 11.77" style="fill:#1d1d1b"/><path d="M14.46,13.84,9.22,11,4.46,8.4V19.06l5.37,3,4.79,2.6ZM12.4,16.37l-5.46,3a.25.25,0,0,1-.31-.39L9.23,16l-1.78-.89a.25.25,0,0,1-.1-.35L9,12.17a.25.25,0,0,1,.33-.09l2,1a.25.25,0,0,1,0,.42L10,14.7l2.44,1.23a.25.25,0,0,1,0,.44Z" style="fill:#1d1d1b"/><path d="M21.32,9.4v.17a.5.5,0,1,1-1,0V8.11a.57.57,0,0,0-.57-.57H17.41a.57.57,0,0,0-.57.57V9.57a.5.5,0,1,1-1,0V8.11a1.57,1.57,0,0,1,.86-1.39l-1.89-1.1-.67.21V7.14a.5.5,0,0,1-1,0V5.68a.57.57,0,0,0-.57-.57H10.23a.57.57,0,0,0-.57.57V7.14a.5.5,0,0,1-.5.5.49.49,0,0,1-.47-.35L5.9,8,15,13l9.08-2Z" style="fill:#1d1d1b"/></g></svg>