<?xml version="1.0" encoding="utf-8"?>
<!-- Generator: Adobe Illustrator 15.0.0, SVG Export Plug-In . SVG Version: 6.00 Build 0)  -->
<!DOCTYPE svg PUBLIC "-//W3C//DTD SVG 1.1//EN" "http://www.w3.org/Graphics/SVG/1.1/DTD/svg11.dtd">
<svg version="1.1" id="Layer_1" xmlns="http://www.w3.org/2000/svg" xmlns:xlink="http://www.w3.org/1999/xlink" x="0px" y="0px"
	 width="15px" height="15px" viewBox="0 0 15 15" enable-background="new 0 0 15 15" xml:space="preserve">
<title>pictos-export</title>
<g id="Calque_1_3_">
	<path fill="#1D1D1B" d="M3.387,3.855c-0.152-0.161-0.332-0.293-0.531-0.39C2.958,3.397,3.052,3.319,3.137,3.23
		c0.299-0.325,0.466-0.752,0.465-1.195c0.033-0.908-0.673-1.672-1.581-1.71l0,0c-0.428,0.001-0.836,0.183-1.125,0.5
		C0.597,1.144,0.427,1.563,0.421,2c-0.008,0.573,0.27,1.113,0.74,1.44c-0.187,0.097-0.356,0.226-0.5,0.38
		C0.372,4.118,0.225,4.526,0.256,4.94l0.5,7.166c0,1.08,0.45,1.705,1.25,1.705l0,0c0.408,0.018,0.792-0.189,1-0.541
		c0.189-0.348,0.281-0.739,0.266-1.135L3.766,5C3.814,4.581,3.676,4.162,3.387,3.855z"/>
</g>
<g id="Calque_1_2_">
	<path fill="#1D1D1B" d="M7.51,3.855c-0.152-0.161-0.332-0.293-0.531-0.39C7.082,3.397,7.176,3.319,7.26,3.23
		c0.299-0.325,0.467-0.752,0.465-1.195c0.033-0.908-0.672-1.672-1.58-1.71l0,0c-0.428,0.001-0.836,0.183-1.125,0.5
		C4.721,1.144,4.551,1.563,4.545,2c-0.008,0.573,0.27,1.113,0.74,1.44c-0.188,0.097-0.357,0.226-0.5,0.38
		C4.496,4.118,4.348,4.526,4.379,4.94l0.5,7.166c0,1.08,0.451,1.705,1.25,1.705l0,0c0.408,0.018,0.793-0.189,1-0.541
		c0.189-0.348,0.281-0.739,0.266-1.135L7.889,5C7.938,4.581,7.799,4.162,7.51,3.855z"/>
</g>
<g id="Calque_1">
	<path fill="#1D1D1B" d="M11.064,7.643c-0.139-0.152-0.309-0.273-0.5-0.354c0.434-0.448,0.447-1.155,0.031-1.62
		c-0.381-0.422-1.033-0.456-1.455-0.075C9.114,5.617,9.089,5.642,9.064,5.668c-0.409,0.455-0.409,1.146,0,1.6l0,0
		c-0.188,0.072-0.359,0.186-0.5,0.33C8.393,7.78,8.307,8.028,8.33,8.278l0.395,4.385c-0.014,0.281,0.068,0.559,0.235,0.785
		c0.204,0.245,0.512,0.379,0.83,0.36l0,0c0.551,0.039,1.029-0.375,1.069-0.926c0.004-0.062,0.003-0.123-0.004-0.185l0.435-4.399
		C11.312,8.058,11.23,7.818,11.064,7.643z"/>
</g>
<g id="Calque_1_1_">
	<path fill="#1D1D1B" d="M14.518,7.643c-0.139-0.152-0.309-0.273-0.5-0.354c0.434-0.448,0.447-1.155,0.031-1.62
		c-0.381-0.422-1.033-0.456-1.455-0.075c-0.026,0.024-0.052,0.049-0.076,0.075c-0.409,0.455-0.409,1.146,0,1.6l0,0
		c-0.188,0.072-0.359,0.186-0.5,0.33c-0.172,0.183-0.258,0.431-0.234,0.681l0.395,4.385c-0.014,0.281,0.068,0.559,0.235,0.785
		c0.204,0.245,0.512,0.379,0.83,0.36l0,0c0.551,0.039,1.029-0.375,1.069-0.926c0.004-0.062,0.003-0.123-0.004-0.185l0.435-4.399
		C14.766,8.058,14.684,7.818,14.518,7.643z"/>
</g>
<g>
	
		<line fill="none" stroke="#1D1D1B" stroke-width="0.5" stroke-linecap="round" stroke-miterlimit="10" x1="13.088" y1="2.333" x2="9.5" y2="2.333"/>
	
		<line fill="none" stroke="#1D1D1B" stroke-width="0.5" stroke-linecap="round" stroke-miterlimit="10" x1="11.293" y1="0.538" x2="11.293" y2="4.125"/>
</g>
</svg>
