<svg xmlns="http://www.w3.org/2000/svg" viewBox="0 0 30 30"><title>pictos-export</title><g id="Calque_1" data-name="Calque 1"><path d="M9.94,24.79A1.34,1.34,0,0,1,9,24.42L.91,16.67a1.34,1.34,0,0,1,1.86-1.94l7.15,6.84L24.24,7.19a1.35,1.35,0,0,1,1.91,1.9L10.9,24.39A1.34,1.34,0,0,1,9.94,24.79Z" style="fill:#fff"/><path d="M9.95,25.29h0a1.84,1.84,0,0,1-1.27-.51L.57,17a1.85,1.85,0,0,1-.06-2.61,1.83,1.83,0,0,1,1.29-.57,1.76,1.76,0,0,1,1.32.51l6.8,6.5,14-14a1.83,1.83,0,0,1,1.3-.54h0A1.84,1.84,0,0,1,26.5,9.44L11.26,24.75A1.83,1.83,0,0,1,9.95,25.29Zm0-1a.79.79,0,0,0,.6-.25L25.79,8.74a.85.85,0,0,0-.6-1.44.73.73,0,0,0-.6.25L9.93,22.26l-7.5-7.17a.81.81,0,0,0-.6-.23.85.85,0,0,0-.56,1.46l8.1,7.75a.85.85,0,0,0,.58.23Z" style="fill:#fff"/></g></svg>