<svg xmlns="http://www.w3.org/2000/svg" viewBox="0 0 30 30"><title>pictos-export</title><g id="Calque_1" data-name="Calque 1"><path d="M11.36,23.48a1.43,1.43,0,0,1-1-.39l-8.43-8a1.43,1.43,0,1,1,2-2.08l7.41,7L26,5.12a1.43,1.43,0,0,1,2,2L12.38,23.05A1.43,1.43,0,0,1,11.36,23.48Z" style="fill:#1d1d1b"/><path d="M27.07,4.7a1.43,1.43,0,0,1,1,2.44L12.38,23.05a1.43,1.43,0,0,1-2,0l-8.43-8a1.43,1.43,0,1,1,2-2.08l7.41,7L26,5.12a1.43,1.43,0,0,1,1-.43m0-1h0a2.37,2.37,0,0,0-1.7.71L11.3,18.7,4.58,12.33A2.39,2.39,0,1,0,1.29,15.8l8.43,8a2.39,2.39,0,0,0,3.34-.06L28.77,7.81a2.39,2.39,0,0,0-1.7-4.07Z" style="fill:#fff"/></g></svg>