<svg xmlns="http://www.w3.org/2000/svg" viewBox="0 0 30 30"><title>pictos-export</title><g id="Calque_1" data-name="Calque 1"><path d="M10.74,24.79a1.34,1.34,0,0,1-.92-.37l-8.1-7.75a1.34,1.34,0,0,1,1.86-1.94l7.15,6.84L25,7.19a1.35,1.35,0,0,1,1.91,1.9L11.7,24.39A1.34,1.34,0,0,1,10.74,24.79Z" style="fill:#1d1d1b"/><path d="M10.74,25.29h0a1.84,1.84,0,0,1-1.27-.51L1.36,17a1.85,1.85,0,0,1-.06-2.61,1.83,1.83,0,0,1,1.29-.57,1.76,1.76,0,0,1,1.32.51l6.8,6.5,14-14A1.83,1.83,0,0,1,26,6.29h0a1.84,1.84,0,0,1,1.31,3.15L12.05,24.75A1.83,1.83,0,0,1,10.74,25.29Zm0-1a.79.79,0,0,0,.6-.25L26.58,8.74A.85.85,0,0,0,26,7.29a.73.73,0,0,0-.6.25L10.73,22.26l-7.5-7.17a.81.81,0,0,0-.6-.23.85.85,0,0,0-.56,1.46l8.1,7.75a.85.85,0,0,0,.58.23Z" style="fill:#fff"/></g></svg>