<svg xmlns="http://www.w3.org/2000/svg" viewBox="0 0 30 30"><title>pictos-export-16</title><g id="Calque_1" data-name="Calque 1"><path d="M11.87,24.84a1.2,1.2,0,0,1-.83-.33L3.78,17.64a1.2,1.2,0,1,1,1.65-1.75L11.84,22,24.54,9.08a1.2,1.2,0,0,1,1.71,1.69L12.72,24.48A1.2,1.2,0,0,1,11.87,24.84Z" style="fill:#1d1d1b"/><path d="M25.39,8.73a1.2,1.2,0,0,1,.86,2L12.72,24.48a1.2,1.2,0,0,1-1.68,0L3.78,17.64a1.2,1.2,0,1,1,1.65-1.75L11.84,22,24.54,9.08a1.2,1.2,0,0,1,.86-.36m0-2.41h0a3.58,3.58,0,0,0-2.57,1.07l-11,11.19L7.09,14.14a3.61,3.61,0,1,0-5,5.24l7.26,6.87a3.61,3.61,0,0,0,5-.08L28,12.46a3.61,3.61,0,0,0-2.57-6.14Z" style="fill:#fff"/></g></svg>