<svg xmlns="http://www.w3.org/2000/svg" viewBox="0 0 30 30"><title>pictos-export</title><g id="Calque_1" data-name="Calque 1"><path d="M16.71,29.37l-.07-12.22L5.43,10.91v0s0,0,0,0l.12,12a.5.5,0,0,0,.26.43l5.49,3h0Z" style="fill:#1d1d1b"/><path d="M17.15,17.2l.07,12.23,6.6-1.4a.5.5,0,0,0,.4-.49V15.73Z" style="fill:#1d1d1b"/><path d="M15.23,4.39h-.07c-.65,0-1.18.1-1.18.2s.49.18,1.11.18h.07c.65,0,1.18-.1,1.18-.2s-.49-.18-1.11-.18Z" style="fill:#1d1d1b"/><path d="M18.12,6h-.07c-.65,0-1.18.1-1.18.2s.49.18,1.11.18h.07c.65,0,1.18-.1,1.18-.2S18.74,6,18.12,6Z" style="fill:#1d1d1b"/><path d="M12.19,2.83h-.07c-.65,0-1.18.1-1.18.2s.49.18,1.11.18h.07c.65,0,1.18-.1,1.18-.2s-.49-.18-1.11-.18Z" style="fill:#1d1d1b"/><path d="M18.37,14.72h0a6.19,6.19,0,0,0,.87-.09l.39-.07,0-1.74h0l-.17-6.25-.16,0a6.93,6.93,0,0,1-2.29,0l-.17,0,0,5h0l0,3,.39.06A6.39,6.39,0,0,0,18.37,14.72Z" style="fill:#1d1d1b"/><path d="M13.32,11.39V11h0l0-6.28a.25.25,0,0,1,.09-.19.24.24,0,0,1,.12,0l0-1.11-.19,0a8.14,8.14,0,0,1-2.47,0l-.2,0-.05,8,.43.06A7.68,7.68,0,0,0,13.32,11.39Z" style="fill:#1d1d1b"/><path d="M16.26,13l0-6.74a.2.2,0,0,1,.21-.22l0-1.1-.16,0A6.94,6.94,0,0,1,14,5l-.17,0-.05,8,.39.06A6.49,6.49,0,0,0,16.26,13Z" style="fill:#1d1d1b"/><path d="M20.1,13.1l0,1.66a.25.25,0,0,1-.21.25l-.6.1a6.77,6.77,0,0,1-.94.1h-.27a7,7,0,0,1-1.06-.08l-.6-.09a.25.25,0,0,1-.21-.25V13.53a6.5,6.5,0,0,1-2.13,0l-.6-.09a.25.25,0,0,1-.21-.25V11.91a8.16,8.16,0,0,1-1.19.1A8.09,8.09,0,0,1,11,11.93l-.65-.09a.26.26,0,0,1-.22-.26v-2l-4.28.9-.06,0h0l11.18,6.22,7-1.48Z" style="fill:#1d1d1b"/></g></svg>