<svg xmlns="http://www.w3.org/2000/svg" viewBox="0 0 30 30"><title>pictos-export</title><g id="Calque_1" data-name="Calque 1"><path d="M13.84,13.65,7,9.45,6.93,24a.25.25,0,0,0,.13.22L13.78,28Z" style="fill:#fff"/><path d="M19.1,2A13.78,13.78,0,0,0,11,2C8,2.83,7,3.75,6.77,5.64a1.93,1.93,0,0,0,.31,1.6c.44.5,1.27.7,3.06.74v.14L7.2,8.7l0,0h0l0,0,0,0a.23.23,0,0,0,0,.07v0l7.12,4.36,8.45-2.33L19.86,9.35V8a4.79,4.79,0,0,0,2.6-.48c.61-.43.62-1.08.62-1.77h0C23.09,4,21.86,2.85,19.1,2ZM13.61,9.91a3.74,3.74,0,0,1-2.48-.54V8.08l2.48.2Zm.86,1.78h0Zm4.39-2.29a11.71,11.71,0,0,1-3.37.53V8.3l3.38-.2Z" style="fill:#fff"/><path d="M14.28,28.11l8.25-1.62a.25.25,0,0,0,.2-.24l.07-14.87L14.34,13.7Z" style="fill:#fff"/></g></svg>