<svg xmlns="http://www.w3.org/2000/svg" viewBox="0 0 30 30"><title>pictos-export</title><g id="Calque_1" data-name="Calque 1"><path d="M14.07,13.93,7.22,9.74,7.16,24.29a.25.25,0,0,0,.13.22L14,28.33Z" style="fill:#1d1d1b"/><path d="M19.32,2.32a13.78,13.78,0,0,0-8.14,0C8.26,3.11,7.2,4,7,5.93a1.93,1.93,0,0,0,.31,1.6c.44.5,1.27.7,3.06.74v.14L7.43,9l0,0h0l0,0,0,0a.23.23,0,0,0,0,.07v0l7.12,4.36,8.45-2.33L20.08,9.64V8.31a4.79,4.79,0,0,0,2.6-.48c.61-.43.62-1.08.62-1.77h0C23.31,4.28,22.08,3.13,19.32,2.32ZM13.84,10.2a3.74,3.74,0,0,1-2.48-.54V8.37l2.48.2ZM14.7,12h0Zm4.39-2.29a11.71,11.71,0,0,1-3.37.53V8.58l3.38-.2Z" style="fill:#1d1d1b"/><path d="M14.5,28.39l8.25-1.62a.25.25,0,0,0,.2-.24L23,11.65,14.57,14Z" style="fill:#1d1d1b"/></g></svg>