<svg xmlns="http://www.w3.org/2000/svg" viewBox="0 0 30 30"><title>pictos-export</title><g id="Calque_1" data-name="Calque 1"><path d="M16.49,29.09l-.07-12.22L5.21,10.62v0s0,0,0,0l.12,12a.5.5,0,0,0,.26.43l5.49,3h0Z" style="fill:#fff"/><path d="M16.92,16.92,17,29.15l6.6-1.4a.5.5,0,0,0,.4-.49V15.45Z" style="fill:#fff"/><path d="M15,4.11h-.07c-.65,0-1.18.1-1.18.2s.49.18,1.11.18h.07c.65,0,1.18-.1,1.18-.2s-.49-.18-1.11-.18Z" style="fill:#fff"/><path d="M17.9,5.72h-.07c-.65,0-1.18.1-1.18.2s.49.18,1.11.18h.07C18.48,6.1,19,6,19,5.9s-.49-.18-1.11-.18Z" style="fill:#fff"/><path d="M12,2.55h-.07c-.65,0-1.18.1-1.18.2s.49.18,1.11.18h.07c.65,0,1.18-.1,1.18-.2s-.49-.18-1.11-.18Z" style="fill:#fff"/><path d="M18.15,14.44h0a6.19,6.19,0,0,0,.87-.09l.39-.07,0-1.74h0L19.2,6.28l-.16,0a6.93,6.93,0,0,1-2.29,0l-.17,0,0,5h0l0,3,.39.06A6.39,6.39,0,0,0,18.15,14.44Z" style="fill:#fff"/><path d="M13.09,11.11v-.44h0l0-6.28a.25.25,0,0,1,.09-.19.24.24,0,0,1,.12,0l0-1.11-.19,0a8.14,8.14,0,0,1-2.47,0l-.2,0-.05,8,.43.06A7.68,7.68,0,0,0,13.09,11.11Z" style="fill:#fff"/><path d="M16,12.74l0-6.74a.2.2,0,0,1,.21-.22l0-1.1-.16,0a6.94,6.94,0,0,1-2.29,0l-.17,0-.05,8,.39.06A6.49,6.49,0,0,0,16,12.74Z" style="fill:#fff"/><path d="M19.87,12.82l0,1.66a.25.25,0,0,1-.21.25l-.6.1a6.77,6.77,0,0,1-.94.1H17.9a7,7,0,0,1-1.06-.08l-.6-.09a.25.25,0,0,1-.21-.25V13.24a6.5,6.5,0,0,1-2.13,0l-.6-.09a.25.25,0,0,1-.21-.25V11.63a8.16,8.16,0,0,1-1.19.1,8.09,8.09,0,0,1-1.16-.08l-.65-.09a.26.26,0,0,1-.22-.26v-2l-4.28.9-.06,0h0l11.18,6.22,7-1.48Z" style="fill:#fff"/></g></svg>