<svg xmlns="http://www.w3.org/2000/svg" viewBox="0 0 46.88 30"><title>pictos-export</title><g id="Calque_1" data-name="Calque 1"><path d="M35.51,8.53A3.15,3.15,0,0,0,36.78,6,2.9,2.9,0,1,0,31,6a3.15,3.15,0,0,0,1.28,2.56,3.33,3.33,0,0,0-.87.65,2.64,2.64,0,0,0-.73,2L31.59,24c0,2,.84,3.09,2.3,3.09S36.18,26,36.18,24l.92-12.82a2.61,2.61,0,0,0-.7-2A3.3,3.3,0,0,0,35.51,8.53Z" style="fill:#1d1d1b"/><path d="M42.63,8.53A3.15,3.15,0,0,0,43.91,6a2.9,2.9,0,1,0-5.79,0,3.15,3.15,0,0,0,1.28,2.56,3.33,3.33,0,0,0-.87.65,2.64,2.64,0,0,0-.73,2L38.71,24c0,2,.84,3.09,2.3,3.09S43.31,26,43.31,24l.92-12.82a2.61,2.61,0,0,0-.7-2A3.3,3.3,0,0,0,42.63,8.53Z" style="fill:#1d1d1b"/><path d="M25.78,13.5l-5.63-12a.5.5,0,0,0-.55-.28L6.52,3.73h0a.5.5,0,0,0-.16.07l0,0a.46.46,0,0,0-.08.07L1.53,10.43a.5.5,0,0,0-.09.29V22.39a.5.5,0,0,0,.25.44L12.15,28.7h0a.5.5,0,0,0,.22.06h.1l12.86-2.59a.5.5,0,0,0,.4-.49V14.78A1.75,1.75,0,0,0,25.78,13.5Zm-.93.37a.7.7,0,0,1,0,.56,1,1,0,0,1-.66.46h0c-.34.06-.65-.33-1.08-.94s-1-1.47-2-1.3-1.18,1.1-1.42,1.92-.39,1.25-.75,1.31-.65-.33-1.08-.94-1-1.48-2-1.3-1.18,1.1-1.42,1.92-.39,1.24-.75,1.31-.56,0-.93-.66l0,0L12.7,16,8.07,6.16,7.34,4.59,19.4,2.29Zm-22.41-3L6.52,5.2,7.1,6.43l4.77,10.26,0,10.72L2.44,22.1ZM12.89,27.66V17.75a1.51,1.51,0,0,0,.67.15,1.94,1.94,0,0,0,.36,0c1-.19,1.29-1.2,1.53-2s.36-1.16.65-1.22.55.32,1,.89,1.07,1.54,2.09,1.35,1.29-1.2,1.53-2,.36-1.16.65-1.22.55.32.95.89,1.08,1.54,2.09,1.35a2,2,0,0,0,.41-.13v9.51Z" style="fill:#1d1d1b"/></g></svg>