<svg xmlns="http://www.w3.org/2000/svg" viewBox="0 0 57.05 27.54"><defs><style>.cls-1{fill:#1d1d1b;}</style></defs><title>pictos-export-02-s</title><g id="Calque_1" data-name="Calque 1"><path class="cls-1" d="M41.2,7.3a3.15,3.15,0,0,0,1.27-2.56,2.9,2.9,0,1,0-5.79,0A3.11,3.11,0,0,0,38,7.3a3.35,3.35,0,0,0-.87.65,2.63,2.63,0,0,0-.73,2l.92,12.79c0,2,.83,3.1,2.29,3.1s2.3-1.13,2.3-3.06L42.78,10a2.62,2.62,0,0,0-.69-2A3.43,3.43,0,0,0,41.2,7.3Z"/><path class="cls-1" d="M48.32,7.3A3.16,3.16,0,0,0,49.6,4.74a2.91,2.91,0,1,0-5.8,0A3.13,3.13,0,0,0,45.08,7.3a3.73,3.73,0,0,0-.87.65,2.66,2.66,0,0,0-.72,2l.91,12.79c0,2,.84,3.1,2.3,3.1S49,24.75,49,22.82L49.91,10a2.59,2.59,0,0,0-.7-2A3.13,3.13,0,0,0,48.32,7.3Z"/><path class="cls-1" d="M55.45,7.3a3.15,3.15,0,0,0,1.27-2.56,2.9,2.9,0,1,0-5.79,0A3.11,3.11,0,0,0,52.21,7.3a3.35,3.35,0,0,0-.87.65,2.63,2.63,0,0,0-.73,2l.92,12.79c0,2,.83,3.1,2.29,3.1s2.3-1.13,2.3-3.06L57,10a2.62,2.62,0,0,0-.69-2A3.43,3.43,0,0,0,55.45,7.3Z"/><path class="cls-1" d="M34.07,7.3a3.16,3.16,0,0,0,1.28-2.56,2.91,2.91,0,1,0-5.8,0A3.13,3.13,0,0,0,30.83,7.3,3.73,3.73,0,0,0,30,8a2.66,2.66,0,0,0-.72,2l.91,12.79c0,2,.84,3.1,2.3,3.1s2.3-1.13,2.29-3.06L35.66,10A2.59,2.59,0,0,0,35,8,3.13,3.13,0,0,0,34.07,7.3Z"/><path class="cls-1" d="M24.34,12.27,18.71.29A.5.5,0,0,0,18.16,0L5.08,2.5h0a.36.36,0,0,0-.17.07l-.05,0s-.06,0-.08.06L.09,9.2A.5.5,0,0,0,0,9.49V21.16a.5.5,0,0,0,.25.43l10.46,5.88h0a.43.43,0,0,0,.22.06h.09l12.87-2.59a.5.5,0,0,0,.4-.49V13.55A1.76,1.76,0,0,0,24.34,12.27Zm-.93.37a.67.67,0,0,1,0,.56,1,1,0,0,1-.66.46h0c-.34.06-.65-.33-1.08-.94s-1-1.48-2-1.3-1.18,1.1-1.42,1.92-.38,1.24-.75,1.31-.65-.33-1.08-.94-1-1.48-2-1.3-1.18,1.1-1.42,1.92-.38,1.24-.75,1.31-.56,0-.93-.65l0,0-.09-.17L6.64,4.93,5.91,3.36,18,1.06ZM1,9.65,5.08,4,5.66,5.2l4.77,10.26,0,10.72L1,20.87ZM11.46,26.43V16.52a1.47,1.47,0,0,0,.67.16,2.46,2.46,0,0,0,.37,0c1-.19,1.29-1.2,1.52-2s.36-1.16.65-1.21.55.31.95.89,1.07,1.54,2.09,1.35,1.29-1.21,1.52-2,.36-1.16.65-1.22.55.32.95.89,1.07,1.55,2.08,1.36a2,2,0,0,0,.42-.13V24Z"/></g></svg>