<?xml version="1.0" encoding="utf-8"?>
<!-- Generator: Adobe Illustrator 15.0.0, SVG Export Plug-In . SVG Version: 6.00 Build 0)  -->
<!DOCTYPE svg PUBLIC "-//W3C//DTD SVG 1.1//EN" "http://www.w3.org/Graphics/SVG/1.1/DTD/svg11.dtd">
<svg version="1.1" id="Layer_1" xmlns="http://www.w3.org/2000/svg" xmlns:xlink="http://www.w3.org/1999/xlink" x="0px" y="0px"
	 width="15px" height="15px" viewBox="0 0 15 15" enable-background="new 0 0 15 15" xml:space="preserve">
<title>pictos-export</title>
<g id="Calque_1_3_">
	<path fill="#1D1D1B" d="M6.504,3.855c-0.152-0.161-0.332-0.293-0.531-0.39C6.075,3.397,6.169,3.319,6.254,3.23
		C6.553,2.905,6.72,2.478,6.719,2.035c0.033-0.908-0.673-1.672-1.581-1.71l0,0c-0.428,0.001-0.836,0.183-1.125,0.5
		C3.714,1.144,3.544,1.563,3.538,2c-0.008,0.573,0.27,1.113,0.74,1.44c-0.187,0.097-0.356,0.226-0.5,0.38
		C3.489,4.118,3.342,4.526,3.373,4.94l0.5,7.166c0,1.08,0.45,1.705,1.25,1.705l0,0c0.408,0.018,0.792-0.189,1-0.541
		c0.189-0.348,0.281-0.739,0.266-1.135L6.883,5C6.932,4.581,6.793,4.162,6.504,3.855z"/>
</g>
<g id="Calque_1_2_">
	<path fill="#1D1D1B" d="M11.242,3.855c-0.152-0.161-0.332-0.293-0.531-0.39c0.104-0.067,0.197-0.146,0.281-0.235
		c0.299-0.325,0.467-0.752,0.465-1.195c0.033-0.908-0.672-1.672-1.58-1.71l0,0c-0.428,0.001-0.836,0.183-1.125,0.5
		C8.453,1.144,8.283,1.563,8.277,2c-0.008,0.573,0.27,1.113,0.74,1.44C8.83,3.537,8.66,3.666,8.518,3.82
		C8.229,4.118,8.08,4.526,8.111,4.94l0.5,7.166c0,1.08,0.451,1.705,1.25,1.705l0,0c0.408,0.018,0.793-0.189,1-0.541
		c0.189-0.348,0.281-0.739,0.266-1.135L11.621,5C11.67,4.581,11.531,4.162,11.242,3.855z"/>
</g>
</svg>
