<svg xmlns="http://www.w3.org/2000/svg" viewBox="0 0 30 30"><title>pictos-export</title><g id="Calque_1" data-name="Calque 1"><path d="M24.89,24a10.77,10.77,0,0,1-1.56,1.46.5.5,0,1,0,.61.79,11.75,11.75,0,0,0,1.7-1.6.5.5,0,0,0-.75-.66Z" style="fill:#fff"/><path d="M21.52,26.61a10.61,10.61,0,0,1-2.09.76.5.5,0,0,0,.12,1h.12A11.63,11.63,0,0,0,22,27.51a.5.5,0,1,0-.44-.9Z" style="fill:#fff"/><path d="M27.63,20a.5.5,0,0,0-.63.32,10.64,10.64,0,0,1-.87,2,.5.5,0,0,0,.87.5,11.67,11.67,0,0,0,.95-2.14A.5.5,0,0,0,27.63,20Z" style="fill:#fff"/><path d="M19.77,5.66a.5.5,0,1,0-.25,1,10.71,10.71,0,0,1,8,10.41v.13a.5.5,0,0,0,.49.51h0a.5.5,0,0,0,.5-.49V17A11.7,11.7,0,0,0,19.77,5.66Z" style="fill:#fff"/><path d="M16.29,6.57a.5.5,0,0,0-.12-.92,11.74,11.74,0,0,0-2.9-.38A11.7,11.7,0,0,0,1.53,16.92,11.71,11.71,0,0,0,13.17,28.67h.05a11.77,11.77,0,0,0,2.84-.35.5.5,0,0,0,.12-.92,11.92,11.92,0,0,1,.1-20.83Z" style="fill:#fff"/></g></svg>