<svg xmlns="http://www.w3.org/2000/svg" viewBox="0 0 30 30"><title>pictos-export</title><g id="Calque_1" data-name="Calque 1"><path d="M28.67,25.77l0,0L19.76,4.83a.5.5,0,0,0-.46-.3L2.39,4.45h0a.5.5,0,0,0-.46.7l8.89,20.93c.43,1,1.09,2.15,2.5,2.16h0c1.26,0,1.64-1.21,2-2.19s.47-1.39.86-1.39h0c.51,0,1,.74,1.45,1.52.6,1,1.29,2.09,2.46,2.09h0c1.26,0,1.64-1.21,2-2.19s.47-1.39.86-1.39h0c.51,0,1,.74,1.45,1.52.6,1,1.29,2.09,2.46,2.09h0a2,2,0,0,0,1.65-.78A1.91,1.91,0,0,0,28.67,25.77Zm-8-5.16H20.3l0-5a.5.5,0,0,0-.5-.5l-4.2,0a.5.5,0,0,0-.5.5l0,5h-.24l-.13-6.37,5.93,0Zm-4.53,0,0-4.53h3.2l0,4.53H16.1Zm3.81-7.35h-1.5l-4,0L10.1,8.66l5.06,0Zm-9.47-2.76,2.7,2.83.58.61.09,4.57Z" style="fill:#1d1d1b"/></g></svg>