<svg xmlns="http://www.w3.org/2000/svg" viewBox="0 0 30 30"><title>pictos-export</title><g id="Calque_1" data-name="Calque 1"><path d="M28.16,25.49l0,0L19.25,4.55a.5.5,0,0,0-.46-.3L1.88,4.17h0a.5.5,0,0,0-.46.7l8.89,20.93c.43,1,1.09,2.15,2.5,2.16h0c1.26,0,1.64-1.21,2-2.19s.47-1.39.86-1.39h0c.51,0,1,.74,1.45,1.52.6,1,1.29,2.09,2.46,2.09h0c1.26,0,1.64-1.21,2-2.19s.47-1.39.86-1.39h0c.51,0,1,.74,1.45,1.52.6,1,1.29,2.09,2.46,2.09h0a2,2,0,0,0,1.65-.78A1.91,1.91,0,0,0,28.16,25.49Zm-8-5.16h-.34l0-5a.5.5,0,0,0-.5-.5l-4.2,0a.5.5,0,0,0-.5.5l0,5h-.24l-.13-6.37,5.93,0Zm-4.53,0,0-4.53h3.2l0,4.53h-3.2ZM19.41,13h-1.5l-4,0L9.59,8.38l5.06,0ZM9.94,10.19,12.64,13l.58.61.09,4.57Z" style="fill:#fff"/></g></svg>