<svg xmlns="http://www.w3.org/2000/svg" viewBox="0 0 30 30"><title>pictos-export-04</title><g id="Calque_1" data-name="Calque 1"><path d="M27.35,12.43a.49.49,0,0,0-.26-.09L25,12.28a3.86,3.86,0,0,0-2.83-1.63c-2.94-.59-5.79-1.08-8.3-.59a45,45,0,0,0-5,1.36l-1.4.43C5.68,12.39,5,13,4.76,13.44L2.59,14l-.07,0,11.82,1.55Z" style="fill:#1d1d1b"/><path d="M28.2,18.17l-4.56-2.45L28,14.49a.5.5,0,0,0,.27-.77l-.61-.87L14.42,16.08h-.09l-12-1.58s-.06,0-.08,0l-.27.89h0l-.05,0-.09,0h0l0,0-.07.06,0,.06,0,0,0,.06a.5.5,0,0,0,0,.1.48.48,0,0,0,0,.06v1.51h0a.49.49,0,0,0,0,.18l0,0,0,0,0,.06.05,0,.07.05h0l10.54,5.84h0a.49.49,0,0,0,.21.05h.16l.12,0h.1L28.06,20.6a.49.49,0,0,0,.17-.07l0,0,.09-.09,0-.06a.42.42,0,0,0,.06-.18.46.46,0,0,0,0-.06V18.61A.45.45,0,0,0,28.2,18.17Zm-15.59,3c-.78-.45-4.23-2.43-6.93-3.93l1-.17,7.52,1.26h.08l.13,0,6-1.67,4,2.17Z" style="fill:#1d1d1b"/></g></svg>