<svg xmlns="http://www.w3.org/2000/svg" viewBox="0 0 30 30"><title>pictos-export</title><g id="Calque_1" data-name="Calque 1"><path d="M16.3,3.62a5.3,5.3,0,1,0,5.3,5.3A5.3,5.3,0,0,0,16.3,3.62Zm.23,9.07a2.94,2.94,0,0,1-2.28-1,3.47,3.47,0,0,1-.81-1.93h-.7V9.21h.64V9c0-.18,0-.35,0-.51h-.66V8h.74a3.56,3.56,0,0,1,.92-1.9,3,3,0,0,1,2.22-.93,3.19,3.19,0,0,1,1.49.36l-.22.74a2.58,2.58,0,0,0-1.26-.31,2,2,0,0,0-1.48.62A2.65,2.65,0,0,0,14.49,8h3.13v.56H14.39c0,.15,0,.31,0,.47v.2h3.26v.55H14.44a2.7,2.7,0,0,0,.62,1.47,2.13,2.13,0,0,0,1.58.65A2.92,2.92,0,0,0,18,11.51l.19.71A3,3,0,0,1,16.53,12.69Z" style="fill:#fff"/><path d="M28.9,15a1.56,1.56,0,0,0-1.31-.72h-.36a2.17,2.17,0,0,0-1.24.39L19.2,19.42a2.36,2.36,0,0,1,.51,2.32,2.29,2.29,0,0,1-1.36,1.46l-.13.05a2.21,2.21,0,0,1-.8.15,2.24,2.24,0,0,1-.6-.08l-5.34-1.49a.38.38,0,1,1,.2-.73L17,22.58a1.45,1.45,0,0,0,.92,0l.13-.05a1.54,1.54,0,0,0,.91-1,1.6,1.6,0,0,0-.35-1.58l-.15-.16a1.51,1.51,0,0,0-.25-.21,1.6,1.6,0,0,0-.36-.17l-7.37-2.2a4.58,4.58,0,0,0-4.42,1.19L1.15,23.33l4.38,4.28L8.4,24.69l7.3,1.92a2.45,2.45,0,0,0,2.18-.48l10.44-8.6a2.17,2.17,0,0,0,.67-.95l.08-.22A1.56,1.56,0,0,0,28.9,15Z" style="fill:#fff"/></g></svg>