<svg xmlns="http://www.w3.org/2000/svg" viewBox="0 0 30 30"><title>pictos-export</title><g id="Calque_1" data-name="Calque 1"><path d="M16.15,3.62a5.3,5.3,0,1,0,5.3,5.3A5.3,5.3,0,0,0,16.15,3.62Zm.49,4.3v.79H14.77v.52h1.59V10H14.85a1.3,1.3,0,0,0,1.44,1.09,3.08,3.08,0,0,0,1.23-.26V12a2.89,2.89,0,0,1-1.32.27,2.71,2.71,0,0,1-1.81-.6A2.68,2.68,0,0,1,13.5,10h-.62v-.8h.53a1.7,1.7,0,0,1,0-.28V8.71h-.52V7.92h.6a2.73,2.73,0,0,1,.89-1.72,2.68,2.68,0,0,1,1.82-.63,3.49,3.49,0,0,1,1.58.37l-.44,1a4.49,4.49,0,0,0-.58-.22,2,2,0,0,0-.56-.08,1.3,1.3,0,0,0-.9.32,1.53,1.53,0,0,0-.46.92Z" style="fill:#1d1d1b"/><path d="M28.75,15a1.56,1.56,0,0,0-1.31-.72h-.36a2.17,2.17,0,0,0-1.24.39L19,19.42a2.36,2.36,0,0,1,.51,2.32A2.29,2.29,0,0,1,18.2,23.2l-.13.05a2.21,2.21,0,0,1-.8.15,2.24,2.24,0,0,1-.6-.08l-5.34-1.49a.38.38,0,1,1,.2-.73l5.35,1.49a1.45,1.45,0,0,0,.92,0l.13-.05a1.54,1.54,0,0,0,.91-1,1.6,1.6,0,0,0-.35-1.58l-.15-.16a1.51,1.51,0,0,0-.25-.21,1.6,1.6,0,0,0-.36-.17l-7.37-2.2a4.58,4.58,0,0,0-4.42,1.19L1,23.33l4.38,4.28,2.87-2.92,7.3,1.92a2.45,2.45,0,0,0,2.18-.48l10.44-8.6a2.17,2.17,0,0,0,.67-.95l.08-.22A1.56,1.56,0,0,0,28.75,15Z" style="fill:#1d1d1b"/></g></svg>