<?xml version="1.0" encoding="utf-8"?>
<!DOCTYPE svg PUBLIC "-//W3C//DTD SVG 1.1//EN" "http://www.w3.org/Graphics/SVG/1.1/DTD/svg11.dtd">
<svg version="1.1" id="Layer_1" xmlns="http://www.w3.org/2000/svg" xmlns:xlink="http://www.w3.org/1999/xlink" x="0px" y="0px"
	 width="694.94px" height="472.955px" viewBox="0 58.5 694.94 472.955" enable-background="new 0 58.5 694.94 472.955"
	 xml:space="preserve">
<title>pictos-export-02-s</title>
<g id="Calque_1">
	<path d="M409.42,274.769L314.718,73.255c-1.574-3.579-5.408-5.601-9.251-4.878L85.45,110.429l0,0
		c-1.039,0.139-2.024,0.544-2.86,1.178H81.75c0,0-1.009,0-1.346,1.009L1.514,223.129c-0.998,1.43-1.527,3.134-1.514,4.878v196.299
		c0.018,2.987,1.619,5.74,4.205,7.233l175.946,98.906l0,0c1.12,0.664,2.399,1.013,3.701,1.01h1.514l216.485-43.566
		c3.916-0.799,6.729-4.245,6.728-8.242V296.299C411.554,289.483,411.854,281.796,409.42,274.769z M393.776,280.992
		c1.375,2.99,1.375,6.431,0,9.42c-2.454,4.02-6.481,6.826-11.102,7.738l0,0c-5.72,1.009-10.934-5.551-18.167-15.812
		c-7.232-10.261-16.82-24.895-33.642-21.867c-16.821,3.027-19.849,18.503-23.886,32.296c-4.037,13.793-6.392,20.858-12.615,22.036
		c-6.224,1.178-10.934-5.551-18.167-15.812c-7.233-10.261-16.821-24.895-33.642-21.867s-19.849,18.503-23.885,32.296
		c-4.037,13.793-6.392,20.857-12.616,22.035s-9.42,0-15.644-10.934l0,0l-1.514-2.859L111.69,151.304l-12.279-26.409l203.364-38.688
		L393.776,280.992z M16.821,230.698L85.45,135.66l9.756,20.185l80.235,172.583v180.319L16.821,419.428V230.698z M192.767,512.952
		V346.258c3.49,1.776,7.353,2.699,11.27,2.691c2.071,0.156,4.152,0.156,6.224,0c16.821-3.196,21.699-20.186,25.568-33.643
		c3.869-13.457,6.055-19.512,10.934-20.353c4.878-0.841,9.251,5.214,15.979,14.97c6.729,9.757,17.999,25.904,35.156,22.709
		c17.157-3.196,21.699-20.354,25.567-33.642c3.869-13.289,6.056-19.512,10.934-20.521s9.252,5.383,15.98,14.971
		c6.728,9.587,17.998,26.072,34.987,22.876c2.428-0.467,4.797-1.201,7.064-2.188v157.948L192.767,512.952z"/>
</g>
<g id="Calque_1_1_">
	<path fill="#1D1D1B" d="M694.648,270.812c-0.79-2.182-2.86-3.637-5.183-3.639l-121.277-0.551l69.79-72.215
		c2.375-1.905,2.756-5.375,0.851-7.75c-1.062-1.326-2.679-2.087-4.379-2.063h-98.014c-2.006-0.181-3.906,0.924-4.741,2.757
		l-71.443,122.379c-1.522,2.637-0.618,6.009,2.018,7.53c0.828,0.479,1.767,0.733,2.724,0.739h88.201L431.917,472.354
		c-1.965,2.325-1.672,5.804,0.654,7.769c2.076,1.754,5.122,1.732,7.174-0.05l253.139-203.195
		C694.687,275.426,695.391,273.004,694.648,270.812z"/>
</g>
</svg>
