<?xml version="1.0" encoding="utf-8"?>
<!DOCTYPE svg PUBLIC "-//W3C//DTD SVG 1.1//EN" "http://www.w3.org/Graphics/SVG/1.1/DTD/svg11.dtd">
<svg version="1.1" id="Layer_1" xmlns="http://www.w3.org/2000/svg" xmlns:xlink="http://www.w3.org/1999/xlink" x="0px" y="0px"
	 width="625.767px" height="463.224px" viewBox="0 0 625.767 463.224" enable-background="new 0 0 625.767 463.224"
	 xml:space="preserve">
<title>pictos-export-02-s</title>
<g id="Calque_1">
	<path d="M409.419,206.537L314.718,5.023c-1.574-3.579-5.408-5.601-9.251-4.878L85.45,42.198l0,0
		c-1.039,0.139-2.024,0.544-2.86,1.178h-0.84c0,0-1.009,0-1.346,1.009L1.514,154.897c-0.998,1.43-1.527,3.134-1.514,4.878v196.299
		c0.018,2.987,1.619,5.74,4.205,7.233l175.946,98.906l0,0c1.12,0.664,2.399,1.013,3.701,1.01h1.514l216.485-43.566
		c3.916-0.799,6.729-4.245,6.729-8.241V228.067C411.554,221.252,411.853,213.564,409.419,206.537z M393.777,212.761
		c1.375,2.989,1.375,6.431,0,9.42c-2.455,4.021-6.482,6.825-11.104,7.737l0,0c-5.719,1.01-10.934-5.551-18.166-15.812
		s-16.82-24.896-33.642-21.866c-16.821,3.026-19.85,18.502-23.886,32.295c-4.037,13.793-6.393,20.858-12.615,22.037
		c-6.224,1.178-10.934-5.552-18.167-15.812c-7.233-10.262-16.821-24.895-33.642-21.867c-16.821,3.027-19.849,18.503-23.885,32.296
		c-4.037,13.793-6.392,20.856-12.616,22.035c-6.224,1.178-9.42,0-15.644-10.935l0,0l-1.514-2.858L111.69,83.073L99.411,56.664
		l203.364-38.688L393.777,212.761z M16.821,162.467L85.45,67.429l9.756,20.185l80.235,172.583v180.319l-158.62-89.318V162.467z
		 M192.767,444.721V278.026c3.49,1.776,7.353,2.699,11.27,2.691c2.071,0.155,4.152,0.155,6.224,0
		c16.821-3.196,21.699-20.187,25.568-33.644s6.055-19.512,10.934-20.353c4.878-0.841,9.251,5.214,15.979,14.97
		c6.729,9.758,17.999,25.904,35.156,22.709c17.156-3.195,21.698-20.354,25.566-33.642c3.869-13.289,6.057-19.513,10.935-20.521
		c4.878-1.01,9.252,5.383,15.979,14.971c6.729,9.586,17.998,26.072,34.988,22.875c2.428-0.467,4.797-1.2,7.062-2.188v157.948
		L192.767,444.721z"/>
</g>
<g id="Calque_1_2_">
	<path fill="#1D1D1B" d="M611.428,259.111l-69.915-138.798c-1.917-3.17-6.04-4.187-9.211-2.27c-0.929,0.562-1.708,1.341-2.27,2.27
		l-68.496,135.703c-10.389,20.605-15.821,43.354-15.866,66.432c0.155,49.869,40.708,90.17,90.577,90.014
		c3.441-0.01,6.879-0.218,10.296-0.621c46.13-6.398,80.169-46.312,79.203-92.876C625.701,298.17,620.796,277.675,611.428,259.111z
		 M515.199,289.94c7.127,14.115,7.127,30.776,0,44.89c-2.856,5.165-4.281,10.999-4.129,16.899c0,3.562-2.887,6.449-6.449,6.449
		c-3.562,0-6.45-2.887-6.45-6.449c-0.197-7.812,1.624-15.544,5.289-22.445c5.42-10.568,5.42-23.1,0-33.667
		c-3.665-6.902-5.486-14.633-5.289-22.446c-0.157-7.822,1.709-15.555,5.419-22.444c2.833-5.127,4.258-10.913,4.128-16.77
		c0-3.562,2.887-6.449,6.449-6.449c3.562,0,6.45,2.888,6.45,6.449c0.197,7.812-1.624,15.543-5.289,22.445
		c-5.44,10.562-5.44,23.104,0,33.668L515.199,289.94z M567.957,289.94c7.129,14.115,7.129,30.776,0,44.89
		c-2.854,5.165-4.28,10.999-4.127,16.899c0,3.562-2.888,6.449-6.45,6.449c-3.562,0-6.449-2.887-6.449-6.449
		c-0.198-7.812,1.624-15.544,5.288-22.445c5.42-10.568,5.42-23.1,0-33.667c-3.664-6.902-5.486-14.633-5.288-22.446
		c-0.159-7.822,1.707-15.555,5.417-22.444c2.834-5.127,4.258-10.913,4.129-16.77c0-3.562,2.887-6.449,6.449-6.449
		c3.562,0,6.449,2.888,6.449,6.449c0.198,7.812-1.623,15.543-5.288,22.445c-5.441,10.562-5.441,23.104,0,33.668L567.957,289.94z"/>
</g>
</svg>
