<svg xmlns="http://www.w3.org/2000/svg" viewBox="0 0 25.88 21.35"><defs><style>.cls-1{fill:#8db63c;}</style></defs><title>pictos-export-02-s</title><g id="Calque_4" data-name="Calque 4"><path class="cls-1" d="M17.23.5a.5.5,0,0,0-.5-.5H.5A.5.5,0,0,0,0,.5L8.65,20.85a.5.5,0,0,0,.5.5H25.38a.5.5,0,0,0,.5-.5Zm-13,3.18H7.4l.9,2.17-3.2,0Zm9.19,13.21a2.74,2.74,0,0,1-1.46-.43H9.56l-.94-2.24h1.1a1.43,1.43,0,0,1-.06-.36,2,2,0,0,1,0-.35,2,2,0,0,1,0-.35c0-.06,0-.11,0-.17H8.1l-1-2.35H9.34a12.07,12.07,0,0,1-.48-1.23H6.59l-1-2.33,3,0a4.21,4.21,0,0,1,.74-1.84L8.73,3.7h2.69a5.46,5.46,0,0,1,3.95,0h1l.32.76a4.22,4.22,0,0,1,1.55,3.29c0,.11,0,.22,0,.33l.56,1.35h-.85a12.12,12.12,0,0,1-.49,1.23h1.86l1,2.35H17.32l-.23-.54a1.66,1.66,0,0,1,0,.32,2.09,2.09,0,0,1,0,.35,2,2,0,0,1,0,.35,2,2,0,0,1,0,.35,1.68,1.68,0,0,1-.34,1l.7,1.65-2.65,0A2.63,2.63,0,0,1,13.38,16.89Zm5.41-.4-.95-2.23h2.91l.95,2.24Z"/></g><g id="Calque_6" data-name="Calque 6"><path class="cls-1" d="M17.19,7.78a3.55,3.55,0,0,0-3.81-3.43A3.55,3.55,0,0,0,9.57,7.78a9.42,9.42,0,0,0,1.3,3.7l.21.39a.63.63,0,0,0-.42.59.6.6,0,0,0,.1.35.64.64,0,0,0-.1.35.6.6,0,0,0,.1.35.6.6,0,0,0-.1.35.62.62,0,0,0,.62.62h.4a1.73,1.73,0,0,0,3.4,0h.39a.63.63,0,0,0,.63-.62.61.61,0,0,0-.11-.35.61.61,0,0,0,.11-.35.66.66,0,0,0-.11-.35.61.61,0,0,0,.11-.35.62.62,0,0,0-.42-.58l.2-.4A9.44,9.44,0,0,0,17.19,7.78ZM14.77,10.9a3.82,3.82,0,0,0-.41.94h-2A4.32,4.32,0,0,0,12,10.9a8.93,8.93,0,0,1-1.16-3.12A2.31,2.31,0,0,1,13.38,5.6a2.31,2.31,0,0,1,2.56,2.18A8.76,8.76,0,0,1,14.77,10.9Z"/></g></svg>