<?xml version="1.0" encoding="utf-8"?>
<!-- Generator: Adobe Illustrator 22.1.0, SVG Export Plug-In . SVG Version: 6.00 Build 0)  -->
<svg version="1.0" xmlns="http://www.w3.org/2000/svg" xmlns:xlink="http://www.w3.org/1999/xlink" x="0px" y="0px"
	 viewBox="0 0 25.9 21.3" enable-background="new 0 0 25.9 21.3" xml:space="preserve">
<g id="Calque_2">
</g>
<g id="Calque_3">
</g>
<g id="Calque_5">
</g>
<g id="Calque_1">
</g>
<g id="Calque_4">
	<path d="M17.3,0.4c0-0.3-0.2-0.5-0.5-0.5H0.6c-0.3,0-0.5,0.2-0.5,0.5l8.7,20.3c0,0.3,0.2,0.5,0.5,0.5h16.2c0.3,0,0.5-0.2,0.5-0.5
		L17.3,0.4z M4.3,3.6l3.2,0l0.9,2.2l-3.2,0L4.3,3.6z M13.5,16.8c-0.5,0-1-0.2-1.5-0.4l-2.4,0l-0.9-2.2l1.1,0c0-0.1-0.1-0.2-0.1-0.4
		c0-0.1,0-0.2,0-0.3c0-0.1,0-0.2,0-0.3c0-0.1,0-0.1,0-0.2l-1.6,0l-1-2.4l2.2,0c-0.2-0.4-0.3-0.8-0.5-1.2l-2.3,0L5.7,7l3,0
		c0.1-0.7,0.4-1.3,0.7-1.8L8.8,3.6l2.7,0c0.6-0.2,1.3-0.4,2-0.4c0.7,0,1.4,0.1,2,0.4l1,0l0.3,0.8c1,0.8,1.5,2,1.5,3.3
		c0,0.1,0,0.2,0,0.3l0.6,1.3l-0.9,0c-0.1,0.4-0.3,0.8-0.5,1.2l1.9,0l1,2.4l-2.9,0l-0.2-0.5c0,0.1,0,0.2,0,0.3c0,0.1,0,0.2,0,0.3
		c0,0.1,0,0.2,0,0.3c0,0.1,0,0.2,0,0.3c0,0.4-0.1,0.7-0.3,1l0.7,1.7l-2.6,0C14.5,16.7,14,16.8,13.5,16.8z M18.9,16.4l-0.9-2.2l2.9,0
		l0.9,2.2L18.9,16.4z"/>
</g>
<g id="Calque_6">
	<path d="M17.3,7.7c0-2-1.6-3.4-3.8-3.4S9.7,5.7,9.7,7.7c0,1.2,0.8,2.7,1.3,3.7c0.1,0.1,0.2,0.3,0.2,0.4c-0.2,0.1-0.4,0.3-0.4,0.6
		c0,0.1,0,0.2,0.1,0.3c-0.1,0.1-0.1,0.2-0.1,0.3s0,0.2,0.1,0.3c-0.1,0.1-0.1,0.2-0.1,0.3c0,0.3,0.3,0.6,0.6,0.6h0.4
		c0.2,0.8,0.9,1.4,1.7,1.4c0.8,0,1.5-0.6,1.7-1.4h0.4c0.3,0,0.6-0.3,0.6-0.6c0-0.1,0-0.2-0.1-0.3c0.1-0.1,0.1-0.2,0.1-0.3
		s0-0.2-0.1-0.3c0.1-0.1,0.1-0.2,0.1-0.3c0-0.3-0.2-0.5-0.4-0.6c0.1-0.1,0.1-0.3,0.2-0.4C16.5,10.4,17.3,8.9,17.3,7.7z M14.9,10.8
		c-0.3,0.5-0.4,0.7-0.4,0.9h-2c0-0.2-0.1-0.4-0.4-0.9c-0.4-0.8-1.2-2.2-1.2-3.1c0-1.1,0.9-2.2,2.6-2.2S16,6.6,16,7.7
		C16,8.6,15.3,10,14.9,10.8z"/>
</g>
</svg>
