<?xml version="1.0" encoding="utf-8"?>
<!-- Generator: Adobe Illustrator 22.1.0, SVG Export Plug-In . SVG Version: 6.00 Build 0)  -->
<svg version="1.0" xmlns="http://www.w3.org/2000/svg" xmlns:xlink="http://www.w3.org/1999/xlink" x="0px" y="0px"
	 viewBox="0 0 18.8 26.9" enable-background="new 0 0 18.8 26.9" xml:space="preserve">
<g id="Calque_2">
</g>
<g id="Calque_3">
</g>
<g id="Calque_5">
</g>
<g id="Calque_1">
	<g>
		<path d="M18.4,0H4.7c0,0-0.1,0-0.1,0c0,0,0,0-0.1,0c-0.1,0-0.1,0.1-0.1,0.1c0,0,0,0,0,0L0.1,4.4c0,0,0,0,0,0c0,0-0.1,0.1-0.1,0.1
			c0,0.1,0,0.1,0,0.2v21.8c0,0.2,0.2,0.5,0.5,0.5h17.9c0.2,0,0.5-0.2,0.5-0.5v-26C18.8,0.2,18.6,0,18.4,0z M4.2,1.5v2.7H1.5L4.2,1.5
			z M17.9,26h-17V5.1h3.8c0.2,0,0.5-0.2,0.5-0.5V0.9h12.8V26z"/>
	</g>
	<g>
		<path d="M8.1,10.2C8.1,9.4,8.5,9,9.4,9s1.3,0.4,1.3,1.2c0,0.4-0.1,0.7-0.3,0.9c-0.2,0.2-0.6,0.3-1,0.3C8.5,11.4,8.1,11,8.1,10.2z
			 M10.6,21.5H8.2v-9h2.5V21.5z"/>
	</g>
</g>
<g id="Calque_4">
</g>
<g id="Calque_6">
</g>
</svg>
