<?xml version="1.0" encoding="utf-8"?>
<!DOCTYPE svg PUBLIC "-//W3C//DTD SVG 1.1//EN" "http://www.w3.org/Graphics/SVG/1.1/DTD/svg11.dtd">
<svg version="1.1" id="Layer_1" xmlns="http://www.w3.org/2000/svg" xmlns:xlink="http://www.w3.org/1999/xlink" x="0px" y="0px"
	 width="600px" height="600px" viewBox="0 0 600 600" enable-background="new 0 0 600 600" xml:space="preserve">

<g id="Calque_1">
	<path d="M491.049,182.92c-3.055-98.266-85.192-175.448-183.46-172.392c-2.531,0.079-5.062,0.211-7.588,0.398
		C201.955,3.678,116.597,77.284,109.349,175.33c-0.187,2.527-0.319,5.057-0.398,7.59c8.472,65.733,30.683,128.947,65.188,185.534
		l10.53,19.557c-12.553,4.438-20.976,16.27-21.06,29.583c-0.186,6.229,1.566,12.36,5.015,17.554
		c-3.335,5.239-5.077,11.337-5.015,17.549c-0.186,6.229,1.566,12.361,5.015,17.551c-3.448,5.189-5.2,11.32-5.015,17.551
		c0,17.169,13.919,31.089,31.089,31.089h20.058c8.884,47.081,54.25,78.044,101.33,69.159c35.089-6.621,62.541-34.067,69.159-69.159
		h19.558c17.252,0.002,31.317-13.84,31.59-31.089c0.005-6.278-1.918-12.406-5.516-17.551c3.598-5.146,5.521-11.273,5.516-17.551
		c-0.142-6.253-2.056-12.339-5.516-17.549c3.598-5.146,5.521-11.276,5.516-17.554c-0.146-13.175-8.585-24.83-21.059-29.082
		l10.028-20.058C460.015,311.895,482.395,248.684,491.049,182.92z M369.701,339.371c-8.94,14.716-15.856,30.57-20.561,47.137
		H248.853c-4.16-16.363-10.218-32.183-18.052-47.137c-29.022-48.044-48.754-101.116-58.167-156.451
		c3.274-63.889,57.72-113.026,121.608-109.753c1.922,0.099,3.841,0.245,5.758,0.439c63.587-7.004,120.812,38.865,127.818,102.455
		c0.252,2.28,0.435,4.568,0.55,6.859C419.004,238.344,399.085,291.454,369.701,339.371z"/>
</g>
</svg>
