<svg xmlns="http://www.w3.org/2000/svg" viewBox="0 0 18.81 26.91"><defs><style>.cls-1{fill:#8db63c;}</style></defs><title>pictos-export-02-s</title><g id="Calque_1" data-name="Calque 1"><path class="cls-1" d="M18.36,0H4.69L4.58,0H4.52a.71.71,0,0,0-.14.1h0L.13,4.37v0A.26.26,0,0,0,0,4.52a.33.33,0,0,0,0,.17V26.45a.46.46,0,0,0,.45.46H18.36a.46.46,0,0,0,.45-.46V.45A.45.45,0,0,0,18.36,0ZM4.24,1.55V4.24H1.55ZM17.91,26H.91V5.14H4.69a.45.45,0,0,0,.45-.45V.91H17.91Z"/><path class="cls-1" d="M8.07,10.21c0-.8.45-1.2,1.34-1.2s1.34.4,1.34,1.2a1.13,1.13,0,0,1-.34.89,1.35,1.35,0,0,1-1,.32C8.52,11.42,8.07,11,8.07,10.21Zm2.56,11.34H8.18v-9h2.45Z"/></g></svg>