<?xml version="1.0" encoding="utf-8"?>
<!-- Generator: Adobe Illustrator 22.1.0, SVG Export Plug-In . SVG Version: 6.00 Build 0)  -->
<svg version="1.0" xmlns="http://www.w3.org/2000/svg" xmlns:xlink="http://www.w3.org/1999/xlink" x="0px" y="0px"
	 viewBox="0 0 25.9 21.3" enable-background="new 0 0 25.9 21.3" xml:space="preserve">
<g id="Calque_2">
</g>
<g id="Calque_3">
</g>
<g id="Calque_5">
</g>
<g id="Calque_1">
</g>
<g id="Calque_4">
	<path d="M17.1,0.4c0-0.3-0.2-0.5-0.5-0.5H0.4c-0.3,0-0.5,0.2-0.5,0.5l8.7,20.3c0,0.3,0.2,0.5,0.5,0.5h1.9c0,0,0.1,0,0.1,0
		c0,0,0.1,0,0.1,0h14.2c0.3,0,0.5-0.2,0.5-0.5L17.1,0.4z M16.2,3.7l0.9,2.2l-2.9,0l-0.9-2.2L16.2,3.7z M11.9,3.7l0.9,2.2l-3.3,0
		L8.6,3.6L11.9,3.7z M4.1,3.6l3.2,0l0.9,2.2L5,5.8L4.1,3.6z M5.5,7l3.2,0l1,2.3l-3.2,0L5.5,7z M7,10.6l3.2,0l1,2.4l-3.2,0L7,10.6z
		 M9.4,16.4l-0.9-2.2l2.2,0L9.4,16.4L9.4,16.4z M14.3,16.4l0.7-1.4c0.4,0,0.8-0.1,1.2-0.3c1.5-0.7,2.4-2.3,2.1-4
		c-0.1-0.3-0.1-0.6-0.3-0.9c-0.1-0.2-0.2-0.3-0.4-0.3c-0.2,0-0.3,0.1-0.5,0.2l-1,1.5l-1.1-0.1l-0.4-1l1.1-1.6
		c0.1-0.1,0.1-0.3,0.1-0.5c-0.1-0.2-0.2-0.3-0.4-0.3c-0.7-0.1-1.4,0-2,0.2c0,0-0.1,0-0.1,0c-0.9,0.4-1.6,1.1-1.9,2L10,7l7.3,0
		l4.2,9.4L14.3,16.4z M13.7,9.8c-0.1,0.1-0.1,0.3,0,0.5l0.7,1.5c0.1,0.2,0.2,0.3,0.4,0.3l1.6,0.1c0.1,0,0.2,0,0.3-0.1
		c0.1,0,0.1-0.1,0.1-0.1l0.6-0.8c0.1,1.1-0.5,2.2-1.5,2.6C15.5,14,15.1,14,14.8,14c0,0,0,0,0,0h0c-0.2,0-0.4,0.1-0.4,0.3l-3.3,6
		l-1.9-1.1l3.3-6.1c0.1-0.1,0.1-0.3,0-0.5c0,0-0.1-0.1-0.1-0.1c-0.6-1.3,0-2.9,1.3-3.5c0,0,0.1,0,0.1,0c0.2-0.1,0.4-0.1,0.6-0.2
		L13.7,9.8z"/>
</g>
<g id="Calque_6">
</g>
</svg>
