<svg xmlns="http://www.w3.org/2000/svg" viewBox="0 0 30 30"><title>pictos-export</title><g id="Calque_1" data-name="Calque 1"><path d="M13.37,8.11l11-2.19a.39.39,0,0,0-.11-.11L15.62.91a.49.49,0,0,0-.34-.06L4.61,3A.47.47,0,0,0,4.48,3Z" style="fill:#fff"/><polygon points="15.85 27.34 19.04 26.71 19.11 9.87 15.93 10.48 15.85 27.34" style="fill:#fff"/><polygon points="19.79 26.56 22.56 26.02 22.64 9.19 19.86 9.72 19.79 26.56" style="fill:#fff"/><path d="M13.58,8.58,13.49,27.8l1.61-.32.08-17.32a.38.38,0,0,1,.3-.37l7.45-1.43a.38.38,0,0,1,.45.37l-.08,17.13.68-.13a.5.5,0,0,0,.4-.49l.09-18.84Z" style="fill:#fff"/><path d="M4.12,3.39v19a.5.5,0,0,0,.25.44L13,27.77l.09-19.25Zm6.48,16-2,3.5a.37.37,0,0,1-.32.19h0a.38.38,0,0,1-.32-.24l-2.34-6a.37.37,0,1,1,.7-.27l2.06,5.26L10,19a.37.37,0,1,1,.65.38Zm-.17-4.14-.14,0A.38.38,0,0,1,10,15L7.9,9.74,6.24,12.57a.38.38,0,1,1-.65-.38l2-3.5A.38.38,0,0,1,8,8.51a.38.38,0,0,1,.32.24l2.34,6A.37.37,0,0,1,10.44,15.22Z" style="fill:#fff"/></g></svg>