<svg xmlns="http://www.w3.org/2000/svg" viewBox="0 0 30 30"><title>pictos-export</title><g id="Calque_1" data-name="Calque 1"><path d="M13.88,8.39l11-2.19a.39.39,0,0,0-.11-.11L16.13,1.2a.49.49,0,0,0-.34-.06L5.12,3.24A.47.47,0,0,0,5,3.31Z" style="fill:#1d1d1b"/><polygon points="16.36 27.62 19.54 26.99 19.62 10.15 16.44 10.76 16.36 27.62" style="fill:#1d1d1b"/><polygon points="20.3 26.85 23.07 26.3 23.14 9.47 20.37 10.01 20.3 26.85" style="fill:#1d1d1b"/><path d="M14.09,8.86,14,28.08l1.61-.32.08-17.32a.38.38,0,0,1,.3-.37l7.45-1.43a.38.38,0,0,1,.45.37l-.08,17.13L24.5,26a.5.5,0,0,0,.4-.49L25,6.69Z" style="fill:#1d1d1b"/><path d="M4.63,3.67v19a.5.5,0,0,0,.25.44l8.62,4.9L13.59,8.8Zm6.48,16-2,3.5a.37.37,0,0,1-.32.19h0a.38.38,0,0,1-.32-.24l-2.34-6a.37.37,0,1,1,.7-.27L8.81,22.1l1.65-2.83a.37.37,0,1,1,.65.38Zm-.17-4.14-.14,0a.38.38,0,0,1-.35-.24L8.4,10,6.75,12.86a.38.38,0,1,1-.65-.38l2-3.5a.38.38,0,0,1,.35-.18A.38.38,0,0,1,8.82,9l2.34,6A.37.37,0,0,1,10.94,15.5Z" style="fill:#1d1d1b"/></g></svg>