<?xml version="1.0" encoding="utf-8"?>
<!-- Generator: Adobe Illustrator 15.0.0, SVG Export Plug-In . SVG Version: 6.00 Build 0)  -->
<!DOCTYPE svg PUBLIC "-//W3C//DTD SVG 1.1//EN" "http://www.w3.org/Graphics/SVG/1.1/DTD/svg11.dtd">
<svg version="1.1" id="Layer_1" xmlns="http://www.w3.org/2000/svg" xmlns:xlink="http://www.w3.org/1999/xlink" x="0px" y="0px"
	 width="15px" height="15px" viewBox="0 0 15 15" enable-background="new 0 0 15 15" xml:space="preserve">
<title>pictos-export</title>
<g id="Calque_1_3_">
	<path fill="#1D1D1B" d="M4.515,3.855c-0.152-0.161-0.332-0.293-0.531-0.39C4.086,3.397,4.18,3.319,4.265,3.23
		C4.563,2.905,4.73,2.478,4.729,2.035c0.033-0.908-0.673-1.672-1.581-1.71l0,0c-0.428,0.001-0.836,0.183-1.125,0.5
		C1.725,1.144,1.555,1.563,1.549,2c-0.008,0.573,0.27,1.113,0.74,1.44c-0.187,0.097-0.356,0.226-0.5,0.38
		C1.5,4.118,1.353,4.526,1.384,4.94l0.5,7.166c0,1.08,0.45,1.705,1.25,1.705l0,0c0.408,0.018,0.792-0.189,1-0.541
		c0.189-0.348,0.281-0.739,0.266-1.135L4.894,5C4.942,4.581,4.804,4.162,4.515,3.855z"/>
</g>
<g id="Calque_1_2_">
	<path fill="#1D1D1B" d="M9.253,3.855c-0.152-0.161-0.332-0.293-0.531-0.39C8.825,3.397,8.919,3.319,9.003,3.23
		C9.302,2.905,9.47,2.478,9.468,2.035c0.033-0.908-0.672-1.672-1.58-1.71l0,0c-0.428,0.001-0.836,0.183-1.125,0.5
		C6.464,1.144,6.294,1.563,6.288,2c-0.008,0.573,0.27,1.113,0.74,1.44c-0.188,0.097-0.357,0.226-0.5,0.38
		C6.239,4.118,6.091,4.526,6.122,4.94l0.5,7.166c0,1.08,0.451,1.705,1.25,1.705l0,0c0.408,0.018,0.793-0.189,1-0.541
		c0.189-0.348,0.281-0.739,0.266-1.135L9.632,5C9.681,4.581,9.542,4.162,9.253,3.855z"/>
</g>
<g id="Calque_1">
	<path fill="#1D1D1B" d="M13.391,7.643c-0.139-0.152-0.309-0.273-0.5-0.354c0.434-0.448,0.447-1.155,0.031-1.62
		c-0.381-0.422-1.033-0.456-1.455-0.075c-0.026,0.024-0.052,0.049-0.076,0.075c-0.409,0.455-0.409,1.146,0,1.6l0,0
		c-0.188,0.072-0.359,0.186-0.5,0.33c-0.172,0.183-0.258,0.431-0.234,0.681l0.395,4.385c-0.014,0.281,0.068,0.559,0.235,0.785
		c0.204,0.245,0.512,0.379,0.83,0.36l0,0c0.551,0.039,1.029-0.375,1.069-0.926c0.004-0.062,0.003-0.123-0.004-0.185l0.435-4.399
		C13.639,8.058,13.557,7.818,13.391,7.643z"/>
</g>
</svg>
