<svg xmlns="http://www.w3.org/2000/svg" viewBox="0 0 18.81 26.91"><title>pictos-export</title><g id="Calque_1" data-name="Calque 1"><path d="M18.36,0H4.69L4.58,0H4.52a.45.45,0,0,0-.14.09h0L.13,4.37l0,0A.45.45,0,0,0,0,4.52a.45.45,0,0,0,0,.18V26.45a.45.45,0,0,0,.45.45H18.36a.45.45,0,0,0,.45-.45V.45A.45.45,0,0,0,18.36,0ZM4.24,1.55V4.24H1.55ZM17.91,26H.91V5.14H4.69a.45.45,0,0,0,.45-.45V.91H17.91Z" style="fill:#1d1d1b"/><path d="M10.56,11.66a2.32,2.32,0,0,0-1.6.56,2.72,2.72,0,0,0-.81,1.63h3.22v1.41H8l0,.28v.38l0,.26h2.83V17.6H8.15a2.31,2.31,0,0,0,2.56,1.94,5.48,5.48,0,0,0,2.2-.46v2a5.14,5.14,0,0,1-2.34.47,4.82,4.82,0,0,1-3.22-1.06A4.76,4.76,0,0,1,5.77,17.6H4.67V16.18h.94a3,3,0,0,1,0-.5l0-.42H4.67V13.86H5.73A4.86,4.86,0,0,1,7.32,10.8a4.76,4.76,0,0,1,3.23-1.12,6.2,6.2,0,0,1,2.81.65l-.78,1.85a8,8,0,0,0-1-.39A3.55,3.55,0,0,0,10.56,11.66Z" style="fill:#1d1d1b"/></g></svg>