<svg xmlns="http://www.w3.org/2000/svg" viewBox="0 0 18.81 26.91"><defs><style>.cls-1{fill:#1d1d1b;}</style></defs><title>pictos-export-02-s3</title><g id="Calque_1" data-name="Calque 1"><path class="cls-1" d="M18.36,0H4.69L4.58,0H4.52a.71.71,0,0,0-.14.1h0L.13,4.37v0A.26.26,0,0,0,0,4.52a.33.33,0,0,0,0,.17V26.45a.46.46,0,0,0,.45.46H18.36a.46.46,0,0,0,.45-.46V.45A.45.45,0,0,0,18.36,0ZM4.24,1.55V4.24H1.55ZM17.91,26H.91V5.14H4.69a.45.45,0,0,0,.45-.45V.91H17.91Z"/><path class="cls-1" d="M10.56,6.22A2.31,2.31,0,0,0,9,6.78a2.7,2.7,0,0,0-.81,1.63h3.21V9.82H8l0,.28v.37l0,.27h2.83v1.42H8.15a2.32,2.32,0,0,0,2.57,1.94,5.51,5.51,0,0,0,2.19-.46v2a5.21,5.21,0,0,1-2.34.47,4.85,4.85,0,0,1-3.22-1.07,4.67,4.67,0,0,1-1.58-2.93H4.67V10.74h.94a3.34,3.34,0,0,1,0-.5l0-.42H4.67V8.41H5.73a4.87,4.87,0,0,1,1.59-3,4.75,4.75,0,0,1,3.24-1.12,6.17,6.17,0,0,1,2.81.65l-.79,1.85a7.75,7.75,0,0,0-1-.38A3.29,3.29,0,0,0,10.56,6.22Z"/><path class="cls-1" d="M15.74,24.24H3a.5.5,0,0,1-.5-.5.51.51,0,0,1,.5-.5h12.7a.51.51,0,0,1,.5.5A.5.5,0,0,1,15.74,24.24Z"/><path class="cls-1" d="M15.74,22.06H3a.5.5,0,0,1-.5-.5.51.51,0,0,1,.5-.5h12.7a.51.51,0,0,1,.5.5A.5.5,0,0,1,15.74,22.06Z"/><path class="cls-1" d="M15.74,19.89H3a.51.51,0,0,1-.5-.5.5.5,0,0,1,.5-.5h12.7a.5.5,0,0,1,.5.5A.51.51,0,0,1,15.74,19.89Z"/></g></svg>