<svg xmlns="http://www.w3.org/2000/svg" viewBox="0 0 30 30"><title>pictos-export</title><g id="Calque_1" data-name="Calque 1"><polygon points="9.52 1.16 6.39 4.29 9.52 4.29 9.52 1.16" style="fill:#1d1d1b"/><path d="M11.1,1h-.7V5.17H6.26V26.41H23.74V1Zm7.7,18.63a4.11,4.11,0,0,1-3.86,1.44,6.81,6.81,0,0,0,1.62-2.43A17.25,17.25,0,0,1,17.81,16,5,5,0,0,0,16,18.42a8.93,8.93,0,0,1-1.72,2.22,4.48,4.48,0,0,1-.36-1.1h0V19.5a4,4,0,0,1,.11-2,5.43,5.43,0,0,0-.3-1.87A23.13,23.13,0,0,1,13,11.8a6.71,6.71,0,0,0,0,4,12,12,0,0,1-.08,3.76,5.51,5.51,0,0,1-3-4.63c0-3.19,3.53-7.3,3.53-7.3s3.42,4,3.52,7.15a16.11,16.11,0,0,1,3-1.05S20.22,17.76,18.81,19.66Z" style="fill:#1d1d1b"/></g></svg>