<svg xmlns="http://www.w3.org/2000/svg" viewBox="0 0 18.81 26.91"><title>pictos-export</title><g id="Calque_1" data-name="Calque 1"><path d="M18.36,0H4.69L4.58,0H4.52a.45.45,0,0,0-.14.09h0L.13,4.37l0,0A.45.45,0,0,0,0,4.52a.45.45,0,0,0,0,.18V26.45a.45.45,0,0,0,.45.45H18.36a.45.45,0,0,0,.45-.45V.45A.45.45,0,0,0,18.36,0ZM4.24,1.55V4.24H1.55ZM17.91,26H.91V5.14H4.69a.45.45,0,0,0,.45-.45V.91H17.91Z" style="fill:#1d1d1b"/><path d="M15.25,14.84a.29.29,0,0,0-.12-.21.29.29,0,0,0-.24,0,17.71,17.71,0,0,0-2.85,1c-.39-3.39-3.7-7.28-3.85-7.46a.3.3,0,0,0-.44,0c-.16.18-3.89,4.57-3.89,8.08a6.19,6.19,0,0,0,3.42,5.28.3.3,0,0,0,.26,0,.29.29,0,0,0,.15-.21A13,13,0,0,0,7.79,17a7.7,7.7,0,0,1-.31-2.47,13.22,13.22,0,0,0,.6,2.51,5.14,5.14,0,0,1,.3,1.7,5,5,0,0,0,.26,3.72.29.29,0,0,0,.21.15.28.28,0,0,0,.25-.08A9.78,9.78,0,0,0,11,20a6.34,6.34,0,0,1,.28-.65,4.67,4.67,0,0,0-.27.76,7.22,7.22,0,0,1-1.66,2.46.29.29,0,0,0,.13.51,4.6,4.6,0,0,0,.8.06A4.45,4.45,0,0,0,14,21.46C15.56,19.33,15.27,15,15.25,14.84Z" style="fill:#1d1d1b"/></g></svg>