<svg xmlns="http://www.w3.org/2000/svg" viewBox="0 0 18.81 26.91"><title>pictos-export</title><g id="Calque_1" data-name="Calque 1"><path d="M18.36,0H4.69L4.58,0H4.52a.45.45,0,0,0-.14.09h0L.13,4.37l0,0A.45.45,0,0,0,0,4.52a.45.45,0,0,0,0,.18V26.45a.45.45,0,0,0,.45.45H18.36a.45.45,0,0,0,.45-.45V.45A.45.45,0,0,0,18.36,0ZM4.24,1.55V4.24H1.55ZM17.91,26H.91V5.14H4.69a.45.45,0,0,0,.45-.45V.91H17.91Z" style="fill:#1d1d1b"/><path d="M15.65,13.61a.26.26,0,0,0-.25-.18H9.65L13,10a.26.26,0,0,0-.19-.44H8.1a.26.26,0,0,0-.23.13L4.5,15.51a.26.26,0,0,0,.23.39H8.92L3.2,23.28a.26.26,0,0,0,.37.36l12-9.74A.26.26,0,0,0,15.65,13.61Z" style="fill:#1d1d1b"/></g></svg>