<?xml version="1.0" encoding="utf-8"?>
<!-- Generator: Adobe Illustrator 15.0.0, SVG Export Plug-In . SVG Version: 6.00 Build 0)  -->
<!DOCTYPE svg PUBLIC "-//W3C//DTD SVG 1.1//EN" "http://www.w3.org/Graphics/SVG/1.1/DTD/svg11.dtd">
<svg version="1.1" id="Layer_1" xmlns="http://www.w3.org/2000/svg" xmlns:xlink="http://www.w3.org/1999/xlink" x="0px" y="0px"
	 width="419.601px" height="600px" viewBox="90.098 0 419.601 600" enable-background="new 90.098 0 419.601 600"
	 xml:space="preserve">
<title>pictos-export</title>
<g id="Calque_1">
	<path fill="#1D1D1B" d="M499.666,0H194.872h-2.453h-1.337c-1.156,0.469-2.215,1.149-3.122,2.007l0,0L93.2,97.436l0,0
		c-1.203,0.885-2.193,2.028-2.899,3.344c-0.27,1.324-0.27,2.689,0,4.014v484.95c0,5.541,4.492,10.033,10.034,10.033l0,0h399.332
		c5.541,0,10.033-4.492,10.033-10.033l0,0V10.033C509.699,4.492,505.207,0,499.666,0L499.666,0z M184.838,34.56v59.978h-59.978
		L184.838,34.56z M489.632,579.71H110.591V114.604h84.281c5.542,0,10.034-4.492,10.034-10.034V20.29h284.727V579.71z"/>
	<g id="Calque_1_1_">
		<path fill="#1D1D1B" d="M393.278,337.821l-86.233-171.193c-2.363-3.91-7.449-5.164-11.36-2.8c-1.145,0.693-2.105,1.653-2.798,2.8
			l-84.484,167.374c-12.812,25.417-19.514,53.475-19.569,81.938c0.191,61.508,50.209,111.215,111.717,111.022
			c4.244-0.014,8.483-0.269,12.699-0.766c56.896-7.895,98.879-57.124,97.688-114.554
			C410.882,385.996,404.834,360.718,393.278,337.821z M274.589,375.846c8.792,17.409,8.792,37.959,0,55.368
			c-3.522,6.369-5.28,13.564-5.091,20.842c0,4.394-3.562,7.955-7.955,7.955c-4.393,0-7.955-3.562-7.955-7.955
			c-0.244-9.636,2.003-19.17,6.523-27.684c6.684-13.034,6.684-28.491,0-41.525c-4.521-8.513-6.768-18.048-6.523-27.684
			c-0.195-9.648,2.107-19.187,6.683-27.684c3.495-6.324,5.251-13.46,5.091-20.683c0-4.394,3.562-7.956,7.955-7.956
			s7.955,3.562,7.955,7.956c0.245,9.636-2.003,19.17-6.522,27.684c-6.71,13.027-6.71,28.496,0,41.525L274.589,375.846z
			 M339.661,375.846c8.792,17.409,8.792,37.959,0,55.368c-3.521,6.369-5.28,13.564-5.09,20.842c0,4.394-3.563,7.955-7.956,7.955
			c-4.395,0-7.955-3.562-7.955-7.955c-0.244-9.636,2.003-19.17,6.522-27.684c6.684-13.034,6.684-28.491,0-41.525
			c-4.52-8.513-6.767-18.048-6.522-27.684c-0.195-9.648,2.106-19.187,6.682-27.684c3.496-6.324,5.253-13.46,5.092-20.683
			c0-4.394,3.561-7.956,7.955-7.956c4.393,0,7.955,3.562,7.955,7.956c0.244,9.636-2.003,19.17-6.524,27.684
			c-6.71,13.027-6.71,28.496,0,41.525L339.661,375.846z"/>
	</g>
</g>
</svg>
