<svg xmlns="http://www.w3.org/2000/svg" viewBox="0 0 30 30"><title>pictos-export</title><g id="Calque_1" data-name="Calque 1"><path d="M11.69,1H11V5.17H6.85V26.41H24.32V1Zm5.79,12.65v1.09H14.88v.71h2.2v1.1H15a1.79,1.79,0,0,0,2,1.5,4.25,4.25,0,0,0,1.7-.35v1.58a4,4,0,0,1-1.81.37,3.74,3.74,0,0,1-2.49-.82,3.69,3.69,0,0,1-1.23-2.28h-.85v-1.1H13a2.34,2.34,0,0,1,0-.38v-.33h-.72V13.69h.82a3.76,3.76,0,0,1,1.23-2.37,3.69,3.69,0,0,1,2.51-.87A4.8,4.8,0,0,1,19,11l-.61,1.44a6.19,6.19,0,0,0-.8-.3,2.75,2.75,0,0,0-.77-.11,1.8,1.8,0,0,0-1.24.44A2.11,2.11,0,0,0,15,13.69Z" style="fill:#1d1d1b"/><polygon points="10.1 1.16 6.97 4.29 10.1 4.29 10.1 1.16" style="fill:#1d1d1b"/></g></svg>