<svg xmlns="http://www.w3.org/2000/svg" viewBox="0 0 30 30"><title>pictos-export</title><g id="Calque_1" data-name="Calque 1"><path d="M24,1.55H10.28l-.11,0h-.06a.45.45,0,0,0-.14.09h0L5.73,5.92l0,0a.42.42,0,0,0-.12.3V28a.45.45,0,0,0,.45.45H24a.45.45,0,0,0,.45-.45V2A.45.45,0,0,0,24,1.55ZM9.83,3.09V5.78H7.14ZM23.5,27.55H6.5V6.69h3.78a.45.45,0,0,0,.45-.45V2.45H23.5Z" style="fill:#1d1d1b"/><path d="M12.3,21.8a1.49,1.49,0,0,1-.49,1.2,2.1,2.1,0,0,1-1.4.42H10v1.73h-1V20.28h1.56a2.07,2.07,0,0,1,1.35.38A1.39,1.39,0,0,1,12.3,21.8ZM10,22.57h.34a1.13,1.13,0,0,0,.71-.19.66.66,0,0,0,.24-.55.68.68,0,0,0-.2-.54.93.93,0,0,0-.62-.17H10Z" style="fill:#1d1d1b"/><path d="M17.26,22.67a2.4,2.4,0,0,1-.68,1.84,2.79,2.79,0,0,1-2,.64H13.22V20.28h1.53a2.57,2.57,0,0,1,1.85.63A2.32,2.32,0,0,1,17.26,22.67Zm-1.07,0q0-1.57-1.39-1.57h-.55v3.17h.44Q16.19,24.29,16.19,22.69Z" style="fill:#1d1d1b"/><path d="M19.29,25.15h-1V20.28h2.79v.85H19.29v1.26h1.65v.84H19.29Z" style="fill:#1d1d1b"/></g></svg>