<svg xmlns="http://www.w3.org/2000/svg" viewBox="0 0 18.81 26.91"><title>pictos-export</title><g id="Calque_1" data-name="Calque 1"><path d="M18.36,0H4.69L4.58,0H4.52a.45.45,0,0,0-.14.09h0L.13,4.37l0,0A.45.45,0,0,0,0,4.52a.45.45,0,0,0,0,.18V26.45a.45.45,0,0,0,.45.45H18.36a.45.45,0,0,0,.45-.45V.45A.45.45,0,0,0,18.36,0ZM4.24,1.55V4.24H1.55ZM17.91,26H.91V5.14H4.69a.45.45,0,0,0,.45-.45V.91H17.91Z" style="fill:#1d1d1b"/><path d="M6.71,20.25a1.49,1.49,0,0,1-.49,1.2,2.1,2.1,0,0,1-1.4.42H4.38V23.6h-1V18.73H4.9a2.07,2.07,0,0,1,1.35.38A1.39,1.39,0,0,1,6.71,20.25ZM4.38,21h.34a1.13,1.13,0,0,0,.71-.19.66.66,0,0,0,.24-.55.68.68,0,0,0-.2-.54.93.93,0,0,0-.62-.17H4.38Z" style="fill:#1d1d1b"/><path d="M11.67,21.12A2.4,2.4,0,0,1,11,23a2.79,2.79,0,0,1-2,.64H7.63V18.73H9.16a2.57,2.57,0,0,1,1.85.63A2.32,2.32,0,0,1,11.67,21.12Zm-1.07,0q0-1.57-1.39-1.57H8.66v3.17H9.1Q10.6,22.75,10.6,21.15Z" style="fill:#1d1d1b"/><path d="M13.69,23.6h-1V18.73h2.79v.85H13.69v1.26h1.65v.84H13.69Z" style="fill:#1d1d1b"/></g></svg>