<svg xmlns="http://www.w3.org/2000/svg" viewBox="0 0 30 30"><title>pictos-export</title><g id="Calque_1" data-name="Calque 1"><path d="M28.39,10.23A.42.42,0,0,0,28,10H18.89l5.24-5.47a.42.42,0,0,0-.3-.7H16.44a.42.42,0,0,0-.36.21l-5.35,9.27a.42.42,0,0,0,.36.62h6.64L8.67,25.55a.42.42,0,0,0,.59.58l19-15.44A.41.41,0,0,0,28.39,10.23Z" style="fill:#1d1d1b"/><path d="M10.65,15.42a.42.42,0,0,0-.38-.25H8.79V8.65a.42.42,0,0,0-.42-.42H3.9a.42.42,0,0,0-.42.42v6.53H2a.42.42,0,0,0-.31.69l4.14,4.63a.42.42,0,0,0,.62,0l4.14-4.63A.42.42,0,0,0,10.65,15.42Z" style="fill:#1d1d1b"/></g></svg>