<svg xmlns="http://www.w3.org/2000/svg" viewBox="0 0 30 30"><title>pictos-export</title><g id="Calque_1" data-name="Calque 1"><path d="M29.25,10.23a.42.42,0,0,0-.39-.28H19.74L25,4.48a.42.42,0,0,0-.3-.7H17.29a.42.42,0,0,0-.36.21l-5.35,9.27a.42.42,0,0,0,.36.62h6.64L9.52,25.55a.42.42,0,0,0,.59.58l19-15.44A.41.41,0,0,0,29.25,10.23Z" style="fill:#fff"/><path d="M11.51,15.42a.42.42,0,0,0-.38-.25H9.64V8.65a.42.42,0,0,0-.42-.42H4.76a.42.42,0,0,0-.42.42v6.53H2.85a.42.42,0,0,0-.31.69l4.14,4.63a.42.42,0,0,0,.62,0l4.14-4.63A.42.42,0,0,0,11.51,15.42Z" style="fill:#fff"/></g></svg>