<svg xmlns="http://www.w3.org/2000/svg" viewBox="0 0 30 30"><title>pictos-export</title><g id="Calque_1" data-name="Calque 1"><path d="M28.62,25.8l0,0L19.71,4.87a.5.5,0,0,0-.46-.3L2.33,4.48a.46.46,0,0,0-.42.22.5.5,0,0,0,0,.47l8.89,20.93c.43,1,1.09,2.15,2.5,2.16h0c1.26,0,1.66-1.26,2-2.19s.43-1.41.87-1.39,1,.74,1.45,1.52c.6,1,1.29,2.09,2.46,2.09h0c1.26,0,1.66-1.26,2-2.19s.47-1.39.86-1.39h0c.51,0,1,.74,1.45,1.52.6,1,1.29,2.08,2.46,2.09h0a2,2,0,0,0,1.65-.78A1.91,1.91,0,0,0,28.62,25.8ZM9,14.94H12.2l1,2.35H10ZM13.94,8l.92,2.16-3.32,0L10.64,8Zm-2.26,5.7H8.5l-1-2.33h3.2Zm1.33,0L12,11.4l3.33,0,1,2.33ZM16.89,15l1,2.35-3.38,0-1-2.35Zm.81-1.22-1-2.33h2.94l1,2.33ZM21.15,15l1,2.35H19.22l-1-2.35Zm-2-4.79H16.2L15.28,8h2.95ZM9.3,8l.9,2.16H7L6.09,8Zm2.16,12.76-.94-2.24h3.17l.93,2.24Zm4.49,0L15,18.54l3.39,0,.95,2.24Zm4.74,0-.95-2.24h2.91l.94,2.24Z" style="fill:#fff"/></g></svg>