<svg xmlns="http://www.w3.org/2000/svg" viewBox="0 0 25.88 21.35"><defs><style>.cls-1{fill:#1d1d1b;}</style></defs><title>pictos-export-02-s</title><g id="Calque_1" data-name="Calque 1"><path class="cls-1" d="M17.23.5a.5.5,0,0,0-.5-.5H.5A.5.5,0,0,0,0,.5L8.65,20.85a.5.5,0,0,0,.5.5H25.38a.5.5,0,0,0,.5-.5Zm3,12.54H17.32l-1-2.36,2.93,0ZM18.73,9.46l-2.93,0-1-2.33,2.93,0ZM15,10.67,16,13l-3.38,0-1-2.35ZM11.12,9.42l-1-2.33,3.33,0,1,2.33Zm5.2-5.69.91,2.17-2.94,0-.91-2.16ZM12,3.71,13,5.88l-3.33,0L8.73,3.7Zm-7.85,0H7.4l.9,2.17-3.2,0ZM5.61,7.07l3.2,0,1,2.33-3.19,0Zm1.5,3.56,3.18,0,1,2.35L8.1,13Zm2.45,5.82-.94-2.24,3.17,0,.93,2.24Zm4.49,0-.93-2.24,3.39,0,.95,2.24Zm4.74,0-.95-2.23h2.91l.95,2.24Z"/></g></svg>