<svg xmlns="http://www.w3.org/2000/svg" viewBox="0 0 30 30"><title>pictos-export</title><g id="Calque_1" data-name="Calque 1"><path d="M15.34,2.59h-.52a.13.13,0,0,0-.12.12l0,3.47a.13.13,0,0,0,.13.13h.52a.13.13,0,0,0,.13-.12l0-3.46A.13.13,0,0,0,15.34,2.59Z" style="fill:#fff"/><path d="M21.41,4.25a.12.12,0,0,0-.17,0l-1.75,3a.13.13,0,0,0,0,.17l.45.26.06,0h0a.13.13,0,0,0,.08-.06l1.75-3a.13.13,0,0,0,0-.17Z" style="fill:#fff"/><path d="M23.32,11.28a.13.13,0,0,0,.11.06l.06,0,3-1.72a.12.12,0,0,0,0-.17L26.28,9a.12.12,0,0,0-.08-.06.11.11,0,0,0-.09,0l-3,1.72a.12.12,0,0,0-.06.08.13.13,0,0,0,0,.1Z" style="fill:#fff"/><path d="M28.11,15.43a.12.12,0,0,0-.09,0l-3.47,0h0a.12.12,0,0,0-.09,0,.13.13,0,0,0,0,.09V16a.13.13,0,0,0,.12.13l3.46,0h0a.13.13,0,0,0,.13-.12v-.52A.13.13,0,0,0,28.11,15.43Z" style="fill:#fff"/><path d="M23.45,20.19a.12.12,0,0,0-.1,0,.13.13,0,0,0-.08.06l-.26.45a.13.13,0,0,0,0,.17l3,1.75.06,0a.13.13,0,0,0,.11-.06l.26-.45a.13.13,0,0,0,0-.17Z" style="fill:#fff"/><path d="M20.08,23.8a.12.12,0,0,0-.08-.06.11.11,0,0,0-.1,0l-.45.26a.12.12,0,0,0,0,.17l1.72,3a.12.12,0,0,0,.11.06l.06,0,.46-.26a.12.12,0,0,0,.06-.08.13.13,0,0,0,0-.1Z" style="fill:#fff"/><path d="M15.23,25.13h-.52a.13.13,0,0,0-.12.12l0,3.46a.13.13,0,0,0,.13.13h.52a.13.13,0,0,0,.13-.12l0-3.46a.13.13,0,0,0-.12-.13Z" style="fill:#fff"/><path d="M10,23.71a.13.13,0,0,0-.17,0l-1.75,3a.13.13,0,0,0,0,.17l.45.26.06,0h0a.13.13,0,0,0,.08-.06l1.75-3a.13.13,0,0,0,0-.17Z" style="fill:#fff"/><path d="M6.72,20.16a.12.12,0,0,0-.17,0l-3,1.72a.12.12,0,0,0-.06.08.13.13,0,0,0,0,.1l.26.45a.13.13,0,0,0,.11.06l.06,0,3-1.72A.12.12,0,0,0,7,20.71a.13.13,0,0,0,0-.1Z" style="fill:#fff"/><path d="M5.48,16.06a.13.13,0,0,0,.13-.12v-.52a.13.13,0,0,0,0-.09.12.12,0,0,0-.09,0L2,15.27H2a.12.12,0,0,0-.09,0,.13.13,0,0,0,0,.09v.52A.13.13,0,0,0,2,16l3.46,0Z" style="fill:#fff"/><path d="M4,8.83a.13.13,0,0,0-.1,0,.13.13,0,0,0-.08.06l-.26.45a.13.13,0,0,0,0,.17l3,1.75.06,0a.13.13,0,0,0,.11-.06L7,10.75a.13.13,0,0,0,0-.17Z" style="fill:#fff"/><path d="M8.9,4.24a.12.12,0,0,0-.17,0l-.45.26a.12.12,0,0,0-.06.08.12.12,0,0,0,0,.09l1.72,3a.12.12,0,0,0,.08.06h0l.06,0,.45-.26a.12.12,0,0,0,0-.17Z" style="fill:#fff"/><path d="M15.05,7.92A7.8,7.8,0,1,0,15,23.52h0a7.8,7.8,0,0,0,0-15.6Zm2.58,12.57a5.44,5.44,0,0,1-2.62.67h0a5.44,5.44,0,0,1-5.41-5.46,5.48,5.48,0,0,1,.1-1l-.24.23a.37.37,0,0,1-.51-.55l1.33-1.25a.37.37,0,0,1,.35-.09.38.38,0,0,1,.26.25L11.4,15a.38.38,0,0,1-.25.47l-.11,0a.38.38,0,0,1-.36-.27l-.2-.67a4.71,4.71,0,0,0-.16,1.12,4.69,4.69,0,0,0,6.95,4.13.37.37,0,1,1,.36.66Zm2.26-2.6a.38.38,0,0,1-.25.1h-.08a.38.38,0,0,1-.26-.22l-.64-1.57a.38.38,0,1,1,.7-.28l.27.66a4.72,4.72,0,0,0,.08-.81A4.69,4.69,0,0,0,15,11a5,5,0,0,0-1.85.37.38.38,0,0,1-.29-.69A5.43,5.43,0,0,1,15,10.28h0a5.44,5.44,0,0,1,5.41,5.46,5.48,5.48,0,0,1,0,.68l.38-.34a.38.38,0,0,1,.5.56Z" style="fill:#fff"/></g></svg>