<svg xmlns="http://www.w3.org/2000/svg" viewBox="0 0 30 30"><title>pictos-export</title><g id="Calque_1" data-name="Calque 1"><path d="M14.79,2.88h-.52a.13.13,0,0,0-.12.12l0,3.47a.13.13,0,0,0,.13.13h.52a.13.13,0,0,0,.13-.12l0-3.46A.13.13,0,0,0,14.79,2.88Z" style="fill:#1d1d1b"/><path d="M20.86,4.53a.12.12,0,0,0-.17,0l-1.75,3a.13.13,0,0,0,0,.17l.45.26.06,0h0A.13.13,0,0,0,19.61,8l1.75-3a.13.13,0,0,0,0-.17Z" style="fill:#1d1d1b"/><path d="M22.77,11.56a.13.13,0,0,0,.11.06l.06,0,3-1.72a.12.12,0,0,0,0-.17l-.26-.45a.12.12,0,0,0-.08-.06.11.11,0,0,0-.09,0l-3,1.72a.12.12,0,0,0-.06.08.13.13,0,0,0,0,.1Z" style="fill:#1d1d1b"/><path d="M27.56,15.71a.12.12,0,0,0-.09,0l-3.47,0h0a.12.12,0,0,0-.09,0,.13.13,0,0,0,0,.09v.52a.13.13,0,0,0,.12.13l3.46,0h0a.13.13,0,0,0,.13-.12V15.8A.13.13,0,0,0,27.56,15.71Z" style="fill:#1d1d1b"/><path d="M22.9,20.47a.12.12,0,0,0-.1,0,.13.13,0,0,0-.08.06l-.26.45a.13.13,0,0,0,0,.17l3,1.75.06,0a.13.13,0,0,0,.11-.06l.26-.45a.13.13,0,0,0,0-.17Z" style="fill:#1d1d1b"/><path d="M19.53,24.09a.12.12,0,0,0-.08-.06.11.11,0,0,0-.1,0l-.45.26a.12.12,0,0,0,0,.17l1.72,3a.12.12,0,0,0,.11.06l.06,0,.46-.26a.12.12,0,0,0,.06-.08.13.13,0,0,0,0-.1Z" style="fill:#1d1d1b"/><path d="M14.68,25.41h-.52a.13.13,0,0,0-.12.12L14,29a.13.13,0,0,0,.13.13h.52a.13.13,0,0,0,.13-.12l0-3.46a.13.13,0,0,0-.12-.13Z" style="fill:#1d1d1b"/><path d="M9.5,24a.13.13,0,0,0-.17,0L7.58,27a.13.13,0,0,0,0,.17l.45.26.06,0h0a.13.13,0,0,0,.08-.06l1.75-3a.13.13,0,0,0,0-.17Z" style="fill:#1d1d1b"/><path d="M6.17,20.44a.12.12,0,0,0-.17,0L3,22.11a.12.12,0,0,0-.06.08.13.13,0,0,0,0,.1l.26.45a.13.13,0,0,0,.11.06l.06,0,3-1.72A.12.12,0,0,0,6.44,21a.13.13,0,0,0,0-.1Z" style="fill:#1d1d1b"/><path d="M4.93,16.34a.13.13,0,0,0,.13-.12V15.7a.13.13,0,0,0,0-.09.12.12,0,0,0-.09,0l-3.47,0h0a.12.12,0,0,0-.09,0,.13.13,0,0,0,0,.09v.52a.13.13,0,0,0,.12.13l3.46,0Z" style="fill:#1d1d1b"/><path d="M3.43,9.11a.13.13,0,0,0-.1,0,.13.13,0,0,0-.08.06L3,9.61a.13.13,0,0,0,0,.17l3,1.75.06,0a.13.13,0,0,0,.11-.06L6.47,11a.13.13,0,0,0,0-.17Z" style="fill:#1d1d1b"/><path d="M8.35,4.52a.12.12,0,0,0-.17,0l-.45.26a.12.12,0,0,0-.06.08.12.12,0,0,0,0,.09l1.72,3A.12.12,0,0,0,9.48,8h0l.06,0L10,7.7a.12.12,0,0,0,0-.17Z" style="fill:#1d1d1b"/><path d="M14.5,8.2a7.8,7.8,0,1,0-.07,15.6h0a7.8,7.8,0,0,0,0-15.6Zm2.58,12.57a5.44,5.44,0,0,1-2.62.67h0A5.44,5.44,0,0,1,9,16a5.48,5.48,0,0,1,.1-1l-.24.23a.37.37,0,0,1-.51-.55L9.71,13.4a.37.37,0,0,1,.35-.09.38.38,0,0,1,.26.25l.53,1.74a.38.38,0,0,1-.25.47l-.11,0a.38.38,0,0,1-.36-.27l-.2-.67A4.71,4.71,0,0,0,9.78,16a4.69,4.69,0,0,0,6.95,4.13.37.37,0,0,1,.36.66Zm2.26-2.6a.38.38,0,0,1-.25.1H19a.38.38,0,0,1-.26-.22l-.64-1.57a.38.38,0,0,1,.7-.28l.27.66a4.72,4.72,0,0,0,.08-.81,4.69,4.69,0,0,0-4.67-4.71,5,5,0,0,0-1.85.37.38.38,0,0,1-.29-.69,5.43,5.43,0,0,1,2.12-.43h0A5.44,5.44,0,0,1,19.91,16a5.48,5.48,0,0,1,0,.68l.38-.34a.38.38,0,1,1,.5.56Z" style="fill:#1d1d1b"/></g></svg>