<svg xmlns="http://www.w3.org/2000/svg" viewBox="0 0 30 30"><title>pictos-export</title><g id="Calque_1" data-name="Calque 1"><path d="M28.32,25.8l0,0L19.41,4.87a.5.5,0,0,0-.46-.3L2,4.48a.46.46,0,0,0-.42.22.5.5,0,0,0,0,.47l8.89,20.93c.43,1,1.09,2.15,2.5,2.16h0c1.26,0,1.66-1.26,2-2.19s.43-1.41.87-1.39,1,.74,1.45,1.52c.6,1,1.29,2.09,2.46,2.09h0c1.26,0,1.66-1.26,2-2.19s.47-1.39.86-1.39h0c.51,0,1,.74,1.45,1.52.6,1,1.29,2.08,2.46,2.09h0a2,2,0,0,0,1.65-.78A1.91,1.91,0,0,0,28.32,25.8ZM8.71,14.94H11.9l1,2.35H9.7ZM13.64,8l.92,2.16-3.32,0L10.34,8Zm-2.26,5.7H8.2l-1-2.33h3.2Zm1.33,0-1-2.33,3.33,0,1,2.33ZM16.59,15l1,2.35-3.38,0-1-2.35Zm.81-1.22-1-2.33h2.94l1,2.33ZM20.85,15l1,2.35H18.92l-1-2.35Zm-2-4.79H15.9L15,8h2.95ZM9,8l.9,2.16H6.7L5.79,8Zm2.16,12.76-.94-2.24h3.17l.93,2.24Zm4.49,0-.93-2.24,3.39,0,.95,2.24Zm4.74,0-.95-2.24h2.91l.94,2.24Z" style="fill:#1d1d1b"/></g></svg>