<svg xmlns="http://www.w3.org/2000/svg" viewBox="0 0 25.88 21.35"><defs><style>.cls-1{fill:#1d1d1b;}</style></defs><title>pictos-export-02-s</title><g id="Calque_1" data-name="Calque 1"><path class="cls-1" d="M17.23.5a.5.5,0,0,0-.5-.5H.5A.5.5,0,0,0,0,.5L8.65,20.85a.5.5,0,0,0,.5.5H25.38a.5.5,0,0,0,.5-.5Zm2.13,12.06-2,.47-1-2.36,2.93,0Zm-.63-3.1-2.66-.41L15,7.54l2.46-.37ZM15,10.67l.3,1.89L12.61,13l-.3-1.79ZM11.12,9.42l-1-2.33,3.23.45,1.09,1.9Zm5.2-5.69.91,2.17-1.92-.52L13.38,3.72ZM12,3.71l.27,1.84-2.68.31L9.19,4.09Zm-7.85,0H7.4l.24,1.69L5.92,4.81Zm1.91,4,2.52-.11.57,1.62L7.64,9.3Zm1,3L9.92,11,11,12.61,8.1,13Zm2.45,5.82-.37-1.79L11,14.37l1.77,2.1ZM14.64,16l-1.52-1.78,3.39,0,.95,2.24Zm4.15.48L19,14.26h1.77L21.48,16Z"/></g></svg>