<svg xmlns="http://www.w3.org/2000/svg" viewBox="0 0 30 30"><title>pictos-export</title><g id="Calque_1" data-name="Calque 1"><path d="M16.11,16.51a5.3,5.3,0,1,0,5.3,5.3A5.3,5.3,0,0,0,16.11,16.51Zm.23,9.07a2.94,2.94,0,0,1-2.28-1,3.47,3.47,0,0,1-.81-1.93h-.7v-.55h.64v-.17c0-.18,0-.35,0-.51h-.66v-.56h.74a3.56,3.56,0,0,1,.92-1.9A3,3,0,0,1,16.44,18a3.19,3.19,0,0,1,1.49.36l-.22.74a2.58,2.58,0,0,0-1.26-.31,2,2,0,0,0-1.48.62,2.65,2.65,0,0,0-.67,1.43h3.13v.56H14.2c0,.15,0,.31,0,.47v.2h3.26v.55H14.25a2.7,2.7,0,0,0,.62,1.47,2.13,2.13,0,0,0,1.58.65,2.92,2.92,0,0,0,1.37-.37l.19.71A3,3,0,0,1,16.34,25.59Z" style="fill:#fff"/><path d="M28.87,14.76l-.08-.22a2.17,2.17,0,0,0-.67-.95L17.69,5a2.45,2.45,0,0,0-2.18-.48L8.21,6.43,5.34,3.51,1,7.79,5.9,12.73a4.58,4.58,0,0,0,4.42,1.19l7.37-2.2a1.6,1.6,0,0,0,.58-.35l.15-.16a1.6,1.6,0,0,0,.35-1.58,1.54,1.54,0,0,0-.91-1l-.13-.05a1.47,1.47,0,0,0-.92,0l-5.34,1.49a.38.38,0,0,1-.2-.73L16.6,7.83A2.21,2.21,0,0,1,18,7.9l.13.05a2.29,2.29,0,0,1,1.36,1.46A2.36,2.36,0,0,1,19,11.7l6.79,4.75a2.17,2.17,0,0,0,1.24.39h.36a1.56,1.56,0,0,0,1.47-2.08Z" style="fill:#fff"/></g></svg>