<svg xmlns="http://www.w3.org/2000/svg" viewBox="0 0 30 30"><title>pictos-export</title><g id="Calque_1" data-name="Calque 1"><path d="M16.45,16.51a5.3,5.3,0,1,0,5.3,5.3A5.3,5.3,0,0,0,16.45,16.51Zm.23,9.07a2.94,2.94,0,0,1-2.28-1,3.47,3.47,0,0,1-.81-1.93h-.7v-.55h.64v-.17c0-.18,0-.35,0-.51H12.9v-.56h.74a3.56,3.56,0,0,1,.92-1.9A3,3,0,0,1,16.78,18a3.19,3.19,0,0,1,1.49.36l-.22.74a2.58,2.58,0,0,0-1.26-.31,2,2,0,0,0-1.48.62,2.65,2.65,0,0,0-.67,1.43h3.13v.56H14.54c0,.15,0,.31,0,.47v.2h3.26v.55H14.59a2.7,2.7,0,0,0,.62,1.47,2.13,2.13,0,0,0,1.58.65,2.92,2.92,0,0,0,1.37-.37l.19.71A3,3,0,0,1,16.68,25.59Z" style="fill:#1d1d1b"/><path d="M29.21,14.76l-.08-.22a2.17,2.17,0,0,0-.67-.95L18,5a2.45,2.45,0,0,0-2.18-.48L8.55,6.43,5.68,3.51,1.3,7.79l4.94,4.94a4.58,4.58,0,0,0,4.42,1.19L18,11.72a1.6,1.6,0,0,0,.58-.35l.15-.16a1.6,1.6,0,0,0,.35-1.58,1.54,1.54,0,0,0-.91-1l-.13-.05a1.47,1.47,0,0,0-.92,0L11.8,10.05a.38.38,0,0,1-.2-.73l5.34-1.49a2.21,2.21,0,0,1,1.4.07l.13.05a2.29,2.29,0,0,1,1.36,1.46,2.36,2.36,0,0,1-.49,2.29l6.79,4.75a2.17,2.17,0,0,0,1.24.39h.36a1.56,1.56,0,0,0,1.47-2.08Z" style="fill:#1d1d1b"/></g></svg>