<svg xmlns="http://www.w3.org/2000/svg" viewBox="0 0 30 30"><title>pictos-export</title><g id="Calque_1" data-name="Calque 1"><path d="M15,24.61h-.52a.13.13,0,0,0-.12.12l0,3.47a.12.12,0,0,0,.12.13h.52a.13.13,0,0,0,.13-.12l0-3.47A.12.12,0,0,0,15,24.61Z" style="fill:#1d1d1b"/><path d="M14.76,9.11h0a6.13,6.13,0,0,0,0,12.27h0a6.13,6.13,0,0,0,0-12.27Z" style="fill:#1d1d1b"/><path d="M14.77,7.44h0a7.8,7.8,0,0,0,0,15.6h0a7.8,7.8,0,0,0,0-15.6Zm4.75,12.63a6.75,6.75,0,0,1-4.78,2h0a6.8,6.8,0,0,1,0-13.6h0a6.8,6.8,0,0,1,4.75,11.63Z" style="fill:#1d1d1b"/><path d="M14.52,5.79H15a.13.13,0,0,0,.13-.12l0-3.47a.13.13,0,0,0-.12-.13h-.52a.13.13,0,0,0-.12.12l0,3.47a.13.13,0,0,0,.12.13Z" style="fill:#1d1d1b"/><path d="M19.7,7.2l.06,0a.13.13,0,0,0,.11-.06l1.75-3a.13.13,0,0,0,0-.17l-.45-.26a.14.14,0,0,0-.1,0,.13.13,0,0,0-.08.06l-1.75,3a.13.13,0,0,0,0,.09.12.12,0,0,0,.06.08Z" style="fill:#1d1d1b"/><path d="M23,10.76a.12.12,0,0,0,.11.06l.06,0,3-1.72A.12.12,0,0,0,26.27,9a.12.12,0,0,0,0-.09L26,8.46a.12.12,0,0,0-.17,0l-3,1.72a.12.12,0,0,0-.06.08.12.12,0,0,0,0,.09Z" style="fill:#1d1d1b"/><path d="M27.74,14.87l-3.46,0h0a.13.13,0,0,0-.12.12v.52a.13.13,0,0,0,.12.13l3.47,0h0a.13.13,0,0,0,.13-.12V15A.13.13,0,0,0,27.74,14.87Z" style="fill:#1d1d1b"/><path d="M23.16,19.67a.12.12,0,0,0-.17,0l-.26.45a.13.13,0,0,0,0,.09.13.13,0,0,0,.06.08l3,1.75.06,0h0a.13.13,0,0,0,.08-.06l.26-.45a.12.12,0,0,0,0-.17Z" style="fill:#1d1d1b"/><path d="M19.8,23.29a.12.12,0,0,0-.17,0l-.45.26a.12.12,0,0,0,0,.17l1.72,3a.12.12,0,0,0,.11.06l.06,0,.45-.26a.12.12,0,0,0,.06-.08.12.12,0,0,0,0-.09Z" style="fill:#1d1d1b"/><path d="M9.77,23.19a.12.12,0,0,0-.17,0l-1.75,3a.13.13,0,0,0,0,.17l.45.26.06,0h0a.13.13,0,0,0,.08-.06l1.75-3a.12.12,0,0,0,0-.17Z" style="fill:#1d1d1b"/><path d="M6.43,19.64a.12.12,0,0,0-.08-.06.12.12,0,0,0-.09,0l-3,1.72a.12.12,0,0,0,0,.17l.26.45a.12.12,0,0,0,.11.06l.06,0,3-1.72a.12.12,0,0,0,0-.17Z" style="fill:#1d1d1b"/><path d="M5.2,15.54a.13.13,0,0,0,.13-.12v-.52a.13.13,0,0,0-.12-.13l-3.47,0h0a.13.13,0,0,0-.12.12v.52a.13.13,0,0,0,.12.13l3.47,0Z" style="fill:#1d1d1b"/><path d="M3.7,8.31a.12.12,0,0,0-.17,0l-.26.45a.12.12,0,0,0,0,.17l3,1.75.06,0h0a.13.13,0,0,0,.08-.06l.26-.45a.13.13,0,0,0,0-.17Z" style="fill:#1d1d1b"/><path d="M9.67,7.11a.12.12,0,0,0,.11.06l.06,0,.45-.26a.12.12,0,0,0,0-.17l-1.72-3a.12.12,0,0,0-.17,0L8,3.93a.12.12,0,0,0,0,.17Z" style="fill:#1d1d1b"/></g></svg>