<svg xmlns="http://www.w3.org/2000/svg" viewBox="0 0 30 30"><title>pictos-export</title><g id="Calque_1" data-name="Calque 1"><path d="M14.53,24.36a.12.12,0,0,0-.09,0h-.52a.13.13,0,0,0-.12.12l0,3.47a.13.13,0,0,0,.12.13h.52a.13.13,0,0,0,.13-.12l0-3.47A.12.12,0,0,0,14.53,24.36Z" style="fill:#fff"/><path d="M14.25,8.82h0a6.13,6.13,0,0,0,0,12.27h0a6.13,6.13,0,0,0,0-12.27Z" style="fill:#fff"/><path d="M14.26,7.16h0a7.8,7.8,0,0,0,0,15.6h0a7.8,7.8,0,0,0,0-15.6ZM19,19.79a6.75,6.75,0,0,1-4.78,2h0a6.8,6.8,0,0,1,0-13.6h0A6.8,6.8,0,0,1,19,19.79Z" style="fill:#fff"/><path d="M14,5.5h.52a.13.13,0,0,0,.13-.12l0-3.47a.13.13,0,0,0-.12-.13H14a.13.13,0,0,0-.12.12l0,3.47A.13.13,0,0,0,14,5.5Z" style="fill:#fff"/><path d="M19.19,6.92l.06,0a.13.13,0,0,0,.11-.06l1.75-3a.13.13,0,0,0,0-.17l-.45-.26a.14.14,0,0,0-.1,0,.13.13,0,0,0-.08.06l-1.75,3a.13.13,0,0,0,0,.09.12.12,0,0,0,.06.08Z" style="fill:#fff"/><path d="M22.53,10.47a.12.12,0,0,0,.11.06l.06,0,3-1.72a.12.12,0,0,0,.06-.08.12.12,0,0,0,0-.09l-.26-.45a.12.12,0,0,0-.17,0l-3,1.72a.12.12,0,0,0-.06.08.12.12,0,0,0,0,.09Z" style="fill:#fff"/><path d="M27.23,14.59l-3.46,0h0a.13.13,0,0,0-.12.12v.52a.13.13,0,0,0,.12.13l3.47,0h0a.13.13,0,0,0,.13-.12v-.52A.13.13,0,0,0,27.23,14.59Z" style="fill:#fff"/><path d="M22.66,19.39a.12.12,0,0,0-.17,0l-.26.45a.13.13,0,0,0,0,.09.13.13,0,0,0,.06.08l3,1.75.06,0h0a.13.13,0,0,0,.08-.06l.26-.45a.12.12,0,0,0,0-.17Z" style="fill:#fff"/><path d="M19.29,23a.12.12,0,0,0-.17,0l-.45.26a.12.12,0,0,0,0,.17l1.72,3a.12.12,0,0,0,.11.06l.06,0,.45-.26a.12.12,0,0,0,.06-.08A.12.12,0,0,0,21,26Z" style="fill:#fff"/><path d="M9.26,22.91a.12.12,0,0,0-.17,0l-1.75,3a.13.13,0,0,0,0,.17l.45.26.06,0h0A.13.13,0,0,0,8,26.34l1.75-3a.12.12,0,0,0,0-.17Z" style="fill:#fff"/><path d="M5.93,19.35a.12.12,0,0,0-.08-.06.12.12,0,0,0-.09,0L2.75,21a.12.12,0,0,0,0,.17l.26.45a.12.12,0,0,0,.11.06l.06,0,3-1.72a.12.12,0,0,0,0-.17Z" style="fill:#fff"/><path d="M4.69,15.26a.13.13,0,0,0,.13-.12v-.52a.13.13,0,0,0-.12-.13l-3.47,0h0a.13.13,0,0,0-.12.12v.52a.13.13,0,0,0,.12.13l3.47,0Z" style="fill:#fff"/><path d="M3.19,8a.12.12,0,0,0-.17,0l-.26.45a.12.12,0,0,0,0,.17l3,1.75.06,0h0A.13.13,0,0,0,6,10.4l.26-.45a.13.13,0,0,0,0-.17Z" style="fill:#fff"/><path d="M9.16,6.83a.12.12,0,0,0,.11.06l.06,0,.45-.26a.12.12,0,0,0,0-.17l-1.72-3a.12.12,0,0,0-.17,0l-.45.26a.12.12,0,0,0,0,.17Z" style="fill:#fff"/></g></svg>