<svg xmlns="http://www.w3.org/2000/svg" viewBox="0 0 30 30"><title>pictos-export</title><g id="Calque_1" data-name="Calque 1"><path d="M28.12,19.75,21.54,16a.49.49,0,0,0,.33-.55.51.51,0,0,0-.58-.41,3.46,3.46,0,0,1-2.6-.77c-1.16-1-1.75-2.76-1.76-5.31h0a.54.54,0,0,0-.16-.37c-.17-.17-.39-.37-6.81-.16a.5.5,0,0,0-.48.44,15.7,15.7,0,0,0,0,3.32L1.81,13.6a.5.5,0,0,0-.41.49v2.32a.49.49,0,0,0,0,.22h0a.5.5,0,0,0,.13.16l.05,0,0,0,11.63,6.59a.5.5,0,0,0,.25.06h.1L28,20.67a.5.5,0,0,0,.15-.92ZM11.2,16a2.57,2.57,0,0,0,.7.34,9.12,9.12,0,0,0,2,.3v1.34L11.2,16.39Zm8,.38v1.15l-1.71-1C18.11,16.46,18.69,16.4,19.21,16.33Zm-9.6-3.17a6.88,6.88,0,0,0,.33,1.12L2.4,15.8V14.5Zm4,9.31L3.31,16.64l6.9-1.38v1.42a.5.5,0,0,0,.25.44l3.71,2.12a.5.5,0,0,0,.75-.43V16.62h.8l0,0,3.71,2.12a.5.5,0,0,0,.75-.43v-2L26.46,20Z" style="fill:#1d1d1b"/></g></svg>