<svg xmlns="http://www.w3.org/2000/svg" viewBox="0 0 30 30"><title>pictos-export</title><g id="Calque_1" data-name="Calque 1"><path d="M28.67,19.47l-6.58-3.77a.49.49,0,0,0,.33-.55.51.51,0,0,0-.58-.41,3.46,3.46,0,0,1-2.6-.77c-1.16-1-1.75-2.76-1.76-5.31h0a.54.54,0,0,0-.16-.37c-.17-.17-.39-.37-6.81-.16a.5.5,0,0,0-.48.44,15.7,15.7,0,0,0,0,3.32L2.36,13.31A.5.5,0,0,0,2,13.8v2.32a.49.49,0,0,0,0,.22H2a.5.5,0,0,0,.13.16l.05,0,0,0,11.63,6.59a.5.5,0,0,0,.25.06h.1l14.36-2.82a.5.5,0,0,0,.15-.92ZM11.75,15.67a2.57,2.57,0,0,0,.7.34,9.12,9.12,0,0,0,2,.3v1.34L11.75,16.1Zm8,.38V17.2l-1.71-1C18.66,16.17,19.24,16.11,19.76,16.05Zm-9.6-3.17A6.88,6.88,0,0,0,10.49,14L2.95,15.52v-1.3Zm4,9.31L3.86,16.35,10.76,15v1.42a.5.5,0,0,0,.25.44l3.71,2.12a.5.5,0,0,0,.75-.43V16.34h.8l0,0L20,18.5a.5.5,0,0,0,.75-.43v-2L27,19.67Z" style="fill:#fff"/></g></svg>