<svg xmlns="http://www.w3.org/2000/svg" viewBox="0 0 26.9 23.85"><defs><style>.cls-1{fill:#1d1d1b;}</style></defs><title>pictos-export-02-s</title><g id="Calque_1" data-name="Calque 1"><path class="cls-1" d="M26.79,21.32s0,0,0-.05L17.88.38a.51.51,0,0,0-.46-.3L.5,0h0A.51.51,0,0,0,.08.22.51.51,0,0,0,0,.7L8.93,21.62c.43,1,1.1,2.16,2.5,2.16h0c1.26,0,1.64-1.21,2-2.18s.48-1.39.87-1.39h0c.51,0,1,.73,1.45,1.51.6,1,1.29,2.09,2.46,2.09h0c1.26,0,1.64-1.21,1.95-2.18s.47-1.39.87-1.39h0c.51,0,1,.73,1.44,1.51.61,1,1.29,2.09,2.47,2.1h0a2,2,0,0,0,1.65-.78A2,2,0,0,0,26.79,21.32ZM10.47,16,5.36,4l9.92,0,5.11,12Z"/></g></svg>