<svg xmlns="http://www.w3.org/2000/svg" viewBox="0 0 30 30"><title>pictos-export</title><g id="Calque_1" data-name="Calque 1"><path d="M28.32,25.31l0,0L19.41,4.37a.5.5,0,0,0-.46-.3L2,4a.41.41,0,0,0-.42.22.5.5,0,0,0,0,.47l8.89,20.93c.43,1,1.09,2.15,2.5,2.16h0c1.26,0,1.66-1.26,2-2.19s.47-1.39.86-1.39h0c.51,0,1,.74,1.45,1.52.6,1,1.29,2.09,2.46,2.09h0c1.26,0,1.66-1.26,2-2.19s.47-1.39.86-1.39h0c.51,0,1,.74,1.45,1.52.6,1,1.29,2.08,2.46,2.09h0a2,2,0,0,0,1.65-.78A1.91,1.91,0,0,0,28.32,25.31ZM17.47,7.17l6,14.08-11.66-.05-6-14.08Z" style="fill:#1d1d1b"/></g></svg>