<svg xmlns="http://www.w3.org/2000/svg" viewBox="0 0 13.95 22.89"><defs><style>.cls-1{fill:#1d1d1b;}</style></defs><title>pictos-export-02-s</title><g id="Calque_1" data-name="Calque 1"><polygon class="cls-1" points="7.49 9.69 7.49 11.41 7.94 11.81 7.49 9.69"/><polygon class="cls-1" points="6.49 11.42 6.49 9.7 6.04 11.82 6.49 11.42"/><polygon class="cls-1" points="5.05 16.55 6.49 15.27 6.49 12.76 5.7 13.48 5.05 16.55"/><polygon class="cls-1" points="6.49 17.58 6.49 16.6 5.39 17.58 6.49 17.58"/><path class="cls-1" d="M12.85,11,7.42.25a.52.52,0,0,0-.89,0L1.23,10.77A11.39,11.39,0,0,0,0,15.92a7,7,0,0,0,7,7,5.78,5.78,0,0,0,.83-.05A7.11,7.11,0,0,0,14,15.65,10.35,10.35,0,0,0,12.85,11Zm-2.66,9h-.11a.5.5,0,0,1-.49-.4l-.22-1.05H7.49v1.11a.5.5,0,0,1-.5.5.5.5,0,0,1-.5-.5V18.58H4.62l-.23,1.05a.49.49,0,0,1-.48.4H3.8a.49.49,0,0,1-.38-.59L6.11,6.66H5.43a.5.5,0,0,1,0-1H8.68a.5.5,0,0,1,0,1h-.8l2.69,12.77A.49.49,0,0,1,10.19,20Z"/><polygon class="cls-1" points="7.49 12.76 7.49 15.26 8.94 16.55 8.29 13.47 7.49 12.76"/><polygon class="cls-1" points="7.49 17.58 8.6 17.58 7.49 16.6 7.49 17.58"/></g></svg>