<svg xmlns="http://www.w3.org/2000/svg" viewBox="0 0 30 30"><title>pictos-export</title><g id="Calque_1" data-name="Calque 1"><path d="M21.16,14.36,15.74,3.6a.52.52,0,0,0-.89,0L9.54,14.12a11.49,11.49,0,0,0-1.23,5.15,7,7,0,0,0,7.82,6.93A7.12,7.12,0,0,0,22.27,19,10.35,10.35,0,0,0,21.16,14.36ZM13.7,16.75a3.86,3.86,0,0,1,0,3.48,2.57,2.57,0,0,0-.32,1.31.5.5,0,0,1-1,0,3.52,3.52,0,0,1,.41-1.74,2.86,2.86,0,0,0,0-2.61,3.52,3.52,0,0,1-.41-1.74,3.52,3.52,0,0,1,.42-1.74,2.57,2.57,0,0,0,.32-1.3.5.5,0,1,1,1,0,3.52,3.52,0,0,1-.41,1.74,2.85,2.85,0,0,0,0,2.61Zm4.09,0a3.86,3.86,0,0,1,0,3.48,2.57,2.57,0,0,0-.32,1.31.5.5,0,0,1-1,0,3.52,3.52,0,0,1,.41-1.74,2.86,2.86,0,0,0,0-2.61,3.52,3.52,0,0,1-.41-1.74,3.52,3.52,0,0,1,.42-1.74,2.57,2.57,0,0,0,.32-1.3.5.5,0,1,1,1,0,3.52,3.52,0,0,1-.41,1.74,2.85,2.85,0,0,0,0,2.61Z" style="fill:#1d1d1b"/></g></svg>