<svg xmlns="http://www.w3.org/2000/svg" viewBox="0 0 30 30"><title>pictos-export</title><g id="Calque_1" data-name="Calque 1"><path d="M21.09,14.39,15.82,3.81a.5.5,0,0,0-.45-.28h0a.5.5,0,0,0-.45.27L9.67,14.1a11.28,11.28,0,0,0-1.23,5A6.85,6.85,0,0,0,15.32,26a7,7,0,0,0,.78,0,7,7,0,0,0,6.06-7A10.15,10.15,0,0,0,21.09,14.39ZM17,15.83A2,2,0,0,1,17,14a1.12,1.12,0,0,0,.14-.58.38.38,0,0,1,.38-.37h0a.37.37,0,0,1,.37.38,1.85,1.85,0,0,1-.22.91,1.26,1.26,0,0,0,0,1.16,1.87,1.87,0,0,1,.21.91,1.85,1.85,0,0,1-.22.91,1.14,1.14,0,0,0-.14.58.38.38,0,0,1-.37.37h0a.38.38,0,0,1-.37-.38A1.87,1.87,0,0,1,17,17a1.27,1.27,0,0,0,0-1.17Zm-2,0A2,2,0,0,1,15,14a1.11,1.11,0,0,0,.14-.58.38.38,0,0,1,.38-.37h0a.37.37,0,0,1,.37.38,1.86,1.86,0,0,1-.22.91,1.26,1.26,0,0,0,0,1.16,1.87,1.87,0,0,1,.21.91,1.85,1.85,0,0,1-.22.91,1.13,1.13,0,0,0-.14.58.38.38,0,0,1-.37.37h0a.38.38,0,0,1-.37-.38A1.86,1.86,0,0,1,15,17a1.27,1.27,0,0,0,0-1.17Zm-2,0A2,2,0,0,1,13,14a1.11,1.11,0,0,0,.14-.58.38.38,0,0,1,.38-.37h0a.37.37,0,0,1,.37.38,1.86,1.86,0,0,1-.22.91,1.26,1.26,0,0,0,0,1.16,2,2,0,0,1,0,1.82,1.13,1.13,0,0,0-.14.58.38.38,0,0,1-.37.37h0a.38.38,0,0,1-.37-.38A1.86,1.86,0,0,1,13,17a1.27,1.27,0,0,0,0-1.17Zm5.5,4.42h0l-6.35,0a.38.38,0,0,1,0-.75h0l6.35,0a.38.38,0,0,1,0,.75Z" style="fill:#1d1d1b"/></g></svg>