<svg xmlns="http://www.w3.org/2000/svg" viewBox="0 0 13.95 22.89"><defs><style>.cls-1{fill:#1d1d1b;}</style></defs><title>pictos-export-02-s</title><g id="Calque_1" data-name="Calque 1"><path class="cls-1" d="M12.85,11,7.42.25a.52.52,0,0,0-.89,0L1.23,10.77A11.39,11.39,0,0,0,0,15.92a7,7,0,0,0,7,7,5.78,5.78,0,0,0,.83-.05A7.11,7.11,0,0,0,14,15.65,10.35,10.35,0,0,0,12.85,11Zm-2.19,6.44a2.25,2.25,0,0,1-1.38.84,1.81,1.81,0,0,1-.31.54,2.21,2.21,0,0,1-3,.5,2.1,2.1,0,0,1-3-2.52,2.15,2.15,0,0,1-.56-1.43,2.11,2.11,0,0,1,1.29-1.94c0-.11,0-.21,0-.31a2.25,2.25,0,0,1,3.76-1.68A2.64,2.64,0,0,1,8,11.37a2.22,2.22,0,0,1,2.22,2.07A2.1,2.1,0,0,1,11,16.81,2.08,2.08,0,0,1,10.66,17.45Z"/></g></svg>