<svg xmlns="http://www.w3.org/2000/svg" viewBox="0 0 13.95 22.89"><defs><style>.cls-1{fill:#1d1d1b;}</style></defs><title>pictos-export-02-s</title><g id="Calque_1" data-name="Calque 1"><path class="cls-1" d="M12.85,11,7.42.25a.52.52,0,0,0-.89,0L1.23,10.77A11.39,11.39,0,0,0,0,15.92a7,7,0,0,0,7,7,5.78,5.78,0,0,0,.83-.05A7.11,7.11,0,0,0,14,15.65,10.35,10.35,0,0,0,12.85,11Zm-1.25.88L4.52,19.25a.21.21,0,0,1-.12.05.17.17,0,0,1-.14-.06.19.19,0,0,1,0-.26l2.3-5.58-2.44,0a.21.21,0,0,1-.17-.1.23.23,0,0,1,0-.2L5.77,8.65A.2.2,0,0,1,6,8.55l3.54,0a.13.13,0,0,1,.15.1.29.29,0,0,1,0,.24L7.72,11.52l3.76,0a.19.19,0,0,1,.18.13A.19.19,0,0,1,11.6,11.89Z"/></g></svg>