<svg xmlns="http://www.w3.org/2000/svg" viewBox="0 0 30 30"><title>pictos-export</title><g id="Calque_1" data-name="Calque 1"><path d="M20.87,14.1,15.59,3.53a.5.5,0,0,0-.45-.28h0a.5.5,0,0,0-.45.27L9.45,13.81a11.28,11.28,0,0,0-1.23,5,6.85,6.85,0,0,0,6.87,6.88,7,7,0,0,0,.78,0,7,7,0,0,0,6.06-7A10.15,10.15,0,0,0,20.87,14.1Zm-4.06,1.44a2,2,0,0,1,0-1.81,1.12,1.12,0,0,0,.14-.58.38.38,0,0,1,.38-.37h0a.37.37,0,0,1,.37.38,1.85,1.85,0,0,1-.22.91,1.26,1.26,0,0,0,0,1.16,1.87,1.87,0,0,1,.21.91,1.85,1.85,0,0,1-.22.91,1.14,1.14,0,0,0-.14.58A.38.38,0,0,1,17,18h0a.38.38,0,0,1-.37-.38,1.87,1.87,0,0,1,.22-.91,1.27,1.27,0,0,0,0-1.17Zm-2,0a2,2,0,0,1,0-1.81,1.11,1.11,0,0,0,.14-.58.38.38,0,0,1,.38-.37h0a.37.37,0,0,1,.37.38,1.86,1.86,0,0,1-.22.91,1.26,1.26,0,0,0,0,1.16,1.87,1.87,0,0,1,.21.91,1.85,1.85,0,0,1-.22.91,1.13,1.13,0,0,0-.14.58A.38.38,0,0,1,15,18h0a.38.38,0,0,1-.37-.38,1.86,1.86,0,0,1,.22-.91,1.27,1.27,0,0,0,0-1.17Zm-2,0a2,2,0,0,1,0-1.81,1.11,1.11,0,0,0,.14-.58.38.38,0,0,1,.38-.37h0a.37.37,0,0,1,.37.38,1.86,1.86,0,0,1-.22.91,1.26,1.26,0,0,0,0,1.16,2,2,0,0,1,0,1.82,1.13,1.13,0,0,0-.14.58A.38.38,0,0,1,13,18h0a.38.38,0,0,1-.37-.38,1.86,1.86,0,0,1,.22-.91,1.27,1.27,0,0,0,0-1.17Zm5.5,4.42h0l-6.35,0a.38.38,0,0,1,0-.75h0l6.35,0a.38.38,0,0,1,0,.75Z" style="fill:#fff"/></g></svg>