<svg xmlns="http://www.w3.org/2000/svg" viewBox="0 0 13.95 22.89"><defs><style>.cls-1{fill:#1d1d1b;}</style></defs><title>pictos-export-02-s</title><g id="Calque_1" data-name="Calque 1"><path class="cls-1" d="M12.8,11,7.37.25a.52.52,0,0,0-.89,0L1.17,10.77A11.51,11.51,0,0,0,0,15.92a7,7,0,0,0,7,7,5.78,5.78,0,0,0,.83-.05,7.11,7.11,0,0,0,6.13-7.19A10.35,10.35,0,0,0,12.8,11ZM5.92,18h0a1.9,1.9,0,0,1-3.23-1.35h0v-.1h0a1.84,1.84,0,0,1,.55-1.23h0a1.7,1.7,0,0,1,1.34-.55,1.85,1.85,0,0,1,1.34.57A1.9,1.9,0,0,1,5.92,18Zm4.67-4.62L7.47,16.43a2.85,2.85,0,0,0-2.67-2.7l3.13-3.09a1.89,1.89,0,0,1,1.33-.54h0a1.86,1.86,0,0,1,1.34.56A1.89,1.89,0,0,1,11.16,12,1.82,1.82,0,0,1,10.59,13.34Z"/></g></svg>